<svg xmlns="http://www.w3.org/2000/svg" xmlns:xlink="http://www.w3.org/1999/xlink" viewBox="0 0 2912.26 2958.8"><defs><style>.cls-1{fill:url(#linear-gradient);}.cls-2{fill:url(#linear-gradient-2);}.cls-3{isolation:isolate;}.cls-4,.cls-57{fill:#f4f7fa;}.cls-5{clip-path:url(#clip-path);}.cls-6,.cls-9{fill:#fff;}.cls-6,.cls-8{opacity:0.7;mix-blend-mode:soft-light;}.cls-7{clip-path:url(#clip-path-2);}.cls-10{fill:url(#linear-gradient-5);}.cls-11{fill:url(#linear-gradient-6);}.cls-12{fill:url(#linear-gradient-7);}.cls-13{fill:url(#linear-gradient-8);}.cls-14{fill:url(#linear-gradient-11);}.cls-15{fill:url(#linear-gradient-12);}.cls-16{fill:url(#linear-gradient-13);}.cls-17{fill:url(#linear-gradient-14);}.cls-18{fill:url(#linear-gradient-17);}.cls-19{fill:url(#linear-gradient-18);}.cls-20{fill:url(#linear-gradient-19);}.cls-21{fill:url(#linear-gradient-20);}.cls-22{fill:url(#linear-gradient-23);}.cls-23{fill:url(#linear-gradient-24);}.cls-24{fill:url(#linear-gradient-25);}.cls-25{fill:url(#linear-gradient-26);}.cls-26{fill:url(#linear-gradient-29);}.cls-27{fill:url(#linear-gradient-30);}.cls-28{fill:url(#linear-gradient-31);}.cls-29{fill:url(#linear-gradient-32);}.cls-30{fill:url(#linear-gradient-35);}.cls-31{fill:url(#linear-gradient-36);}.cls-32{fill:url(#linear-gradient-37);}.cls-33{fill:url(#linear-gradient-38);}.cls-34{fill:url(#linear-gradient-41);}.cls-35{fill:url(#linear-gradient-42);}.cls-36{fill:url(#linear-gradient-43);}.cls-37{fill:url(#linear-gradient-44);}.cls-38{fill:#b7c0ce;}.cls-39,.cls-40{fill:#ebeff2;}.cls-40,.cls-51,.cls-62{opacity:0.3;mix-blend-mode:multiply;}.cls-41{fill:#d8dee8;}.cls-42{fill:url(#linear-gradient-47);}.cls-43{fill:url(#linear-gradient-48);}.cls-44{fill:url(#linear-gradient-49);}.cls-45{fill:url(#linear-gradient-50);}.cls-46{fill:url(#linear-gradient-51);}.cls-47{fill:url(#linear-gradient-52);}.cls-48{fill:url(#linear-gradient-53);}.cls-49{fill:url(#linear-gradient-54);}.cls-50{fill:url(#linear-gradient-55);}.cls-51{fill:url(#linear-gradient-56);}.cls-52{fill:url(#linear-gradient-57);}.cls-53{fill:url(#linear-gradient-58);}.cls-54{fill:url(#linear-gradient-59);}.cls-55{fill:url(#linear-gradient-60);}.cls-56{fill:url(#linear-gradient-61);}.cls-57{opacity:0.81;}.cls-58{fill:url(#linear-gradient-62);}.cls-59{fill:url(#linear-gradient-63);}.cls-60{fill:url(#linear-gradient-64);}.cls-61{fill:url(#linear-gradient-65);}.cls-62{fill:url(#linear-gradient-66);}.cls-63{fill:url(#linear-gradient-67);}.cls-64{fill:url(#linear-gradient-68);}.cls-65{fill:url(#linear-gradient-69);}.cls-66{fill:url(#linear-gradient-70);}.cls-67{fill:url(#linear-gradient-71);}.cls-68{fill:url(#linear-gradient-72);}.cls-69{fill:#bfc6d1;}</style><linearGradient id="linear-gradient" x1="571.42" y1="989.21" x2="890.24" y2="2110.56" gradientUnits="userSpaceOnUse"><stop offset="0" stop-color="#aa80f9"/><stop offset="1" stop-color="#6165d7"/></linearGradient><linearGradient id="linear-gradient-2" x1="1212.22" y1="466.85" x2="1823.47" y2="4374.45" gradientUnits="userSpaceOnUse"><stop offset="0" stop-color="#e38ddd"/><stop offset="1" stop-color="#9571f6"/></linearGradient><clipPath id="clip-path" transform="translate(-390.33 -367.68)"><path class="cls-1" d="M1432.1,2693.45c62-101.62,6.65-273.67-63.1-375.07-81.43-118.37-149.75-92.92-205.92-189.91-104.58-180.59,89.38-342.87-1.64-533.35-74.41-155.71-232.27-106.34-306.82-282.53-53.8-127.14,2.54-213.95-80.76-309.18-7.12-8.14-85.17-94.83-182.08-81.11C494,936.16,434.15,1044.21,413.87,1119.19c-37.47,138.6,54.58,184.85,70.45,365.45,21.6,245.88-136.24,305.68-82.92,483.44,44,146.79,161.83,139.87,207.42,303.59,42.34,152-43.85,213.25-5.56,312.81C691.33,2813.5,1305.55,2900.73,1432.1,2693.45Z"/></clipPath><clipPath id="clip-path-2" transform="translate(-390.33 -367.68)"><path class="cls-2" d="M1714.81,2427c21.82.14,69.41-18.78,79.78-28.83,69-66.87,206.4-183.67,214.13-285,1.33-17.3-73.21-43.66-81.82-60.87-43.45-28.34-60.27-35.48-88.34-82.71-82.86-139.44,177.24-344.78-76.73-463.89-186-87.26-359.22-42.62-297.33-341.41s-102.58-880.93-449.68-713.81c-199.19,95.9-48.5,377.62-168.26,554-113.81,167.63-57.71,326,118.61,459.85s63,202.93-15.7,366.24c-94.57,196.16,216.19,275.43,362.78,299.79C1430.3,2150.06,1717.65,2279.65,1714.81,2427Z"/></clipPath><linearGradient id="linear-gradient-5" x1="1847.83" y1="2089.77" x2="2599.1" y2="2679" gradientUnits="userSpaceOnUse"><stop offset="0" stop-color="#ff9085"/><stop offset="1" stop-color="#fb6fbb"/></linearGradient><linearGradient id="linear-gradient-6" x1="3859.01" y1="2651.16" x2="1674.45" y2="2290.66" gradientTransform="matrix(1, 0.02, 0, 1, 0, -26.7)" gradientUnits="userSpaceOnUse"><stop offset="0" stop-color="#311944"/><stop offset="1" stop-color="#893976"/></linearGradient><linearGradient id="linear-gradient-7" x1="2390.86" y1="2528.35" x2="2384.45" y2="2201.26" gradientTransform="matrix(1, 0.02, 0, 1, 0, -26.7)" xlink:href="#linear-gradient-5"/><linearGradient id="linear-gradient-8" x1="1462.85" y1="1714.66" x2="2209.24" y2="2300.07" xlink:href="#linear-gradient-5"/><linearGradient id="linear-gradient-11" x1="1848.08" y1="1829.3" x2="2600.23" y2="2419.23" xlink:href="#linear-gradient-5"/><linearGradient id="linear-gradient-12" x1="3859.01" y1="2390.89" x2="1674.45" y2="2030.39" xlink:href="#linear-gradient-6"/><linearGradient id="linear-gradient-13" x1="2390.86" y1="2268.08" x2="2384.45" y2="1940.99" gradientTransform="matrix(1, 0.02, 0, 1, 0, -26.7)" xlink:href="#linear-gradient-5"/><linearGradient id="linear-gradient-14" x1="1462.85" y1="1454.39" x2="2209.24" y2="2039.8" xlink:href="#linear-gradient-5"/><linearGradient id="linear-gradient-17" x1="1848.08" y1="1568.39" x2="2600.23" y2="2158.32" xlink:href="#linear-gradient-5"/><linearGradient id="linear-gradient-18" x1="3859.01" y1="2129.98" x2="1674.45" y2="1769.48" xlink:href="#linear-gradient-6"/><linearGradient id="linear-gradient-19" x1="2390.86" y1="2007.17" x2="2384.45" y2="1680.08" gradientTransform="matrix(1, 0.02, 0, 1, 0, -26.7)" xlink:href="#linear-gradient-5"/><linearGradient id="linear-gradient-20" x1="1462.85" y1="1193.48" x2="2209.24" y2="1778.89" xlink:href="#linear-gradient-5"/><linearGradient id="linear-gradient-23" x1="1848.08" y1="1307.48" x2="2600.23" y2="1897.41" xlink:href="#linear-gradient-5"/><linearGradient id="linear-gradient-24" x1="3859.01" y1="1869.07" x2="1674.45" y2="1508.57" xlink:href="#linear-gradient-6"/><linearGradient id="linear-gradient-25" x1="2390.86" y1="1746.26" x2="2384.45" y2="1419.17" gradientTransform="matrix(1, 0.02, 0, 1, 0, -26.7)" xlink:href="#linear-gradient-5"/><linearGradient id="linear-gradient-26" x1="1462.85" y1="932.57" x2="2209.24" y2="1517.98" xlink:href="#linear-gradient-5"/><linearGradient id="linear-gradient-29" x1="1848.08" y1="1046.57" x2="2600.23" y2="1636.5" xlink:href="#linear-gradient-5"/><linearGradient id="linear-gradient-30" x1="3859.01" y1="1608.16" x2="1674.45" y2="1247.66" xlink:href="#linear-gradient-6"/><linearGradient id="linear-gradient-31" x1="2390.86" y1="1485.35" x2="2384.45" y2="1158.26" gradientTransform="matrix(1, 0.02, 0, 1, 0, -26.7)" xlink:href="#linear-gradient-5"/><linearGradient id="linear-gradient-32" x1="1462.85" y1="671.66" x2="2209.24" y2="1257.07" xlink:href="#linear-gradient-5"/><linearGradient id="linear-gradient-35" x1="1848.08" y1="785.66" x2="2600.23" y2="1375.59" xlink:href="#linear-gradient-5"/><linearGradient id="linear-gradient-36" x1="3859.01" y1="1347.25" x2="1674.45" y2="986.75" xlink:href="#linear-gradient-6"/><linearGradient id="linear-gradient-37" x1="2390.86" y1="1224.44" x2="2384.45" y2="897.35" gradientTransform="matrix(1, 0.02, 0, 1, 0, -26.7)" xlink:href="#linear-gradient-5"/><linearGradient id="linear-gradient-38" x1="1462.85" y1="410.75" x2="2209.24" y2="996.16" xlink:href="#linear-gradient-5"/><linearGradient id="linear-gradient-41" x1="1848.08" y1="524.75" x2="2600.23" y2="1114.68" xlink:href="#linear-gradient-5"/><linearGradient id="linear-gradient-42" x1="3859.01" y1="1086.34" x2="1674.45" y2="725.84" xlink:href="#linear-gradient-6"/><linearGradient id="linear-gradient-43" x1="2390.86" y1="963.53" x2="2384.45" y2="636.44" gradientTransform="matrix(1, 0.02, 0, 1, 0, -26.7)" xlink:href="#linear-gradient-5"/><linearGradient id="linear-gradient-44" x1="1462.85" y1="149.84" x2="2209.24" y2="735.25" xlink:href="#linear-gradient-5"/><linearGradient id="linear-gradient-47" x1="-774.29" y1="2624.69" x2="-940.78" y2="2407.75" gradientTransform="matrix(-1, 0, 0, 1, 230.29, 0)" gradientUnits="userSpaceOnUse"><stop offset="0" stop-color="#ab316d"/><stop offset="1" stop-color="#792d3d"/></linearGradient><linearGradient id="linear-gradient-48" x1="-1147.03" y1="2251.52" x2="-913.29" y2="1631.92" xlink:href="#linear-gradient-47"/><linearGradient id="linear-gradient-49" x1="-1219.9" y1="2442.11" x2="-1221.72" y2="2596.34" xlink:href="#linear-gradient-47"/><linearGradient id="linear-gradient-50" x1="-1828.33" y1="3025.82" x2="-1696.75" y2="3025.82" gradientTransform="matrix(-1, 0, 0, 1, 230.29, 0)" gradientUnits="userSpaceOnUse"><stop offset="0" stop-color="#311944"/><stop offset="1" stop-color="#6b3976"/></linearGradient><linearGradient id="linear-gradient-51" x1="-1737.67" y1="3018.35" x2="-1628.78" y2="2691.66" gradientTransform="matrix(-1, 0, 0, 1, 230.29, 0)" gradientUnits="userSpaceOnUse"><stop offset="0" stop-color="#ffc444"/><stop offset="1" stop-color="#f36f56"/></linearGradient><linearGradient id="linear-gradient-52" x1="-1583.49" y1="3081.43" x2="-1451.92" y2="3081.43" xlink:href="#linear-gradient-50"/><linearGradient id="linear-gradient-53" x1="-1492.83" y1="3073.96" x2="-1383.94" y2="2747.27" xlink:href="#linear-gradient-51"/><linearGradient id="linear-gradient-54" x1="1417.53" y1="2531.68" x2="1876.55" y2="2580.94" gradientUnits="userSpaceOnUse"><stop offset="0" stop-color="#26264f"/><stop offset="1" stop-color="#444b8c"/></linearGradient><linearGradient id="linear-gradient-55" x1="1357.99" y1="2655.9" x2="1680.83" y2="2690.54" xlink:href="#linear-gradient-54"/><linearGradient id="linear-gradient-56" x1="1313.74" y1="2296.13" x2="1531.68" y2="2020.17" xlink:href="#linear-gradient-5"/><linearGradient id="linear-gradient-57" x1="1721.69" y1="1502.14" x2="1732.15" y2="1223.47" gradientTransform="translate(399.6 -184.89) rotate(23.5)" xlink:href="#linear-gradient-51"/><linearGradient id="linear-gradient-58" x1="708.95" y1="1596.59" x2="637.47" y2="1415.04" gradientTransform="matrix(-0.97, -0.25, -0.25, 0.97, 2456.19, 427.31)" xlink:href="#linear-gradient-50"/><linearGradient id="linear-gradient-59" x1="771.49" y1="1464.83" x2="768.29" y2="1722.49" gradientTransform="matrix(0.98, 0.19, -0.19, 0.98, 983.78, 102.06)" xlink:href="#linear-gradient-51"/><linearGradient id="linear-gradient-60" x1="687.11" y1="1601.62" x2="618.2" y2="1426.59" gradientTransform="matrix(-0.97, -0.25, -0.25, 0.97, 2456.19, 427.31)" xlink:href="#linear-gradient-50"/><linearGradient id="linear-gradient-61" x1="616.95" y1="1493.63" x2="620.8" y2="1527.96" gradientTransform="matrix(-0.97, -0.25, -0.25, 0.97, 2456.19, 427.31)" gradientUnits="userSpaceOnUse"><stop offset="0" stop-color="#ffc444"/><stop offset="1" stop-color="#f36f56"/></linearGradient><linearGradient id="linear-gradient-62" x1="1398.74" y1="1993.72" x2="1408.63" y2="1948.64" xlink:href="#linear-gradient-54"/><linearGradient id="linear-gradient-63" x1="1163.92" y1="1878.46" x2="1680.65" y2="1878.46" xlink:href="#linear-gradient-54"/><linearGradient id="linear-gradient-64" x1="2063.04" y1="2052.67" x2="2011.09" y2="1928.98" xlink:href="#linear-gradient-54"/><linearGradient id="linear-gradient-65" x1="1634.43" y1="1991.24" x2="2453.93" y2="1991.24" xlink:href="#linear-gradient-54"/><linearGradient id="linear-gradient-66" x1="1634.43" y1="2138.77" x2="2376" y2="2138.77" xlink:href="#linear-gradient-54"/><linearGradient id="linear-gradient-67" x1="1949.18" y1="2277.99" x2="1995.36" y2="2298.6" gradientUnits="userSpaceOnUse"><stop offset="0" stop-color="#444b8c"/><stop offset="1" stop-color="#26264f"/></linearGradient><linearGradient id="linear-gradient-68" x1="1872.1" y1="2286.04" x2="2042.12" y2="2286.04" xlink:href="#linear-gradient-54"/><linearGradient id="linear-gradient-69" x1="2012.52" y1="2152.91" x2="2224.78" y2="2152.91" xlink:href="#linear-gradient-67"/><linearGradient id="linear-gradient-70" x1="2021.83" y1="2152.85" x2="2233.93" y2="2152.85" xlink:href="#linear-gradient-54"/><linearGradient id="linear-gradient-71" x1="1372.37" y1="2269.03" x2="1524.6" y2="2269.03" xlink:href="#linear-gradient-54"/><linearGradient id="linear-gradient-72" x1="1409.8" y1="2220.57" x2="1439.11" y2="2321.64" gradientTransform="matrix(1, 0, 0, 1, 0, 0)" xlink:href="#linear-gradient-51"/></defs><title>icon</title><g class="cls-3"><g id="Illustration"><path class="cls-4" d="M1099.18,601.42c-97.43,140,16.81,366.92-127.75,472.19-140.72,102.48-313.59-65.49-446.2,22.72C328.49,1227.19,364.42,1826,652.05,2198c86.5,111.88,158.78,155.42,190.79,281.95C911.57,2751.67,670,2913.29,716,3047.67c103.51,302.58,1695.43,556.48,2334.17-352.86,298.32-424.7,343-1038,76.42-1503.76C2644.92,349.39,1317.78,287.33,1099.18,601.42Z" transform="translate(-390.33 -367.68)"/><path class="cls-1" d="M1432.1,2693.45c62-101.62,6.65-273.67-63.1-375.07-81.43-118.37-149.75-92.92-205.92-189.91-104.58-180.59,89.38-342.87-1.64-533.35-74.41-155.71-232.27-106.34-306.82-282.53-53.8-127.14,2.54-213.95-80.76-309.18-7.12-8.14-85.17-94.83-182.08-81.11C494,936.16,434.15,1044.21,413.87,1119.19c-37.47,138.6,54.58,184.85,70.45,365.45,21.6,245.88-136.24,305.68-82.92,483.44,44,146.79,161.83,139.87,207.42,303.59,42.34,152-43.85,213.25-5.56,312.81C691.33,2813.5,1305.55,2900.73,1432.1,2693.45Z" transform="translate(-390.33 -367.68)"/><g class="cls-5"><path class="cls-6" d="M1347.71,2853.7h-.25c-104.87-13-202.43-47.36-290-102.13-83-51.95-168.81-105.65-205.81-203-28.11-73.92-11.07-127.36,10.51-195,20.69-64.87,46.44-145.61,35.24-269.75-6.39-70.87-14.35-159.07-74-243.16-34.64-48.85-68.79-70.17-98.93-89-31.23-19.49-58.2-36.32-72.76-78.71-23.45-68.23-6.36-125.79,13.43-192.44,12.06-40.62,24.53-82.62,29.85-132.51,15-140.31-48.89-292.81-189.78-453.27a2,2,0,0,1,.19-2.79,2,2,0,0,1,2.78.18C649.92,1053.45,714.09,1207,699,1348.43c-5.36,50.25-17.88,92.43-30,133.21-19.6,66-36.52,123-13.49,190,14.11,41.06,39.27,56.76,71.12,76.64,30.45,19,65,40.55,100.06,90,60.22,85,68.23,173.74,74.66,245.08,11.28,124.94-14.61,206.1-35.4,271.31-21.35,66.93-38.21,119.8-10.59,192.43,36.53,96.07,121.77,149.42,204.21,201,87,54.48,184.05,88.65,288.35,101.57a2,2,0,0,1-.24,3.93Z" transform="translate(-390.33 -367.68)"/><path class="cls-6" d="M850.58,1883.27a2,2,0,0,1-.83-.18,2,2,0,0,1-1-2.62C936.2,1691.74,952,1544.81,949.91,1454.79c-2.29-97.38-25.44-150.76-25.67-151.29a2,2,0,1,1,3.61-1.59c.24.53,23.7,54.63,26,152.79,2.13,90.44-13.75,238-101.48,427.42A2,2,0,0,1,850.58,1883.27Z" transform="translate(-390.33 -367.68)"/><path class="cls-6" d="M900.81,2187.15a2,2,0,0,1-.54-.07c-107.07-30.47-198.91-77.8-273-140.68a590.25,590.25,0,0,1-142.92-179.35c-60.54-116.94-63.73-219-63.75-220a2,2,0,0,1,1.92-2,2,2,0,0,1,2,1.93c0,1,3.23,102.27,63.41,218.43a586,586,0,0,0,142,178.06c73.62,62.48,164.93,109.52,271.41,139.82a2,2,0,0,1-.54,3.87Z" transform="translate(-390.33 -367.68)"/><path class="cls-6" d="M966.93,2696.51a2,2,0,0,1-1.27-3.5c183.09-152.09,244.19-311.14,263.2-417.78,20.61-115.55-2.36-196.19-2.6-197a2,2,0,1,1,3.79-1.11c.24.8,23.46,82.17,2.74,198.58-19.1,107.34-80.51,267.41-264.6,420.34A2,2,0,0,1,966.93,2696.51Z" transform="translate(-390.33 -367.68)"/><path class="cls-6" d="M694.85,1325.86a1.9,1.9,0,0,1-.8-.18c-175.41-77.92-248.35-206.77-278.64-301.13-32.82-102.23-24-187.22-23.94-188.06a2,2,0,0,1,2.18-1.75,2,2,0,0,1,1.75,2.18c-.09.84-8.79,85.12,23.82,186.57,30.06,93.55,102.43,221.29,276.43,298.58a2,2,0,0,1-.8,3.79Z" transform="translate(-390.33 -367.68)"/></g><path class="cls-2" d="M1714.81,2427c21.82.14,69.41-18.78,79.78-28.83,69-66.87,206.4-183.67,214.13-285,1.33-17.3-73.21-43.66-81.82-60.87-43.45-28.34-60.27-35.48-88.34-82.71-82.86-139.44,177.24-344.78-76.73-463.89-186-87.26-359.22-42.62-297.33-341.41s-102.58-880.93-449.68-713.81c-199.19,95.9-48.5,377.62-168.26,554-113.81,167.63-57.71,326,118.61,459.85s63,202.93-15.7,366.24c-94.57,196.16,216.19,275.43,362.78,299.79C1430.3,2150.06,1717.65,2279.65,1714.81,2427Z" transform="translate(-390.33 -367.68)"/><g class="cls-7"><g class="cls-8"><path class="cls-9" d="M1898.35,2266.74l-1.65-1.1c-299.79-200.1-530.19-486.62-666.3-828.58C1101,1111.82,1057.85,742.72,1105.73,369.64l.25-2,8.52,1.1-.25,2c-100.84,785.74,193.45,1491.44,787.22,1887.76l1.64,1.09Zm-300.2-258.17a1752.79,1752.79,0,0,0,299.11,252.69l.38-.57A1770.59,1770.59,0,0,1,1598.15,2008.57ZM1109.4,372.1a2307.21,2307.21,0,0,0-18.47,325.22,2359.49,2359.49,0,0,1,19.15-325.13Z" transform="translate(-390.33 -367.68)"/><path class="cls-9" d="M1588.47,1999.88l-1.8-.82c-186.07-84.63-493.59-124.76-685.5-89.45l-1.94.36-1.55-8.45,1.94-.36c193.37-35.57,503.17,4.84,690.61,90.08l1.79.82Zm-528-107c176.55,0,385.38,38.3,526.05,101.79l.28-.63c-186.35-84.12-492.31-124-684.52-89.32l.13.67C949.4,1896.88,1003.26,1892.86,1060.46,1892.86Z" transform="translate(-390.33 -367.68)"/><path class="cls-9" d="M1781.77,2187.57l-1.27-1.51c-70-82.81-95.4-197.46-75.63-340.77,14.38-104.31,52-221.23,111.77-347.49l.84-1.78,7.77,3.67-.85,1.79c-59.4,125.46-96.75,241.53-111,345-19.42,140.79,5.37,253.18,73.68,334l1.27,1.51Zm37.59-686.29c-59.12,125.22-96.32,241.12-110.58,344.55-19.48,141.28,5.24,254.37,73.47,336.16l.52-.44c-68.1-81.64-92.76-194.55-73.31-335.62,14.26-103.36,51.44-219.22,110.53-344.36Z" transform="translate(-390.33 -367.68)"/><path class="cls-9" d="M1215.3,1392.26l-1.2-1.57c-120.29-158.23-319.45-223.27-465.33-250l-1.95-.36,1.55-8.45,1.94.35c147.38,27,348.67,92.81,470.63,253.23l1.2,1.57ZM751.42,1137.19c145.91,27,344,92.14,464.63,249.54l.55-.42c-120.78-157.57-319-222.82-465-249.81Z" transform="translate(-390.33 -367.68)"/><path class="cls-9" d="M1111.9,945.42l-8.57-.53.12-2c14.33-228.12,171-409.19,263.13-496.82l1.43-1.36,5.92,6.23-1.43,1.36c-91.21,86.76-246.33,265.93-260.48,491.12Zm-4.38-4.23.69,0c14.93-224.43,168.6-403,260.14-490.4l-.48-.5C1276.26,537.81,1122.47,716.53,1107.52,941.19Z" transform="translate(-390.33 -367.68)"/></g></g><path class="cls-10" d="M1505.28,2432.29v137.32h.19c8,82.88,337.12,235.11,815.17,237.92,702.89,4.14,940.27-161.19,951.31-245.84h.27V2435.17Z" transform="translate(-390.33 -367.68)"/><path class="cls-11" d="M3272.22,2435.67c0,85.37-405.57,152.77-897.76,150.6-483.48-2.14-869.18-70.85-869.18-153.49s385.7-150.09,869.18-150.64C2866.65,2281.58,3272.22,2350.31,3272.22,2435.67Z" transform="translate(-390.33 -367.68)"/><path class="cls-12" d="M3265.37,2425.29c0,84.72-402.47,151.76-891,149.77-480-1.95-863.08-70-863.08-152.11s383-149.13,863.08-149.81C2862.9,2272.45,3265.37,2340.56,3265.37,2425.29Z" transform="translate(-390.33 -367.68)"/><polygon class="cls-13" points="2881.88 2194.02 2881.88 2067.49 1114.94 2064.61 1114.94 2201.93 2881.88 2194.02"/><path class="cls-11" d="M3272.22,2435.67c0,85.37-405.57,152.77-897.76,150.6-483.48-2.14-869.18-70.85-869.18-153.49s385.7-150.09,869.18-150.64C2866.65,2281.58,3272.22,2350.31,3272.22,2435.67Z" transform="translate(-390.33 -367.68)"/><path class="cls-12" d="M3265.37,2425.29c0,84.72-402.47,151.76-891,149.77-480-1.95-863.08-70-863.08-152.11s383-149.13,863.08-149.81C2862.9,2272.45,3265.37,2340.56,3265.37,2425.29Z" transform="translate(-390.33 -367.68)"/><path class="cls-14" d="M1505.28,2172v137.32h.19c8,82.88,337.12,227.89,815.17,225.3,757.54-4.1,940.27-148.57,951.31-233.22h.27V2174.9Z" transform="translate(-390.33 -367.68)"/><path class="cls-15" d="M3272.22,2175.4c0,85.37-405.57,152.77-897.76,150.6-483.48-2.14-869.18-70.85-869.18-153.49s385.7-150.09,869.18-150.64C2866.65,2021.31,3272.22,2090,3272.22,2175.4Z" transform="translate(-390.33 -367.68)"/><path class="cls-16" d="M3265.37,2165c0,84.72-402.47,151.76-891,149.77-480-1.95-863.08-70-863.08-152.11s383-149.13,863.08-149.81C2862.9,2012.18,3265.37,2080.29,3265.37,2165Z" transform="translate(-390.33 -367.68)"/><polygon class="cls-17" points="2881.88 1933.75 2881.88 1807.22 1114.94 1804.34 1114.94 1941.66 2881.88 1933.75"/><path class="cls-15" d="M3272.22,2175.4c0,85.37-405.57,152.77-897.76,150.6-483.48-2.14-869.18-70.85-869.18-153.49s385.7-150.09,869.18-150.64C2866.65,2021.31,3272.22,2090,3272.22,2175.4Z" transform="translate(-390.33 -367.68)"/><path class="cls-16" d="M3265.37,2165c0,84.72-402.47,151.76-891,149.77-480-1.95-863.08-70-863.08-152.11s383-149.13,863.08-149.81C2862.9,2012.18,3265.37,2080.29,3265.37,2165Z" transform="translate(-390.33 -367.68)"/><path class="cls-18" d="M1505.28,1911.11v137.32h.19c8,82.88,337.12,227.89,815.17,225.3,757.54-4.1,940.27-148.57,951.31-233.22h.27V1914Z" transform="translate(-390.33 -367.68)"/><path class="cls-19" d="M3272.22,1914.5c0,85.36-405.57,152.76-897.76,150.59-483.48-2.14-869.18-70.85-869.18-153.49S1891,1761.51,2374.46,1761C2866.65,1760.4,3272.22,1829.13,3272.22,1914.5Z" transform="translate(-390.33 -367.68)"/><path class="cls-20" d="M3265.37,1904.11c0,84.72-402.47,151.76-891,149.77-480-2-863.08-70-863.08-152.11s383-149.13,863.08-149.81C2862.9,1751.27,3265.37,1819.38,3265.37,1904.11Z" transform="translate(-390.33 -367.68)"/><polygon class="cls-21" points="2881.88 1672.84 2881.88 1546.31 1114.94 1543.43 1114.94 1680.75 2881.88 1672.84"/><path class="cls-19" d="M3272.22,1914.5c0,85.36-405.57,152.76-897.76,150.59-483.48-2.14-869.18-70.85-869.18-153.49S1891,1761.51,2374.46,1761C2866.65,1760.4,3272.22,1829.13,3272.22,1914.5Z" transform="translate(-390.33 -367.68)"/><path class="cls-20" d="M3265.37,1904.11c0,84.72-402.47,151.76-891,149.77-480-2-863.08-70-863.08-152.11s383-149.13,863.08-149.81C2862.9,1751.27,3265.37,1819.38,3265.37,1904.11Z" transform="translate(-390.33 -367.68)"/><path class="cls-22" d="M1505.28,1650.2v137.32h.19c8,82.88,337.12,227.89,815.17,225.3,757.54-4.1,940.27-148.57,951.31-233.22h.27V1653.08Z" transform="translate(-390.33 -367.68)"/><path class="cls-23" d="M3272.22,1653.59c0,85.36-405.57,152.76-897.76,150.59-483.48-2.14-869.18-70.85-869.18-153.49s385.7-150.09,869.18-150.64C2866.65,1499.49,3272.22,1568.22,3272.22,1653.59Z" transform="translate(-390.33 -367.68)"/><path class="cls-24" d="M3265.37,1643.2c0,84.72-402.47,151.76-891,149.77-480-2-863.08-70-863.08-152.11s383-149.13,863.08-149.81C2862.9,1490.36,3265.37,1558.47,3265.37,1643.2Z" transform="translate(-390.33 -367.68)"/><polygon class="cls-25" points="2881.88 1411.93 2881.88 1285.4 1114.94 1282.52 1114.94 1419.84 2881.88 1411.93"/><path class="cls-23" d="M3272.22,1653.59c0,85.36-405.57,152.76-897.76,150.59-483.48-2.14-869.18-70.85-869.18-153.49s385.7-150.09,869.18-150.64C2866.65,1499.49,3272.22,1568.22,3272.22,1653.59Z" transform="translate(-390.33 -367.68)"/><path class="cls-24" d="M3265.37,1643.2c0,84.72-402.47,151.76-891,149.77-480-2-863.08-70-863.08-152.11s383-149.13,863.08-149.81C2862.9,1490.36,3265.37,1558.47,3265.37,1643.2Z" transform="translate(-390.33 -367.68)"/><path class="cls-26" d="M1505.28,1389.29v137.32h.19c8,82.88,337.12,227.89,815.17,225.3,757.54-4.1,940.27-148.57,951.31-233.22h.27V1392.17Z" transform="translate(-390.33 -367.68)"/><path class="cls-27" d="M3272.22,1392.68c0,85.36-405.57,152.76-897.76,150.59-483.48-2.14-869.18-70.85-869.18-153.49s385.7-150.09,869.18-150.64C2866.65,1238.58,3272.22,1307.31,3272.22,1392.68Z" transform="translate(-390.33 -367.68)"/><path class="cls-28" d="M3265.37,1382.29c0,84.72-402.47,151.76-891,149.77-480-2-863.08-70-863.08-152.11s383-149.13,863.08-149.81C2862.9,1229.45,3265.37,1297.56,3265.37,1382.29Z" transform="translate(-390.33 -367.68)"/><polygon class="cls-29" points="2881.88 1151.02 2881.88 1024.49 1114.94 1021.61 1114.94 1158.93 2881.88 1151.02"/><path class="cls-27" d="M3272.22,1392.68c0,85.36-405.57,152.76-897.76,150.59-483.48-2.14-869.18-70.85-869.18-153.49s385.7-150.09,869.18-150.64C2866.65,1238.58,3272.22,1307.31,3272.22,1392.68Z" transform="translate(-390.33 -367.68)"/><path class="cls-28" d="M3265.37,1382.29c0,84.72-402.47,151.76-891,149.77-480-2-863.08-70-863.08-152.11s383-149.13,863.08-149.81C2862.9,1229.45,3265.37,1297.56,3265.37,1382.29Z" transform="translate(-390.33 -367.68)"/><path class="cls-30" d="M1505.28,1128.38V1265.7h.19c8,82.88,337.12,227.89,815.17,225.3,757.54-4.1,940.27-148.57,951.31-233.22h.27V1131.26Z" transform="translate(-390.33 -367.68)"/><path class="cls-31" d="M3272.22,1131.76c0,85.37-405.57,152.77-897.76,150.6-483.48-2.14-869.18-70.85-869.18-153.49S1891,978.78,2374.46,978.23C2866.65,977.67,3272.22,1046.4,3272.22,1131.76Z" transform="translate(-390.33 -367.68)"/><path class="cls-32" d="M3265.37,1121.38c0,84.72-402.47,151.76-891,149.77-480-2-863.08-70-863.08-152.11s383-149.13,863.08-149.81C2862.9,968.54,3265.37,1036.65,3265.37,1121.38Z" transform="translate(-390.33 -367.68)"/><polygon class="cls-33" points="2881.88 890.11 2881.88 763.58 1114.94 760.7 1114.94 898.02 2881.88 890.11"/><path class="cls-31" d="M3272.22,1131.76c0,85.37-405.57,152.77-897.76,150.6-483.48-2.14-869.18-70.85-869.18-153.49S1891,978.78,2374.46,978.23C2866.65,977.67,3272.22,1046.4,3272.22,1131.76Z" transform="translate(-390.33 -367.68)"/><path class="cls-32" d="M3265.37,1121.38c0,84.72-402.47,151.76-891,149.77-480-2-863.08-70-863.08-152.11s383-149.13,863.08-149.81C2862.9,968.54,3265.37,1036.65,3265.37,1121.38Z" transform="translate(-390.33 -367.68)"/><path class="cls-34" d="M1505.28,867.46v137.33h.19c8,82.88,337.12,227.89,815.17,225.3,757.54-4.1,940.27-148.57,951.31-233.22h.27V870.35Z" transform="translate(-390.33 -367.68)"/><path class="cls-35" d="M3272.22,870.86c0,85.36-405.57,152.76-897.76,150.59C1891,1019.31,1505.28,950.6,1505.28,868S1891,717.87,2374.46,717.32C2866.65,716.76,3272.22,785.49,3272.22,870.86Z" transform="translate(-390.33 -367.68)"/><path class="cls-36" d="M3265.37,860.47c0,84.72-402.47,151.76-891,149.77-480-2-863.08-70-863.08-152.11s383-149.13,863.08-149.81C2862.9,707.63,3265.37,775.74,3265.37,860.47Z" transform="translate(-390.33 -367.68)"/><polygon class="cls-37" points="2881.88 629.2 2881.88 502.67 1114.94 499.79 1114.94 637.11 2881.88 629.2"/><path class="cls-35" d="M3272.22,870.86c0,85.36-405.57,152.76-897.76,150.59C1891,1019.31,1505.28,950.6,1505.28,868S1891,717.87,2374.46,717.32C2866.65,716.76,3272.22,785.49,3272.22,870.86Z" transform="translate(-390.33 -367.68)"/><path class="cls-36" d="M3265.37,860.47c0,84.72-402.47,151.76-891,149.77-480-2-863.08-70-863.08-152.11s383-149.13,863.08-149.81C2862.9,707.63,3265.37,775.74,3265.37,860.47Z" transform="translate(-390.33 -367.68)"/><ellipse class="cls-38" cx="1032.95" cy="2471.66" rx="226.97" ry="92.63"/><path class="cls-39" d="M1196.32,2828.47c0,48.29,101.62,87.44,227,87.44s227-39.15,227-87.44-101.61-127.31-227-127.31S1196.32,2780.18,1196.32,2828.47Z" transform="translate(-390.33 -367.68)"/><path class="cls-40" d="M1196.32,2828.47c0-48.29,101.62-127.31,227-127.31A308,308,0,0,1,1574,2740.91c2.81,5.88,4.12,11.73,3.59,17.28-2.61,27.17-46.92,43.87-72.36,49.38-64,13.88-95.33-24.43-148.15-23-32.65.9-77.9,17.31-131.57,86.78C1207,2858.7,1196.32,2844.07,1196.32,2828.47Z" transform="translate(-390.33 -367.68)"/><path class="cls-41" d="M1410.86,2761.68a51.43,51.43,0,0,0,25.49.15,16.41,16.41,0,0,0,12.17-16V2528.1h-50.47v217.46A16.7,16.7,0,0,0,1410.86,2761.68Z" transform="translate(-390.33 -367.68)"/><path class="cls-42" d="M1690,2464.47l-77.1-48.74c-3.21-18.21-4.23-660.4-151.77-720.21-60-24.32-216.78,5.08-252.21,6.66-70.74,3.16-121.2,5.41-145.47,39.16-31.16,43.33,78,507.83,67.16,631.77-4.41,50.54-15.63,73-1.65,106.46,16.74,40.11,55.58,62.35,85.77,74.86,36.1,21,99,50.83,182,58.1,139.82,12.26,244.2-47.72,280.1-70.67a46.18,46.18,0,0,0,31.34-34.69A40.74,40.74,0,0,0,1690,2464.47Z" transform="translate(-390.33 -367.68)"/><path class="cls-43" d="M1193.33,1712.36c-52.32,1.55-84.83.94-102.81,24.3-18.88,24.52,57.08,470.63,60.62,557.93,3.22,79.59-10.81,111.06,14.91,155.17,0,0,13.07,22.42,33.7,39.25,72.91,59.49,261,58.77,340.21-65.43,63.16-99.1-20.06-670.37-94.27-718.7C1409.33,1681.21,1401,1706.21,1193.33,1712.36Z" transform="translate(-390.33 -367.68)"/><path class="cls-44" d="M1695.57,2420.7l-77.1-48.74s-206.52-67.9-397.6,27.83a63.46,63.46,0,0,0-34.71,56.79,45.56,45.56,0,0,0,28,42c33.34,22.75,98.41,60.33,188.12,70.16,142.61,15.64,248.72-49.67,280.09-70.67a46.19,46.19,0,0,0,31.35-34.7A40.74,40.74,0,0,0,1695.57,2420.7Z" transform="translate(-390.33 -367.68)"/><path class="cls-45" d="M2031.64,3025.78l-65.83-39.55H1936.1s-10.12,37.67-9,39.55c13.24,21.69,74.87,38.19,113.33,39.56,6.38.23,15.29.26,17.6-4.37C2062,3053.13,2044.54,3036.69,2031.64,3025.78Z" transform="translate(-390.33 -367.68)"/><path class="cls-46" d="M1964.65,2943.06c-.11,23.05.87,39.31,6.64,46.46,4.06,5-35,16.36-35.19-3.29-.14-12.94-2.17-35.13-4.24-41.65Z" transform="translate(-390.33 -367.68)"/><path class="cls-47" d="M1786.81,3081.39,1721,3041.84h-29.71s-10.13,37.67-9,39.55c13.24,21.69,74.87,38.19,113.33,39.56,6.39.23,15.3.26,17.6-4.37C1817.12,3108.74,1799.7,3092.3,1786.81,3081.39Z" transform="translate(-390.33 -367.68)"/><path class="cls-48" d="M1719.81,2998.67c-.11,23,.88,39.31,6.65,46.46,4.06,5-35,16.36-35.19-3.29-.14-12.94-2.18-35.13-4.25-41.65Z" transform="translate(-390.33 -367.68)"/><path class="cls-49" d="M1967.33,2962.2c18.62-112.41.43-232.47-3.82-297-6.74-102.69-10.12-154-39.82-197.17-38.91-56.49-118.53-113-185.82-160.71a339.36,339.36,0,0,1-32-25.21,367.8,367.8,0,0,1-73.09-90.08c-152.35-44.69-292.87-26.58-354.88,55.12-7.16,9.45-25.1,29.93-28.57,60.12-7.83,68.13,59.12,150.15,134.23,167.28,95.47,21.78,150.86-76.25,235.44-43.64,8.43,3.26,33.35,28.33,83.84,77,36.67,35.31,55,53,60.84,60,54.06,64.95,86.26,164.91,90.15,242.3.69,13.72,1.28,42.48,17.84,73.28,12.67,23.58,47.44,66.45,60.22,76.16Q1949.59,2960.87,1967.33,2962.2Z" transform="translate(-390.33 -367.68)"/><path class="cls-50" d="M1682.2,3017.71s32.59,15.39,56.78,0c-.8-40.75-.86-104.54,4.36-182.54,11.4-170.73,35.56-222.35,14.12-295.26-15.47-52.61-57-124.29-179.72-191.31l-311.52-30.55s-14.68,23.91-11.11,57c6.55,60.6,76.2,97.75,134.44,128.12,115,60,139.31,32.38,176.77,72.81,50.63,54.64,19.1,118.9,46.77,254A674.44,674.44,0,0,0,1682.2,3017.71Z" transform="translate(-390.33 -367.68)"/><path class="cls-9" d="M1722.62,2223.65c42.66-3.7,107.26-205.64,17.69-336.06-66-96-203.45-135.68-227.44-106.55-13.92,16.9,14.69,51.69,67.73,151.54C1689.41,2137.43,1693.88,2226.13,1722.62,2223.65Z" transform="translate(-390.33 -367.68)"/><path class="cls-9" d="M1248.76,1790.45a576.33,576.33,0,0,1,169-27.66c80.58-1,145-1.71,189.34,32.25,107.08,82-12.82,284.48,48.71,431.38,6.73,16,26.28,67,9.27,122.95-3.13,10.33-9.59,19.39-20.65,34.75-65,90.39-249.23,104-334.31,29.68-45.15-39.42-85.85-30.67-86.94-77.34C1218.88,2152.23,1250.52,1967.76,1248.76,1790.45Z" transform="translate(-390.33 -367.68)"/><path class="cls-51" d="M1329.89,2023.92c-15.49-38.13.56-82.4-34-101-12.68-6.83-43.76-26-45.66-8.93-12.58,113.26-23.85,230.12-20.21,371.27,1.2,46.61,36.51,89.09,86.42,128.36,57.63,45.35,156.47,57.39,240.76,39.17-110.48-58.3-189.78-120.19-178.4-175.7,13.25-64.6,142.28-86.84,137.11-132.2C1510.42,2096.78,1363.7,2107.14,1329.89,2023.92Z" transform="translate(-390.33 -367.68)"/><path class="cls-52" d="M1425.31,1662.43a290.88,290.88,0,0,1-6.25,63.63c-3.63,17-6.23,21.38-9.57,25-5,5.41-12.61,10-55.64,20.18-23.47,5.56-26.49,5.46-27,7.57-2.53,10.34,61.4,44.57,127.17,35.23,40.13-5.69,76.55-27,74.31-37.87s-42.24-4.58-54.18-24.36c-8.32-13.77,1-33.55,12-50C1475.49,1683.75,1436,1680.55,1425.31,1662.43Z" transform="translate(-390.33 -367.68)"/><path class="cls-53" d="M1509.54,1696.2c12.3-9,18.38-28.25,11.34-42.9-6.06-12.61-19.9-17.38-28.19-20.24-24-8.3-58.09-6-75,12.33-10,10.89-3.36,39.79-2.48,44.9,1,5.79,5,8.61,8,13.5,4.2,6.79,10.74,17.54,21.31,35.44a97,97,0,0,1,10-14.11,91.17,91.17,0,0,1,16.94-15.4C1488.57,1698.27,1497.87,1704.75,1509.54,1696.2Z" transform="translate(-390.33 -367.68)"/><path class="cls-54" d="M1427.05,1722.23a54.21,54.21,0,0,0,42.42,33.55c29.55,4.81,50.73-53.69,35.81-70.52-5-5.61-16.88-10.18-27.7-9.9-6.39.16-9,2-19.51,2.05-9.65.08-11.94-1.41-15.27.06-4.17,1.84-8.51,7.7-7.77,26.42-4.1-6.4-10.21-9.88-15.53-8.92a10.69,10.69,0,0,0-4.87,2.57C1408.6,1703.42,1413,1713.67,1427.05,1722.23Z" transform="translate(-390.33 -367.68)"/><path class="cls-55" d="M1442.5,1673.61c1.13,1.27-4.53,5.07-6.78,11.77-4.38,13,5.7,32.06,20.18,36.76,8.55,2.77,12.34-1.51,27.24.37a72.69,72.69,0,0,1,20.81,5.9c.46,15.41-7.91,28.78-20.33,33.07-13.38,4.61-26.64-3-32.18-6.19-3.71-2.13-15.62-8.94-19.31-21.36-3.85-13,5.06-18.21-.88-27.72-3-4.8-7.91-7.7-11-16.38a34.73,34.73,0,0,1-1.51-5.72C1428.32,1678.55,1440.86,1671.76,1442.5,1673.61Z" transform="translate(-390.33 -367.68)"/><path class="cls-56" d="M1491.9,1731.36s-7.13,1.57-17.81-1.44c-.52-.14-1.15-.13-1.28.1-.52.88,5.24,6.67,12.11,6.47,4.89-.14,9.55-3.27,9.22-4.41C1494,1731.6,1493,1731.42,1491.9,1731.36Z" transform="translate(-390.33 -367.68)"/><path class="cls-38" d="M2276.3,3033.65h-.41a5.26,5.26,0,0,1-4.85-5.24V2184.57a5.26,5.26,0,1,1,10.51,0v775.57L2399,2202a5.26,5.26,0,0,1,10.39,1.61L2281.49,3029.2A5.25,5.25,0,0,1,2276.3,3033.65Z" transform="translate(-390.33 -367.68)"/><polygon class="cls-57" points="459.96 1923.14 1862.9 1815.11 2551.95 1875.95 1566.15 2020.01 459.96 1923.14"/><polygon class="cls-38" points="1566.15 2020.02 459.96 1923.14 459.96 1969.93 1566.15 2066.8 2551.95 1922.74 2551.95 1875.95 1566.15 2020.02"/><path class="cls-38" d="M1946.94,3321.59a5.25,5.25,0,0,1-5.2-4.55L1820.13,2419.2a5.25,5.25,0,1,1,10.41-1.41l111.15,820.59V2418.5a5.26,5.26,0,1,1,10.51,0v897.83a5.26,5.26,0,0,1-4.9,5.25Z" transform="translate(-390.33 -367.68)"/><path class="cls-38" d="M2926.86,3131.29a5.24,5.24,0,0,1-5.2-4.54l-112.72-824.83a5.26,5.26,0,0,1,10.42-1.43l102.25,748.28V2268.55a5.26,5.26,0,0,1,10.51,0V3126a5.26,5.26,0,0,1-4.9,5.24Z" transform="translate(-390.33 -367.68)"/><path class="cls-38" d="M863.59,3156.55h-.39a5.26,5.26,0,0,1-4.88-5.24V2337.61a5.26,5.26,0,1,1,10.52,0v741.84l109.22-742.61a5.26,5.26,0,0,1,10.4,1.53L868.78,3152.06A5.26,5.26,0,0,1,863.59,3156.55Z" transform="translate(-390.33 -367.68)"/><path class="cls-9" d="M1363.52,2274.89q13-14.54,26-29.09c-67.6-88.71-121.26-127.15-159.25-145.47-26-12.56-25-20.67-26-23.74-6.44-18.45,64.42-99.46,82.93-124,34.06-45.22,66.31-122.39,41.23-153.37-26.11-32.25-109.29-8.2-153.37,13.2a253.26,253.26,0,0,0-78.14,59.18c-41.48,46.68-121.29,172.31-70.29,285.49C1074,2262.2,1219.26,2323.28,1363.52,2274.89Z" transform="translate(-390.33 -367.68)"/><polygon class="cls-58" points="1163.92 1906.42 1163.92 1894.41 1680.65 1866.57 1680.65 1878.46 1315.5 1914.39 1163.92 1906.42"/><polygon class="cls-59" points="1163.92 1894.41 1324.21 1896.45 1680.65 1866.57 1580.98 1860.46 1163.92 1894.41"/><path class="cls-60" d="M1622.77,2220.69,1768.1,1766c2.29-7.18,10.46-12.37,19.72-12.54l636.31-11.68c5.42-.1,14.83,3.87,18.13,7.29s7.8,4,6.56,8.47l-118.64,400.13c-2,6.67-9.06,11.82-17.3,12.57l-678.45,62.18Z" transform="translate(-390.33 -367.68)"/><path class="cls-61" d="M1634.43,2232.42l147.37-457.77c2.31-7.16,10.46-12.33,19.68-12.51l635-12.08a18.62,18.62,0,0,1,13.76,5.24,12.68,12.68,0,0,1,3.25,12.39l-110.94,397.4c-1.91,6.84-9.19,12.14-17.62,12.8Z" transform="translate(-390.33 -367.68)"/><path class="cls-62" d="M1634.43,2232.42l690.46-54.53c8.43-.66,15.71-6,17.62-12.8l33.49-120c-210.43,73.57-460.46,65.5-708.36,84.16Z" transform="translate(-390.33 -367.68)"/><path class="cls-63" d="M2040.24,2309l-26.19,9s-137.69-25.86-143.69-30.08c-.95-.67-4.26-7.07,1.9-8.13,32.5-5.59,151.13-9.7,151.13-9.7l10.87.6Z" transform="translate(-390.33 -367.68)"/><path class="cls-64" d="M2042.12,2301l-26.19,9s-137.67-25.93-143.67-30.15,153-17.75,153-17.75l10.86.65Z" transform="translate(-390.33 -367.68)"/><path class="cls-65" d="M2156,1984.71s66.83,287.47,68.8,304.3c1.83,15.52-162.44,30.75-201.78,32.09-3.28.11-7.61-2.15-8.93-3-10.89-1.26,40.06-329.2,40.06-329.2l3.75.14Z" transform="translate(-390.33 -367.68)"/><path class="cls-66" d="M2156,1984.71s76,290.38,78,307.2-193.32,29.63-210.4,29.06c-10.88-1.25,34.34-332,34.34-332Z" transform="translate(-390.33 -367.68)"/><path class="cls-67" d="M1389.55,2262.09s43.35-19.83,68.38-18.06,60.25,24.55,66.38,38-84.69,12-84.69,12S1331.36,2289.87,1389.55,2262.09Z" transform="translate(-390.33 -367.68)"/><path class="cls-68" d="M1367.08,2238.91c24.19-30.76,81.87-12,85.13-10.86,13.79,4.68,32.27,14.19,31,20.26-1.25,5.87-19.83,2.81-50.5,8-44.87,7.59-64.77,24.23-72.71,15.76C1353.91,2265.58,1359.14,2249,1367.08,2238.91Z" transform="translate(-390.33 -367.68)"/><path class="cls-69" d="M2341,1508c17.11,1.44,32.26-12.42,33.82-31s-11.05-34.73-28.17-36.17c-.89-.07-1.76-.08-2.64-.08a193.28,193.28,0,0,0-4.46-28.06,26.2,26.2,0,0,0,2.43-1.09c15.6-8,22.41-28.11,15.2-44.88s-25.7-23.87-41.3-15.85c-.81.42-1.59.89-2.36,1.37a178.29,178.29,0,0,0-16.87-21.67c.56-.74,1.12-1.49,1.64-2.29,9.91-15.33,6.56-36.28-7.48-46.79s-33.46-6.62-43.37,8.71c-.51.79-1,1.6-1.4,2.41a157.65,157.65,0,0,0-24.77-9.47c.15-.94.29-1.88.37-2.83,1.56-18.54,4.94-39.46-12.2-40.63-39.64-2.72-48.22,16.87-49.78,35.4-.08,1-.1,1.91-.11,2.86a157.62,157.62,0,0,0-26,5.2c-.29-.88-.6-1.75-1-2.61-7.2-16.77-5.9-28-22.28-21.68-35.72,13.71-41.43,33.94-34.22,50.72.37.87.8,1.71,1.23,2.53A178.11,178.11,0,0,0,2057,1330.7c-.67-.6-1.36-1.2-2.1-1.75-14-10.51-33.45-6.61-43.36,8.72s-6.56,36.28,7.48,46.8c.72.54,1.46,1,2.2,1.47a193.62,193.62,0,0,0-9.08,26.93c-.86-.16-1.73-.29-2.62-.37-17.11-1.44-32.25,12.42-33.82,31s11,34.72,28.17,36.17c.89.07,1.76.08,2.64.07a194.56,194.56,0,0,0,4.45,28.07c-.81.33-1.62.67-2.42,1.08-15.6,8-22.41,28.12-15.2,44.89s25.7,23.86,41.3,15.85c.81-.42,1.59-.89,2.36-1.38a177.63,177.63,0,0,0,16.87,21.68c-.56.73-1.12,1.49-1.64,2.29-9.91,15.33-6.56,36.28,7.48,46.79s44.44,5.71,54.35-9.62c.51-.79-10-.69-9.58-1.5a158.26,158.26,0,0,0,24.77,9.47c-.15.93-.29,1.87-.37,2.83-1.56,18.54,11.05,34.73,28.16,36.17s32.26-12.41,33.82-31c.08-1,.1-1.91.11-2.85a157.3,157.3,0,0,0,26-5.2c.3.88.61,1.75,1,2.61,7.2,16.77,25.7,23.87,41.3,15.85s22.41-28.12,15.2-44.89c-.37-.87-.8-1.71-1.23-2.53a178.11,178.11,0,0,0,20.26-18.54c.67.6,1.36,1.19,2.1,1.74,14,10.52,33.45,6.62,43.36-8.71s6.56-36.28-7.48-46.8c-.72-.54-1.46-1-2.2-1.48a193.49,193.49,0,0,0,9.08-26.92C2339.19,1507.79,2340.06,1507.93,2341,1508Zm-176,74.08c-62.15-5.23-107.93-64-102.26-131.31s60.64-117.6,122.78-112.36,107.93,64,102.26,131.31S2227.11,1587.33,2165,1582.09Z" transform="translate(-390.33 -367.68)"/><path class="cls-69" d="M2341.93,1411.66c15.6-8,22.41-28.11,15.2-44.88s-25.7-23.87-41.3-15.85c-.81.42-1.59.89-2.36,1.37a178.29,178.29,0,0,0-16.87-21.67c.56-.74,1.12-1.49,1.64-2.29,9.91-15.33,17.52-45.73,2.48-54.75-28.56-17.12-43.42,1.35-53.33,16.67-.51.79-1,1.6-1.4,2.41a157.65,157.65,0,0,0-24.77-9.47c.15-.94.29-1.88.37-2.83a34.79,34.79,0,0,0-8.51-26.16q-5.72,43.47-10.71,87c53.33,13.43,90.52,67.47,85.38,128.5-4.35,51.72-37.85,93.38-81.33,107.52.1,5.65.24,11.32.19,17-.14,15.37-1.14,30.76-2.15,46.14q6.33-1.27,12.5-3.06c.3.88.61,1.75,1,2.61,7.2,16.77,23.31,27,52,13.49,15.89-7.45,11.7-25.76,4.49-42.53-.37-.87-.8-1.71-1.23-2.53a178.11,178.11,0,0,0,20.26-18.54c.67.6,1.36,1.19,2.1,1.74,14,10.52,45.54,4.62,55.45-10.71s-5.53-34.28-19.57-44.8c-.72-.54-1.46-1-2.2-1.48a193.49,193.49,0,0,0,9.08-26.92c.86.15,1.73.29,2.62.37,17.11,1.44,32.25-12.42,33.82-31s-11.05-34.73-28.17-36.17c-.89-.07-1.76-.08-2.64-.08a193.28,193.28,0,0,0-4.46-28.06C2340.32,1412.42,2341.13,1412.07,2341.93,1411.66Z" transform="translate(-390.33 -367.68)"/><path class="cls-9" d="M2356.92,1503.54c17.11,1.45,32.25-12.41,33.81-30.94s-11.05-34.73-28.16-36.17c-.89-.07-1.77-.08-2.64-.08a194.44,194.44,0,0,0-4.46-28.06c.81-.33,1.63-.68,2.42-1.09,15.61-8,22.42-28.11,15.21-44.88s-25.7-23.87-41.3-15.85c-.82.42-1.59.89-2.36,1.37a177.6,177.6,0,0,0-16.88-21.67c.57-.74,1.13-1.49,1.65-2.29,9.91-15.33,6.56-36.28-7.49-46.8s-33.46-6.61-43.37,8.72c-.5.79-.95,1.59-1.39,2.41a156.67,156.67,0,0,0-24.77-9.47c.15-.94.29-1.88.37-2.84,1.56-18.53-11-34.72-28.17-36.16s-32.25,12.41-33.81,30.94c-.08,1-.1,1.91-.11,2.86a158.65,158.65,0,0,0-26,5.19c-.29-.87-.6-1.74-1-2.6-7.21-16.77-25.7-23.87-41.3-15.85s-22.41,28.11-15.21,44.88c.38.88.8,1.71,1.24,2.54a178.11,178.11,0,0,0-20.26,18.54c-.68-.6-1.36-1.2-2.1-1.75-14-10.51-33.46-6.61-43.37,8.72s-6.56,36.28,7.48,46.79c.72.54,1.47,1,2.21,1.48a195.3,195.3,0,0,0-9.09,26.92c-.86-.15-1.72-.29-2.61-.36-17.12-1.44-32.26,12.41-33.82,31s11,34.72,28.17,36.16a25.76,25.76,0,0,0,2.63.08,194.44,194.44,0,0,0,4.46,28.06c-.81.33-1.62.68-2.42,1.09-15.6,8-22.41,28.11-15.2,44.89s25.69,23.86,41.3,15.84c.81-.42,1.59-.89,2.35-1.37a178.59,178.59,0,0,0,16.88,21.67c-.57.74-1.13,1.49-1.64,2.29-9.91,15.33-6.56,36.28,7.48,46.8s33.46,6.61,43.37-8.72c.51-.78,1-1.59,1.4-2.41a157.31,157.31,0,0,0,24.77,9.48c-.16.93-.29,1.87-.38,2.83-1.56,18.53,11.05,34.73,28.17,36.17s32.26-12.42,33.82-30.95c.08-1,.1-1.91.1-2.86a157.19,157.19,0,0,0,26-5.19c.3.87.61,1.75,1,2.61,7.2,16.77,25.69,23.86,41.3,15.84s22.41-28.11,15.2-44.88c-.38-.88-.8-1.71-1.24-2.53a178.29,178.29,0,0,0,20.27-18.55c.67.61,1.36,1.2,2.09,1.75,14,10.52,33.46,6.61,43.37-8.72s6.56-36.28-7.48-46.79c-.72-.54-1.46-1-2.21-1.48a195.3,195.3,0,0,0,9.09-26.92C2355.16,1503.33,2356,1503.47,2356.92,1503.54Zm-176,74.09c-62.15-5.23-107.93-64-102.27-131.32s60.64-117.59,122.79-112.36,107.93,64,102.26,131.32S2243.08,1582.86,2180.94,1577.63Z" transform="translate(-390.33 -367.68)"/><path class="cls-69" d="M3008.29,1222.81c29,2.45,54.69-21,57.34-52.47s-18.73-58.88-47.76-61.33c-1.5-.12-3-.14-4.47-.13a330.42,330.42,0,0,0-7.56-47.58c1.38-.56,2.75-1.15,4.11-1.85,26.46-13.59,38-47.66,25.78-76.1s-43.57-40.47-70-26.87c-1.38.71-2.7,1.51-4,2.32a302.63,302.63,0,0,0-28.61-36.74c1-1.25,1.9-2.53,2.78-3.89,16.81-26,11.12-61.51-12.68-79.34s-56.74-11.21-73.54,14.78c-.86,1.33-1.62,2.7-2.37,4.08a267,267,0,0,0-42-16.06c.26-1.58.49-3.18.63-4.8,2.65-31.43,8.37-66.91-20.68-68.9-67.22-4.6-81.77,28.62-84.42,60-.13,1.63-.17,3.24-.18,4.85a268.17,268.17,0,0,0-44.1,8.8c-.5-1.48-1-3-1.65-4.42-12.22-28.43-10-47.4-37.78-36.75-60.56,23.24-70.24,57.55-58,86,.64,1.48,1.36,2.9,2.1,4.29a302.54,302.54,0,0,0-34.36,31.45c-1.14-1-2.31-2-3.55-3-23.81-17.83-56.73-11.21-73.54,14.78s-11.12,61.52,12.69,79.35c1.22.91,2.48,1.72,3.74,2.51a329.84,329.84,0,0,0-15.41,45.64c-1.46-.26-2.93-.49-4.43-.62-29-2.44-54.7,21.05-57.34,52.48s18.73,58.88,47.75,61.32c1.51.13,3,.14,4.48.13a327.8,327.8,0,0,0,7.56,47.59c-1.38.56-2.76,1.14-4.11,1.84-26.46,13.6-38,47.67-25.78,76.11s43.57,40.46,70,26.87c1.38-.71,2.7-1.51,4-2.33a301,301,0,0,0,28.61,36.75c-1,1.25-1.91,2.52-2.79,3.88-16.8,26-11.12,61.52,12.69,79.35s75.35,9.67,92.16-16.32c.86-1.34-17-1.17-16.25-2.54a269,269,0,0,0,42,16.06c-.26,1.58-.5,3.17-.63,4.8-2.65,31.42,18.73,58.88,47.75,61.33s54.7-21,57.34-52.48c.14-1.63.18-3.24.19-4.84a267,267,0,0,0,44.09-8.81c.51,1.48,1,3,1.65,4.42,12.22,28.44,43.58,40.47,70,26.87s38-47.67,25.78-76.1c-.64-1.49-1.36-2.9-2.09-4.3a301.51,301.51,0,0,0,34.35-31.44c1.15,1,2.31,2,3.56,3,23.81,17.83,56.73,11.22,73.53-14.78s11.13-61.51-12.68-79.34c-1.22-.92-2.48-1.72-3.74-2.51a328.18,328.18,0,0,0,15.4-45.65C3005.32,1222.45,3006.79,1222.69,3008.29,1222.81ZM2709.9,1348.43c-105.37-8.87-183-108.56-173.39-222.66s102.82-199.39,208.19-190.51,183,108.56,173.39,222.65S2815.27,1357.31,2709.9,1348.43Z" transform="translate(-390.33 -367.68)"/><path class="cls-69" d="M3010,1059.45c26.46-13.59,38-47.66,25.78-76.1s-43.57-40.47-70-26.87c-1.38.71-2.7,1.51-4,2.32a302.63,302.63,0,0,0-28.61-36.74c1-1.25,1.9-2.53,2.78-3.89,16.8-26,29.71-77.54,4.2-92.84-48.42-29-73.62,2.29-90.42,28.28-.86,1.33-1.62,2.7-2.37,4.08a267,267,0,0,0-42-16.06c.26-1.58.49-3.18.63-4.8a59,59,0,0,0-14.42-44.36q-9.7,73.71-18.18,147.56c90.44,22.76,153.5,114.39,144.78,217.88-7.39,87.7-64.19,158.33-137.91,182.31.17,9.59.42,19.2.33,28.8-.24,26-1.93,52.15-3.65,78.23q10.72-2.18,21.2-5.19c.51,1.48,1,3,1.66,4.42,12.21,28.44,39.51,45.73,88.19,22.88,26.93-12.63,19.83-43.68,7.61-72.11-.64-1.49-1.36-2.9-2.09-4.3a302.44,302.44,0,0,0,34.35-31.44c1.15,1,2.31,2,3.56,3,23.81,17.83,77.22,7.82,94-18.17s-9.37-58.12-33.18-76c-1.22-.92-2.48-1.72-3.74-2.51a329.07,329.07,0,0,0,15.4-45.65c1.47.26,2.94.5,4.44.62,29,2.45,54.69-21,57.34-52.47s-18.74-58.88-47.76-61.33c-1.5-.12-3-.14-4.47-.13a330.42,330.42,0,0,0-7.56-47.58C3007.22,1060.74,3008.59,1060.15,3010,1059.45Z" transform="translate(-390.33 -367.68)"/><path class="cls-9" d="M3035.36,1215.24c29,2.45,54.7-21,57.34-52.47s-18.73-58.88-47.75-61.32c-1.51-.13-3-.15-4.48-.14a327.88,327.88,0,0,0-7.56-47.58c1.38-.56,2.76-1.15,4.11-1.84,26.46-13.6,38-47.67,25.78-76.11s-43.57-40.47-70-26.87c-1.38.71-2.7,1.51-4,2.33a301,301,0,0,0-28.61-36.75c1-1.25,1.91-2.52,2.79-3.88,16.8-26,11.12-61.52-12.69-79.35s-56.74-11.21-73.54,14.78c-.86,1.33-1.62,2.7-2.36,4.08a268.53,268.53,0,0,0-42-16.06c.26-1.58.5-3.17.63-4.8,2.65-31.43-18.73-58.88-47.75-61.33s-54.7,21.05-57.34,52.48c-.14,1.62-.17,3.23-.19,4.84a267,267,0,0,0-44.09,8.81c-.51-1.49-1-3-1.65-4.42-12.22-28.44-43.58-40.47-70-26.87s-38,47.67-25.78,76.1c.64,1.49,1.36,2.9,2.1,4.3a300.68,300.68,0,0,0-34.36,31.44c-1.15-1-2.31-2-3.56-3-23.81-17.82-56.73-11.21-73.53,14.79s-11.13,61.51,12.68,79.34c1.22.92,2.48,1.72,3.75,2.51a328.52,328.52,0,0,0-15.41,45.64c-1.46-.25-2.93-.49-4.44-.61-29-2.45-54.69,21-57.34,52.47s18.74,58.88,47.76,61.33c1.5.12,3,.14,4.47.13a330.42,330.42,0,0,0,7.56,47.58c-1.38.56-2.75,1.15-4.11,1.84-26.46,13.6-38,47.67-25.78,76.11s43.57,40.47,70,26.87c1.38-.71,2.7-1.51,4-2.33a301.05,301.05,0,0,0,28.62,36.75c-1,1.25-1.91,2.53-2.79,3.89-16.8,26-11.12,61.51,12.69,79.34s56.73,11.21,73.53-14.78c.86-1.33,1.63-2.7,2.37-4.08a267,267,0,0,0,42,16.06c-.26,1.58-.49,3.18-.63,4.8-2.65,31.43,18.74,58.88,47.76,61.33s54.69-21,57.34-52.48c.14-1.62.17-3.23.18-4.84a267.15,267.15,0,0,0,44.1-8.81c.5,1.49,1,3,1.65,4.42,12.22,28.44,43.57,40.47,70,26.88s38-47.67,25.78-76.11c-.64-1.49-1.36-2.9-2.1-4.3a301.52,301.52,0,0,0,34.36-31.44c1.14,1,2.31,2,3.55,3,23.81,17.82,56.73,11.21,73.54-14.78s11.12-61.52-12.69-79.35c-1.22-.91-2.48-1.72-3.74-2.51a329.84,329.84,0,0,0,15.41-45.64C3032.39,1214.88,3033.86,1215.12,3035.36,1215.24ZM2737,1340.86c-105.37-8.87-183-108.56-173.39-222.65s102.82-199.4,208.19-190.52,183,108.56,173.39,222.66S2842.34,1349.74,2737,1340.86Z" transform="translate(-390.33 -367.68)"/></g></g></svg>