<svg version="1.1" viewBox="0.0 0.0 600.0 371.0" fill="none" stroke="none" stroke-linecap="square" stroke-miterlimit="10" width="600" height="371" xmlns:xlink="http://www.w3.org/1999/xlink" xmlns="http://www.w3.org/2000/svg"><path fill="#ffffff" d="M0 0L600.0 0L600.0 371.0L0 371.0L0 0Z" fill-rule="nonzero"/><path stroke="#cccccc" stroke-width="1.0" stroke-linecap="butt" d="M87.5 279.5L581.5 279.5" fill-rule="nonzero"/><path stroke="#cccccc" stroke-width="1.0" stroke-linecap="butt" d="M87.5 240.5L581.5 240.5" fill-rule="nonzero"/><path stroke="#cccccc" stroke-width="1.0" stroke-linecap="butt" d="M87.5 201.5L581.5 201.5" fill-rule="nonzero"/><path stroke="#cccccc" stroke-width="1.0" stroke-linecap="butt" d="M87.5 162.5L581.5 162.5" fill-rule="nonzero"/><path stroke="#cccccc" stroke-width="1.0" stroke-linecap="butt" d="M87.5 123.5L581.5 123.5" fill-rule="nonzero"/><clipPath id="id_0"><path d="M87.55 88.28333L581.45 88.28333L581.45 300.45L87.55 300.45L87.55 88.28333Z" clip-rule="nonzero"/></clipPath><path stroke="#000000" stroke-width="2.0" stroke-linecap="butt" stroke-opacity="0.0" clip-path="url(#id_0)" d="M139.0 163.0L116.0 163.0L116.0 96.0C116.0 94.89543 116.89543 94.0 118.0 94.0L137.0 94.0C138.10457 94.0 139.0 94.89543 139.0 96.0Z" fill-rule="nonzero"/><path fill="#5891ad" clip-path="url(#id_0)" d="M139.0 163.0L116.0 163.0L116.0 96.0C116.0 94.89543 116.89543 94.0 118.0 94.0L137.0 94.0C138.10457 94.0 139.0 94.89543 139.0 96.0Z" fill-rule="nonzero"/><path stroke="#000000" stroke-width="2.0" stroke-linecap="butt" stroke-opacity="0.0" clip-path="url(#id_0)" d="M217.0 163.0L194.0 163.0L194.0 156.0C194.0 154.89543 194.89543 154.0 196.0 154.0L215.0 154.0C216.10457 154.0 217.0 154.89543 217.0 156.0Z" fill-rule="nonzero"/><path fill="#5891ad" clip-path="url(#id_0)" d="M217.0 163.0L194.0 163.0L194.0 156.0C194.0 154.89543 194.89543 154.0 196.0 154.0L215.0 154.0C216.10457 154.0 217.0 154.89543 217.0 156.0Z" fill-rule="nonzero"/><path stroke="#000000" stroke-width="2.0" stroke-linecap="butt" stroke-opacity="0.0" clip-path="url(#id_0)" d="M295.0 163.0L272.0 163.0L272.0 205.0C272.0 206.10457 272.89542 207.0 274.0 207.0L293.0 207.0C294.10458 207.0 295.0 206.10457 295.0 205.0Z" fill-rule="nonzero"/><path fill="#5891ad" clip-path="url(#id_0)" d="M295.0 163.0L272.0 163.0L272.0 205.0C272.0 206.10457 272.89542 207.0 274.0 207.0L293.0 207.0C294.10458 207.0 295.0 206.10457 295.0 205.0Z" fill-rule="nonzero"/><path stroke="#000000" stroke-width="2.0" stroke-linecap="butt" stroke-opacity="0.0" clip-path="url(#id_0)" d="M372.0 163.0L349.0 163.0L349.0 292.0C349.0 293.10458 349.89542 294.0 351.0 294.0L370.0 294.0C371.10458 294.0 372.0 293.10458 372.0 292.0Z" fill-rule="nonzero"/><path fill="#5891ad" clip-path="url(#id_0)" d="M372.0 163.0L349.0 163.0L349.0 292.0C349.0 293.10458 349.89542 294.0 351.0 294.0L370.0 294.0C371.10458 294.0 372.0 293.10458 372.0 292.0Z" fill-rule="nonzero"/><path stroke="#000000" stroke-width="2.0" stroke-linecap="butt" stroke-opacity="0.0" clip-path="url(#id_0)" d="M450.0 163.0L427.0 163.0L427.0 298.0C427.0 299.10458 427.89542 300.0 429.0 300.0L448.0 300.0C449.10458 300.0 450.0 299.10458 450.0 298.0Z" fill-rule="nonzero"/><path fill="#5891ad" clip-path="url(#id_0)" d="M450.0 163.0L427.0 163.0L427.0 298.0C427.0 299.10458 427.89542 300.0 429.0 300.0L448.0 300.0C449.10458 300.0 450.0 299.10458 450.0 298.0Z" fill-rule="nonzero"/><path stroke="#000000" stroke-width="2.0" stroke-linecap="butt" stroke-opacity="0.0" clip-path="url(#id_0)" d="M528.0 163.0L505.0 163.0L505.0 142.0C505.0 140.89543 505.89542 140.0 507.0 140.0L526.0 140.0C527.10455 140.0 528.0 140.89543 528.0 142.0Z" fill-rule="nonzero"/><path fill="#5891ad" clip-path="url(#id_0)" d="M528.0 163.0L505.0 163.0L505.0 142.0C505.0 140.89543 505.89542 140.0 507.0 140.0L526.0 140.0C527.10455 140.0 528.0 140.89543 528.0 142.0Z" fill-rule="nonzero"/><path stroke="#000000" stroke-width="2.0" stroke-linecap="butt" stroke-opacity="0.0" clip-path="url(#id_0)" d="M164.0 163.0L141.0 163.0L141.0 90.0C141.0 88.89543 141.89543 88.0 143.0 88.0L162.0 88.0C163.10457 88.0 164.0 88.89543 164.0 90.0Z" fill-rule="nonzero"/><path fill="#004561" clip-path="url(#id_0)" d="M164.0 163.0L141.0 163.0L141.0 90.0C141.0 88.89543 141.89543 88.0 143.0 88.0L162.0 88.0C163.10457 88.0 164.0 88.89543 164.0 90.0Z" fill-rule="nonzero"/><path stroke="#000000" stroke-width="2.0" stroke-linecap="butt" stroke-opacity="0.0" clip-path="url(#id_0)" d="M242.0 163.0L219.0 163.0L219.0 95.0C219.0 93.89543 219.89543 93.0 221.0 93.0L240.0 93.0C241.10457 93.0 242.0 93.89543 242.0 95.0Z" fill-rule="nonzero"/><path fill="#004561" clip-path="url(#id_0)" d="M242.0 163.0L219.0 163.0L219.0 95.0C219.0 93.89543 219.89543 93.0 221.0 93.0L240.0 93.0C241.10457 93.0 242.0 93.89543 242.0 95.0Z" fill-rule="nonzero"/><path stroke="#000000" stroke-width="2.0" stroke-linecap="butt" stroke-opacity="0.0" clip-path="url(#id_0)" d="M320.0 163.0L297.0 163.0L297.0 206.0C297.0 207.10457 297.89542 208.0 299.0 208.0L318.0 208.0C319.10458 208.0 320.0 207.10457 320.0 206.0Z" fill-rule="nonzero"/><path fill="#004561" clip-path="url(#id_0)" d="M320.0 163.0L297.0 163.0L297.0 206.0C297.0 207.10457 297.89542 208.0 299.0 208.0L318.0 208.0C319.10458 208.0 320.0 207.10457 320.0 206.0Z" fill-rule="nonzero"/><path stroke="#000000" stroke-width="2.0" stroke-linecap="butt" stroke-opacity="0.0" clip-path="url(#id_0)" d="M397.0 163.0L374.0 163.0L374.0 239.0C374.0 240.10457 374.89542 241.0 376.0 241.0L395.0 241.0C396.10458 241.0 397.0 240.10457 397.0 239.0Z" fill-rule="nonzero"/><path fill="#004561" clip-path="url(#id_0)" d="M397.0 163.0L374.0 163.0L374.0 239.0C374.0 240.10457 374.89542 241.0 376.0 241.0L395.0 241.0C396.10458 241.0 397.0 240.10457 397.0 239.0Z" fill-rule="nonzero"/><path stroke="#000000" stroke-width="2.0" stroke-linecap="butt" stroke-opacity="0.0" clip-path="url(#id_0)" d="M475.0 163.0L452.0 163.0L452.0 234.0C452.0 235.10457 452.89542 236.0 454.0 236.0L473.0 236.0C474.10458 236.0 475.0 235.10457 475.0 234.0Z" fill-rule="nonzero"/><path fill="#004561" clip-path="url(#id_0)" d="M475.0 163.0L452.0 163.0L452.0 234.0C452.0 235.10457 452.89542 236.0 454.0 236.0L473.0 236.0C474.10458 236.0 475.0 235.10457 475.0 234.0Z" fill-rule="nonzero"/><path stroke="#000000" stroke-width="2.0" stroke-linecap="butt" stroke-opacity="0.0" clip-path="url(#id_0)" d="M553.0 163.0L530.0 163.0L530.0 239.0C530.0 240.10457 530.89545 241.0 532.0 241.0L551.0 241.0C552.10455 241.0 553.0 240.10457 553.0 239.0Z" fill-rule="nonzero"/><path fill="#004561" clip-path="url(#id_0)" d="M553.0 163.0L530.0 163.0L530.0 239.0C530.0 240.10457 530.89545 241.0 532.0 241.0L551.0 241.0C552.10455 241.0 553.0 240.10457 553.0 239.0Z" fill-rule="nonzero"/><path fill="#000000" d="M296.9375 348.52814Q297.73438 349.075 298.39062 349.325L298.0625 350.1219Q297.14062 349.77814 296.21875 349.0594Q295.26562 349.59064 294.10938 349.59064Q292.9375 349.59064 291.98438 349.02814Q291.04688 348.46564 290.53125 347.45Q290.01562 346.4344 290.01562 345.15314Q290.01562 343.8875 290.53125 342.84064Q291.04688 341.79376 292.0 341.2469Q292.95312 340.7 294.125 340.7Q295.3125 340.7 296.26562 341.27814Q297.23438 341.84064 297.73438 342.85626Q298.23438 343.8719 298.23438 345.15314Q298.23438 346.21564 297.90625 347.0594Q297.59375 347.90314 296.9375 348.52814ZM294.4375 347.075Q295.42188 347.35626 296.0625 347.90314Q297.0625 346.98126 297.0625 345.15314Q297.0625 344.10626 296.70312 343.325Q296.34375 342.54376 295.65625 342.1219Q294.98438 341.6844 294.14062 341.6844Q292.85938 341.6844 292.01562 342.5594Q291.1875 343.41876 291.1875 345.15314Q291.1875 346.825 292.01562 347.73126Q292.84375 348.6219 294.14062 348.6219Q294.75 348.6219 295.28125 348.3875Q294.75 348.04376 294.15625 347.90314L294.4375 347.075ZM303.375 349.45L303.375 348.52814Q302.64062 349.59064 301.39062 349.59064Q300.84375 349.59064 300.35938 349.3875Q299.89062 349.16876 299.65625 348.85626Q299.42188 348.52814 299.32812 348.0594Q299.26562 347.7625 299.26562 347.075L299.26562 343.23126L300.32812 343.23126L300.32812 346.6844Q300.32812 347.4969 300.39062 347.79376Q300.48438 348.2 300.79688 348.45Q301.125 348.6844 301.60938 348.6844Q302.07812 348.6844 302.48438 348.45Q302.90625 348.2 303.07812 347.77814Q303.26562 347.35626 303.26562 346.5594L303.26562 343.23126L304.3125 343.23126L304.3125 349.45L303.375 349.45ZM310.54688 347.45L311.64062 347.575Q311.39062 348.52814 310.6875 349.0594Q309.98438 349.59064 308.90625 349.59064Q307.54688 349.59064 306.73438 348.7469Q305.9375 347.90314 305.9375 346.3875Q305.9375 344.825 306.75 343.96564Q307.5625 343.09064 308.84375 343.09064Q310.09375 343.09064 310.875 343.9344Q311.67188 344.77814 311.67188 346.325Q311.67188 346.41876 311.67188 346.60626L307.03125 346.60626Q307.09375 347.6375 307.60938 348.1844Q308.125 348.71564 308.90625 348.71564Q309.48438 348.71564 309.89062 348.41876Q310.3125 348.10626 310.54688 347.45ZM307.09375 345.7469L310.5625 345.7469Q310.5 344.95 310.17188 344.5594Q309.65625 343.95 308.85938 343.95Q308.125 343.95 307.625 344.4344Q307.14062 344.91876 307.09375 345.7469ZM313.28125 349.45L313.28125 343.23126L314.23438 343.23126L314.23438 344.16876Q314.59375 343.5125 314.89062 343.3094Q315.20312 343.09064 315.57812 343.09064Q316.10938 343.09064 316.65625 343.41876L316.29688 344.40314Q315.90625 344.16876 315.53125 344.16876Q315.17188 344.16876 314.89062 344.3875Q314.625 344.59064 314.51562 344.96564Q314.32812 345.52814 314.32812 346.1844L314.32812 349.45L313.28125 349.45ZM317.25 351.84064L317.125 350.85626Q317.46875 350.95 317.73438 350.95Q318.07812 350.95 318.28125 350.825Q318.5 350.71564 318.64062 350.5125Q318.73438 350.34064 318.96875 349.71564Q318.98438 349.6375 319.0625 349.46564L316.6875 343.23126L317.82812 343.23126L319.125 346.825Q319.375 347.5125 319.57812 348.27814Q319.76562 347.54376 320.01562 346.85626L321.34375 343.23126L322.39062 343.23126L320.03125 349.5594Q319.64062 350.575 319.4375 350.96564Q319.15625 351.4969 318.78125 351.73126Q318.42188 351.98126 317.92188 351.98126Q317.625 351.98126 317.25 351.84064ZM329.375 349.45L329.375 348.52814Q328.64062 349.59064 327.39062 349.59064Q326.84375 349.59064 326.35938 349.3875Q325.89062 349.16876 325.65625 348.85626Q325.42188 348.52814 325.32812 348.0594Q325.26562 347.7625 325.26562 347.075L325.26562 343.23126L326.32812 343.23126L326.32812 346.6844Q326.32812 347.4969 326.39062 347.79376Q326.48438 348.2 326.79688 348.45Q327.125 348.6844 327.60938 348.6844Q328.07812 348.6844 328.48438 348.45Q328.90625 348.2 329.07812 347.77814Q329.26562 347.35626 329.26562 346.5594L329.26562 343.23126L330.3125 343.23126L330.3125 349.45L329.375 349.45ZM332.29688 349.45L332.29688 343.23126L333.23438 343.23126L333.23438 344.10626Q333.92188 343.09064 335.21875 343.09064Q335.78125 343.09064 336.25 343.29376Q336.73438 343.4969 336.96875 343.825Q337.20312 344.15314 337.29688 344.59064Q337.34375 344.8875 337.34375 345.6219L337.34375 349.45L336.29688 349.45L336.29688 345.66876Q336.29688 345.0125 336.17188 344.7Q336.04688 344.3875 335.73438 344.2Q335.42188 343.9969 335.0 343.9969Q334.32812 343.9969 333.82812 344.4344Q333.34375 344.85626 333.34375 346.04376L333.34375 349.45L332.29688 349.45ZM343.32812 349.45L343.32812 348.66876Q342.73438 349.59064 341.59375 349.59064Q340.84375 349.59064 340.21875 349.1844Q339.59375 348.7625 339.25 348.02814Q338.90625 347.29376 338.90625 346.34064Q338.90625 345.41876 339.21875 344.65314Q339.53125 343.8875 340.15625 343.4969Q340.78125 343.09064 341.54688 343.09064Q342.10938 343.09064 342.54688 343.325Q342.98438 343.5594 343.26562 343.9344L343.26562 340.85626L344.3125 340.85626L344.3125 349.45L343.32812 349.45ZM340.0 346.34064Q340.0 347.54376 340.5 348.1375Q341.0 348.71564 341.6875 348.71564Q342.375 348.71564 342.85938 348.15314Q343.34375 347.59064 343.34375 346.4344Q343.34375 345.15314 342.84375 344.5594Q342.35938 343.96564 341.64062 343.96564Q340.9375 343.96564 340.46875 344.54376Q340.0 345.10626 340.0 346.34064ZM350.54688 347.45L351.64062 347.575Q351.39062 348.52814 350.6875 349.0594Q349.98438 349.59064 348.90625 349.59064Q347.54688 349.59064 346.73438 348.7469Q345.9375 347.90314 345.9375 346.3875Q345.9375 344.825 346.75 343.96564Q347.5625 343.09064 348.84375 343.09064Q350.09375 343.09064 350.875 343.9344Q351.67188 344.77814 351.67188 346.325Q351.67188 346.41876 351.67188 346.60626L347.03125 346.60626Q347.09375 347.6375 347.60938 348.1844Q348.125 348.71564 348.90625 348.71564Q349.48438 348.71564 349.89062 348.41876Q350.3125 348.10626 350.54688 347.45ZM347.09375 345.7469L350.5625 345.7469Q350.5 344.95 350.17188 344.5594Q349.65625 343.95 348.85938 343.95Q348.125 343.95 347.625 344.4344Q347.14062 344.91876 347.09375 345.7469ZM353.28125 349.45L353.28125 343.23126L354.23438 343.23126L354.23438 344.16876Q354.59375 343.5125 354.89062 343.3094Q355.20312 343.09064 355.57812 343.09064Q356.10938 343.09064 356.65625 343.41876L356.29688 344.40314Q355.90625 344.16876 355.53125 344.16876Q355.17188 344.16876 354.89062 344.3875Q354.625 344.59064 354.51562 344.96564Q354.32812 345.52814 354.32812 346.1844L354.32812 349.45L353.28125 349.45ZM362.59375 348.5125L362.75 349.4344Q362.29688 349.52814 361.95312 349.52814Q361.375 349.52814 361.0625 349.35626Q360.75 349.16876 360.60938 348.8719Q360.48438 348.575 360.48438 347.6219L360.48438 344.04376L359.71875 344.04376L359.71875 343.23126L360.48438 343.23126L360.48438 341.6844L361.53125 341.0594L361.53125 343.23126L362.59375 343.23126L362.59375 344.04376L361.53125 344.04376L361.53125 347.6844Q361.53125 348.1375 361.57812 348.2625Q361.64062 348.3875 361.76562 348.46564Q361.89062 348.54376 362.125 348.54376Q362.3125 348.54376 362.59375 348.5125ZM367.54688 347.45L368.64062 347.575Q368.39062 348.52814 367.6875 349.0594Q366.98438 349.59064 365.90625 349.59064Q364.54688 349.59064 363.73438 348.7469Q362.9375 347.90314 362.9375 346.3875Q362.9375 344.825 363.75 343.96564Q364.5625 343.09064 365.84375 343.09064Q367.09375 343.09064 367.875 343.9344Q368.67188 344.77814 368.67188 346.325Q368.67188 346.41876 368.67188 346.60626L364.03125 346.60626Q364.09375 347.6375 364.60938 348.1844Q365.125 348.71564 365.90625 348.71564Q366.48438 348.71564 366.89062 348.41876Q367.3125 348.10626 367.54688 347.45ZM364.09375 345.7469L367.5625 345.7469Q367.5 344.95 367.17188 344.5594Q366.65625 343.95 365.85938 343.95Q365.125 343.95 364.625 344.4344Q364.14062 344.91876 364.09375 345.7469ZM369.875 347.59064L370.90625 347.4344Q371.0 348.0594 371.39062 348.3875Q371.79688 348.71564 372.53125 348.71564Q373.25 348.71564 373.59375 348.4344Q373.95312 348.1375 373.95312 347.73126Q373.95312 347.3719 373.64062 347.16876Q373.42188 347.02814 372.5625 346.8094Q371.40625 346.5125 370.95312 346.3094Q370.51562 346.09064 370.28125 345.71564Q370.04688 345.34064 370.04688 344.8719Q370.04688 344.46564 370.23438 344.10626Q370.42188 343.7469 370.75 343.5125Q371.0 343.34064 371.42188 343.21564Q371.84375 343.09064 372.34375 343.09064Q373.0625 343.09064 373.60938 343.3094Q374.17188 343.5125 374.4375 343.8719Q374.70312 344.23126 374.79688 344.825L373.76562 344.96564Q373.70312 344.4969 373.35938 344.23126Q373.03125 343.95 372.40625 343.95Q371.6875 343.95 371.375 344.2Q371.0625 344.4344 371.0625 344.7625Q371.0625 344.96564 371.1875 345.1219Q371.32812 345.29376 371.59375 345.40314Q371.75 345.46564 372.53125 345.66876Q373.65625 345.98126 374.09375 346.16876Q374.53125 346.35626 374.78125 346.71564Q375.03125 347.075 375.03125 347.6219Q375.03125 348.15314 374.71875 348.6219Q374.42188 349.075 373.84375 349.34064Q373.26562 349.59064 372.53125 349.59064Q371.3125 349.59064 370.67188 349.09064Q370.04688 348.575 369.875 347.59064ZM379.59375 348.5125L379.75 349.4344Q379.29688 349.52814 378.95312 349.52814Q378.375 349.52814 378.0625 349.35626Q377.75 349.16876 377.60938 348.8719Q377.48438 348.575 377.48438 347.6219L377.48438 344.04376L376.71875 344.04376L376.71875 343.23126L377.48438 343.23126L377.48438 341.6844L378.53125 341.0594L378.53125 343.23126L379.59375 343.23126L379.59375 344.04376L378.53125 344.04376L378.53125 347.6844Q378.53125 348.1375 378.57812 348.2625Q378.64062 348.3875 378.76562 348.46564Q378.89062 348.54376 379.125 348.54376Q379.3125 348.54376 379.59375 348.5125Z" fill-rule="nonzero"/><path fill="#000000" d="M29.550013 280.91354L20.956263 280.91354L20.956263 274.71042L21.971888 274.71042L21.971888 279.77292L24.596888 279.77292L24.596888 275.02292L25.612513 275.02292L25.612513 279.77292L28.534388 279.77292L28.534388 274.5073L29.550013 274.5073L29.550013 280.91354ZM29.550013 273.77292L26.315638 271.5073L23.331263 273.60104L23.331263 272.28854L24.784388 271.33542Q25.206263 271.0698 25.487513 270.89792Q25.096888 270.64792 24.800013 270.42917L23.331263 269.3823L23.331263 268.11667L26.253138 270.27292L29.550013 267.96042L29.550013 269.24167L27.612513 270.52292L27.096888 270.86667L29.550013 272.5073L29.550013 273.77292ZM27.550013 263.8198L27.675013 262.72604Q28.628138 262.97604 29.159388 263.67917Q29.690638 264.3823 29.690638 265.46042Q29.690638 266.8198 28.846888 267.6323Q28.003138 268.42917 26.487513 268.42917Q24.925013 268.42917 24.065638 267.61667Q23.190638 266.80417 23.190638 265.52292Q23.190638 264.27292 24.034388 263.49167Q24.878138 262.6948 26.425013 262.6948Q26.518763 262.6948 26.706263 262.6948L26.706263 267.33542Q27.737513 267.27292 28.284388 266.7573Q28.815638 266.24167 28.815638 265.46042Q28.815638 264.8823 28.518763 264.47604Q28.206263 264.05417 27.550013 263.8198ZM25.846888 267.27292L25.846888 263.80417Q25.050013 263.86667 24.659388 264.1948Q24.050013 264.71042 24.050013 265.5073Q24.050013 266.24167 24.534388 266.74167Q25.018763 267.22604 25.846888 267.27292ZM27.268763 257.0073L27.409388 255.97604Q28.471888 256.14792 29.081263 256.85104Q29.690638 257.55417 29.690638 258.5698Q29.690638 259.85104 28.862513 260.6323Q28.018763 261.39792 26.456263 261.39792Q25.456263 261.39792 24.706263 261.0698Q23.940638 260.72604 23.565638 260.05417Q23.190638 259.36667 23.190638 258.55417Q23.190638 257.55417 23.706263 256.91354Q24.206263 256.2573 25.159388 256.0698L25.315638 257.10104Q24.690638 257.24167 24.378138 257.61667Q24.050013 257.99167 24.050013 258.52292Q24.050013 259.3198 24.628138 259.8198Q25.190638 260.3198 26.425013 260.3198Q27.690638 260.3198 28.253138 259.83542Q28.815638 259.35104 28.815638 258.58542Q28.815638 257.96042 28.440638 257.55417Q28.065638 257.1323 27.268763 257.0073ZM29.550013 250.99167L28.628138 250.99167Q29.690638 251.72604 29.690638 252.97604Q29.690638 253.52292 29.487513 254.0073Q29.268763 254.47604 28.956263 254.71042Q28.628138 254.9448 28.159388 255.03854Q27.862513 255.10104 27.175013 255.10104L23.331263 255.10104L23.331263 254.03854L26.784388 254.03854Q27.596888 254.03854 27.893763 253.97604Q28.300013 253.8823 28.550013 253.5698Q28.784388 253.24167 28.784388 252.7573Q28.784388 252.28854 28.550013 251.8823Q28.300013 251.46042 27.878138 251.28854Q27.456263 251.10104 26.659388 251.10104L23.331263 251.10104L23.331263 250.05417L29.550013 250.05417L29.550013 250.99167ZM28.612513 245.77292L29.534388 245.61667Q29.628138 246.0698 29.628138 246.41354Q29.628138 246.99167 29.456263 247.30417Q29.268763 247.61667 28.971888 247.7573Q28.675013 247.8823 27.721888 247.8823L24.143763 247.8823L24.143763 248.64792L23.331263 248.64792L23.331263 247.8823L21.784388 247.8823L21.159388 246.83542L23.331263 246.83542L23.331263 245.77292L24.143763 245.77292L24.143763 246.83542L27.784388 246.83542Q28.237513 246.83542 28.362513 246.78854Q28.487513 246.72604 28.565638 246.60104Q28.643763 246.47604 28.643763 246.24167Q28.643763 246.05417 28.612513 245.77292ZM22.175013 245.0698L20.956263 245.0698L20.956263 244.0073L22.175013 244.0073L22.175013 245.0698ZM29.550013 245.0698L23.331263 245.0698L23.331263 244.0073L29.550013 244.0073L29.550013 245.0698ZM26.440638 242.46042Q24.706263 242.46042 23.878138 241.5073Q23.190638 240.71042 23.190638 239.55417Q23.190638 238.27292 24.034388 237.46042Q24.862513 236.6323 26.346888 236.6323Q27.550013 236.6323 28.237513 236.99167Q28.925013 237.35104 29.315638 238.05417Q29.690638 238.74167 29.690638 239.55417Q29.690638 240.85104 28.862513 241.66354Q28.018763 242.46042 26.440638 242.46042ZM26.440638 241.3823Q27.628138 241.3823 28.221888 240.86667Q28.815638 240.33542 28.815638 239.55417Q28.815638 238.7573 28.221888 238.24167Q27.628138 237.72604 26.409388 237.72604Q25.253138 237.72604 24.659388 238.2573Q24.065638 238.77292 24.065638 239.55417Q24.065638 240.33542 24.659388 240.86667Q25.237513 241.3823 26.440638 241.3823ZM29.550013 235.0698L23.331263 235.0698L23.331263 234.1323L24.206263 234.1323Q23.190638 233.4448 23.190638 232.14792Q23.190638 231.58542 23.393763 231.11667Q23.596888 230.6323 23.925013 230.39792Q24.253138 230.16354 24.690638 230.0698Q24.987513 230.02292 25.721888 230.02292L29.550013 230.02292L29.550013 231.0698L25.768763 231.0698Q25.112513 231.0698 24.800013 231.1948Q24.487513 231.3198 24.300013 231.6323Q24.096888 231.9448 24.096888 232.36667Q24.096888 233.03854 24.534388 233.53854Q24.956263 234.02292 26.143763 234.02292L29.550013 234.02292L29.550013 235.0698ZM28.612513 222.77292L29.534388 222.61667Q29.628138 223.0698 29.628138 223.41354Q29.628138 223.99167 29.456263 224.30417Q29.268763 224.61667 28.971888 224.7573Q28.675013 224.8823 27.721888 224.8823L24.143763 224.8823L24.143763 225.64792L23.331263 225.64792L23.331263 224.8823L21.784388 224.8823L21.159388 223.83542L23.331263 223.83542L23.331263 222.77292L24.143763 222.77292L24.143763 223.83542L27.784388 223.83542Q28.237513 223.83542 28.362513 223.78854Q28.487513 223.72604 28.565638 223.60104Q28.643763 223.47604 28.643763 223.24167Q28.643763 223.05417 28.612513 222.77292ZM22.175013 222.0698L20.956263 222.0698L20.956263 221.0073L22.175013 221.0073L22.175013 222.0698ZM29.550013 222.0698L23.331263 222.0698L23.331263 221.0073L29.550013 221.0073L29.550013 222.0698ZM29.550013 219.0698L23.331263 219.0698L23.331263 218.1323L24.206263 218.1323Q23.737513 217.83542 23.471888 217.35104Q23.190638 216.86667 23.190638 216.24167Q23.190638 215.55417 23.471888 215.11667Q23.753138 214.66354 24.268763 214.49167Q23.190638 213.74167 23.190638 212.5698Q23.190638 211.6323 23.706263 211.14792Q24.206263 210.64792 25.284388 210.64792L29.550013 210.64792L29.550013 211.6948L25.628138 211.6948Q25.003138 211.6948 24.721888 211.80417Q24.440638 211.89792 24.268763 212.16354Q24.096888 212.42917 24.096888 212.80417Q24.096888 213.46042 24.534388 213.89792Q24.971888 214.3198 25.940638 214.3198L29.550013 214.3198L29.550013 215.3823L25.503138 215.3823Q24.800013 215.3823 24.456263 215.64792Q24.096888 215.89792 24.096888 216.47604Q24.096888 216.92917 24.331263 217.30417Q24.565638 217.67917 25.018763 217.85104Q25.471888 218.02292 26.315638 218.02292L29.550013 218.02292L29.550013 219.0698ZM27.550013 203.8198L27.675013 202.72604Q28.628138 202.97604 29.159388 203.67917Q29.690638 204.3823 29.690638 205.46042Q29.690638 206.8198 28.846888 207.6323Q28.003138 208.42917 26.487513 208.42917Q24.925013 208.42917 24.065638 207.61667Q23.190638 206.80417 23.190638 205.52292Q23.190638 204.27292 24.034388 203.49167Q24.878138 202.6948 26.425013 202.6948Q26.518763 202.6948 26.706263 202.6948L26.706263 207.33542Q27.737513 207.27292 28.284388 206.7573Q28.815638 206.24167 28.815638 205.46042Q28.815638 204.8823 28.518763 204.47604Q28.206263 204.05417 27.550013 203.8198ZM25.846888 207.27292L25.846888 203.80417Q25.050013 203.86667 24.659388 204.1948Q24.050013 204.71042 24.050013 205.5073Q24.050013 206.24167 24.534388 206.74167Q25.018763 207.22604 25.846888 207.27292ZM22.175013 198.0698L20.956263 198.0698L20.956263 197.0073L22.175013 197.0073L22.175013 198.0698ZM29.550013 198.0698L23.331263 198.0698L23.331263 197.0073L29.550013 197.0073L29.550013 198.0698ZM29.550013 195.0698L23.331263 195.0698L23.331263 194.1323L24.206263 194.1323Q23.190638 193.4448 23.190638 192.14792Q23.190638 191.58542 23.393763 191.11667Q23.596888 190.6323 23.925013 190.39792Q24.253138 190.16354 24.690638 190.0698Q24.987513 190.02292 25.721888 190.02292L29.550013 190.02292L29.550013 191.0698L25.768763 191.0698Q25.112513 191.0698 24.800013 191.1948Q24.487513 191.3198 24.300013 191.6323Q24.096888 191.9448 24.096888 192.36667Q24.096888 193.03854 24.534388 193.53854Q24.956263 194.02292 26.143763 194.02292L29.550013 194.02292L29.550013 195.0698ZM29.550013 185.10104L20.956263 185.10104L20.956263 184.03854L29.550013 184.03854L29.550013 185.10104ZM26.440638 182.46042Q24.706263 182.46042 23.878138 181.5073Q23.190638 180.71042 23.190638 179.55417Q23.190638 178.27292 24.034388 177.46042Q24.862513 176.6323 26.346888 176.6323Q27.550013 176.6323 28.237513 176.99167Q28.925013 177.35104 29.315638 178.05417Q29.690638 178.74167 29.690638 179.55417Q29.690638 180.85104 28.862513 181.66354Q28.018763 182.46042 26.440638 182.46042ZM26.440638 181.3823Q27.628138 181.3823 28.221888 180.86667Q28.815638 180.33542 28.815638 179.55417Q28.815638 178.7573 28.221888 178.24167Q27.628138 177.72604 26.409388 177.72604Q25.253138 177.72604 24.659388 178.2573Q24.065638 178.77292 24.065638 179.55417Q24.065638 180.33542 24.659388 180.86667Q25.237513 181.3823 26.440638 181.3823ZM30.065638 175.27292L30.221888 174.24167Q30.690638 174.17917 30.909388 173.8823Q31.206263 173.49167 31.206263 172.8198Q31.206263 172.08542 30.909388 171.6948Q30.612513 171.28854 30.096888 171.14792Q29.768763 171.05417 28.737513 171.0698Q29.550013 171.7573 29.550013 172.78854Q29.550013 174.0698 28.628138 174.77292Q27.690638 175.47604 26.409388 175.47604Q25.518763 175.47604 24.768763 175.16354Q24.003138 174.83542 23.596888 174.22604Q23.190638 173.61667 23.190638 172.78854Q23.190638 171.67917 24.081263 170.96042L23.331263 170.96042L23.331263 169.99167L28.706263 169.99167Q30.159388 169.99167 30.768763 170.28854Q31.378138 170.58542 31.721888 171.22604Q32.08126 171.86667 32.08126 172.80417Q32.08126 173.91354 31.581263 174.60104Q31.081263 175.28854 30.065638 175.27292ZM26.331263 174.39792Q27.550013 174.39792 28.112513 173.91354Q28.675013 173.42917 28.675013 172.6948Q28.675013 171.96042 28.112513 171.47604Q27.550013 170.97604 26.362513 170.97604Q25.221888 170.97604 24.643763 171.49167Q24.065638 171.99167 24.065638 172.71042Q24.065638 173.41354 24.643763 173.91354Q25.206263 174.39792 26.331263 174.39792ZM32.08126 166.05417Q30.971888 166.92917 29.503138 167.53854Q28.018763 168.1323 26.440638 168.1323Q25.050013 168.1323 23.768763 167.6948Q22.284388 167.16354 20.815638 166.05417L20.815638 165.30417Q22.034388 166.0073 22.550013 166.24167Q23.362513 166.60104 24.237513 166.80417Q25.331263 167.05417 26.440638 167.05417Q29.268763 167.05417 32.08126 165.30417L32.08126 166.05417ZM27.690638 164.49167L27.534388 163.46042Q28.159388 163.36667 28.487513 162.97604Q28.815638 162.5698 28.815638 161.83542Q28.815638 161.11667 28.534388 160.77292Q28.237513 160.41354 27.831263 160.41354Q27.471888 160.41354 27.268763 160.72604Q27.128138 160.9448 26.909388 161.80417Q26.612513 162.96042 26.409388 163.41354Q26.190638 163.85104 25.815638 164.08542Q25.440638 164.3198 24.971888 164.3198Q24.565638 164.3198 24.206263 164.1323Q23.846888 163.9448 23.612513 163.61667Q23.440638 163.36667 23.315638 162.9448Q23.190638 162.52292 23.190638 162.02292Q23.190638 161.30417 23.409388 160.7573Q23.612513 160.1948 23.971888 159.92917Q24.331263 159.66354 24.925013 159.5698L25.065638 160.60104Q24.596888 160.66354 24.331263 161.0073Q24.050013 161.33542 24.050013 161.96042Q24.050013 162.67917 24.300013 162.99167Q24.534388 163.30417 24.862513 163.30417Q25.065638 163.30417 25.221888 163.17917Q25.393763 163.03854 25.503138 162.77292Q25.565638 162.61667 25.768763 161.83542Q26.081263 160.71042 26.268763 160.27292Q26.456263 159.83542 26.815638 159.58542Q27.175013 159.33542 27.721888 159.33542Q28.253138 159.33542 28.721888 159.64792Q29.175013 159.9448 29.440638 160.52292Q29.690638 161.10104 29.690638 161.83542Q29.690638 163.05417 29.190638 163.6948Q28.675013 164.3198 27.690638 164.49167ZM27.550013 152.8198L27.675013 151.72604Q28.628138 151.97604 29.159388 152.67917Q29.690638 153.3823 29.690638 154.46042Q29.690638 155.8198 28.846888 156.6323Q28.003138 157.42917 26.487513 157.42917Q24.925013 157.42917 24.065638 156.61667Q23.190638 155.80417 23.190638 154.52292Q23.190638 153.27292 24.034388 152.49167Q24.878138 151.6948 26.425013 151.6948Q26.518763 151.6948 26.706263 151.6948L26.706263 156.33542Q27.737513 156.27292 28.284388 155.7573Q28.815638 155.24167 28.815638 154.46042Q28.815638 153.8823 28.518763 153.47604Q28.206263 153.05417 27.550013 152.8198ZM25.846888 156.27292L25.846888 152.80417Q25.050013 152.86667 24.659388 153.1948Q24.050013 153.71042 24.050013 154.5073Q24.050013 155.24167 24.534388 155.74167Q25.018763 156.22604 25.846888 156.27292ZM27.268763 146.0073L27.409388 144.97604Q28.471888 145.14792 29.081263 145.85104Q29.690638 146.55417 29.690638 147.5698Q29.690638 148.85104 28.862513 149.6323Q28.018763 150.39792 26.456263 150.39792Q25.456263 150.39792 24.706263 150.0698Q23.940638 149.72604 23.565638 149.05417Q23.190638 148.36667 23.190638 147.55417Q23.190638 146.55417 23.706263 145.91354Q24.206263 145.2573 25.159388 145.0698L25.315638 146.10104Q24.690638 146.24167 24.378138 146.61667Q24.050013 146.99167 24.050013 147.52292Q24.050013 148.3198 24.628138 148.8198Q25.190638 149.3198 26.425013 149.3198Q27.690638 149.3198 28.253138 148.83542Q28.815638 148.35104 28.815638 147.58542Q28.815638 146.96042 28.440638 146.55417Q28.065638 146.1323 27.268763 146.0073ZM26.440638 144.46042Q24.706263 144.46042 23.878138 143.5073Q23.190638 142.71042 23.190638 141.55417Q23.190638 140.27292 24.034388 139.46042Q24.862513 138.6323 26.346888 138.6323Q27.550013 138.6323 28.237513 138.99167Q28.925013 139.35104 29.315638 140.05417Q29.690638 140.74167 29.690638 141.55417Q29.690638 142.85104 28.862513 143.66354Q28.018763 144.46042 26.440638 144.46042ZM26.440638 143.3823Q27.628138 143.3823 28.221888 142.86667Q28.815638 142.33542 28.815638 141.55417Q28.815638 140.7573 28.221888 140.24167Q27.628138 139.72604 26.409388 139.72604Q25.253138 139.72604 24.659388 140.2573Q24.065638 140.77292 24.065638 141.55417Q24.065638 142.33542 24.659388 142.86667Q25.237513 143.3823 26.440638 143.3823ZM29.550013 137.0698L23.331263 137.0698L23.331263 136.1323L24.206263 136.1323Q23.190638 135.4448 23.190638 134.14792Q23.190638 133.58542 23.393763 133.11667Q23.596888 132.6323 23.925013 132.39792Q24.253138 132.16354 24.690638 132.0698Q24.987513 132.02292 25.721888 132.02292L29.550013 132.02292L29.550013 133.0698L25.768763 133.0698Q25.112513 133.0698 24.800013 133.1948Q24.487513 133.3198 24.300013 133.6323Q24.096888 133.9448 24.096888 134.36667Q24.096888 135.03854 24.534388 135.53854Q24.956263 136.02292 26.143763 136.02292L29.550013 136.02292L29.550013 137.0698ZM29.550013 126.03854L28.768763 126.03854Q29.690638 126.63229 29.690638 127.77292Q29.690638 128.52292 29.284388 129.14792Q28.862513 129.77292 28.128138 130.11667Q27.393763 130.46042 26.440638 130.46042Q25.518763 130.46042 24.753138 130.14792Q23.987513 129.83542 23.596888 129.21042Q23.190638 128.58542 23.190638 127.81979Q23.190638 127.25729 23.425013 126.81979Q23.659388 126.38229 24.034388 126.10104L20.956263 126.10104L20.956263 125.05417L29.550013 125.05417L29.550013 126.03854ZM26.440638 129.36667Q27.643763 129.36667 28.237513 128.86667Q28.815638 128.36667 28.815638 127.67917Q28.815638 126.99167 28.253138 126.50729Q27.690638 126.02292 26.534388 126.02292Q25.253138 126.02292 24.659388 126.52292Q24.065638 127.00729 24.065638 127.72604Q24.065638 128.42917 24.643763 128.89792Q25.206263 129.36667 26.440638 129.36667ZM32.08126 122.38229L32.08126 123.13229Q29.268763 121.38229 26.440638 121.38229Q25.346888 121.38229 24.253138 121.63229Q23.378138 121.83542 22.565638 122.19479Q22.050013 122.42917 20.815638 123.13229L20.815638 122.38229Q22.284388 121.28854 23.768763 120.75729Q25.050013 120.30417 26.440638 120.30417Q28.018763 120.30417 29.503138 120.91354Q30.971888 121.52292 32.08126 122.38229Z" fill-rule="nonzero"/><path fill="#000000" d="M51.05 279.69714Q51.05 278.1659 51.3625 277.24402Q51.675 276.30652 52.284374 275.80652Q52.909374 275.30652 53.846874 275.30652Q54.534374 275.30652 55.05 275.58777Q55.58125 275.86902 55.925 276.40027Q56.26875 276.9159 56.45625 277.6659Q56.64375 278.4159 56.64375 279.69714Q56.64375 281.21277 56.33125 282.13464Q56.034374 283.05652 55.409374 283.57214Q54.8 284.07214 53.846874 284.07214Q52.6125 284.07214 51.89375 283.18152Q51.05 282.11902 51.05 279.69714ZM52.128124 279.69714Q52.128124 281.80652 52.628124 282.50964Q53.128124 283.21277 53.846874 283.21277Q54.58125 283.21277 55.065624 282.50964Q55.565624 281.80652 55.565624 279.69714Q55.565624 277.57214 55.065624 276.88464Q54.58125 276.18152 53.83125 276.18152Q53.1125 276.18152 52.675 276.7909Q52.128124 277.57214 52.128124 279.69714ZM58.64375 283.93152L58.64375 282.7284L59.846874 282.7284L59.846874 283.93152L58.64375 283.93152ZM61.05 279.69714Q61.05 278.1659 61.3625 277.24402Q61.675 276.30652 62.284374 275.80652Q62.909374 275.30652 63.846874 275.30652Q64.53438 275.30652 65.05 275.58777Q65.58125 275.86902 65.925 276.40027Q66.26875 276.9159 66.45625 277.6659Q66.64375 278.4159 66.64375 279.69714Q66.64375 281.21277 66.33125 282.13464Q66.03438 283.05652 65.40938 283.57214Q64.8 284.07214 63.846874 284.07214Q62.6125 284.07214 61.89375 283.18152Q61.05 282.11902 61.05 279.69714ZM62.128124 279.69714Q62.128124 281.80652 62.628124 282.50964Q63.128124 283.21277 63.846874 283.21277Q64.58125 283.21277 65.06563 282.50964Q65.56563 281.80652 65.56563 279.69714Q65.56563 277.57214 65.06563 276.88464Q64.58125 276.18152 63.83125 276.18152Q63.1125 276.18152 62.675 276.7909Q62.128124 277.57214 62.128124 279.69714ZM68.05 279.69714Q68.05 278.1659 68.3625 277.24402Q68.675 276.30652 69.28438 275.80652Q69.90938 275.30652 70.84688 275.30652Q71.53438 275.30652 72.05 275.58777Q72.58125 275.86902 72.925 276.40027Q73.26875 276.9159 73.45625 277.6659Q73.64375 278.4159 73.64375 279.69714Q73.64375 281.21277 73.33125 282.13464Q73.03438 283.05652 72.40938 283.57214Q71.8 284.07214 70.84688 284.07214Q69.6125 284.07214 68.89375 283.18152Q68.05 282.11902 68.05 279.69714ZM69.12813 279.69714Q69.12813 281.80652 69.62813 282.50964Q70.12813 283.21277 70.84688 283.21277Q71.58125 283.21277 72.06563 282.50964Q72.56563 281.80652 72.56563 279.69714Q72.56563 277.57214 72.06563 276.88464Q71.58125 276.18152 70.83125 276.18152Q70.1125 276.18152 69.675 276.7909Q69.12813 277.57214 69.12813 279.69714ZM79.01875 283.93152L77.97188 283.93152L77.97188 277.21277Q77.58125 277.57214 76.95625 277.94714Q76.34688 278.30652 75.8625 278.4784L75.8625 277.46277Q76.7375 277.0409 77.39375 276.46277Q78.06563 275.86902 78.34688 275.30652L79.01875 275.30652L79.01875 283.93152Z" fill-rule="nonzero"/><path fill="#000000" d="M58.05 240.69965Q58.05 239.1684 58.3625 238.24652Q58.675 237.30902 59.284374 236.80902Q59.909374 236.30902 60.846874 236.30902Q61.534374 236.30902 62.05 236.59027Q62.58125 236.87152 62.925 237.40277Q63.26875 237.9184 63.45625 238.6684Q63.64375 239.4184 63.64375 240.69965Q63.64375 242.21527 63.33125 243.13715Q63.034374 244.05902 62.409374 244.57465Q61.8 245.07465 60.846874 245.07465Q59.6125 245.07465 58.89375 244.18402Q58.05 243.12152 58.05 240.69965ZM59.128124 240.69965Q59.128124 242.80902 59.628124 243.51215Q60.128124 244.21527 60.846874 244.21527Q61.58125 244.21527 62.065624 243.51215Q62.565624 242.80902 62.565624 240.69965Q62.565624 238.57465 62.065624 237.88715Q61.58125 237.18402 60.83125 237.18402Q60.1125 237.18402 59.675 237.7934Q59.128124 238.57465 59.128124 240.69965ZM65.64375 244.93402L65.64375 243.7309L66.84688 243.7309L66.84688 244.93402L65.64375 244.93402ZM68.05 240.69965Q68.05 239.1684 68.3625 238.24652Q68.675 237.30902 69.28438 236.80902Q69.90938 236.30902 70.84688 236.30902Q71.53438 236.30902 72.05 236.59027Q72.58125 236.87152 72.925 237.40277Q73.26875 237.9184 73.45625 238.6684Q73.64375 239.4184 73.64375 240.69965Q73.64375 242.21527 73.33125 243.13715Q73.03438 244.05902 72.40938 244.57465Q71.8 245.07465 70.84688 245.07465Q69.6125 245.07465 68.89375 244.18402Q68.05 243.12152 68.05 240.69965ZM69.12813 240.69965Q69.12813 242.80902 69.62813 243.51215Q70.12813 244.21527 70.84688 244.21527Q71.58125 244.21527 72.06563 243.51215Q72.56563 242.80902 72.56563 240.69965Q72.56563 238.57465 72.06563 237.88715Q71.58125 237.18402 70.83125 237.18402Q70.1125 237.18402 69.675 237.7934Q69.12813 238.57465 69.12813 240.69965ZM79.01875 244.93402L77.97188 244.93402L77.97188 238.21527Q77.58125 238.57465 76.95625 238.94965Q76.34688 239.30902 75.8625 239.4809L75.8625 238.46527Q76.7375 238.0434 77.39375 237.46527Q78.06563 236.87152 78.34688 236.30902L79.01875 236.30902L79.01875 244.93402Z" fill-rule="nonzero"/><path fill="#000000" d="M65.05 201.70213Q65.05 200.17088 65.3625 199.24901Q65.675 198.31151 66.28438 197.81151Q66.90938 197.31151 67.84688 197.31151Q68.53438 197.31151 69.05 197.59276Q69.58125 197.87401 69.925 198.40526Q70.26875 198.92088 70.45625 199.67088Q70.64375 200.42088 70.64375 201.70213Q70.64375 203.21776 70.33125 204.13963Q70.03438 205.06151 69.40938 205.57713Q68.8 206.07713 67.84688 206.07713Q66.6125 206.07713 65.89375 205.18651Q65.05 204.12401 65.05 201.70213ZM66.12813 201.70213Q66.12813 203.81151 66.62813 204.51463Q67.12813 205.21776 67.84688 205.21776Q68.58125 205.21776 69.06563 204.51463Q69.56563 203.81151 69.56563 201.70213Q69.56563 199.57713 69.06563 198.88963Q68.58125 198.18651 67.83125 198.18651Q67.1125 198.18651 66.675 198.79588Q66.12813 199.57713 66.12813 201.70213ZM72.64375 205.93651L72.64375 204.73338L73.84688 204.73338L73.84688 205.93651L72.64375 205.93651ZM79.01875 205.93651L77.97188 205.93651L77.97188 199.21776Q77.58125 199.57713 76.95625 199.95213Q76.34688 200.31151 75.8625 200.48338L75.8625 199.46776Q76.7375 199.04588 77.39375 198.46776Q78.06563 197.87401 78.34688 197.31151L79.01875 197.31151L79.01875 205.93651Z" fill-rule="nonzero"/><path fill="#000000" d="M79.01875 166.93898L77.97188 166.93898L77.97188 160.22023Q77.58125 160.5796 76.95625 160.9546Q76.34688 161.31398 75.8625 161.48586L75.8625 160.47023Q76.7375 160.04836 77.39375 159.47023Q78.06563 158.87648 78.34688 158.31398L79.01875 158.31398L79.01875 166.93898Z" fill-rule="nonzero"/><path fill="#000000" d="M72.01875 127.941475L70.97188 127.941475L70.97188 121.222725Q70.58125 121.5821 69.95625 121.9571Q69.34688 122.316475 68.8625 122.48835L68.8625 121.472725Q69.7375 121.05085 70.39375 120.472725Q71.06563 119.878975 71.34688 119.316475L72.01875 119.316475L72.01875 127.941475ZM75.05 123.7071Q75.05 122.17585 75.3625 121.253975Q75.675 120.316475 76.28438 119.816475Q76.90938 119.316475 77.84688 119.316475Q78.53438 119.316475 79.05 119.597725Q79.58125 119.878975 79.925 120.410225Q80.26875 120.92585 80.45625 121.67585Q80.64375 122.42585 80.64375 123.7071Q80.64375 125.222725 80.33125 126.1446Q80.03438 127.066475 79.40938 127.5821Q78.8 128.08209 77.84688 128.08209Q76.6125 128.08209 75.89375 127.191475Q75.05 126.128975 75.05 123.7071ZM76.12813 123.7071Q76.12813 125.816475 76.62813 126.5196Q77.12813 127.222725 77.84688 127.222725Q78.58125 127.222725 79.06563 126.5196Q79.56563 125.816475 79.56563 123.7071Q79.56563 121.5821 79.06563 120.8946Q78.58125 120.191475 77.83125 120.191475Q77.1125 120.191475 76.675 120.80085Q76.12813 121.5821 76.12813 123.7071Z" fill-rule="nonzero"/><path fill="#000000" d="M139.48868 316.52814Q140.28555 317.075 140.9418 317.325L140.61368 318.1219Q139.6918 317.77814 138.76993 317.0594Q137.8168 317.59064 136.66055 317.59064Q135.48868 317.59064 134.53555 317.02814Q133.59805 316.46564 133.08243 315.45Q132.5668 314.4344 132.5668 313.15314Q132.5668 311.8875 133.08243 310.84064Q133.59805 309.79376 134.55118 309.2469Q135.5043 308.7 136.67618 308.7Q137.86368 308.7 138.8168 309.27814Q139.78555 309.84064 140.28555 310.85626Q140.78555 311.8719 140.78555 313.15314Q140.78555 314.21564 140.45743 315.0594Q140.14493 315.90314 139.48868 316.52814ZM136.98868 315.075Q137.97305 315.35626 138.61368 315.90314Q139.61368 314.98126 139.61368 313.15314Q139.61368 312.10626 139.2543 311.325Q138.89493 310.54376 138.20743 310.1219Q137.53555 309.6844 136.6918 309.6844Q135.41055 309.6844 134.5668 310.5594Q133.73868 311.41876 133.73868 313.15314Q133.73868 314.825 134.5668 315.73126Q135.39493 316.6219 136.6918 316.6219Q137.30118 316.6219 137.83243 316.3875Q137.30118 316.04376 136.70743 315.90314L136.98868 315.075ZM145.51993 317.45L144.47305 317.45L144.47305 310.73126Q144.08243 311.09064 143.45743 311.46564Q142.84805 311.825 142.36368 311.9969L142.36368 310.98126Q143.23868 310.5594 143.89493 309.98126Q144.5668 309.3875 144.84805 308.825L145.51993 308.825L145.51993 317.45Z" fill-rule="nonzero"/><path fill="#000000" d="M217.2682 316.52814Q218.06508 317.075 218.72133 317.325L218.3932 318.1219Q217.47133 317.77814 216.54945 317.0594Q215.59633 317.59064 214.44008 317.59064Q213.2682 317.59064 212.31508 317.02814Q211.37758 316.46564 210.86195 315.45Q210.34633 314.4344 210.34633 313.15314Q210.34633 311.8875 210.86195 310.84064Q211.37758 309.79376 212.3307 309.2469Q213.28383 308.7 214.4557 308.7Q215.6432 308.7 216.59633 309.27814Q217.56508 309.84064 218.06508 310.85626Q218.56508 311.8719 218.56508 313.15314Q218.56508 314.21564 218.23695 315.0594Q217.92445 315.90314 217.2682 316.52814ZM214.7682 315.075Q215.75258 315.35626 216.3932 315.90314Q217.3932 314.98126 217.3932 313.15314Q217.3932 312.10626 217.03383 311.325Q216.67445 310.54376 215.98695 310.1219Q215.31508 309.6844 214.47133 309.6844Q213.19008 309.6844 212.34633 310.5594Q211.5182 311.41876 211.5182 313.15314Q211.5182 314.825 212.34633 315.73126Q213.17445 316.6219 214.47133 316.6219Q215.0807 316.6219 215.61195 316.3875Q215.0807 316.04376 214.48695 315.90314L214.7682 315.075ZM224.87758 316.4344L224.87758 317.45L219.19008 317.45Q219.19008 317.075 219.31508 316.71564Q219.53383 316.1375 220.00258 315.575Q220.48695 315.0125 221.3932 314.27814Q222.79945 313.1219 223.28383 312.45Q223.78383 311.77814 223.78383 311.1844Q223.78383 310.5594 223.3307 310.1375Q222.87758 309.7 222.15883 309.7Q221.3932 309.7 220.94008 310.15314Q220.48695 310.60626 220.47133 311.41876L219.3932 311.3094Q219.50258 310.09064 220.22133 309.46564Q220.9557 308.825 222.19008 308.825Q223.42445 308.825 224.1432 309.5125Q224.86195 310.2 224.86195 311.21564Q224.86195 311.73126 224.6432 312.23126Q224.44008 312.71564 223.94008 313.27814Q223.4557 313.825 222.3307 314.77814Q221.37758 315.575 221.09633 315.8719Q220.8307 316.15314 220.65883 316.4344L224.87758 316.4344Z" fill-rule="nonzero"/><path fill="#000000" d="M295.04773 316.52814Q295.8446 317.075 296.50085 317.325L296.17273 318.1219Q295.25085 317.77814 294.32898 317.0594Q293.37585 317.59064 292.2196 317.59064Q291.04773 317.59064 290.0946 317.02814Q289.1571 316.46564 288.64148 315.45Q288.12585 314.4344 288.12585 313.15314Q288.12585 311.8875 288.64148 310.84064Q289.1571 309.79376 290.11023 309.2469Q291.06335 308.7 292.23523 308.7Q293.42273 308.7 294.37585 309.27814Q295.3446 309.84064 295.8446 310.85626Q296.3446 311.8719 296.3446 313.15314Q296.3446 314.21564 296.01648 315.0594Q295.70398 315.90314 295.04773 316.52814ZM292.54773 315.075Q293.5321 315.35626 294.17273 315.90314Q295.17273 314.98126 295.17273 313.15314Q295.17273 312.10626 294.81335 311.325Q294.45398 310.54376 293.76648 310.1219Q293.0946 309.6844 292.25085 309.6844Q290.9696 309.6844 290.12585 310.5594Q289.29773 311.41876 289.29773 313.15314Q289.29773 314.825 290.12585 315.73126Q290.95398 316.6219 292.25085 316.6219Q292.86023 316.6219 293.39148 316.3875Q292.86023 316.04376 292.26648 315.90314L292.54773 315.075ZM297.11023 315.1844L298.17273 315.04376Q298.3446 315.9344 298.7821 316.34064Q299.2196 316.73126 299.8446 316.73126Q300.5946 316.73126 301.11023 316.21564Q301.62585 315.7 301.62585 314.9344Q301.62585 314.21564 301.14148 313.7469Q300.67273 313.2625 299.93835 313.2625Q299.64148 313.2625 299.18835 313.3875L299.31335 312.45Q299.42273 312.46564 299.48523 312.46564Q300.1571 312.46564 300.68835 312.1219Q301.23523 311.7625 301.23523 311.02814Q301.23523 310.45 300.8446 310.075Q300.45398 309.6844 299.82898 309.6844Q299.2196 309.6844 298.79773 310.075Q298.39148 310.46564 298.2821 311.23126L297.2196 311.04376Q297.4071 309.9969 298.0946 309.41876Q298.7821 308.825 299.79773 308.825Q300.50085 308.825 301.0946 309.1375Q301.68835 309.4344 302.00085 309.95Q302.31335 310.46564 302.31335 311.0594Q302.31335 311.60626 302.01648 312.075Q301.7196 312.52814 301.14148 312.79376Q301.89148 312.96564 302.31335 313.52814Q302.73523 314.075 302.73523 314.91876Q302.73523 316.04376 301.9071 316.825Q301.0946 317.60626 299.8446 317.60626Q298.7196 317.60626 297.9696 316.9344Q297.2196 316.2469 297.11023 315.1844Z" fill-rule="nonzero"/><path fill="#000000" d="M372.82727 316.52814Q373.62415 317.075 374.2804 317.325L373.95227 318.1219Q373.0304 317.77814 372.10852 317.0594Q371.1554 317.59064 369.99915 317.59064Q368.82727 317.59064 367.87415 317.02814Q366.93665 316.46564 366.42102 315.45Q365.9054 314.4344 365.9054 313.15314Q365.9054 311.8875 366.42102 310.84064Q366.93665 309.79376 367.88977 309.2469Q368.8429 308.7 370.01477 308.7Q371.20227 308.7 372.1554 309.27814Q373.12415 309.84064 373.62415 310.85626Q374.12415 311.8719 374.12415 313.15314Q374.12415 314.21564 373.79602 315.0594Q373.48352 315.90314 372.82727 316.52814ZM370.32727 315.075Q371.31165 315.35626 371.95227 315.90314Q372.95227 314.98126 372.95227 313.15314Q372.95227 312.10626 372.5929 311.325Q372.23352 310.54376 371.54602 310.1219Q370.87415 309.6844 370.0304 309.6844Q368.74915 309.6844 367.9054 310.5594Q367.07727 311.41876 367.07727 313.15314Q367.07727 314.825 367.9054 315.73126Q368.73352 316.6219 370.0304 316.6219Q370.63977 316.6219 371.17102 316.3875Q370.63977 316.04376 370.04602 315.90314L370.32727 315.075ZM378.26477 317.45L378.26477 315.3875L374.54602 315.3875L374.54602 314.41876L378.4679 308.85626L379.32727 308.85626L379.32727 314.41876L380.48352 314.41876L380.48352 315.3875L379.32727 315.3875L379.32727 317.45L378.26477 317.45ZM378.26477 314.41876L378.26477 310.5594L375.57727 314.41876L378.26477 314.41876Z" fill-rule="nonzero"/><path fill="#000000" d="M450.60678 316.52814Q451.40366 317.075 452.0599 317.325L451.73178 318.1219Q450.8099 317.77814 449.88803 317.0594Q448.9349 317.59064 447.77866 317.59064Q446.60678 317.59064 445.65366 317.02814Q444.71616 316.46564 444.20053 315.45Q443.6849 314.4344 443.6849 313.15314Q443.6849 311.8875 444.20053 310.84064Q444.71616 309.79376 445.66928 309.2469Q446.6224 308.7 447.79428 308.7Q448.98178 308.7 449.9349 309.27814Q450.90366 309.84064 451.40366 310.85626Q451.90366 311.8719 451.90366 313.15314Q451.90366 314.21564 451.57553 315.0594Q451.26303 315.90314 450.60678 316.52814ZM448.10678 315.075Q449.09116 315.35626 449.73178 315.90314Q450.73178 314.98126 450.73178 313.15314Q450.73178 312.10626 450.3724 311.325Q450.01303 310.54376 449.32553 310.1219Q448.65366 309.6844 447.8099 309.6844Q446.52866 309.6844 445.6849 310.5594Q444.85678 311.41876 444.85678 313.15314Q444.85678 314.825 445.6849 315.73126Q446.51303 316.6219 447.8099 316.6219Q448.41928 316.6219 448.95053 316.3875Q448.41928 316.04376 447.82553 315.90314L448.10678 315.075ZM452.66928 315.2L453.77866 315.10626Q453.90366 315.91876 454.34116 316.325Q454.79428 316.73126 455.4349 316.73126Q456.1849 316.73126 456.71616 316.15314Q457.2474 315.575 457.2474 314.6375Q457.2474 313.73126 456.73178 313.21564Q456.23178 312.6844 455.40366 312.6844Q454.90366 312.6844 454.48178 312.91876Q454.07553 313.15314 453.84116 313.5125L452.85678 313.3875L453.6849 308.98126L457.96616 308.98126L457.96616 309.98126L454.52866 309.98126L454.07553 312.29376Q454.84116 311.7469 455.6849 311.7469Q456.8099 311.7469 457.57553 312.52814Q458.35678 313.3094 458.35678 314.54376Q458.35678 315.7 457.6849 316.5594Q456.85678 317.59064 455.4349 317.59064Q454.26303 317.59064 453.51303 316.9344Q452.77866 316.27814 452.66928 315.2Z" fill-rule="nonzero"/><path fill="#000000" d="M528.3863 316.52814Q529.18317 317.075 529.8394 317.325L529.5113 318.1219Q528.5894 317.77814 527.66754 317.0594Q526.7144 317.59064 525.55817 317.59064Q524.3863 317.59064 523.43317 317.02814Q522.49567 316.46564 521.98004 315.45Q521.4644 314.4344 521.4644 313.15314Q521.4644 311.8875 521.98004 310.84064Q522.49567 309.79376 523.4488 309.2469Q524.4019 308.7 525.5738 308.7Q526.7613 308.7 527.7144 309.27814Q528.68317 309.84064 529.18317 310.85626Q529.68317 311.8719 529.68317 313.15314Q529.68317 314.21564 529.35504 315.0594Q529.04254 315.90314 528.3863 316.52814ZM525.8863 315.075Q526.87067 315.35626 527.5113 315.90314Q528.5113 314.98126 528.5113 313.15314Q528.5113 312.10626 528.1519 311.325Q527.79254 310.54376 527.10504 310.1219Q526.43317 309.6844 525.5894 309.6844Q524.30817 309.6844 523.4644 310.5594Q522.6363 311.41876 522.6363 313.15314Q522.6363 314.825 523.4644 315.73126Q524.29254 316.6219 525.5894 316.6219Q526.1988 316.6219 526.73004 316.3875Q526.1988 316.04376 525.60504 315.90314L525.8863 315.075ZM535.91754 310.96564L534.87067 311.04376Q534.73004 310.41876 534.48004 310.1375Q534.04254 309.6844 533.41754 309.6844Q532.91754 309.6844 532.5269 309.96564Q532.04254 310.34064 531.74567 311.04376Q531.4644 311.73126 531.4488 313.0125Q531.8238 312.4344 532.37067 312.15314Q532.93317 311.8719 533.54254 311.8719Q534.5894 311.8719 535.3238 312.65314Q536.0738 313.4344 536.0738 314.65314Q536.0738 315.46564 535.7144 316.16876Q535.37067 316.85626 534.7613 317.23126Q534.1519 317.59064 533.3863 317.59064Q532.05817 317.59064 531.23004 316.6219Q530.4019 315.65314 530.4019 313.4344Q530.4019 310.9344 531.3238 309.8094Q532.12067 308.825 533.48004 308.825Q534.49567 308.825 535.1363 309.40314Q535.79254 309.96564 535.91754 310.96564ZM531.62067 314.66876Q531.62067 315.21564 531.8394 315.71564Q532.0738 316.2 532.48004 316.46564Q532.9019 316.73126 533.37067 316.73126Q534.0269 316.73126 534.5113 316.2Q534.99567 315.65314 534.99567 314.73126Q534.99567 313.84064 534.5113 313.325Q534.04254 312.8094 533.3238 312.8094Q532.60504 312.8094 532.10504 313.325Q531.62067 313.84064 531.62067 314.66876Z" fill-rule="nonzero"/><path fill="#5891ad" d="M226.0 56.916668C226.0 56.364384 226.44771 55.916668 227.0 55.916668L237.0 55.916668C237.55229 55.916668 238.0 56.364384 238.0 56.916668L238.0 66.916664C238.0 67.46895 237.55229 67.916664 237.0 67.916664L227.0 67.916664C226.44771 67.916664 226.0 67.46895 226.0 66.916664Z" fill-rule="nonzero"/><path fill="#1a1a1a" d="M246.89062 65.916664L246.89062 57.322914L248.60938 57.322914L250.64062 63.40104Q250.92188 64.260414 251.04688 64.68229Q251.1875 64.21354 251.5 63.30729L253.5625 57.322914L255.09375 57.322914L255.09375 65.916664L254.0 65.916664L254.0 58.729164L251.5 65.916664L250.46875 65.916664L247.98438 58.604164L247.98438 65.916664L246.89062 65.916664ZM255.75 68.30729L255.625 67.322914Q255.96875 67.416664 256.23438 67.416664Q256.57812 67.416664 256.78125 67.291664Q257.0 67.18229 257.14062 66.979164Q257.23438 66.80729 257.46875 66.18229Q257.48438 66.104164 257.5625 65.93229L255.1875 59.697914L256.32812 59.697914L257.625 63.291664Q257.875 63.979164 258.07812 64.74479Q258.26562 64.010414 258.51562 63.322914L259.84375 59.697914L260.89062 59.697914L258.53125 66.02604Q258.14062 67.041664 257.9375 67.43229Q257.65625 67.96354 257.28125 68.197914Q256.92188 68.447914 256.42188 68.447914Q256.125 68.447914 255.75 68.30729ZM260.54688 63.15104L261.60938 63.05729Q261.6875 63.71354 261.96875 64.11979Q262.25 64.52604 262.82812 64.791664Q263.42188 65.041664 264.15625 65.041664Q264.79688 65.041664 265.29688 64.854164Q265.79688 64.65104 266.03125 64.322914Q266.28125 63.979164 266.28125 63.58854Q266.28125 63.18229 266.04688 62.885414Q265.8125 62.572914 265.28125 62.36979Q264.92188 62.229164 263.73438 61.947914Q262.5625 61.666664 262.09375 61.416664Q261.46875 61.08854 261.17188 60.61979Q260.875 60.135414 260.875 59.541664Q260.875 58.90104 261.23438 58.33854Q261.60938 57.760414 262.3125 57.479164Q263.03125 57.18229 263.89062 57.18229Q264.84375 57.18229 265.57812 57.49479Q266.3125 57.791664 266.70312 58.40104Q267.09375 58.99479 267.125 59.74479L266.03125 59.822914Q265.9375 59.010414 265.42188 58.604164Q264.92188 58.18229 263.9375 58.18229Q262.90625 58.18229 262.4375 58.55729Q261.96875 58.93229 261.96875 59.46354Q261.96875 59.93229 262.29688 60.229164Q262.625 60.52604 264.0 60.83854Q265.39062 61.15104 265.90625 61.385414Q266.65625 61.74479 267.01562 62.27604Q267.375 62.791664 267.375 63.49479Q267.375 64.18229 266.98438 64.791664Q266.59375 65.385414 265.85938 65.729164Q265.125 66.05729 264.20312 66.05729Q263.03125 66.05729 262.23438 65.729164Q261.45312 65.385414 261.0 64.697914Q260.5625 64.010414 260.54688 63.15104ZM275.4375 64.99479Q276.23438 65.541664 276.89062 65.791664L276.5625 66.58854Q275.64062 66.24479 274.71875 65.52604Q273.76562 66.05729 272.60938 66.05729Q271.4375 66.05729 270.48438 65.49479Q269.54688 64.93229 269.03125 63.916664Q268.51562 62.90104 268.51562 61.61979Q268.51562 60.354164 269.03125 59.30729Q269.54688 58.260414 270.5 57.71354Q271.45312 57.166664 272.625 57.166664Q273.8125 57.166664 274.76562 57.74479Q275.73438 58.30729 276.23438 59.322914Q276.73438 60.33854 276.73438 61.61979Q276.73438 62.68229 276.40625 63.52604Q276.09375 64.36979 275.4375 64.99479ZM272.9375 63.541664Q273.92188 63.822914 274.5625 64.36979Q275.5625 63.447914 275.5625 61.61979Q275.5625 60.572914 275.20312 59.791664Q274.84375 59.010414 274.15625 58.58854Q273.48438 58.15104 272.64062 58.15104Q271.35938 58.15104 270.51562 59.02604Q269.6875 59.885414 269.6875 61.61979Q269.6875 63.291664 270.51562 64.197914Q271.34375 65.08854 272.64062 65.08854Q273.25 65.08854 273.78125 64.854164Q273.25 64.510414 272.65625 64.36979L272.9375 63.541664ZM277.875 65.916664L277.875 57.322914L279.01562 57.322914L279.01562 64.90104L283.25 64.90104L283.25 65.916664L277.875 65.916664Z" fill-rule="nonzero"/><path fill="#004561" d="M300.0 56.916668C300.0 56.364384 300.44772 55.916668 301.0 55.916668L311.0 55.916668C311.55228 55.916668 312.0 56.364384 312.0 56.916668L312.0 66.916664C312.0 67.46895 311.55228 67.916664 311.0 67.916664L301.0 67.916664C300.44772 67.916664 300.0 67.46895 300.0 66.916664Z" fill-rule="nonzero"/><path fill="#1a1a1a" d="M320.89062 65.916664L320.89062 57.322914L322.60938 57.322914L324.64062 63.40104Q324.92188 64.260414 325.04688 64.68229Q325.1875 64.21354 325.5 63.30729L327.5625 57.322914L329.09375 57.322914L329.09375 65.916664L328.0 65.916664L328.0 58.729164L325.5 65.916664L324.46875 65.916664L321.98438 58.604164L321.98438 65.916664L320.89062 65.916664ZM329.40625 62.80729Q329.40625 61.072914 330.35938 60.24479Q331.15625 59.55729 332.3125 59.55729Q333.59375 59.55729 334.40625 60.40104Q335.23438 61.229164 335.23438 62.71354Q335.23438 63.916664 334.875 64.604164Q334.51562 65.291664 333.8125 65.68229Q333.125 66.05729 332.3125 66.05729Q331.01562 66.05729 330.20312 65.229164Q329.40625 64.385414 329.40625 62.80729ZM330.48438 62.80729Q330.48438 63.99479 331.0 64.58854Q331.53125 65.18229 332.3125 65.18229Q333.10938 65.18229 333.625 64.58854Q334.14062 63.99479 334.14062 62.77604Q334.14062 61.61979 333.60938 61.02604Q333.09375 60.43229 332.3125 60.43229Q331.53125 60.43229 331.0 61.02604Q330.48438 61.604164 330.48438 62.80729ZM336.79688 65.916664L336.79688 59.697914L337.73438 59.697914L337.73438 60.572914Q338.42188 59.55729 339.71875 59.55729Q340.28125 59.55729 340.75 59.760414Q341.23438 59.96354 341.46875 60.291664Q341.70312 60.61979 341.79688 61.05729Q341.84375 61.354164 341.84375 62.08854L341.84375 65.916664L340.79688 65.916664L340.79688 62.135414Q340.79688 61.479164 340.67188 61.166664Q340.54688 60.854164 340.23438 60.666664Q339.92188 60.46354 339.5 60.46354Q338.82812 60.46354 338.32812 60.90104Q337.84375 61.322914 337.84375 62.510414L337.84375 65.916664L336.79688 65.916664ZM343.59375 66.43229L344.625 66.58854Q344.6875 67.05729 344.98438 67.27604Q345.375 67.572914 346.04688 67.572914Q346.78125 67.572914 347.17188 67.27604Q347.57812 66.979164 347.71875 66.46354Q347.8125 66.135414 347.79688 65.104164Q347.10938 65.916664 346.07812 65.916664Q344.79688 65.916664 344.09375 64.99479Q343.39062 64.05729 343.39062 62.77604Q343.39062 61.885414 343.70312 61.135414Q344.03125 60.36979 344.64062 59.96354Q345.25 59.55729 346.07812 59.55729Q347.1875 59.55729 347.90625 60.447914L347.90625 59.697914L348.875 59.697914L348.875 65.072914Q348.875 66.52604 348.57812 67.135414Q348.28125 67.74479 347.64062 68.08854Q347.0 68.447914 346.0625 68.447914Q344.95312 68.447914 344.26562 67.947914Q343.57812 67.447914 343.59375 66.43229ZM344.46875 62.697914Q344.46875 63.916664 344.95312 64.479164Q345.4375 65.041664 346.17188 65.041664Q346.90625 65.041664 347.39062 64.479164Q347.89062 63.916664 347.89062 62.729164Q347.89062 61.58854 347.375 61.010414Q346.875 60.43229 346.15625 60.43229Q345.45312 60.43229 344.95312 61.010414Q344.46875 61.572914 344.46875 62.697914ZM350.40625 62.80729Q350.40625 61.072914 351.35938 60.24479Q352.15625 59.55729 353.3125 59.55729Q354.59375 59.55729 355.40625 60.40104Q356.23438 61.229164 356.23438 62.71354Q356.23438 63.916664 355.875 64.604164Q355.51562 65.291664 354.8125 65.68229Q354.125 66.05729 353.3125 66.05729Q352.01562 66.05729 351.20312 65.229164Q350.40625 64.385414 350.40625 62.80729ZM351.48438 62.80729Q351.48438 63.99479 352.0 64.58854Q352.53125 65.18229 353.3125 65.18229Q354.10938 65.18229 354.625 64.58854Q355.14062 63.99479 355.14062 62.77604Q355.14062 61.61979 354.60938 61.02604Q354.09375 60.43229 353.3125 60.43229Q352.53125 60.43229 352.0 61.02604Q351.48438 61.604164 351.48438 62.80729ZM357.92188 65.916664L357.92188 57.322914L360.89062 57.322914Q361.89062 57.322914 362.42188 57.447914Q363.15625 57.61979 363.67188 58.05729Q364.35938 58.635414 364.6875 59.541664Q365.03125 60.43229 365.03125 61.572914Q365.03125 62.55729 364.79688 63.30729Q364.57812 64.05729 364.21875 64.55729Q363.85938 65.05729 363.42188 65.33854Q363.0 65.61979 362.40625 65.77604Q361.8125 65.916664 361.03125 65.916664L357.92188 65.916664ZM359.0625 64.90104L360.89062 64.90104Q361.75 64.90104 362.23438 64.74479Q362.71875 64.58854 363.0 64.291664Q363.40625 63.90104 363.625 63.21354Q363.85938 62.52604 363.85938 61.55729Q363.85938 60.21354 363.40625 59.49479Q362.96875 58.760414 362.34375 58.510414Q361.875 58.33854 360.875 58.33854L359.0625 58.33854L359.0625 64.90104ZM366.875 65.916664L366.875 57.322914L370.10938 57.322914Q371.09375 57.322914 371.6875 57.58854Q372.28125 57.854164 372.60938 58.40104Q372.95312 58.93229 372.95312 59.52604Q372.95312 60.072914 372.65625 60.55729Q372.35938 61.041664 371.75 61.33854Q372.53125 61.572914 372.9375 62.135414Q373.35938 62.68229 373.35938 63.43229Q373.35938 64.02604 373.10938 64.55729Q372.85938 65.072914 372.48438 65.354164Q372.10938 65.635414 371.53125 65.77604Q370.96875 65.916664 370.15625 65.916664L366.875 65.916664ZM368.01562 60.93229L369.875 60.93229Q370.625 60.93229 370.95312 60.83854Q371.39062 60.71354 371.60938 60.416664Q371.82812 60.104164 371.82812 59.65104Q371.82812 59.229164 371.625 58.90104Q371.42188 58.572914 371.03125 58.46354Q370.65625 58.33854 369.73438 58.33854L368.01562 58.33854L368.01562 60.93229ZM368.01562 64.90104L370.15625 64.90104Q370.70312 64.90104 370.92188 64.854164Q371.32812 64.791664 371.57812 64.635414Q371.84375 64.46354 372.01562 64.15104Q372.1875 63.83854 372.1875 63.43229Q372.1875 62.947914 371.9375 62.58854Q371.70312 62.229164 371.26562 62.08854Q370.82812 61.947914 370.0 61.947914L368.01562 61.947914L368.01562 64.90104Z" fill-rule="nonzero"/><path fill="#757575" d="M119.40625 32.95625L121.1875 32.8Q121.3125 33.8625 121.765625 34.55Q122.234375 35.2375 123.203125 35.675Q124.1875 36.096874 125.421875 36.096874Q126.5 36.096874 127.328125 35.784374Q128.15625 35.45625 128.5625 34.89375Q128.96875 34.33125 128.96875 33.659374Q128.96875 32.9875 128.57812 32.4875Q128.1875 31.9875 127.296875 31.64375Q126.71875 31.409374 124.734375 30.940624Q122.765625 30.471874 121.984375 30.05Q120.953125 29.51875 120.453125 28.721874Q119.953125 27.925 119.953125 26.940624Q119.953125 25.846874 120.5625 24.909374Q121.171875 23.971874 122.359375 23.4875Q123.546875 22.9875 124.984375 22.9875Q126.578125 22.9875 127.796875 23.503124Q129.01562 24.01875 129.65625 25.01875Q130.3125 26.003124 130.35938 27.26875L128.54688 27.409374Q128.40625 26.05 127.5625 25.3625Q126.71875 24.659374 125.0625 24.659374Q123.34375 24.659374 122.546875 25.3Q121.765625 25.925 121.765625 26.8Q121.765625 27.58125 122.328125 28.08125Q122.875 28.58125 125.1875 29.096874Q127.5 29.6125 128.35938 30.003124Q129.60938 30.58125 130.20312 31.471874Q130.79688 32.346874 130.79688 33.503124Q130.79688 34.64375 130.14062 35.659374Q129.48438 36.675 128.25 37.2375Q127.03125 37.8 125.5 37.8Q123.5625 37.8 122.25 37.2375Q120.9375 36.659374 120.1875 35.51875Q119.4375 34.378124 119.40625 32.95625ZM139.59375 36.26875Q138.60938 37.096874 137.70312 37.440624Q136.79688 37.784374 135.76562 37.784374Q134.0625 37.784374 133.14062 36.95625Q132.21875 36.1125 132.21875 34.815624Q132.21875 34.05 132.5625 33.425Q132.92188 32.8 133.48438 32.425Q134.04688 32.034374 134.75 31.83125Q135.26562 31.70625 136.3125 31.565624Q138.4375 31.315624 139.4375 30.971874Q139.45312 30.6125 139.45312 30.503124Q139.45312 29.440624 138.95312 28.9875Q138.28125 28.39375 136.95312 28.39375Q135.70312 28.39375 135.10938 28.83125Q134.53125 29.26875 134.25 30.378124L132.53125 30.14375Q132.76562 29.034374 133.29688 28.3625Q133.82812 27.675 134.84375 27.315624Q135.85938 26.940624 137.20312 26.940624Q138.53125 26.940624 139.35938 27.253124Q140.1875 27.565624 140.57812 28.05Q140.96875 28.51875 141.125 29.2375Q141.21875 29.690624 141.21875 30.8625L141.21875 33.20625Q141.21875 35.659374 141.32812 36.315624Q141.4375 36.95625 141.78125 37.55L139.9375 37.55Q139.67188 37.003124 139.59375 36.26875ZM139.4375 32.346874Q138.48438 32.7375 136.5625 33.003124Q135.48438 33.159374 135.03125 33.3625Q134.59375 33.55 134.34375 33.925Q134.09375 34.3 134.09375 34.76875Q134.09375 35.471874 134.625 35.940624Q135.15625 36.409374 136.1875 36.409374Q137.20312 36.409374 137.98438 35.971874Q138.78125 35.51875 139.15625 34.753124Q139.4375 34.14375 139.4375 32.9875L139.4375 32.346874ZM143.8125 37.55L143.8125 27.175L145.39062 27.175L145.39062 28.628124Q145.875 27.878124 146.6875 27.409374Q147.5 26.940624 148.53125 26.940624Q149.6875 26.940624 150.42188 27.425Q151.15625 27.89375 151.46875 28.753124Q152.70312 26.940624 154.67188 26.940624Q156.21875 26.940624 157.04688 27.8Q157.875 28.659374 157.875 30.425L157.875 37.55L156.125 37.55L156.125 31.01875Q156.125 29.95625 155.95312 29.503124Q155.78125 29.034374 155.32812 28.753124Q154.89062 28.471874 154.28125 28.471874Q153.1875 28.471874 152.45312 29.20625Q151.73438 29.925 151.73438 31.51875L151.73438 37.55L149.98438 37.55L149.98438 30.815624Q149.98438 29.64375 149.54688 29.065624Q149.125 28.471874 148.14062 28.471874Q147.40625 28.471874 146.76562 28.8625Q146.14062 29.253124 145.85938 30.003124Q145.57812 30.753124 145.57812 32.175L145.57812 37.55L143.8125 37.55ZM166.92188 34.20625L168.73438 34.440624Q168.3125 36.01875 167.14062 36.909374Q165.98438 37.784374 164.17188 37.784374Q161.90625 37.784374 160.5625 36.39375Q159.23438 34.9875 159.23438 32.45625Q159.23438 29.83125 160.57812 28.39375Q161.92188 26.940624 164.07812 26.940624Q166.15625 26.940624 167.46875 28.3625Q168.79688 29.76875 168.79688 32.346874Q168.79688 32.503124 168.78125 32.815624L161.04688 32.815624Q161.14062 34.51875 162.01562 35.425Q162.89062 36.33125 164.1875 36.33125Q165.15625 36.33125 165.82812 35.83125Q166.51562 35.315624 166.92188 34.20625ZM161.14062 31.3625L166.9375 31.3625Q166.82812 30.065624 166.28125 29.409374Q165.4375 28.39375 164.09375 28.39375Q162.89062 28.39375 162.0625 29.20625Q161.23438 30.003124 161.14062 31.3625ZM183.4375 41.51875L183.4375 36.440624Q183.01562 37.01875 182.28125 37.409374Q181.54688 37.784374 180.71875 37.784374Q178.875 37.784374 177.53125 36.315624Q176.20312 34.83125 176.20312 32.26875Q176.20312 30.70625 176.73438 29.471874Q177.28125 28.221874 178.3125 27.58125Q179.34375 26.940624 180.57812 26.940624Q182.5 26.940624 183.60938 28.565624L183.60938 27.175L185.1875 27.175L185.1875 41.51875L183.4375 41.51875ZM178.01562 32.33125Q178.01562 34.33125 178.84375 35.33125Q179.6875 36.33125 180.85938 36.33125Q181.98438 36.33125 182.79688 35.39375Q183.60938 34.440624 183.60938 32.4875Q183.60938 30.425 182.75 29.378124Q181.89062 28.33125 180.75 28.33125Q179.60938 28.33125 178.8125 29.3Q178.01562 30.26875 178.01562 32.33125ZM194.60938 37.55L194.60938 36.01875Q193.40625 37.784374 191.32812 37.784374Q190.40625 37.784374 189.60938 37.440624Q188.8125 37.08125 188.42188 36.55Q188.04688 36.01875 187.89062 35.2375Q187.78125 34.721874 187.78125 33.596874L187.78125 27.175L189.53125 27.175L189.53125 32.925Q189.53125 34.3 189.64062 34.784374Q189.8125 35.471874 190.34375 35.878124Q190.89062 36.26875 191.67188 36.26875Q192.46875 36.26875 193.15625 35.8625Q193.85938 35.45625 194.14062 34.76875Q194.4375 34.065624 194.4375 32.7375L194.4375 27.175L196.1875 27.175L196.1875 37.55L194.60938 37.55ZM204.92188 34.20625L206.73438 34.440624Q206.3125 36.01875 205.14062 36.909374Q203.98438 37.784374 202.17188 37.784374Q199.90625 37.784374 198.5625 36.39375Q197.23438 34.9875 197.23438 32.45625Q197.23438 29.83125 198.57812 28.39375Q199.92188 26.940624 202.07812 26.940624Q204.15625 26.940624 205.46875 28.3625Q206.79688 29.76875 206.79688 32.346874Q206.79688 32.503124 206.78125 32.815624L199.04688 32.815624Q199.14062 34.51875 200.01562 35.425Q200.89062 36.33125 202.1875 36.33125Q203.15625 36.33125 203.82812 35.83125Q204.51562 35.315624 204.92188 34.20625ZM199.14062 31.3625L204.9375 31.3625Q204.82812 30.065624 204.28125 29.409374Q203.4375 28.39375 202.09375 28.39375Q200.89062 28.39375 200.0625 29.20625Q199.23438 30.003124 199.14062 31.3625ZM208.79688 37.55L208.79688 27.175L210.375 27.175L210.375 28.753124Q210.98438 27.64375 211.5 27.3Q212.01562 26.940624 212.625 26.940624Q213.51562 26.940624 214.4375 27.503124L213.82812 29.14375Q213.1875 28.753124 212.54688 28.753124Q211.96875 28.753124 211.5 29.1125Q211.04688 29.45625 210.84375 30.065624Q210.5625 31.003124 210.5625 32.1125L210.5625 37.55L208.79688 37.55ZM215.82812 25.253124L215.82812 23.2375L217.59375 23.2375L217.59375 25.253124L215.82812 25.253124ZM215.82812 37.55L215.82812 27.175L217.59375 27.175L217.59375 37.55L215.82812 37.55ZM226.92188 34.20625L228.73438 34.440624Q228.3125 36.01875 227.14062 36.909374Q225.98438 37.784374 224.17188 37.784374Q221.90625 37.784374 220.5625 36.39375Q219.23438 34.9875 219.23438 32.45625Q219.23438 29.83125 220.57812 28.39375Q221.92188 26.940624 224.07812 26.940624Q226.15625 26.940624 227.46875 28.3625Q228.79688 29.76875 228.79688 32.346874Q228.79688 32.503124 228.78125 32.815624L221.04688 32.815624Q221.14062 34.51875 222.01562 35.425Q222.89062 36.33125 224.1875 36.33125Q225.15625 36.33125 225.82812 35.83125Q226.51562 35.315624 226.92188 34.20625ZM221.14062 31.3625L226.9375 31.3625Q226.82812 30.065624 226.28125 29.409374Q225.4375 28.39375 224.09375 28.39375Q222.89062 28.39375 222.0625 29.20625Q221.23438 30.003124 221.14062 31.3625ZM230.10938 34.45625L231.85938 34.175Q232.0 35.221874 232.67188 35.784374Q233.34375 36.33125 234.54688 36.33125Q235.75 36.33125 236.32812 35.846874Q236.92188 35.346874 236.92188 34.690624Q236.92188 34.096874 236.40625 33.753124Q236.04688 33.51875 234.60938 33.159374Q232.67188 32.659374 231.92188 32.315624Q231.1875 31.95625 230.79688 31.33125Q230.40625 30.690624 230.40625 29.925Q230.40625 29.2375 230.71875 28.64375Q231.04688 28.05 231.59375 27.659374Q232.0 27.3625 232.70312 27.159374Q233.42188 26.940624 234.23438 26.940624Q235.45312 26.940624 236.375 27.3Q237.29688 27.64375 237.73438 28.253124Q238.17188 28.846874 238.34375 29.846874L236.625 30.08125Q236.5 29.284374 235.9375 28.846874Q235.375 28.39375 234.35938 28.39375Q233.14062 28.39375 232.625 28.8Q232.10938 29.190624 232.10938 29.721874Q232.10938 30.065624 232.32812 30.346874Q232.53125 30.628124 233.0 30.815624Q233.26562 30.909374 234.54688 31.253124Q236.42188 31.753124 237.15625 32.08125Q237.89062 32.39375 238.3125 33.003124Q238.73438 33.596874 238.73438 34.503124Q238.73438 35.378124 238.21875 36.159374Q237.70312 36.940624 236.73438 37.3625Q235.76562 37.784374 234.54688 37.784374Q232.53125 37.784374 231.46875 36.940624Q230.40625 36.096874 230.10938 34.45625ZM246.17188 32.3625Q246.17188 29.4875 247.76562 28.096874Q249.10938 26.940624 251.03125 26.940624Q253.17188 26.940624 254.51562 28.346874Q255.875 29.753124 255.875 32.221874Q255.875 34.221874 255.28125 35.378124Q254.6875 36.51875 253.53125 37.159374Q252.39062 37.784374 251.03125 37.784374Q248.84375 37.784374 247.5 36.39375Q246.17188 34.9875 246.17188 32.3625ZM247.96875 32.3625Q247.96875 34.3625 248.82812 35.346874Q249.70312 36.33125 251.03125 36.33125Q252.34375 36.33125 253.20312 35.346874Q254.07812 34.346874 254.07812 32.3Q254.07812 30.378124 253.20312 29.39375Q252.32812 28.39375 251.03125 28.39375Q249.70312 28.39375 248.82812 29.39375Q247.96875 30.378124 247.96875 32.3625ZM257.8125 37.55L257.8125 27.175L259.40625 27.175L259.40625 28.659374Q260.54688 26.940624 262.70312 26.940624Q263.64062 26.940624 264.42188 27.284374Q265.21875 27.6125 265.60938 28.159374Q266.0 28.70625 266.15625 29.45625Q266.25 29.95625 266.25 31.175L266.25 37.55L264.48438 37.55L264.48438 31.2375Q264.48438 30.159374 264.28125 29.628124Q264.07812 29.096874 263.54688 28.784374Q263.03125 28.471874 262.32812 28.471874Q261.20312 28.471874 260.39062 29.190624Q259.57812 29.89375 259.57812 31.878124L259.57812 37.55L257.8125 37.55ZM280.54688 37.55L280.54688 36.2375Q279.5625 37.784374 277.64062 37.784374Q276.40625 37.784374 275.35938 37.096874Q274.32812 36.409374 273.75 35.190624Q273.1875 33.971874 273.1875 32.378124Q273.1875 30.815624 273.70312 29.55Q274.21875 28.284374 275.25 27.6125Q276.29688 26.940624 277.5625 26.940624Q278.5 26.940624 279.23438 27.346874Q279.96875 27.7375 280.4375 28.3625L280.4375 23.2375L282.17188 23.2375L282.17188 37.55L280.54688 37.55ZM274.98438 32.378124Q274.98438 34.3625 275.82812 35.346874Q276.67188 36.33125 277.8125 36.33125Q278.96875 36.33125 279.76562 35.39375Q280.57812 34.45625 280.57812 32.51875Q280.57812 30.39375 279.75 29.39375Q278.9375 28.39375 277.73438 28.39375Q276.5625 28.39375 275.76562 29.3625Q274.98438 30.315624 274.98438 32.378124ZM291.59375 36.26875Q290.60938 37.096874 289.70312 37.440624Q288.79688 37.784374 287.76562 37.784374Q286.0625 37.784374 285.14062 36.95625Q284.21875 36.1125 284.21875 34.815624Q284.21875 34.05 284.5625 33.425Q284.92188 32.8 285.48438 32.425Q286.04688 32.034374 286.75 31.83125Q287.26562 31.70625 288.3125 31.565624Q290.4375 31.315624 291.4375 30.971874Q291.45312 30.6125 291.45312 30.503124Q291.45312 29.440624 290.95312 28.9875Q290.28125 28.39375 288.95312 28.39375Q287.70312 28.39375 287.10938 28.83125Q286.53125 29.26875 286.25 30.378124L284.53125 30.14375Q284.76562 29.034374 285.29688 28.3625Q285.82812 27.675 286.84375 27.315624Q287.85938 26.940624 289.20312 26.940624Q290.53125 26.940624 291.35938 27.253124Q292.1875 27.565624 292.57812 28.05Q292.96875 28.51875 293.125 29.2375Q293.21875 29.690624 293.21875 30.8625L293.21875 33.20625Q293.21875 35.659374 293.32812 36.315624Q293.4375 36.95625 293.78125 37.55L291.9375 37.55Q291.67188 37.003124 291.59375 36.26875ZM291.4375 32.346874Q290.48438 32.7375 288.5625 33.003124Q287.48438 33.159374 287.03125 33.3625Q286.59375 33.55 286.34375 33.925Q286.09375 34.3 286.09375 34.76875Q286.09375 35.471874 286.625 35.940624Q287.15625 36.409374 288.1875 36.409374Q289.20312 36.409374 289.98438 35.971874Q290.78125 35.51875 291.15625 34.753124Q291.4375 34.14375 291.4375 32.9875L291.4375 32.346874ZM299.65625 35.971874L299.90625 37.534374Q299.17188 37.690624 298.57812 37.690624Q297.625 37.690624 297.09375 37.39375Q296.57812 37.08125 296.35938 36.596874Q296.14062 36.096874 296.14062 34.51875L296.14062 28.55L294.85938 28.55L294.85938 27.175L296.14062 27.175L296.14062 24.6125L297.89062 23.55L297.89062 27.175L299.65625 27.175L299.65625 28.55L297.89062 28.55L297.89062 34.6125Q297.89062 35.3625 297.98438 35.58125Q298.07812 35.784374 298.28125 35.925Q298.5 36.05 298.89062 36.05Q299.17188 36.05 299.65625 35.971874ZM308.59375 36.26875Q307.60938 37.096874 306.70312 37.440624Q305.79688 37.784374 304.76562 37.784374Q303.0625 37.784374 302.14062 36.95625Q301.21875 36.1125 301.21875 34.815624Q301.21875 34.05 301.5625 33.425Q301.92188 32.8 302.48438 32.425Q303.04688 32.034374 303.75 31.83125Q304.26562 31.70625 305.3125 31.565624Q307.4375 31.315624 308.4375 30.971874Q308.45312 30.6125 308.45312 30.503124Q308.45312 29.440624 307.95312 28.9875Q307.28125 28.39375 305.95312 28.39375Q304.70312 28.39375 304.10938 28.83125Q303.53125 29.26875 303.25 30.378124L301.53125 30.14375Q301.76562 29.034374 302.29688 28.3625Q302.82812 27.675 303.84375 27.315624Q304.85938 26.940624 306.20312 26.940624Q307.53125 26.940624 308.35938 27.253124Q309.1875 27.565624 309.57812 28.05Q309.96875 28.51875 310.125 29.2375Q310.21875 29.690624 310.21875 30.8625L310.21875 33.20625Q310.21875 35.659374 310.32812 36.315624Q310.4375 36.95625 310.78125 37.55L308.9375 37.55Q308.67188 37.003124 308.59375 36.26875ZM308.4375 32.346874Q307.48438 32.7375 305.5625 33.003124Q304.48438 33.159374 304.03125 33.3625Q303.59375 33.55 303.34375 33.925Q303.09375 34.3 303.09375 34.76875Q303.09375 35.471874 303.625 35.940624Q304.15625 36.409374 305.1875 36.409374Q306.20312 36.409374 306.98438 35.971874Q307.78125 35.51875 308.15625 34.753124Q308.4375 34.14375 308.4375 32.9875L308.4375 32.346874ZM314.4375 37.55L312.8125 37.55L312.8125 23.2375L314.5625 23.2375L314.5625 28.346874Q315.6875 26.940624 317.40625 26.940624Q318.35938 26.940624 319.21875 27.33125Q320.07812 27.721874 320.625 28.425Q321.17188 29.1125 321.48438 30.096874Q321.79688 31.08125 321.79688 32.20625Q321.79688 34.878124 320.48438 36.33125Q319.17188 37.784374 317.32812 37.784374Q315.48438 37.784374 314.4375 36.253124L314.4375 37.55ZM314.42188 32.284374Q314.42188 34.14375 314.92188 34.9875Q315.76562 36.33125 317.17188 36.33125Q318.32812 36.33125 319.15625 35.33125Q320.0 34.33125 320.0 32.346874Q320.0 30.315624 319.1875 29.3625Q318.39062 28.39375 317.25 28.39375Q316.09375 28.39375 315.25 29.39375Q314.42188 30.39375 314.42188 32.284374ZM330.59375 36.26875Q329.60938 37.096874 328.70312 37.440624Q327.79688 37.784374 326.76562 37.784374Q325.0625 37.784374 324.14062 36.95625Q323.21875 36.1125 323.21875 34.815624Q323.21875 34.05 323.5625 33.425Q323.92188 32.8 324.48438 32.425Q325.04688 32.034374 325.75 31.83125Q326.26562 31.70625 327.3125 31.565624Q329.4375 31.315624 330.4375 30.971874Q330.45312 30.6125 330.45312 30.503124Q330.45312 29.440624 329.95312 28.9875Q329.28125 28.39375 327.95312 28.39375Q326.70312 28.39375 326.10938 28.83125Q325.53125 29.26875 325.25 30.378124L323.53125 30.14375Q323.76562 29.034374 324.29688 28.3625Q324.82812 27.675 325.84375 27.315624Q326.85938 26.940624 328.20312 26.940624Q329.53125 26.940624 330.35938 27.253124Q331.1875 27.565624 331.57812 28.05Q331.96875 28.51875 332.125 29.2375Q332.21875 29.690624 332.21875 30.8625L332.21875 33.20625Q332.21875 35.659374 332.32812 36.315624Q332.4375 36.95625 332.78125 37.55L330.9375 37.55Q330.67188 37.003124 330.59375 36.26875ZM330.4375 32.346874Q329.48438 32.7375 327.5625 33.003124Q326.48438 33.159374 326.03125 33.3625Q325.59375 33.55 325.34375 33.925Q325.09375 34.3 325.09375 34.76875Q325.09375 35.471874 325.625 35.940624Q326.15625 36.409374 327.1875 36.409374Q328.20312 36.409374 328.98438 35.971874Q329.78125 35.51875 330.15625 34.753124Q330.4375 34.14375 330.4375 32.9875L330.4375 32.346874ZM334.10938 34.45625L335.85938 34.175Q336.0 35.221874 336.67188 35.784374Q337.34375 36.33125 338.54688 36.33125Q339.75 36.33125 340.32812 35.846874Q340.92188 35.346874 340.92188 34.690624Q340.92188 34.096874 340.40625 33.753124Q340.04688 33.51875 338.60938 33.159374Q336.67188 32.659374 335.92188 32.315624Q335.1875 31.95625 334.79688 31.33125Q334.40625 30.690624 334.40625 29.925Q334.40625 29.2375 334.71875 28.64375Q335.04688 28.05 335.59375 27.659374Q336.0 27.3625 336.70312 27.159374Q337.42188 26.940624 338.23438 26.940624Q339.45312 26.940624 340.375 27.3Q341.29688 27.64375 341.73438 28.253124Q342.17188 28.846874 342.34375 29.846874L340.625 30.08125Q340.5 29.284374 339.9375 28.846874Q339.375 28.39375 338.35938 28.39375Q337.14062 28.39375 336.625 28.8Q336.10938 29.190624 336.10938 29.721874Q336.10938 30.065624 336.32812 30.346874Q336.53125 30.628124 337.0 30.815624Q337.26562 30.909374 338.54688 31.253124Q340.42188 31.753124 341.15625 32.08125Q341.89062 32.39375 342.3125 33.003124Q342.73438 33.596874 342.73438 34.503124Q342.73438 35.378124 342.21875 36.159374Q341.70312 36.940624 340.73438 37.3625Q339.76562 37.784374 338.54688 37.784374Q336.53125 37.784374 335.46875 36.940624Q334.40625 36.096874 334.10938 34.45625ZM351.92188 34.20625L353.73438 34.440624Q353.3125 36.01875 352.14062 36.909374Q350.98438 37.784374 349.17188 37.784374Q346.90625 37.784374 345.5625 36.39375Q344.23438 34.9875 344.23438 32.45625Q344.23438 29.83125 345.57812 28.39375Q346.92188 26.940624 349.07812 26.940624Q351.15625 26.940624 352.46875 28.3625Q353.79688 29.76875 353.79688 32.346874Q353.79688 32.503124 353.78125 32.815624L346.04688 32.815624Q346.14062 34.51875 347.01562 35.425Q347.89062 36.33125 349.1875 36.33125Q350.15625 36.33125 350.82812 35.83125Q351.51562 35.315624 351.92188 34.20625ZM346.14062 31.3625L351.9375 31.3625Q351.82812 30.065624 351.28125 29.409374Q350.4375 28.39375 349.09375 28.39375Q347.89062 28.39375 347.0625 29.20625Q346.23438 30.003124 346.14062 31.3625ZM361.10938 34.45625L362.85938 34.175Q363.0 35.221874 363.67188 35.784374Q364.34375 36.33125 365.54688 36.33125Q366.75 36.33125 367.32812 35.846874Q367.92188 35.346874 367.92188 34.690624Q367.92188 34.096874 367.40625 33.753124Q367.04688 33.51875 365.60938 33.159374Q363.67188 32.659374 362.92188 32.315624Q362.1875 31.95625 361.79688 31.33125Q361.40625 30.690624 361.40625 29.925Q361.40625 29.2375 361.71875 28.64375Q362.04688 28.05 362.59375 27.659374Q363.0 27.3625 363.70312 27.159374Q364.42188 26.940624 365.23438 26.940624Q366.45312 26.940624 367.375 27.3Q368.29688 27.64375 368.73438 28.253124Q369.17188 28.846874 369.34375 29.846874L367.625 30.08125Q367.5 29.284374 366.9375 28.846874Q366.375 28.39375 365.35938 28.39375Q364.14062 28.39375 363.625 28.8Q363.10938 29.190624 363.10938 29.721874Q363.10938 30.065624 363.32812 30.346874Q363.53125 30.628124 364.0 30.815624Q364.26562 30.909374 365.54688 31.253124Q367.42188 31.753124 368.15625 32.08125Q368.89062 32.39375 369.3125 33.003124Q369.73438 33.596874 369.73438 34.503124Q369.73438 35.378124 369.21875 36.159374Q368.70312 36.940624 367.73438 37.3625Q366.76562 37.784374 365.54688 37.784374Q363.53125 37.784374 362.46875 36.940624Q361.40625 36.096874 361.10938 34.45625ZM371.82812 25.253124L371.82812 23.2375L373.59375 23.2375L373.59375 25.253124L371.82812 25.253124ZM371.82812 37.55L371.82812 27.175L373.59375 27.175L373.59375 37.55L371.82812 37.55ZM374.89062 37.55L374.89062 36.128124L381.5 28.55Q380.375 28.596874 379.51562 28.596874L375.28125 28.596874L375.28125 27.175L383.76562 27.175L383.76562 28.346874L378.14062 34.925L377.0625 36.128124Q378.23438 36.034374 379.28125 36.034374L384.07812 36.034374L384.07812 37.55L374.89062 37.55ZM391.92188 34.20625L393.73438 34.440624Q393.3125 36.01875 392.14062 36.909374Q390.98438 37.784374 389.17188 37.784374Q386.90625 37.784374 385.5625 36.39375Q384.23438 34.9875 384.23438 32.45625Q384.23438 29.83125 385.57812 28.39375Q386.92188 26.940624 389.07812 26.940624Q391.15625 26.940624 392.46875 28.3625Q393.79688 29.76875 393.79688 32.346874Q393.79688 32.503124 393.78125 32.815624L386.04688 32.815624Q386.14062 34.51875 387.01562 35.425Q387.89062 36.33125 389.1875 36.33125Q390.15625 36.33125 390.82812 35.83125Q391.51562 35.315624 391.92188 34.20625ZM386.14062 31.3625L391.9375 31.3625Q391.82812 30.065624 391.28125 29.409374Q390.4375 28.39375 389.09375 28.39375Q387.89062 28.39375 387.0625 29.20625Q386.23438 30.003124 386.14062 31.3625ZM401.17188 32.3625Q401.17188 29.4875 402.76562 28.096874Q404.10938 26.940624 406.03125 26.940624Q408.17188 26.940624 409.51562 28.346874Q410.875 29.753124 410.875 32.221874Q410.875 34.221874 410.28125 35.378124Q409.6875 36.51875 408.53125 37.159374Q407.39062 37.784374 406.03125 37.784374Q403.84375 37.784374 402.5 36.39375Q401.17188 34.9875 401.17188 32.3625ZM402.96875 32.3625Q402.96875 34.3625 403.82812 35.346874Q404.70312 36.33125 406.03125 36.33125Q407.34375 36.33125 408.20312 35.346874Q409.07812 34.346874 409.07812 32.3Q409.07812 30.378124 408.20312 29.39375Q407.32812 28.39375 406.03125 28.39375Q404.70312 28.39375 403.82812 29.39375Q402.96875 30.378124 402.96875 32.3625ZM413.23438 37.55L413.23438 28.55L411.6875 28.55L411.6875 27.175L413.23438 27.175L413.23438 26.08125Q413.23438 25.034374 413.42188 24.51875Q413.67188 23.83125 414.3125 23.409374Q414.95312 22.9875 416.10938 22.9875Q416.85938 22.9875 417.75 23.159374L417.48438 24.690624Q416.9375 24.596874 416.45312 24.596874Q415.65625 24.596874 415.3125 24.940624Q414.98438 25.284374 414.98438 26.221874L414.98438 27.175L417.01562 27.175L417.01562 28.55L414.98438 28.55L414.98438 37.55L413.23438 37.55ZM424.34375 32.1125L424.34375 30.1125Q425.39062 28.940624 427.0625 28.940624Q427.65625 28.940624 428.29688 29.1125Q428.9375 29.284374 430.125 29.784374Q430.8125 30.065624 431.14062 30.159374Q431.48438 30.2375 431.82812 30.2375Q432.45312 30.2375 433.125 29.8625Q433.8125 29.4875 434.34375 28.909374L434.34375 30.971874Q433.71875 31.565624 433.07812 31.83125Q432.4375 32.096874 431.64062 32.096874Q431.04688 32.096874 430.51562 31.95625Q429.98438 31.815624 428.82812 31.3Q427.67188 30.784374 426.90625 30.784374Q426.28125 30.784374 425.71875 31.05Q425.17188 31.315624 424.34375 32.1125ZM436.59375 34.2375L438.28125 34.08125Q438.5 35.26875 439.09375 35.815624Q439.70312 36.346874 440.65625 36.346874Q441.46875 36.346874 442.07812 35.9875Q442.6875 35.6125 443.07812 34.9875Q443.46875 34.3625 443.73438 33.315624Q444.0 32.253124 444.0 31.159374Q444.0 31.05 443.98438 30.815624Q443.45312 31.64375 442.54688 32.175Q441.64062 32.690624 440.5625 32.690624Q438.79688 32.690624 437.5625 31.409374Q436.32812 30.1125 436.32812 28.003124Q436.32812 25.83125 437.60938 24.503124Q438.90625 23.175 440.82812 23.175Q442.23438 23.175 443.39062 23.925Q444.54688 24.675 445.14062 26.065624Q445.75 27.45625 445.75 30.096874Q445.75 32.846874 445.14062 34.471874Q444.54688 36.096874 443.375 36.95625Q442.20312 37.8 440.625 37.8Q438.9375 37.8 437.875 36.8625Q436.8125 35.925 436.59375 34.2375ZM443.79688 27.925Q443.79688 26.409374 442.98438 25.51875Q442.1875 24.628124 441.04688 24.628124Q439.875 24.628124 439.0 25.596874Q438.14062 26.55 438.14062 28.065624Q438.14062 29.440624 438.95312 30.3Q439.78125 31.14375 441.0 31.14375Q442.21875 31.14375 443.0 30.3Q443.79688 29.440624 443.79688 27.925ZM447.32812 30.4875Q447.32812 27.95625 447.84375 26.409374Q448.375 24.846874 449.40625 24.01875Q450.4375 23.175 452.0 23.175Q453.15625 23.175 454.01562 23.64375Q454.89062 24.096874 455.45312 24.971874Q456.01562 25.846874 456.34375 27.1125Q456.67188 28.3625 456.67188 30.4875Q456.67188 33.003124 456.14062 34.55Q455.625 36.096874 454.59375 36.95625Q453.57812 37.8 452.0 37.8Q449.92188 37.8 448.75 36.315624Q447.32812 34.51875 447.32812 30.4875ZM449.14062 30.4875Q449.14062 34.01875 449.95312 35.190624Q450.78125 36.346874 452.0 36.346874Q453.20312 36.346874 454.03125 35.175Q454.85938 34.003124 454.85938 30.4875Q454.85938 26.95625 454.03125 25.8Q453.20312 24.628124 451.98438 24.628124Q450.76562 24.628124 450.04688 25.659374Q449.14062 26.95625 449.14062 30.4875ZM458.32812 30.4875Q458.32812 27.95625 458.84375 26.409374Q459.375 24.846874 460.40625 24.01875Q461.4375 23.175 463.0 23.175Q464.15625 23.175 465.01562 23.64375Q465.89062 24.096874 466.45312 24.971874Q467.01562 25.846874 467.34375 27.1125Q467.67188 28.3625 467.67188 30.4875Q467.67188 33.003124 467.14062 34.55Q466.625 36.096874 465.59375 36.95625Q464.57812 37.8 463.0 37.8Q460.92188 37.8 459.75 36.315624Q458.32812 34.51875 458.32812 30.4875ZM460.14062 30.4875Q460.14062 34.01875 460.95312 35.190624Q461.78125 36.346874 463.0 36.346874Q464.20312 36.346874 465.03125 35.175Q465.85938 34.003124 465.85938 30.4875Q465.85938 26.95625 465.03125 25.8Q464.20312 24.628124 462.98438 24.628124Q461.76562 24.628124 461.04688 25.659374Q460.14062 26.95625 460.14062 30.4875ZM469.96875 37.55L469.96875 23.2375L471.85938 23.2375L471.85938 30.33125L478.96875 23.2375L481.53125 23.2375L475.53125 29.034374L481.79688 37.55L479.29688 37.55L474.20312 30.3L471.85938 32.58125L471.85938 37.55L469.96875 37.55Z" fill-rule="nonzero"/></svg>