<svg version="1.1" viewBox="0.0 0.0 600.0 371.0" fill="none" stroke="none" stroke-linecap="square" stroke-miterlimit="10" width="600" height="371" xmlns:xlink="http://www.w3.org/1999/xlink" xmlns="http://www.w3.org/2000/svg"><path fill="#ffffff" d="M0 0L600.0 0L600.0 371.0L0 371.0L0 0Z" fill-rule="nonzero"/><path stroke="#cccccc" stroke-width="1.0" stroke-linecap="butt" d="M80.5 292.5L581.5 292.5" fill-rule="nonzero"/><path stroke="#cccccc" stroke-width="1.0" stroke-linecap="butt" d="M80.5 240.5L581.5 240.5" fill-rule="nonzero"/><path stroke="#cccccc" stroke-width="1.0" stroke-linecap="butt" d="M80.5 188.5L581.5 188.5" fill-rule="nonzero"/><path stroke="#cccccc" stroke-width="1.0" stroke-linecap="butt" d="M80.5 135.5L581.5 135.5" fill-rule="nonzero"/><clipPath id="id_0"><path d="M80.55 88.28333L581.45 88.28333L581.45 300.45L80.55 300.45L80.55 88.28333Z" clip-rule="nonzero"/></clipPath><path stroke="#000000" stroke-width="2.0" stroke-linecap="butt" stroke-opacity="0.0" clip-path="url(#id_0)" d="M148.0 188.0L134.0 188.0L134.0 190.0C134.0 191.10457 134.89543 192.0 136.0 192.0L146.0 192.0C147.10457 192.0 148.0 191.10457 148.0 190.0Z" fill-rule="nonzero"/><path fill="#5891ad" clip-path="url(#id_0)" d="M148.0 188.0L134.0 188.0L134.0 190.0C134.0 191.10457 134.89543 192.0 136.0 192.0L146.0 192.0C147.10457 192.0 148.0 191.10457 148.0 190.0Z" fill-rule="nonzero"/><path stroke="#000000" stroke-width="2.0" stroke-linecap="butt" stroke-opacity="0.0" clip-path="url(#id_0)" d="M298.0 188.0L284.0 188.0L284.0 143.0C284.0 141.89543 284.89542 141.0 286.0 141.0L296.0 141.0C297.10458 141.0 298.0 141.89543 298.0 143.0Z" fill-rule="nonzero"/><path fill="#5891ad" clip-path="url(#id_0)" d="M298.0 188.0L284.0 188.0L284.0 143.0C284.0 141.89543 284.89542 141.0 286.0 141.0L296.0 141.0C297.10458 141.0 298.0 141.89543 298.0 143.0Z" fill-rule="nonzero"/><path stroke="#000000" stroke-width="2.0" stroke-linecap="butt" stroke-opacity="0.0" clip-path="url(#id_0)" d="M448.0 188.0L434.0 188.0L434.0 90.0C434.0 88.89543 434.89542 88.0 436.0 88.0L446.0 88.0C447.10458 88.0 448.0 88.89543 448.0 90.0Z" fill-rule="nonzero"/><path fill="#5891ad" clip-path="url(#id_0)" d="M448.0 188.0L434.0 188.0L434.0 90.0C434.0 88.89543 434.89542 88.0 436.0 88.0L446.0 88.0C447.10458 88.0 448.0 88.89543 448.0 90.0Z" fill-rule="nonzero"/><path stroke="#000000" stroke-width="2.0" stroke-linecap="butt" stroke-opacity="0.0" clip-path="url(#id_0)" d="M164.0 188.0L150.0 188.0L150.0 196.0C150.0 197.10457 150.89543 198.0 152.0 198.0L162.0 198.0C163.10457 198.0 164.0 197.10457 164.0 196.0Z" fill-rule="nonzero"/><path fill="#004561" clip-path="url(#id_0)" d="M164.0 188.0L150.0 188.0L150.0 196.0C150.0 197.10457 150.89543 198.0 152.0 198.0L162.0 198.0C163.10457 198.0 164.0 197.10457 164.0 196.0Z" fill-rule="nonzero"/><path stroke="#000000" stroke-width="2.0" stroke-linecap="butt" stroke-opacity="0.0" clip-path="url(#id_0)" d="M314.0 188.0L300.0 188.0L300.0 147.0C300.0 145.89543 300.89542 145.0 302.0 145.0L312.0 145.0C313.10458 145.0 314.0 145.89543 314.0 147.0Z" fill-rule="nonzero"/><path fill="#004561" clip-path="url(#id_0)" d="M314.0 188.0L300.0 188.0L300.0 147.0C300.0 145.89543 300.89542 145.0 302.0 145.0L312.0 145.0C313.10458 145.0 314.0 145.89543 314.0 147.0Z" fill-rule="nonzero"/><path stroke="#000000" stroke-width="2.0" stroke-linecap="butt" stroke-opacity="0.0" clip-path="url(#id_0)" d="M464.0 188.0L450.0 188.0L450.0 97.0C450.0 95.89543 450.89542 95.0 452.0 95.0L462.0 95.0C463.10458 95.0 464.0 95.89543 464.0 97.0Z" fill-rule="nonzero"/><path fill="#004561" clip-path="url(#id_0)" d="M464.0 188.0L450.0 188.0L450.0 97.0C450.0 95.89543 450.89542 95.0 452.0 95.0L462.0 95.0C463.10458 95.0 464.0 95.89543 464.0 97.0Z" fill-rule="nonzero"/><path stroke="#000000" stroke-width="2.0" stroke-linecap="butt" stroke-opacity="0.0" clip-path="url(#id_0)" d="M180.0 188.0L166.0 188.0L166.0 274.0C166.0 275.10458 166.89543 276.0 168.0 276.0L178.0 276.0C179.10457 276.0 180.0 275.10458 180.0 274.0Z" fill-rule="nonzero"/><path fill="#ff6f31" clip-path="url(#id_0)" d="M180.0 188.0L166.0 188.0L166.0 274.0C166.0 275.10458 166.89543 276.0 168.0 276.0L178.0 276.0C179.10457 276.0 180.0 275.10458 180.0 274.0Z" fill-rule="nonzero"/><path stroke="#000000" stroke-width="2.0" stroke-linecap="butt" stroke-opacity="0.0" clip-path="url(#id_0)" d="M330.0 188.0L316.0 188.0L316.0 276.0C316.0 277.10458 316.89542 278.0 318.0 278.0L328.0 278.0C329.10458 278.0 330.0 277.10458 330.0 276.0Z" fill-rule="nonzero"/><path fill="#ff6f31" clip-path="url(#id_0)" d="M330.0 188.0L316.0 188.0L316.0 276.0C316.0 277.10458 316.89542 278.0 318.0 278.0L328.0 278.0C329.10458 278.0 330.0 277.10458 330.0 276.0Z" fill-rule="nonzero"/><path stroke="#000000" stroke-width="2.0" stroke-linecap="butt" stroke-opacity="0.0" clip-path="url(#id_0)" d="M480.0 188.0L466.0 188.0L466.0 246.0C466.0 247.10457 466.89542 248.0 468.0 248.0L478.0 248.0C479.10458 248.0 480.0 247.10457 480.0 246.0Z" fill-rule="nonzero"/><path fill="#ff6f31" clip-path="url(#id_0)" d="M480.0 188.0L466.0 188.0L466.0 246.0C466.0 247.10457 466.89542 248.0 468.0 248.0L478.0 248.0C479.10458 248.0 480.0 247.10457 480.0 246.0Z" fill-rule="nonzero"/><path stroke="#000000" stroke-width="2.0" stroke-linecap="butt" stroke-opacity="0.0" clip-path="url(#id_0)" d="M196.0 188.0L182.0 188.0L182.0 295.0C182.0 296.10458 182.89543 297.0 184.0 297.0L194.0 297.0C195.10457 297.0 196.0 296.10458 196.0 295.0Z" fill-rule="nonzero"/><path fill="#1c7685" clip-path="url(#id_0)" d="M196.0 188.0L182.0 188.0L182.0 295.0C182.0 296.10458 182.89543 297.0 184.0 297.0L194.0 297.0C195.10457 297.0 196.0 296.10458 196.0 295.0Z" fill-rule="nonzero"/><path stroke="#000000" stroke-width="2.0" stroke-linecap="butt" stroke-opacity="0.0" clip-path="url(#id_0)" d="M346.0 188.0L332.0 188.0L332.0 293.0C332.0 294.10458 332.89542 295.0 334.0 295.0L344.0 295.0C345.10458 295.0 346.0 294.10458 346.0 293.0Z" fill-rule="nonzero"/><path fill="#1c7685" clip-path="url(#id_0)" d="M346.0 188.0L332.0 188.0L332.0 293.0C332.0 294.10458 332.89542 295.0 334.0 295.0L344.0 295.0C345.10458 295.0 346.0 294.10458 346.0 293.0Z" fill-rule="nonzero"/><path stroke="#000000" stroke-width="2.0" stroke-linecap="butt" stroke-opacity="0.0" clip-path="url(#id_0)" d="M496.0 188.0L482.0 188.0L482.0 290.0C482.0 291.10458 482.89542 292.0 484.0 292.0L494.0 292.0C495.10458 292.0 496.0 291.10458 496.0 290.0Z" fill-rule="nonzero"/><path fill="#1c7685" clip-path="url(#id_0)" d="M496.0 188.0L482.0 188.0L482.0 290.0C482.0 291.10458 482.89542 292.0 484.0 292.0L494.0 292.0C495.10458 292.0 496.0 291.10458 496.0 290.0Z" fill-rule="nonzero"/><path stroke="#000000" stroke-width="2.0" stroke-linecap="butt" stroke-opacity="0.0" clip-path="url(#id_0)" d="M212.0 188.0L198.0 188.0L198.0 288.0C198.0 289.10458 198.89543 290.0 200.0 290.0L210.0 290.0C211.10457 290.0 212.0 289.10458 212.0 288.0Z" fill-rule="nonzero"/><path fill="#0f45a8" clip-path="url(#id_0)" d="M212.0 188.0L198.0 188.0L198.0 288.0C198.0 289.10458 198.89543 290.0 200.0 290.0L210.0 290.0C211.10457 290.0 212.0 289.10458 212.0 288.0Z" fill-rule="nonzero"/><path stroke="#000000" stroke-width="2.0" stroke-linecap="butt" stroke-opacity="0.0" clip-path="url(#id_0)" d="M362.0 188.0L348.0 188.0L348.0 286.0C348.0 287.10458 348.89542 288.0 350.0 288.0L360.0 288.0C361.10458 288.0 362.0 287.10458 362.0 286.0Z" fill-rule="nonzero"/><path fill="#0f45a8" clip-path="url(#id_0)" d="M362.0 188.0L348.0 188.0L348.0 286.0C348.0 287.10458 348.89542 288.0 350.0 288.0L360.0 288.0C361.10458 288.0 362.0 287.10458 362.0 286.0Z" fill-rule="nonzero"/><path stroke="#000000" stroke-width="2.0" stroke-linecap="butt" stroke-opacity="0.0" clip-path="url(#id_0)" d="M512.0 188.0L498.0 188.0L498.0 284.0C498.0 285.10458 498.89542 286.0 500.0 286.0L510.0 286.0C511.10458 286.0 512.0 285.10458 512.0 284.0Z" fill-rule="nonzero"/><path fill="#0f45a8" clip-path="url(#id_0)" d="M512.0 188.0L498.0 188.0L498.0 284.0C498.0 285.10458 498.89542 286.0 500.0 286.0L510.0 286.0C511.10458 286.0 512.0 285.10458 512.0 284.0Z" fill-rule="nonzero"/><path stroke="#000000" stroke-width="2.0" stroke-linecap="butt" stroke-opacity="0.0" clip-path="url(#id_0)" d="M228.0 188.0L214.0 188.0L214.0 298.0C214.0 299.10458 214.89543 300.0 216.0 300.0L226.0 300.0C227.10457 300.0 228.0 299.10458 228.0 298.0Z" fill-rule="nonzero"/><path fill="#4cdc8b" clip-path="url(#id_0)" d="M228.0 188.0L214.0 188.0L214.0 298.0C214.0 299.10458 214.89543 300.0 216.0 300.0L226.0 300.0C227.10457 300.0 228.0 299.10458 228.0 298.0Z" fill-rule="nonzero"/><path stroke="#000000" stroke-width="2.0" stroke-linecap="butt" stroke-opacity="0.0" clip-path="url(#id_0)" d="M378.0 188.0L364.0 188.0L364.0 295.0C364.0 296.10458 364.89542 297.0 366.0 297.0L376.0 297.0C377.10458 297.0 378.0 296.10458 378.0 295.0Z" fill-rule="nonzero"/><path fill="#4cdc8b" clip-path="url(#id_0)" d="M378.0 188.0L364.0 188.0L364.0 295.0C364.0 296.10458 364.89542 297.0 366.0 297.0L376.0 297.0C377.10458 297.0 378.0 296.10458 378.0 295.0Z" fill-rule="nonzero"/><path stroke="#000000" stroke-width="2.0" stroke-linecap="butt" stroke-opacity="0.0" clip-path="url(#id_0)" d="M528.0 188.0L514.0 188.0L514.0 290.0C514.0 291.10458 514.89545 292.0 516.0 292.0L526.0 292.0C527.10455 292.0 528.0 291.10458 528.0 290.0Z" fill-rule="nonzero"/><path fill="#4cdc8b" clip-path="url(#id_0)" d="M528.0 188.0L514.0 188.0L514.0 290.0C514.0 291.10458 514.89545 292.0 516.0 292.0L526.0 292.0C527.10455 292.0 528.0 291.10458 528.0 290.0Z" fill-rule="nonzero"/><path fill="#000000" d="M292.42188 349.45L292.42188 340.85626L295.39062 340.85626Q296.39062 340.85626 296.92188 340.98126Q297.65625 341.15314 298.17188 341.59064Q298.85938 342.16876 299.1875 343.075Q299.53125 343.96564 299.53125 345.10626Q299.53125 346.09064 299.29688 346.84064Q299.07812 347.59064 298.71875 348.09064Q298.35938 348.59064 297.92188 348.8719Q297.5 349.15314 296.90625 349.3094Q296.3125 349.45 295.53125 349.45L292.42188 349.45ZM293.5625 348.4344L295.39062 348.4344Q296.25 348.4344 296.73438 348.27814Q297.21875 348.1219 297.5 347.825Q297.90625 347.4344 298.125 346.7469Q298.35938 346.0594 298.35938 345.09064Q298.35938 343.7469 297.90625 343.02814Q297.46875 342.29376 296.84375 342.04376Q296.375 341.8719 295.375 341.8719L293.5625 341.8719L293.5625 348.4344ZM305.35938 348.6844Q304.76562 349.1844 304.21875 349.3875Q303.6875 349.59064 303.0625 349.59064Q302.03125 349.59064 301.48438 349.09064Q300.9375 348.59064 300.9375 347.8094Q300.9375 347.35626 301.14062 346.98126Q301.34375 346.59064 301.6875 346.3719Q302.03125 346.1375 302.45312 346.02814Q302.75 345.9344 303.39062 345.85626Q304.65625 345.71564 305.26562 345.4969Q305.26562 345.27814 305.26562 345.23126Q305.26562 344.575 304.96875 344.3094Q304.5625 343.96564 303.76562 343.96564Q303.03125 343.96564 302.67188 344.23126Q302.3125 344.48126 302.14062 345.1375L301.10938 344.9969Q301.25 344.34064 301.57812 343.9344Q301.90625 343.52814 302.51562 343.3094Q303.125 343.09064 303.92188 343.09064Q304.71875 343.09064 305.21875 343.27814Q305.71875 343.46564 305.95312 343.7469Q306.1875 344.02814 306.28125 344.46564Q306.32812 344.73126 306.32812 345.4344L306.32812 346.84064Q306.32812 348.3094 306.39062 348.7Q306.46875 349.09064 306.67188 349.45L305.5625 349.45Q305.40625 349.1219 305.35938 348.6844ZM305.26562 346.325Q304.6875 346.5594 303.54688 346.73126Q302.89062 346.825 302.625 346.95Q302.35938 347.0594 302.20312 347.27814Q302.0625 347.4969 302.0625 347.77814Q302.0625 348.2 302.375 348.48126Q302.70312 348.7625 303.3125 348.7625Q303.92188 348.7625 304.39062 348.4969Q304.875 348.23126 305.09375 347.7625Q305.26562 347.40314 305.26562 346.71564L305.26562 346.325ZM310.59375 348.5125L310.75 349.4344Q310.29688 349.52814 309.95312 349.52814Q309.375 349.52814 309.0625 349.35626Q308.75 349.16876 308.60938 348.8719Q308.48438 348.575 308.48438 347.6219L308.48438 344.04376L307.71875 344.04376L307.71875 343.23126L308.48438 343.23126L308.48438 341.6844L309.53125 341.0594L309.53125 343.23126L310.59375 343.23126L310.59375 344.04376L309.53125 344.04376L309.53125 347.6844Q309.53125 348.1375 309.57812 348.2625Q309.64062 348.3875 309.76562 348.46564Q309.89062 348.54376 310.125 348.54376Q310.3125 348.54376 310.59375 348.5125ZM315.35938 348.6844Q314.76562 349.1844 314.21875 349.3875Q313.6875 349.59064 313.0625 349.59064Q312.03125 349.59064 311.48438 349.09064Q310.9375 348.59064 310.9375 347.8094Q310.9375 347.35626 311.14062 346.98126Q311.34375 346.59064 311.6875 346.3719Q312.03125 346.1375 312.45312 346.02814Q312.75 345.9344 313.39062 345.85626Q314.65625 345.71564 315.26562 345.4969Q315.26562 345.27814 315.26562 345.23126Q315.26562 344.575 314.96875 344.3094Q314.5625 343.96564 313.76562 343.96564Q313.03125 343.96564 312.67188 344.23126Q312.3125 344.48126 312.14062 345.1375L311.10938 344.9969Q311.25 344.34064 311.57812 343.9344Q311.90625 343.52814 312.51562 343.3094Q313.125 343.09064 313.92188 343.09064Q314.71875 343.09064 315.21875 343.27814Q315.71875 343.46564 315.95312 343.7469Q316.1875 344.02814 316.28125 344.46564Q316.32812 344.73126 316.32812 345.4344L316.32812 346.84064Q316.32812 348.3094 316.39062 348.7Q316.46875 349.09064 316.67188 349.45L315.5625 349.45Q315.40625 349.1219 315.35938 348.6844ZM315.26562 346.325Q314.6875 346.5594 313.54688 346.73126Q312.89062 346.825 312.625 346.95Q312.35938 347.0594 312.20312 347.27814Q312.0625 347.4969 312.0625 347.77814Q312.0625 348.2 312.375 348.48126Q312.70312 348.7625 313.3125 348.7625Q313.92188 348.7625 314.39062 348.4969Q314.875 348.23126 315.09375 347.7625Q315.26562 347.40314 315.26562 346.71564L315.26562 346.325ZM319.26562 349.45L318.28125 349.45L318.28125 340.85626L319.34375 340.85626L319.34375 343.91876Q320.01562 343.09064 321.04688 343.09064Q321.625 343.09064 322.125 343.325Q322.64062 343.54376 322.96875 343.96564Q323.3125 344.3875 323.5 344.98126Q323.6875 345.575 323.6875 346.2469Q323.6875 347.84064 322.89062 348.71564Q322.09375 349.59064 321.0 349.59064Q319.89062 349.59064 319.26562 348.66876L319.26562 349.45ZM319.25 346.29376Q319.25 347.40314 319.5625 347.90314Q320.0625 348.71564 320.90625 348.71564Q321.59375 348.71564 322.09375 348.1219Q322.60938 347.52814 322.60938 346.325Q322.60938 345.10626 322.125 344.52814Q321.64062 343.95 320.95312 343.95Q320.26562 343.95 319.75 344.5594Q319.25 345.15314 319.25 346.29376ZM329.35938 348.6844Q328.76562 349.1844 328.21875 349.3875Q327.6875 349.59064 327.0625 349.59064Q326.03125 349.59064 325.48438 349.09064Q324.9375 348.59064 324.9375 347.8094Q324.9375 347.35626 325.14062 346.98126Q325.34375 346.59064 325.6875 346.3719Q326.03125 346.1375 326.45312 346.02814Q326.75 345.9344 327.39062 345.85626Q328.65625 345.71564 329.26562 345.4969Q329.26562 345.27814 329.26562 345.23126Q329.26562 344.575 328.96875 344.3094Q328.5625 343.96564 327.76562 343.96564Q327.03125 343.96564 326.67188 344.23126Q326.3125 344.48126 326.14062 345.1375L325.10938 344.9969Q325.25 344.34064 325.57812 343.9344Q325.90625 343.52814 326.51562 343.3094Q327.125 343.09064 327.92188 343.09064Q328.71875 343.09064 329.21875 343.27814Q329.71875 343.46564 329.95312 343.7469Q330.1875 344.02814 330.28125 344.46564Q330.32812 344.73126 330.32812 345.4344L330.32812 346.84064Q330.32812 348.3094 330.39062 348.7Q330.46875 349.09064 330.67188 349.45L329.5625 349.45Q329.40625 349.1219 329.35938 348.6844ZM329.26562 346.325Q328.6875 346.5594 327.54688 346.73126Q326.89062 346.825 326.625 346.95Q326.35938 347.0594 326.20312 347.27814Q326.0625 347.4969 326.0625 347.77814Q326.0625 348.2 326.375 348.48126Q326.70312 348.7625 327.3125 348.7625Q327.92188 348.7625 328.39062 348.4969Q328.875 348.23126 329.09375 347.7625Q329.26562 347.40314 329.26562 346.71564L329.26562 346.325ZM331.875 347.59064L332.90625 347.4344Q333.0 348.0594 333.39062 348.3875Q333.79688 348.71564 334.53125 348.71564Q335.25 348.71564 335.59375 348.4344Q335.95312 348.1375 335.95312 347.73126Q335.95312 347.3719 335.64062 347.16876Q335.42188 347.02814 334.5625 346.8094Q333.40625 346.5125 332.95312 346.3094Q332.51562 346.09064 332.28125 345.71564Q332.04688 345.34064 332.04688 344.8719Q332.04688 344.46564 332.23438 344.10626Q332.42188 343.7469 332.75 343.5125Q333.0 343.34064 333.42188 343.21564Q333.84375 343.09064 334.34375 343.09064Q335.0625 343.09064 335.60938 343.3094Q336.17188 343.5125 336.4375 343.8719Q336.70312 344.23126 336.79688 344.825L335.76562 344.96564Q335.70312 344.4969 335.35938 344.23126Q335.03125 343.95 334.40625 343.95Q333.6875 343.95 333.375 344.2Q333.0625 344.4344 333.0625 344.7625Q333.0625 344.96564 333.1875 345.1219Q333.32812 345.29376 333.59375 345.40314Q333.75 345.46564 334.53125 345.66876Q335.65625 345.98126 336.09375 346.16876Q336.53125 346.35626 336.78125 346.71564Q337.03125 347.075 337.03125 347.6219Q337.03125 348.15314 336.71875 348.6219Q336.42188 349.075 335.84375 349.34064Q335.26562 349.59064 334.53125 349.59064Q333.3125 349.59064 332.67188 349.09064Q332.04688 348.575 331.875 347.59064ZM343.54688 347.45L344.64062 347.575Q344.39062 348.52814 343.6875 349.0594Q342.98438 349.59064 341.90625 349.59064Q340.54688 349.59064 339.73438 348.7469Q338.9375 347.90314 338.9375 346.3875Q338.9375 344.825 339.75 343.96564Q340.5625 343.09064 341.84375 343.09064Q343.09375 343.09064 343.875 343.9344Q344.67188 344.77814 344.67188 346.325Q344.67188 346.41876 344.67188 346.60626L340.03125 346.60626Q340.09375 347.6375 340.60938 348.1844Q341.125 348.71564 341.90625 348.71564Q342.48438 348.71564 342.89062 348.41876Q343.3125 348.10626 343.54688 347.45ZM340.09375 345.7469L343.5625 345.7469Q343.5 344.95 343.17188 344.5594Q342.65625 343.95 341.85938 343.95Q341.125 343.95 340.625 344.4344Q340.14062 344.91876 340.09375 345.7469ZM348.875 347.59064L349.90625 347.4344Q350.0 348.0594 350.39062 348.3875Q350.79688 348.71564 351.53125 348.71564Q352.25 348.71564 352.59375 348.4344Q352.95312 348.1375 352.95312 347.73126Q352.95312 347.3719 352.64062 347.16876Q352.42188 347.02814 351.5625 346.8094Q350.40625 346.5125 349.95312 346.3094Q349.51562 346.09064 349.28125 345.71564Q349.04688 345.34064 349.04688 344.8719Q349.04688 344.46564 349.23438 344.10626Q349.42188 343.7469 349.75 343.5125Q350.0 343.34064 350.42188 343.21564Q350.84375 343.09064 351.34375 343.09064Q352.0625 343.09064 352.60938 343.3094Q353.17188 343.5125 353.4375 343.8719Q353.70312 344.23126 353.79688 344.825L352.76562 344.96564Q352.70312 344.4969 352.35938 344.23126Q352.03125 343.95 351.40625 343.95Q350.6875 343.95 350.375 344.2Q350.0625 344.4344 350.0625 344.7625Q350.0625 344.96564 350.1875 345.1219Q350.32812 345.29376 350.59375 345.40314Q350.75 345.46564 351.53125 345.66876Q352.65625 345.98126 353.09375 346.16876Q353.53125 346.35626 353.78125 346.71564Q354.03125 347.075 354.03125 347.6219Q354.03125 348.15314 353.71875 348.6219Q353.42188 349.075 352.84375 349.34064Q352.26562 349.59064 351.53125 349.59064Q350.3125 349.59064 349.67188 349.09064Q349.04688 348.575 348.875 347.59064ZM356.29688 342.075L356.29688 340.85626L357.35938 340.85626L357.35938 342.075L356.29688 342.075ZM356.29688 349.45L356.29688 343.23126L357.35938 343.23126L357.35938 349.45L356.29688 349.45ZM358.73438 349.45L358.73438 348.59064L362.70312 344.04376Q362.01562 344.075 361.5 344.075L358.96875 344.075L358.96875 343.23126L364.0625 343.23126L364.0625 343.91876L360.6875 347.8719L360.03125 348.59064Q360.75 348.54376 361.35938 348.54376L364.25 348.54376L364.25 349.45L358.73438 349.45ZM368.54688 347.45L369.64062 347.575Q369.39062 348.52814 368.6875 349.0594Q367.98438 349.59064 366.90625 349.59064Q365.54688 349.59064 364.73438 348.7469Q363.9375 347.90314 363.9375 346.3875Q363.9375 344.825 364.75 343.96564Q365.5625 343.09064 366.84375 343.09064Q368.09375 343.09064 368.875 343.9344Q369.67188 344.77814 369.67188 346.325Q369.67188 346.41876 369.67188 346.60626L365.03125 346.60626Q365.09375 347.6375 365.60938 348.1844Q366.125 348.71564 366.90625 348.71564Q367.48438 348.71564 367.89062 348.41876Q368.3125 348.10626 368.54688 347.45ZM365.09375 345.7469L368.5625 345.7469Q368.5 344.95 368.17188 344.5594Q367.65625 343.95 366.85938 343.95Q366.125 343.95 365.625 344.4344Q365.14062 344.91876 365.09375 345.7469Z" fill-rule="nonzero"/><path fill="#000000" d="M29.550013 280.91354L20.956263 280.91354L20.956263 274.71042L21.971888 274.71042L21.971888 279.77292L24.596888 279.77292L24.596888 275.02292L25.612513 275.02292L25.612513 279.77292L28.534388 279.77292L28.534388 274.5073L29.550013 274.5073L29.550013 280.91354ZM29.550013 273.77292L26.315638 271.5073L23.331263 273.60104L23.331263 272.28854L24.784388 271.33542Q25.206263 271.0698 25.487513 270.89792Q25.096888 270.64792 24.800013 270.42917L23.331263 269.3823L23.331263 268.11667L26.253138 270.27292L29.550013 267.96042L29.550013 269.24167L27.612513 270.52292L27.096888 270.86667L29.550013 272.5073L29.550013 273.77292ZM27.550013 263.8198L27.675013 262.72604Q28.628138 262.97604 29.159388 263.67917Q29.690638 264.3823 29.690638 265.46042Q29.690638 266.8198 28.846888 267.6323Q28.003138 268.42917 26.487513 268.42917Q24.925013 268.42917 24.065638 267.61667Q23.190638 266.80417 23.190638 265.52292Q23.190638 264.27292 24.034388 263.49167Q24.878138 262.6948 26.425013 262.6948Q26.518763 262.6948 26.706263 262.6948L26.706263 267.33542Q27.737513 267.27292 28.284388 266.7573Q28.815638 266.24167 28.815638 265.46042Q28.815638 264.8823 28.518763 264.47604Q28.206263 264.05417 27.550013 263.8198ZM25.846888 267.27292L25.846888 263.80417Q25.050013 263.86667 24.659388 264.1948Q24.050013 264.71042 24.050013 265.5073Q24.050013 266.24167 24.534388 266.74167Q25.018763 267.22604 25.846888 267.27292ZM27.268763 257.0073L27.409388 255.97604Q28.471888 256.14792 29.081263 256.85104Q29.690638 257.55417 29.690638 258.5698Q29.690638 259.85104 28.862513 260.6323Q28.018763 261.39792 26.456263 261.39792Q25.456263 261.39792 24.706263 261.0698Q23.940638 260.72604 23.565638 260.05417Q23.190638 259.36667 23.190638 258.55417Q23.190638 257.55417 23.706263 256.91354Q24.206263 256.2573 25.159388 256.0698L25.315638 257.10104Q24.690638 257.24167 24.378138 257.61667Q24.050013 257.99167 24.050013 258.52292Q24.050013 259.3198 24.628138 259.8198Q25.190638 260.3198 26.425013 260.3198Q27.690638 260.3198 28.253138 259.83542Q28.815638 259.35104 28.815638 258.58542Q28.815638 257.96042 28.440638 257.55417Q28.065638 257.1323 27.268763 257.0073ZM29.550013 250.99167L28.628138 250.99167Q29.690638 251.72604 29.690638 252.97604Q29.690638 253.52292 29.487513 254.0073Q29.268763 254.47604 28.956263 254.71042Q28.628138 254.9448 28.159388 255.03854Q27.862513 255.10104 27.175013 255.10104L23.331263 255.10104L23.331263 254.03854L26.784388 254.03854Q27.596888 254.03854 27.893763 253.97604Q28.300013 253.8823 28.550013 253.5698Q28.784388 253.24167 28.784388 252.7573Q28.784388 252.28854 28.550013 251.8823Q28.300013 251.46042 27.878138 251.28854Q27.456263 251.10104 26.659388 251.10104L23.331263 251.10104L23.331263 250.05417L29.550013 250.05417L29.550013 250.99167ZM28.612513 245.77292L29.534388 245.61667Q29.628138 246.0698 29.628138 246.41354Q29.628138 246.99167 29.456263 247.30417Q29.268763 247.61667 28.971888 247.7573Q28.675013 247.8823 27.721888 247.8823L24.143763 247.8823L24.143763 248.64792L23.331263 248.64792L23.331263 247.8823L21.784388 247.8823L21.159388 246.83542L23.331263 246.83542L23.331263 245.77292L24.143763 245.77292L24.143763 246.83542L27.784388 246.83542Q28.237513 246.83542 28.362513 246.78854Q28.487513 246.72604 28.565638 246.60104Q28.643763 246.47604 28.643763 246.24167Q28.643763 246.05417 28.612513 245.77292ZM22.175013 245.0698L20.956263 245.0698L20.956263 244.0073L22.175013 244.0073L22.175013 245.0698ZM29.550013 245.0698L23.331263 245.0698L23.331263 244.0073L29.550013 244.0073L29.550013 245.0698ZM26.440638 242.46042Q24.706263 242.46042 23.878138 241.5073Q23.190638 240.71042 23.190638 239.55417Q23.190638 238.27292 24.034388 237.46042Q24.862513 236.6323 26.346888 236.6323Q27.550013 236.6323 28.237513 236.99167Q28.925013 237.35104 29.315638 238.05417Q29.690638 238.74167 29.690638 239.55417Q29.690638 240.85104 28.862513 241.66354Q28.018763 242.46042 26.440638 242.46042ZM26.440638 241.3823Q27.628138 241.3823 28.221888 240.86667Q28.815638 240.33542 28.815638 239.55417Q28.815638 238.7573 28.221888 238.24167Q27.628138 237.72604 26.409388 237.72604Q25.253138 237.72604 24.659388 238.2573Q24.065638 238.77292 24.065638 239.55417Q24.065638 240.33542 24.659388 240.86667Q25.237513 241.3823 26.440638 241.3823ZM29.550013 235.0698L23.331263 235.0698L23.331263 234.1323L24.206263 234.1323Q23.190638 233.4448 23.190638 232.14792Q23.190638 231.58542 23.393763 231.11667Q23.596888 230.6323 23.925013 230.39792Q24.253138 230.16354 24.690638 230.0698Q24.987513 230.02292 25.721888 230.02292L29.550013 230.02292L29.550013 231.0698L25.768763 231.0698Q25.112513 231.0698 24.800013 231.1948Q24.487513 231.3198 24.300013 231.6323Q24.096888 231.9448 24.096888 232.36667Q24.096888 233.03854 24.534388 233.53854Q24.956263 234.02292 26.143763 234.02292L29.550013 234.02292L29.550013 235.0698ZM28.612513 222.77292L29.534388 222.61667Q29.628138 223.0698 29.628138 223.41354Q29.628138 223.99167 29.456263 224.30417Q29.268763 224.61667 28.971888 224.7573Q28.675013 224.8823 27.721888 224.8823L24.143763 224.8823L24.143763 225.64792L23.331263 225.64792L23.331263 224.8823L21.784388 224.8823L21.159388 223.83542L23.331263 223.83542L23.331263 222.77292L24.143763 222.77292L24.143763 223.83542L27.784388 223.83542Q28.237513 223.83542 28.362513 223.78854Q28.487513 223.72604 28.565638 223.60104Q28.643763 223.47604 28.643763 223.24167Q28.643763 223.05417 28.612513 222.77292ZM22.175013 222.0698L20.956263 222.0698L20.956263 221.0073L22.175013 221.0073L22.175013 222.0698ZM29.550013 222.0698L23.331263 222.0698L23.331263 221.0073L29.550013 221.0073L29.550013 222.0698ZM29.550013 219.0698L23.331263 219.0698L23.331263 218.1323L24.206263 218.1323Q23.737513 217.83542 23.471888 217.35104Q23.190638 216.86667 23.190638 216.24167Q23.190638 215.55417 23.471888 215.11667Q23.753138 214.66354 24.268763 214.49167Q23.190638 213.74167 23.190638 212.5698Q23.190638 211.6323 23.706263 211.14792Q24.206263 210.64792 25.284388 210.64792L29.550013 210.64792L29.550013 211.6948L25.628138 211.6948Q25.003138 211.6948 24.721888 211.80417Q24.440638 211.89792 24.268763 212.16354Q24.096888 212.42917 24.096888 212.80417Q24.096888 213.46042 24.534388 213.89792Q24.971888 214.3198 25.940638 214.3198L29.550013 214.3198L29.550013 215.3823L25.503138 215.3823Q24.800013 215.3823 24.456263 215.64792Q24.096888 215.89792 24.096888 216.47604Q24.096888 216.92917 24.331263 217.30417Q24.565638 217.67917 25.018763 217.85104Q25.471888 218.02292 26.315638 218.02292L29.550013 218.02292L29.550013 219.0698ZM27.550013 203.8198L27.675013 202.72604Q28.628138 202.97604 29.159388 203.67917Q29.690638 204.3823 29.690638 205.46042Q29.690638 206.8198 28.846888 207.6323Q28.003138 208.42917 26.487513 208.42917Q24.925013 208.42917 24.065638 207.61667Q23.190638 206.80417 23.190638 205.52292Q23.190638 204.27292 24.034388 203.49167Q24.878138 202.6948 26.425013 202.6948Q26.518763 202.6948 26.706263 202.6948L26.706263 207.33542Q27.737513 207.27292 28.284388 206.7573Q28.815638 206.24167 28.815638 205.46042Q28.815638 204.8823 28.518763 204.47604Q28.206263 204.05417 27.550013 203.8198ZM25.846888 207.27292L25.846888 203.80417Q25.050013 203.86667 24.659388 204.1948Q24.050013 204.71042 24.050013 205.5073Q24.050013 206.24167 24.534388 206.74167Q25.018763 207.22604 25.846888 207.27292ZM22.175013 198.0698L20.956263 198.0698L20.956263 197.0073L22.175013 197.0073L22.175013 198.0698ZM29.550013 198.0698L23.331263 198.0698L23.331263 197.0073L29.550013 197.0073L29.550013 198.0698ZM29.550013 195.0698L23.331263 195.0698L23.331263 194.1323L24.206263 194.1323Q23.190638 193.4448 23.190638 192.14792Q23.190638 191.58542 23.393763 191.11667Q23.596888 190.6323 23.925013 190.39792Q24.253138 190.16354 24.690638 190.0698Q24.987513 190.02292 25.721888 190.02292L29.550013 190.02292L29.550013 191.0698L25.768763 191.0698Q25.112513 191.0698 24.800013 191.1948Q24.487513 191.3198 24.300013 191.6323Q24.096888 191.9448 24.096888 192.36667Q24.096888 193.03854 24.534388 193.53854Q24.956263 194.02292 26.143763 194.02292L29.550013 194.02292L29.550013 195.0698ZM29.550013 185.10104L20.956263 185.10104L20.956263 184.03854L29.550013 184.03854L29.550013 185.10104ZM26.440638 182.46042Q24.706263 182.46042 23.878138 181.5073Q23.190638 180.71042 23.190638 179.55417Q23.190638 178.27292 24.034388 177.46042Q24.862513 176.6323 26.346888 176.6323Q27.550013 176.6323 28.237513 176.99167Q28.925013 177.35104 29.315638 178.05417Q29.690638 178.74167 29.690638 179.55417Q29.690638 180.85104 28.862513 181.66354Q28.018763 182.46042 26.440638 182.46042ZM26.440638 181.3823Q27.628138 181.3823 28.221888 180.86667Q28.815638 180.33542 28.815638 179.55417Q28.815638 178.7573 28.221888 178.24167Q27.628138 177.72604 26.409388 177.72604Q25.253138 177.72604 24.659388 178.2573Q24.065638 178.77292 24.065638 179.55417Q24.065638 180.33542 24.659388 180.86667Q25.237513 181.3823 26.440638 181.3823ZM30.065638 175.27292L30.221888 174.24167Q30.690638 174.17917 30.909388 173.8823Q31.206263 173.49167 31.206263 172.8198Q31.206263 172.08542 30.909388 171.6948Q30.612513 171.28854 30.096888 171.14792Q29.768763 171.05417 28.737513 171.0698Q29.550013 171.7573 29.550013 172.78854Q29.550013 174.0698 28.628138 174.77292Q27.690638 175.47604 26.409388 175.47604Q25.518763 175.47604 24.768763 175.16354Q24.003138 174.83542 23.596888 174.22604Q23.190638 173.61667 23.190638 172.78854Q23.190638 171.67917 24.081263 170.96042L23.331263 170.96042L23.331263 169.99167L28.706263 169.99167Q30.159388 169.99167 30.768763 170.28854Q31.378138 170.58542 31.721888 171.22604Q32.08126 171.86667 32.08126 172.80417Q32.08126 173.91354 31.581263 174.60104Q31.081263 175.28854 30.065638 175.27292ZM26.331263 174.39792Q27.550013 174.39792 28.112513 173.91354Q28.675013 173.42917 28.675013 172.6948Q28.675013 171.96042 28.112513 171.47604Q27.550013 170.97604 26.362513 170.97604Q25.221888 170.97604 24.643763 171.49167Q24.065638 171.99167 24.065638 172.71042Q24.065638 173.41354 24.643763 173.91354Q25.206263 174.39792 26.331263 174.39792ZM32.08126 166.05417Q30.971888 166.92917 29.503138 167.53854Q28.018763 168.1323 26.440638 168.1323Q25.050013 168.1323 23.768763 167.6948Q22.284388 167.16354 20.815638 166.05417L20.815638 165.30417Q22.034388 166.0073 22.550013 166.24167Q23.362513 166.60104 24.237513 166.80417Q25.331263 167.05417 26.440638 167.05417Q29.268763 167.05417 32.08126 165.30417L32.08126 166.05417ZM27.690638 164.49167L27.534388 163.46042Q28.159388 163.36667 28.487513 162.97604Q28.815638 162.5698 28.815638 161.83542Q28.815638 161.11667 28.534388 160.77292Q28.237513 160.41354 27.831263 160.41354Q27.471888 160.41354 27.268763 160.72604Q27.128138 160.9448 26.909388 161.80417Q26.612513 162.96042 26.409388 163.41354Q26.190638 163.85104 25.815638 164.08542Q25.440638 164.3198 24.971888 164.3198Q24.565638 164.3198 24.206263 164.1323Q23.846888 163.9448 23.612513 163.61667Q23.440638 163.36667 23.315638 162.9448Q23.190638 162.52292 23.190638 162.02292Q23.190638 161.30417 23.409388 160.7573Q23.612513 160.1948 23.971888 159.92917Q24.331263 159.66354 24.925013 159.5698L25.065638 160.60104Q24.596888 160.66354 24.331263 161.0073Q24.050013 161.33542 24.050013 161.96042Q24.050013 162.67917 24.300013 162.99167Q24.534388 163.30417 24.862513 163.30417Q25.065638 163.30417 25.221888 163.17917Q25.393763 163.03854 25.503138 162.77292Q25.565638 162.61667 25.768763 161.83542Q26.081263 160.71042 26.268763 160.27292Q26.456263 159.83542 26.815638 159.58542Q27.175013 159.33542 27.721888 159.33542Q28.253138 159.33542 28.721888 159.64792Q29.175013 159.9448 29.440638 160.52292Q29.690638 161.10104 29.690638 161.83542Q29.690638 163.05417 29.190638 163.6948Q28.675013 164.3198 27.690638 164.49167ZM27.550013 152.8198L27.675013 151.72604Q28.628138 151.97604 29.159388 152.67917Q29.690638 153.3823 29.690638 154.46042Q29.690638 155.8198 28.846888 156.6323Q28.003138 157.42917 26.487513 157.42917Q24.925013 157.42917 24.065638 156.61667Q23.190638 155.80417 23.190638 154.52292Q23.190638 153.27292 24.034388 152.49167Q24.878138 151.6948 26.425013 151.6948Q26.518763 151.6948 26.706263 151.6948L26.706263 156.33542Q27.737513 156.27292 28.284388 155.7573Q28.815638 155.24167 28.815638 154.46042Q28.815638 153.8823 28.518763 153.47604Q28.206263 153.05417 27.550013 152.8198ZM25.846888 156.27292L25.846888 152.80417Q25.050013 152.86667 24.659388 153.1948Q24.050013 153.71042 24.050013 154.5073Q24.050013 155.24167 24.534388 155.74167Q25.018763 156.22604 25.846888 156.27292ZM27.268763 146.0073L27.409388 144.97604Q28.471888 145.14792 29.081263 145.85104Q29.690638 146.55417 29.690638 147.5698Q29.690638 148.85104 28.862513 149.6323Q28.018763 150.39792 26.456263 150.39792Q25.456263 150.39792 24.706263 150.0698Q23.940638 149.72604 23.565638 149.05417Q23.190638 148.36667 23.190638 147.55417Q23.190638 146.55417 23.706263 145.91354Q24.206263 145.2573 25.159388 145.0698L25.315638 146.10104Q24.690638 146.24167 24.378138 146.61667Q24.050013 146.99167 24.050013 147.52292Q24.050013 148.3198 24.628138 148.8198Q25.190638 149.3198 26.425013 149.3198Q27.690638 149.3198 28.253138 148.83542Q28.815638 148.35104 28.815638 147.58542Q28.815638 146.96042 28.440638 146.55417Q28.065638 146.1323 27.268763 146.0073ZM26.440638 144.46042Q24.706263 144.46042 23.878138 143.5073Q23.190638 142.71042 23.190638 141.55417Q23.190638 140.27292 24.034388 139.46042Q24.862513 138.6323 26.346888 138.6323Q27.550013 138.6323 28.237513 138.99167Q28.925013 139.35104 29.315638 140.05417Q29.690638 140.74167 29.690638 141.55417Q29.690638 142.85104 28.862513 143.66354Q28.018763 144.46042 26.440638 144.46042ZM26.440638 143.3823Q27.628138 143.3823 28.221888 142.86667Q28.815638 142.33542 28.815638 141.55417Q28.815638 140.7573 28.221888 140.24167Q27.628138 139.72604 26.409388 139.72604Q25.253138 139.72604 24.659388 140.2573Q24.065638 140.77292 24.065638 141.55417Q24.065638 142.33542 24.659388 142.86667Q25.237513 143.3823 26.440638 143.3823ZM29.550013 137.0698L23.331263 137.0698L23.331263 136.1323L24.206263 136.1323Q23.190638 135.4448 23.190638 134.14792Q23.190638 133.58542 23.393763 133.11667Q23.596888 132.6323 23.925013 132.39792Q24.253138 132.16354 24.690638 132.0698Q24.987513 132.02292 25.721888 132.02292L29.550013 132.02292L29.550013 133.0698L25.768763 133.0698Q25.112513 133.0698 24.800013 133.1948Q24.487513 133.3198 24.300013 133.6323Q24.096888 133.9448 24.096888 134.36667Q24.096888 135.03854 24.534388 135.53854Q24.956263 136.02292 26.143763 136.02292L29.550013 136.02292L29.550013 137.0698ZM29.550013 126.03854L28.768763 126.03854Q29.690638 126.63229 29.690638 127.77292Q29.690638 128.52292 29.284388 129.14792Q28.862513 129.77292 28.128138 130.11667Q27.393763 130.46042 26.440638 130.46042Q25.518763 130.46042 24.753138 130.14792Q23.987513 129.83542 23.596888 129.21042Q23.190638 128.58542 23.190638 127.81979Q23.190638 127.25729 23.425013 126.81979Q23.659388 126.38229 24.034388 126.10104L20.956263 126.10104L20.956263 125.05417L29.550013 125.05417L29.550013 126.03854ZM26.440638 129.36667Q27.643763 129.36667 28.237513 128.86667Q28.815638 128.36667 28.815638 127.67917Q28.815638 126.99167 28.253138 126.50729Q27.690638 126.02292 26.534388 126.02292Q25.253138 126.02292 24.659388 126.52292Q24.065638 127.00729 24.065638 127.72604Q24.065638 128.42917 24.643763 128.89792Q25.206263 129.36667 26.440638 129.36667ZM32.08126 122.38229L32.08126 123.13229Q29.268763 121.38229 26.440638 121.38229Q25.346888 121.38229 24.253138 121.63229Q23.378138 121.83542 22.565638 122.19479Q22.050013 122.42917 20.815638 123.13229L20.815638 122.38229Q22.284388 121.28854 23.768763 120.75729Q25.050013 120.30417 26.440638 120.30417Q28.018763 120.30417 29.503138 120.91354Q30.971888 121.52292 32.08126 122.38229Z" fill-rule="nonzero"/><path fill="#000000" d="M51.05 292.13922Q51.05 290.60797 51.3625 289.6861Q51.675 288.7486 52.284374 288.2486Q52.909374 287.7486 53.846874 287.7486Q54.534374 287.7486 55.05 288.02985Q55.58125 288.3111 55.925 288.84235Q56.26875 289.35797 56.45625 290.10797Q56.64375 290.85797 56.64375 292.13922Q56.64375 293.65485 56.33125 294.57672Q56.034374 295.4986 55.409374 296.01422Q54.8 296.51422 53.846874 296.51422Q52.6125 296.51422 51.89375 295.6236Q51.05 294.5611 51.05 292.13922ZM52.128124 292.13922Q52.128124 294.2486 52.628124 294.95172Q53.128124 295.65485 53.846874 295.65485Q54.58125 295.65485 55.065624 294.95172Q55.565624 294.2486 55.565624 292.13922Q55.565624 290.01422 55.065624 289.32672Q54.58125 288.6236 53.83125 288.6236Q53.1125 288.6236 52.675 289.23297Q52.128124 290.01422 52.128124 292.13922ZM58.64375 296.3736L58.64375 295.17047L59.846874 295.17047L59.846874 296.3736L58.64375 296.3736ZM61.05 292.13922Q61.05 290.60797 61.3625 289.6861Q61.675 288.7486 62.284374 288.2486Q62.909374 287.7486 63.846874 287.7486Q64.53438 287.7486 65.05 288.02985Q65.58125 288.3111 65.925 288.84235Q66.26875 289.35797 66.45625 290.10797Q66.64375 290.85797 66.64375 292.13922Q66.64375 293.65485 66.33125 294.57672Q66.03438 295.4986 65.40938 296.01422Q64.8 296.51422 63.846874 296.51422Q62.6125 296.51422 61.89375 295.6236Q61.05 294.5611 61.05 292.13922ZM62.128124 292.13922Q62.128124 294.2486 62.628124 294.95172Q63.128124 295.65485 63.846874 295.65485Q64.58125 295.65485 65.06563 294.95172Q65.56563 294.2486 65.56563 292.13922Q65.56563 290.01422 65.06563 289.32672Q64.58125 288.6236 63.83125 288.6236Q63.1125 288.6236 62.675 289.23297Q62.128124 290.01422 62.128124 292.13922ZM72.01875 296.3736L70.97188 296.3736L70.97188 289.65485Q70.58125 290.01422 69.95625 290.38922Q69.34688 290.7486 68.8625 290.92047L68.8625 289.90485Q69.7375 289.48297 70.39375 288.90485Q71.06563 288.3111 71.34688 287.7486L72.01875 287.7486L72.01875 296.3736Z" fill-rule="nonzero"/><path fill="#000000" d="M58.05 240.0005Q58.05 238.46925 58.3625 237.54738Q58.675 236.60988 59.284374 236.10988Q59.909374 235.60988 60.846874 235.60988Q61.534374 235.60988 62.05 235.89113Q62.58125 236.17238 62.925 236.70363Q63.26875 237.21925 63.45625 237.96925Q63.64375 238.71925 63.64375 240.0005Q63.64375 241.51613 63.33125 242.438Q63.034374 243.35988 62.409374 243.8755Q61.8 244.3755 60.846874 244.3755Q59.6125 244.3755 58.89375 243.48488Q58.05 242.42238 58.05 240.0005ZM59.128124 240.0005Q59.128124 242.10988 59.628124 242.813Q60.128124 243.51613 60.846874 243.51613Q61.58125 243.51613 62.065624 242.813Q62.565624 242.10988 62.565624 240.0005Q62.565624 237.8755 62.065624 237.188Q61.58125 236.48488 60.83125 236.48488Q60.1125 236.48488 59.675 237.09425Q59.128124 237.8755 59.128124 240.0005ZM65.64375 244.23488L65.64375 243.03175L66.84688 243.03175L66.84688 244.23488L65.64375 244.23488ZM72.01875 244.23488L70.97188 244.23488L70.97188 237.51613Q70.58125 237.8755 69.95625 238.2505Q69.34688 238.60988 68.8625 238.78175L68.8625 237.76613Q69.7375 237.34425 70.39375 236.76613Q71.06563 236.17238 71.34688 235.60988L72.01875 235.60988L72.01875 244.23488Z" fill-rule="nonzero"/><path fill="#000000" d="M72.01875 192.09615L70.97188 192.09615L70.97188 185.3774Q70.58125 185.73677 69.95625 186.11177Q69.34688 186.47115 68.8625 186.64302L68.8625 185.6274Q69.7375 185.20552 70.39375 184.6274Q71.06563 184.03365 71.34688 183.47115L72.01875 183.47115L72.01875 192.09615Z" fill-rule="nonzero"/><path fill="#000000" d="M65.01875 139.95741L63.971874 139.95741L63.971874 133.23866Q63.58125 133.59804 62.95625 133.97304Q62.346874 134.33241 61.8625 134.50429L61.8625 133.48866Q62.7375 133.06679 63.39375 132.48866Q64.06563 131.89491 64.34688 131.33241L65.01875 131.33241L65.01875 139.95741ZM68.05 135.72304Q68.05 134.19179 68.3625 133.26991Q68.675 132.33241 69.28438 131.83241Q69.90938 131.33241 70.84688 131.33241Q71.53438 131.33241 72.05 131.61366Q72.58125 131.89491 72.925 132.42616Q73.26875 132.94179 73.45625 133.69179Q73.64375 134.44179 73.64375 135.72304Q73.64375 137.23866 73.33125 138.16054Q73.03438 139.08241 72.40938 139.59804Q71.8 140.09804 70.84688 140.09804Q69.6125 140.09804 68.89375 139.20741Q68.05 138.14491 68.05 135.72304ZM69.12813 135.72304Q69.12813 137.83241 69.62813 138.53554Q70.12813 139.23866 70.84688 139.23866Q71.58125 139.23866 72.06563 138.53554Q72.56563 137.83241 72.56563 135.72304Q72.56563 133.59804 72.06563 132.91054Q71.58125 132.20741 70.83125 132.20741Q70.1125 132.20741 69.675 132.81679Q69.12813 133.59804 69.12813 135.72304Z" fill-rule="nonzero"/><path fill="#000000" d="M164.63387 315.46564L165.64949 315.3719Q165.77449 316.09064 166.13387 316.41876Q166.50887 316.73126 167.07137 316.73126Q167.55574 316.73126 167.91512 316.5125Q168.29012 316.27814 168.52449 315.91876Q168.75887 315.54376 168.91512 314.91876Q169.07137 314.27814 169.07137 313.6219Q169.07137 313.54376 169.07137 313.40314Q168.75887 313.90314 168.21199 314.23126Q167.66512 314.54376 167.02449 314.54376Q165.94637 314.54376 165.21199 313.77814Q164.47762 312.9969 164.47762 311.73126Q164.47762 310.41876 165.24324 309.6219Q166.02449 308.825 167.18074 308.825Q168.00887 308.825 168.69637 309.27814Q169.39949 309.73126 169.75887 310.575Q170.11824 311.40314 170.11824 312.98126Q170.11824 314.6219 169.75887 315.60626Q169.41512 316.575 168.69637 317.09064Q167.99324 317.59064 167.05574 317.59064Q166.04012 317.59064 165.39949 317.04376Q164.75887 316.48126 164.63387 315.46564ZM168.94637 311.66876Q168.94637 310.7625 168.46199 310.23126Q167.99324 309.7 167.30574 309.7Q166.60262 309.7 166.07137 310.27814Q165.55574 310.84064 165.55574 311.7625Q165.55574 312.575 166.05574 313.09064Q166.55574 313.60626 167.27449 313.60626Q168.00887 313.60626 168.47762 313.09064Q168.94637 312.575 168.94637 311.66876ZM171.47762 313.21564Q171.47762 311.6844 171.79012 310.7625Q172.10262 309.825 172.71199 309.325Q173.33699 308.825 174.27449 308.825Q174.96199 308.825 175.47762 309.10626Q176.00887 309.3875 176.35262 309.91876Q176.69637 310.4344 176.88387 311.1844Q177.07137 311.9344 177.07137 313.21564Q177.07137 314.73126 176.75887 315.65314Q176.46199 316.575 175.83699 317.09064Q175.22762 317.59064 174.27449 317.59064Q173.04012 317.59064 172.32137 316.7Q171.47762 315.6375 171.47762 313.21564ZM172.55574 313.21564Q172.55574 315.325 173.05574 316.02814Q173.55574 316.73126 174.27449 316.73126Q175.00887 316.73126 175.49324 316.02814Q175.99324 315.325 175.99324 313.21564Q175.99324 311.09064 175.49324 310.40314Q175.00887 309.7 174.25887 309.7Q173.54012 309.7 173.10262 310.3094Q172.55574 311.09064 172.55574 313.21564ZM178.47762 313.21564Q178.47762 311.6844 178.79012 310.7625Q179.10262 309.825 179.71199 309.325Q180.33699 308.825 181.27449 308.825Q181.96199 308.825 182.47762 309.10626Q183.00887 309.3875 183.35262 309.91876Q183.69637 310.4344 183.88387 311.1844Q184.07137 311.9344 184.07137 313.21564Q184.07137 314.73126 183.75887 315.65314Q183.46199 316.575 182.83699 317.09064Q182.22762 317.59064 181.27449 317.59064Q180.04012 317.59064 179.32137 316.7Q178.47762 315.6375 178.47762 313.21564ZM179.55574 313.21564Q179.55574 315.325 180.05574 316.02814Q180.55574 316.73126 181.27449 316.73126Q182.00887 316.73126 182.49324 316.02814Q182.99324 315.325 182.99324 313.21564Q182.99324 311.09064 182.49324 310.40314Q182.00887 309.7 181.25887 309.7Q180.54012 309.7 180.10262 310.3094Q179.55574 311.09064 179.55574 313.21564ZM185.47762 313.21564Q185.47762 311.6844 185.79012 310.7625Q186.10262 309.825 186.71199 309.325Q187.33699 308.825 188.27449 308.825Q188.96199 308.825 189.47762 309.10626Q190.00887 309.3875 190.35262 309.91876Q190.69637 310.4344 190.88387 311.1844Q191.07137 311.9344 191.07137 313.21564Q191.07137 314.73126 190.75887 315.65314Q190.46199 316.575 189.83699 317.09064Q189.22762 317.59064 188.27449 317.59064Q187.04012 317.59064 186.32137 316.7Q185.47762 315.6375 185.47762 313.21564ZM186.55574 313.21564Q186.55574 315.325 187.05574 316.02814Q187.55574 316.73126 188.27449 316.73126Q189.00887 316.73126 189.49324 316.02814Q189.99324 315.325 189.99324 313.21564Q189.99324 311.09064 189.49324 310.40314Q189.00887 309.7 188.25887 309.7Q187.54012 309.7 187.10262 310.3094Q186.55574 311.09064 186.55574 313.21564ZM192.47762 313.21564Q192.47762 311.6844 192.79012 310.7625Q193.10262 309.825 193.71199 309.325Q194.33699 308.825 195.27449 308.825Q195.96199 308.825 196.47762 309.10626Q197.00887 309.3875 197.35262 309.91876Q197.69637 310.4344 197.88387 311.1844Q198.07137 311.9344 198.07137 313.21564Q198.07137 314.73126 197.75887 315.65314Q197.46199 316.575 196.83699 317.09064Q196.22762 317.59064 195.27449 317.59064Q194.04012 317.59064 193.32137 316.7Q192.47762 315.6375 192.47762 313.21564ZM193.55574 313.21564Q193.55574 315.325 194.05574 316.02814Q194.55574 316.73126 195.27449 316.73126Q196.00887 316.73126 196.49324 316.02814Q196.99324 315.325 196.99324 313.21564Q196.99324 311.09064 196.49324 310.40314Q196.00887 309.7 195.25887 309.7Q194.54012 309.7 194.10262 310.3094Q193.55574 311.09064 193.55574 313.21564Z" fill-rule="nonzero"/><path fill="#000000" d="M310.65625 315.46564L311.67188 315.3719Q311.79688 316.09064 312.15625 316.41876Q312.53125 316.73126 313.09375 316.73126Q313.57812 316.73126 313.9375 316.5125Q314.3125 316.27814 314.54688 315.91876Q314.78125 315.54376 314.9375 314.91876Q315.09375 314.27814 315.09375 313.6219Q315.09375 313.54376 315.09375 313.40314Q314.78125 313.90314 314.23438 314.23126Q313.6875 314.54376 313.04688 314.54376Q311.96875 314.54376 311.23438 313.77814Q310.5 312.9969 310.5 311.73126Q310.5 310.41876 311.26562 309.6219Q312.04688 308.825 313.20312 308.825Q314.03125 308.825 314.71875 309.27814Q315.42188 309.73126 315.78125 310.575Q316.14062 311.40314 316.14062 312.98126Q316.14062 314.6219 315.78125 315.60626Q315.4375 316.575 314.71875 317.09064Q314.01562 317.59064 313.07812 317.59064Q312.0625 317.59064 311.42188 317.04376Q310.78125 316.48126 310.65625 315.46564ZM314.96875 311.66876Q314.96875 310.7625 314.48438 310.23126Q314.01562 309.7 313.32812 309.7Q312.625 309.7 312.09375 310.27814Q311.57812 310.84064 311.57812 311.7625Q311.57812 312.575 312.07812 313.09064Q312.57812 313.60626 313.29688 313.60626Q314.03125 313.60626 314.5 313.09064Q314.96875 312.575 314.96875 311.66876ZM317.5 313.21564Q317.5 311.6844 317.8125 310.7625Q318.125 309.825 318.73438 309.325Q319.35938 308.825 320.29688 308.825Q320.98438 308.825 321.5 309.10626Q322.03125 309.3875 322.375 309.91876Q322.71875 310.4344 322.90625 311.1844Q323.09375 311.9344 323.09375 313.21564Q323.09375 314.73126 322.78125 315.65314Q322.48438 316.575 321.85938 317.09064Q321.25 317.59064 320.29688 317.59064Q319.0625 317.59064 318.34375 316.7Q317.5 315.6375 317.5 313.21564ZM318.57812 313.21564Q318.57812 315.325 319.07812 316.02814Q319.57812 316.73126 320.29688 316.73126Q321.03125 316.73126 321.51562 316.02814Q322.01562 315.325 322.01562 313.21564Q322.01562 311.09064 321.51562 310.40314Q321.03125 309.7 320.28125 309.7Q319.5625 309.7 319.125 310.3094Q318.57812 311.09064 318.57812 313.21564ZM324.5 313.21564Q324.5 311.6844 324.8125 310.7625Q325.125 309.825 325.73438 309.325Q326.35938 308.825 327.29688 308.825Q327.98438 308.825 328.5 309.10626Q329.03125 309.3875 329.375 309.91876Q329.71875 310.4344 329.90625 311.1844Q330.09375 311.9344 330.09375 313.21564Q330.09375 314.73126 329.78125 315.65314Q329.48438 316.575 328.85938 317.09064Q328.25 317.59064 327.29688 317.59064Q326.0625 317.59064 325.34375 316.7Q324.5 315.6375 324.5 313.21564ZM325.57812 313.21564Q325.57812 315.325 326.07812 316.02814Q326.57812 316.73126 327.29688 316.73126Q328.03125 316.73126 328.51562 316.02814Q329.01562 315.325 329.01562 313.21564Q329.01562 311.09064 328.51562 310.40314Q328.03125 309.7 327.28125 309.7Q326.5625 309.7 326.125 310.3094Q325.57812 311.09064 325.57812 313.21564ZM331.5 313.21564Q331.5 311.6844 331.8125 310.7625Q332.125 309.825 332.73438 309.325Q333.35938 308.825 334.29688 308.825Q334.98438 308.825 335.5 309.10626Q336.03125 309.3875 336.375 309.91876Q336.71875 310.4344 336.90625 311.1844Q337.09375 311.9344 337.09375 313.21564Q337.09375 314.73126 336.78125 315.65314Q336.48438 316.575 335.85938 317.09064Q335.25 317.59064 334.29688 317.59064Q333.0625 317.59064 332.34375 316.7Q331.5 315.6375 331.5 313.21564ZM332.57812 313.21564Q332.57812 315.325 333.07812 316.02814Q333.57812 316.73126 334.29688 316.73126Q335.03125 316.73126 335.51562 316.02814Q336.01562 315.325 336.01562 313.21564Q336.01562 311.09064 335.51562 310.40314Q335.03125 309.7 334.28125 309.7Q333.5625 309.7 333.125 310.3094Q332.57812 311.09064 332.57812 313.21564ZM338.5 313.21564Q338.5 311.6844 338.8125 310.7625Q339.125 309.825 339.73438 309.325Q340.35938 308.825 341.29688 308.825Q341.98438 308.825 342.5 309.10626Q343.03125 309.3875 343.375 309.91876Q343.71875 310.4344 343.90625 311.1844Q344.09375 311.9344 344.09375 313.21564Q344.09375 314.73126 343.78125 315.65314Q343.48438 316.575 342.85938 317.09064Q342.25 317.59064 341.29688 317.59064Q340.0625 317.59064 339.34375 316.7Q338.5 315.6375 338.5 313.21564ZM339.57812 313.21564Q339.57812 315.325 340.07812 316.02814Q340.57812 316.73126 341.29688 316.73126Q342.03125 316.73126 342.51562 316.02814Q343.01562 315.325 343.01562 313.21564Q343.01562 311.09064 342.51562 310.40314Q342.03125 309.7 341.28125 309.7Q340.5625 309.7 340.125 310.3094Q339.57812 311.09064 339.57812 313.21564ZM345.5 313.21564Q345.5 311.6844 345.8125 310.7625Q346.125 309.825 346.73438 309.325Q347.35938 308.825 348.29688 308.825Q348.98438 308.825 349.5 309.10626Q350.03125 309.3875 350.375 309.91876Q350.71875 310.4344 350.90625 311.1844Q351.09375 311.9344 351.09375 313.21564Q351.09375 314.73126 350.78125 315.65314Q350.48438 316.575 349.85938 317.09064Q349.25 317.59064 348.29688 317.59064Q347.0625 317.59064 346.34375 316.7Q345.5 315.6375 345.5 313.21564ZM346.57812 313.21564Q346.57812 315.325 347.07812 316.02814Q347.57812 316.73126 348.29688 316.73126Q349.03125 316.73126 349.51562 316.02814Q350.01562 315.325 350.01562 313.21564Q350.01562 311.09064 349.51562 310.40314Q349.03125 309.7 348.28125 309.7Q347.5625 309.7 347.125 310.3094Q346.57812 311.09064 346.57812 313.21564Z" fill-rule="nonzero"/><path fill="#000000" d="M456.67865 315.46564L457.69427 315.3719Q457.81927 316.09064 458.17865 316.41876Q458.55365 316.73126 459.11615 316.73126Q459.60052 316.73126 459.9599 316.5125Q460.3349 316.27814 460.56927 315.91876Q460.80365 315.54376 460.9599 314.91876Q461.11615 314.27814 461.11615 313.6219Q461.11615 313.54376 461.11615 313.40314Q460.80365 313.90314 460.25677 314.23126Q459.7099 314.54376 459.06927 314.54376Q457.99115 314.54376 457.25677 313.77814Q456.5224 312.9969 456.5224 311.73126Q456.5224 310.41876 457.28802 309.6219Q458.06927 308.825 459.22552 308.825Q460.05365 308.825 460.74115 309.27814Q461.44427 309.73126 461.80365 310.575Q462.16302 311.40314 462.16302 312.98126Q462.16302 314.6219 461.80365 315.60626Q461.4599 316.575 460.74115 317.09064Q460.03802 317.59064 459.10052 317.59064Q458.0849 317.59064 457.44427 317.04376Q456.80365 316.48126 456.67865 315.46564ZM460.99115 311.66876Q460.99115 310.7625 460.50677 310.23126Q460.03802 309.7 459.35052 309.7Q458.6474 309.7 458.11615 310.27814Q457.60052 310.84064 457.60052 311.7625Q457.60052 312.575 458.10052 313.09064Q458.60052 313.60626 459.31927 313.60626Q460.05365 313.60626 460.5224 313.09064Q460.99115 312.575 460.99115 311.66876ZM463.5224 313.21564Q463.5224 311.6844 463.8349 310.7625Q464.1474 309.825 464.75677 309.325Q465.38177 308.825 466.31927 308.825Q467.00677 308.825 467.5224 309.10626Q468.05365 309.3875 468.3974 309.91876Q468.74115 310.4344 468.92865 311.1844Q469.11615 311.9344 469.11615 313.21564Q469.11615 314.73126 468.80365 315.65314Q468.50677 316.575 467.88177 317.09064Q467.2724 317.59064 466.31927 317.59064Q465.0849 317.59064 464.36615 316.7Q463.5224 315.6375 463.5224 313.21564ZM464.60052 313.21564Q464.60052 315.325 465.10052 316.02814Q465.60052 316.73126 466.31927 316.73126Q467.05365 316.73126 467.53802 316.02814Q468.03802 315.325 468.03802 313.21564Q468.03802 311.09064 467.53802 310.40314Q467.05365 309.7 466.30365 309.7Q465.5849 309.7 465.1474 310.3094Q464.60052 311.09064 464.60052 313.21564ZM470.5224 313.21564Q470.5224 311.6844 470.8349 310.7625Q471.1474 309.825 471.75677 309.325Q472.38177 308.825 473.31927 308.825Q474.00677 308.825 474.5224 309.10626Q475.05365 309.3875 475.3974 309.91876Q475.74115 310.4344 475.92865 311.1844Q476.11615 311.9344 476.11615 313.21564Q476.11615 314.73126 475.80365 315.65314Q475.50677 316.575 474.88177 317.09064Q474.2724 317.59064 473.31927 317.59064Q472.0849 317.59064 471.36615 316.7Q470.5224 315.6375 470.5224 313.21564ZM471.60052 313.21564Q471.60052 315.325 472.10052 316.02814Q472.60052 316.73126 473.31927 316.73126Q474.05365 316.73126 474.53802 316.02814Q475.03802 315.325 475.03802 313.21564Q475.03802 311.09064 474.53802 310.40314Q474.05365 309.7 473.30365 309.7Q472.5849 309.7 472.1474 310.3094Q471.60052 311.09064 471.60052 313.21564ZM477.5224 313.21564Q477.5224 311.6844 477.8349 310.7625Q478.1474 309.825 478.75677 309.325Q479.38177 308.825 480.31927 308.825Q481.00677 308.825 481.5224 309.10626Q482.05365 309.3875 482.3974 309.91876Q482.74115 310.4344 482.92865 311.1844Q483.11615 311.9344 483.11615 313.21564Q483.11615 314.73126 482.80365 315.65314Q482.50677 316.575 481.88177 317.09064Q481.2724 317.59064 480.31927 317.59064Q479.0849 317.59064 478.36615 316.7Q477.5224 315.6375 477.5224 313.21564ZM478.60052 313.21564Q478.60052 315.325 479.10052 316.02814Q479.60052 316.73126 480.31927 316.73126Q481.05365 316.73126 481.53802 316.02814Q482.03802 315.325 482.03802 313.21564Q482.03802 311.09064 481.53802 310.40314Q481.05365 309.7 480.30365 309.7Q479.5849 309.7 479.1474 310.3094Q478.60052 311.09064 478.60052 313.21564ZM484.5224 313.21564Q484.5224 311.6844 484.8349 310.7625Q485.1474 309.825 485.75677 309.325Q486.38177 308.825 487.31927 308.825Q488.00677 308.825 488.5224 309.10626Q489.05365 309.3875 489.3974 309.91876Q489.74115 310.4344 489.92865 311.1844Q490.11615 311.9344 490.11615 313.21564Q490.11615 314.73126 489.80365 315.65314Q489.50677 316.575 488.88177 317.09064Q488.2724 317.59064 487.31927 317.59064Q486.0849 317.59064 485.36615 316.7Q484.5224 315.6375 484.5224 313.21564ZM485.60052 313.21564Q485.60052 315.325 486.10052 316.02814Q486.60052 316.73126 487.31927 316.73126Q488.05365 316.73126 488.53802 316.02814Q489.03802 315.325 489.03802 313.21564Q489.03802 311.09064 488.53802 310.40314Q488.05365 309.7 487.30365 309.7Q486.5849 309.7 486.1474 310.3094Q485.60052 311.09064 485.60052 313.21564ZM491.5224 313.21564Q491.5224 311.6844 491.8349 310.7625Q492.1474 309.825 492.75677 309.325Q493.38177 308.825 494.31927 308.825Q495.00677 308.825 495.5224 309.10626Q496.05365 309.3875 496.3974 309.91876Q496.74115 310.4344 496.92865 311.1844Q497.11615 311.9344 497.11615 313.21564Q497.11615 314.73126 496.80365 315.65314Q496.50677 316.575 495.88177 317.09064Q495.2724 317.59064 494.31927 317.59064Q493.0849 317.59064 492.36615 316.7Q491.5224 315.6375 491.5224 313.21564ZM492.60052 313.21564Q492.60052 315.325 493.10052 316.02814Q493.60052 316.73126 494.31927 316.73126Q495.05365 316.73126 495.53802 316.02814Q496.03802 315.325 496.03802 313.21564Q496.03802 311.09064 495.53802 310.40314Q495.05365 309.7 494.30365 309.7Q493.5849 309.7 493.1474 310.3094Q492.60052 311.09064 492.60052 313.21564ZM498.5224 313.21564Q498.5224 311.6844 498.8349 310.7625Q499.1474 309.825 499.75677 309.325Q500.38177 308.825 501.31927 308.825Q502.00677 308.825 502.5224 309.10626Q503.05365 309.3875 503.3974 309.91876Q503.74115 310.4344 503.92865 311.1844Q504.11615 311.9344 504.11615 313.21564Q504.11615 314.73126 503.80365 315.65314Q503.50677 316.575 502.88177 317.09064Q502.2724 317.59064 501.31927 317.59064Q500.0849 317.59064 499.36615 316.7Q498.5224 315.6375 498.5224 313.21564ZM499.60052 313.21564Q499.60052 315.325 500.10052 316.02814Q500.60052 316.73126 501.31927 316.73126Q502.05365 316.73126 502.53802 316.02814Q503.03802 315.325 503.03802 313.21564Q503.03802 311.09064 502.53802 310.40314Q502.05365 309.7 501.30365 309.7Q500.5849 309.7 500.1474 310.3094Q499.60052 311.09064 499.60052 313.21564Z" fill-rule="nonzero"/><path fill="#5891ad" d="M152.0 56.916668C152.0 56.364384 152.44771 55.916668 153.0 55.916668L163.0 55.916668C163.55229 55.916668 164.0 56.364384 164.0 56.916668L164.0 66.916664C164.0 67.46895 163.55229 67.916664 163.0 67.916664L153.0 67.916664C152.44771 67.916664 152.0 67.46895 152.0 66.916664Z" fill-rule="nonzero"/><path fill="#1a1a1a" d="M179.4375 64.99479Q180.23438 65.541664 180.89062 65.791664L180.5625 66.58854Q179.64062 66.24479 178.71875 65.52604Q177.76562 66.05729 176.60938 66.05729Q175.4375 66.05729 174.48438 65.49479Q173.54688 64.93229 173.03125 63.916664Q172.51562 62.90104 172.51562 61.61979Q172.51562 60.354164 173.03125 59.30729Q173.54688 58.260414 174.5 57.71354Q175.45312 57.166664 176.625 57.166664Q177.8125 57.166664 178.76562 57.74479Q179.73438 58.30729 180.23438 59.322914Q180.73438 60.33854 180.73438 61.61979Q180.73438 62.68229 180.40625 63.52604Q180.09375 64.36979 179.4375 64.99479ZM176.9375 63.541664Q177.92188 63.822914 178.5625 64.36979Q179.5625 63.447914 179.5625 61.61979Q179.5625 60.572914 179.20312 59.791664Q178.84375 59.010414 178.15625 58.58854Q177.48438 58.15104 176.64062 58.15104Q175.35938 58.15104 174.51562 59.02604Q173.6875 59.885414 173.6875 61.61979Q173.6875 63.291664 174.51562 64.197914Q175.34375 65.08854 176.64062 65.08854Q177.25 65.08854 177.78125 64.854164Q177.25 64.510414 176.65625 64.36979L176.9375 63.541664ZM185.46875 65.916664L184.42188 65.916664L184.42188 59.197914Q184.03125 59.55729 183.40625 59.93229Q182.79688 60.291664 182.3125 60.46354L182.3125 59.447914Q183.1875 59.02604 183.84375 58.447914Q184.51562 57.854164 184.79688 57.291664L185.46875 57.291664L185.46875 65.916664Z" fill-rule="nonzero"/><path fill="#004561" d="M204.0 56.916668C204.0 56.364384 204.44771 55.916668 205.0 55.916668L215.0 55.916668C215.55229 55.916668 216.0 56.364384 216.0 56.916668L216.0 66.916664C216.0 67.46895 215.55229 67.916664 215.0 67.916664L205.0 67.916664C204.44771 67.916664 204.0 67.46895 204.0 66.916664Z" fill-rule="nonzero"/><path fill="#1a1a1a" d="M231.4375 64.99479Q232.23438 65.541664 232.89062 65.791664L232.5625 66.58854Q231.64062 66.24479 230.71875 65.52604Q229.76562 66.05729 228.60938 66.05729Q227.4375 66.05729 226.48438 65.49479Q225.54688 64.93229 225.03125 63.916664Q224.51562 62.90104 224.51562 61.61979Q224.51562 60.354164 225.03125 59.30729Q225.54688 58.260414 226.5 57.71354Q227.45312 57.166664 228.625 57.166664Q229.8125 57.166664 230.76562 57.74479Q231.73438 58.30729 232.23438 59.322914Q232.73438 60.33854 232.73438 61.61979Q232.73438 62.68229 232.40625 63.52604Q232.09375 64.36979 231.4375 64.99479ZM228.9375 63.541664Q229.92188 63.822914 230.5625 64.36979Q231.5625 63.447914 231.5625 61.61979Q231.5625 60.572914 231.20312 59.791664Q230.84375 59.010414 230.15625 58.58854Q229.48438 58.15104 228.64062 58.15104Q227.35938 58.15104 226.51562 59.02604Q225.6875 59.885414 225.6875 61.61979Q225.6875 63.291664 226.51562 64.197914Q227.34375 65.08854 228.64062 65.08854Q229.25 65.08854 229.78125 64.854164Q229.25 64.510414 228.65625 64.36979L228.9375 63.541664ZM239.04688 64.90104L239.04688 65.916664L233.35938 65.916664Q233.35938 65.541664 233.48438 65.18229Q233.70312 64.604164 234.17188 64.041664Q234.65625 63.479164 235.5625 62.74479Q236.96875 61.58854 237.45312 60.916664Q237.95312 60.24479 237.95312 59.65104Q237.95312 59.02604 237.5 58.604164Q237.04688 58.166664 236.32812 58.166664Q235.5625 58.166664 235.10938 58.61979Q234.65625 59.072914 234.64062 59.885414L233.5625 59.77604Q233.67188 58.55729 234.39062 57.93229Q235.125 57.291664 236.35938 57.291664Q237.59375 57.291664 238.3125 57.979164Q239.03125 58.666664 239.03125 59.68229Q239.03125 60.197914 238.8125 60.697914Q238.60938 61.18229 238.10938 61.74479Q237.625 62.291664 236.5 63.24479Q235.54688 64.041664 235.26562 64.33854Q235.0 64.61979 234.82812 64.90104L239.04688 64.90104Z" fill-rule="nonzero"/><path fill="#ff6f31" d="M256.0 56.916668C256.0 56.364384 256.44772 55.916668 257.0 55.916668L267.0 55.916668C267.55228 55.916668 268.0 56.364384 268.0 56.916668L268.0 66.916664C268.0 67.46895 267.55228 67.916664 267.0 67.916664L257.0 67.916664C256.44772 67.916664 256.0 67.46895 256.0 66.916664Z" fill-rule="nonzero"/><path fill="#1a1a1a" d="M283.4375 64.99479Q284.23438 65.541664 284.89062 65.791664L284.5625 66.58854Q283.64062 66.24479 282.71875 65.52604Q281.76562 66.05729 280.60938 66.05729Q279.4375 66.05729 278.48438 65.49479Q277.54688 64.93229 277.03125 63.916664Q276.51562 62.90104 276.51562 61.61979Q276.51562 60.354164 277.03125 59.30729Q277.54688 58.260414 278.5 57.71354Q279.45312 57.166664 280.625 57.166664Q281.8125 57.166664 282.76562 57.74479Q283.73438 58.30729 284.23438 59.322914Q284.73438 60.33854 284.73438 61.61979Q284.73438 62.68229 284.40625 63.52604Q284.09375 64.36979 283.4375 64.99479ZM280.9375 63.541664Q281.92188 63.822914 282.5625 64.36979Q283.5625 63.447914 283.5625 61.61979Q283.5625 60.572914 283.20312 59.791664Q282.84375 59.010414 282.15625 58.58854Q281.48438 58.15104 280.64062 58.15104Q279.35938 58.15104 278.51562 59.02604Q277.6875 59.885414 277.6875 61.61979Q277.6875 63.291664 278.51562 64.197914Q279.34375 65.08854 280.64062 65.08854Q281.25 65.08854 281.78125 64.854164Q281.25 64.510414 280.65625 64.36979L280.9375 63.541664ZM285.5 63.65104L286.5625 63.510414Q286.73438 64.40104 287.17188 64.80729Q287.60938 65.197914 288.23438 65.197914Q288.98438 65.197914 289.5 64.68229Q290.01562 64.166664 290.01562 63.40104Q290.01562 62.68229 289.53125 62.21354Q289.0625 61.729164 288.32812 61.729164Q288.03125 61.729164 287.57812 61.854164L287.70312 60.916664Q287.8125 60.93229 287.875 60.93229Q288.54688 60.93229 289.07812 60.58854Q289.625 60.229164 289.625 59.49479Q289.625 58.916664 289.23438 58.541664Q288.84375 58.15104 288.21875 58.15104Q287.60938 58.15104 287.1875 58.541664Q286.78125 58.93229 286.67188 59.697914L285.60938 59.510414Q285.79688 58.46354 286.48438 57.885414Q287.17188 57.291664 288.1875 57.291664Q288.89062 57.291664 289.48438 57.604164Q290.07812 57.90104 290.39062 58.416664Q290.70312 58.93229 290.70312 59.52604Q290.70312 60.072914 290.40625 60.541664Q290.10938 60.99479 289.53125 61.260414Q290.28125 61.43229 290.70312 61.99479Q291.125 62.541664 291.125 63.385414Q291.125 64.510414 290.29688 65.291664Q289.48438 66.072914 288.23438 66.072914Q287.10938 66.072914 286.35938 65.40104Q285.60938 64.71354 285.5 63.65104Z" fill-rule="nonzero"/><path fill="#1c7685" d="M308.0 56.916668C308.0 56.364384 308.44772 55.916668 309.0 55.916668L319.0 55.916668C319.55228 55.916668 320.0 56.364384 320.0 56.916668L320.0 66.916664C320.0 67.46895 319.55228 67.916664 319.0 67.916664L309.0 67.916664C308.44772 67.916664 308.0 67.46895 308.0 66.916664Z" fill-rule="nonzero"/><path fill="#1a1a1a" d="M335.4375 64.99479Q336.23438 65.541664 336.89062 65.791664L336.5625 66.58854Q335.64062 66.24479 334.71875 65.52604Q333.76562 66.05729 332.60938 66.05729Q331.4375 66.05729 330.48438 65.49479Q329.54688 64.93229 329.03125 63.916664Q328.51562 62.90104 328.51562 61.61979Q328.51562 60.354164 329.03125 59.30729Q329.54688 58.260414 330.5 57.71354Q331.45312 57.166664 332.625 57.166664Q333.8125 57.166664 334.76562 57.74479Q335.73438 58.30729 336.23438 59.322914Q336.73438 60.33854 336.73438 61.61979Q336.73438 62.68229 336.40625 63.52604Q336.09375 64.36979 335.4375 64.99479ZM332.9375 63.541664Q333.92188 63.822914 334.5625 64.36979Q335.5625 63.447914 335.5625 61.61979Q335.5625 60.572914 335.20312 59.791664Q334.84375 59.010414 334.15625 58.58854Q333.48438 58.15104 332.64062 58.15104Q331.35938 58.15104 330.51562 59.02604Q329.6875 59.885414 329.6875 61.61979Q329.6875 63.291664 330.51562 64.197914Q331.34375 65.08854 332.64062 65.08854Q333.25 65.08854 333.78125 64.854164Q333.25 64.510414 332.65625 64.36979L332.9375 63.541664ZM340.875 65.916664L340.875 63.854164L337.15625 63.854164L337.15625 62.885414L341.07812 57.322914L341.9375 57.322914L341.9375 62.885414L343.09375 62.885414L343.09375 63.854164L341.9375 63.854164L341.9375 65.916664L340.875 65.916664ZM340.875 62.885414L340.875 59.02604L338.1875 62.885414L340.875 62.885414Z" fill-rule="nonzero"/><path fill="#0f45a8" d="M360.0 56.916668C360.0 56.364384 360.44772 55.916668 361.0 55.916668L371.0 55.916668C371.55228 55.916668 372.0 56.364384 372.0 56.916668L372.0 66.916664C372.0 67.46895 371.55228 67.916664 371.0 67.916664L361.0 67.916664C360.44772 67.916664 360.0 67.46895 360.0 66.916664Z" fill-rule="nonzero"/><path fill="#1a1a1a" d="M387.4375 64.99479Q388.23438 65.541664 388.89062 65.791664L388.5625 66.58854Q387.64062 66.24479 386.71875 65.52604Q385.76562 66.05729 384.60938 66.05729Q383.4375 66.05729 382.48438 65.49479Q381.54688 64.93229 381.03125 63.916664Q380.51562 62.90104 380.51562 61.61979Q380.51562 60.354164 381.03125 59.30729Q381.54688 58.260414 382.5 57.71354Q383.45312 57.166664 384.625 57.166664Q385.8125 57.166664 386.76562 57.74479Q387.73438 58.30729 388.23438 59.322914Q388.73438 60.33854 388.73438 61.61979Q388.73438 62.68229 388.40625 63.52604Q388.09375 64.36979 387.4375 64.99479ZM384.9375 63.541664Q385.92188 63.822914 386.5625 64.36979Q387.5625 63.447914 387.5625 61.61979Q387.5625 60.572914 387.20312 59.791664Q386.84375 59.010414 386.15625 58.58854Q385.48438 58.15104 384.64062 58.15104Q383.35938 58.15104 382.51562 59.02604Q381.6875 59.885414 381.6875 61.61979Q381.6875 63.291664 382.51562 64.197914Q383.34375 65.08854 384.64062 65.08854Q385.25 65.08854 385.78125 64.854164Q385.25 64.510414 384.65625 64.36979L384.9375 63.541664ZM389.5 63.666664L390.60938 63.572914Q390.73438 64.385414 391.17188 64.791664Q391.625 65.197914 392.26562 65.197914Q393.01562 65.197914 393.54688 64.61979Q394.07812 64.041664 394.07812 63.104164Q394.07812 62.197914 393.5625 61.68229Q393.0625 61.15104 392.23438 61.15104Q391.73438 61.15104 391.3125 61.385414Q390.90625 61.61979 390.67188 61.979164L389.6875 61.854164L390.51562 57.447914L394.79688 57.447914L394.79688 58.447914L391.35938 58.447914L390.90625 60.760414Q391.67188 60.21354 392.51562 60.21354Q393.64062 60.21354 394.40625 60.99479Q395.1875 61.77604 395.1875 63.010414Q395.1875 64.166664 394.51562 65.02604Q393.6875 66.05729 392.26562 66.05729Q391.09375 66.05729 390.34375 65.40104Q389.60938 64.74479 389.5 63.666664Z" fill-rule="nonzero"/><path fill="#4cdc8b" d="M412.0 56.916668C412.0 56.364384 412.44772 55.916668 413.0 55.916668L423.0 55.916668C423.55228 55.916668 424.0 56.364384 424.0 56.916668L424.0 66.916664C424.0 67.46895 423.55228 67.916664 423.0 67.916664L413.0 67.916664C412.44772 67.916664 412.0 67.46895 412.0 66.916664Z" fill-rule="nonzero"/><path fill="#1a1a1a" d="M439.4375 64.99479Q440.23438 65.541664 440.89062 65.791664L440.5625 66.58854Q439.64062 66.24479 438.71875 65.52604Q437.76562 66.05729 436.60938 66.05729Q435.4375 66.05729 434.48438 65.49479Q433.54688 64.93229 433.03125 63.916664Q432.51562 62.90104 432.51562 61.61979Q432.51562 60.354164 433.03125 59.30729Q433.54688 58.260414 434.5 57.71354Q435.45312 57.166664 436.625 57.166664Q437.8125 57.166664 438.76562 57.74479Q439.73438 58.30729 440.23438 59.322914Q440.73438 60.33854 440.73438 61.61979Q440.73438 62.68229 440.40625 63.52604Q440.09375 64.36979 439.4375 64.99479ZM436.9375 63.541664Q437.92188 63.822914 438.5625 64.36979Q439.5625 63.447914 439.5625 61.61979Q439.5625 60.572914 439.20312 59.791664Q438.84375 59.010414 438.15625 58.58854Q437.48438 58.15104 436.64062 58.15104Q435.35938 58.15104 434.51562 59.02604Q433.6875 59.885414 433.6875 61.61979Q433.6875 63.291664 434.51562 64.197914Q435.34375 65.08854 436.64062 65.08854Q437.25 65.08854 437.78125 64.854164Q437.25 64.510414 436.65625 64.36979L436.9375 63.541664ZM446.96875 59.43229L445.92188 59.510414Q445.78125 58.885414 445.53125 58.604164Q445.09375 58.15104 444.46875 58.15104Q443.96875 58.15104 443.57812 58.43229Q443.09375 58.80729 442.79688 59.510414Q442.51562 60.197914 442.5 61.479164Q442.875 60.90104 443.42188 60.61979Q443.98438 60.33854 444.59375 60.33854Q445.64062 60.33854 446.375 61.11979Q447.125 61.90104 447.125 63.11979Q447.125 63.93229 446.76562 64.635414Q446.42188 65.322914 445.8125 65.697914Q445.20312 66.05729 444.4375 66.05729Q443.10938 66.05729 442.28125 65.08854Q441.45312 64.11979 441.45312 61.90104Q441.45312 59.40104 442.375 58.27604Q443.17188 57.291664 444.53125 57.291664Q445.54688 57.291664 446.1875 57.86979Q446.84375 58.43229 446.96875 59.43229ZM442.67188 63.135414Q442.67188 63.68229 442.89062 64.18229Q443.125 64.666664 443.53125 64.93229Q443.95312 65.197914 444.42188 65.197914Q445.07812 65.197914 445.5625 64.666664Q446.04688 64.11979 446.04688 63.197914Q446.04688 62.30729 445.5625 61.791664Q445.09375 61.27604 444.375 61.27604Q443.65625 61.27604 443.15625 61.791664Q442.67188 62.30729 442.67188 63.135414Z" fill-rule="nonzero"/><path fill="#757575" d="M200.40625 32.95625L202.1875 32.8Q202.3125 33.8625 202.76562 34.55Q203.23438 35.2375 204.20312 35.675Q205.1875 36.096874 206.42188 36.096874Q207.5 36.096874 208.32812 35.784374Q209.15625 35.45625 209.5625 34.89375Q209.96875 34.33125 209.96875 33.659374Q209.96875 32.9875 209.57812 32.4875Q209.1875 31.9875 208.29688 31.64375Q207.71875 31.409374 205.73438 30.940624Q203.76562 30.471874 202.98438 30.05Q201.95312 29.51875 201.45312 28.721874Q200.95312 27.925 200.95312 26.940624Q200.95312 25.846874 201.5625 24.909374Q202.17188 23.971874 203.35938 23.4875Q204.54688 22.9875 205.98438 22.9875Q207.57812 22.9875 208.79688 23.503124Q210.01562 24.01875 210.65625 25.01875Q211.3125 26.003124 211.35938 27.26875L209.54688 27.409374Q209.40625 26.05 208.5625 25.3625Q207.71875 24.659374 206.0625 24.659374Q204.34375 24.659374 203.54688 25.3Q202.76562 25.925 202.76562 26.8Q202.76562 27.58125 203.32812 28.08125Q203.875 28.58125 206.1875 29.096874Q208.5 29.6125 209.35938 30.003124Q210.60938 30.58125 211.20312 31.471874Q211.79688 32.346874 211.79688 33.503124Q211.79688 34.64375 211.14062 35.659374Q210.48438 36.675 209.25 37.2375Q208.03125 37.8 206.5 37.8Q204.5625 37.8 203.25 37.2375Q201.9375 36.659374 201.1875 35.51875Q200.4375 34.378124 200.40625 32.95625ZM213.82812 25.253124L213.82812 23.2375L215.59375 23.2375L215.59375 25.253124L213.82812 25.253124ZM213.82812 37.55L213.82812 27.175L215.59375 27.175L215.59375 37.55L213.82812 37.55ZM216.89062 37.55L216.89062 36.128124L223.5 28.55Q222.375 28.596874 221.51562 28.596874L217.28125 28.596874L217.28125 27.175L225.76562 27.175L225.76562 28.346874L220.14062 34.925L219.0625 36.128124Q220.23438 36.034374 221.28125 36.034374L226.07812 36.034374L226.07812 37.55L216.89062 37.55ZM233.92188 34.20625L235.73438 34.440624Q235.3125 36.01875 234.14062 36.909374Q232.98438 37.784374 231.17188 37.784374Q228.90625 37.784374 227.5625 36.39375Q226.23438 34.9875 226.23438 32.45625Q226.23438 29.83125 227.57812 28.39375Q228.92188 26.940624 231.07812 26.940624Q233.15625 26.940624 234.46875 28.3625Q235.79688 29.76875 235.79688 32.346874Q235.79688 32.503124 235.78125 32.815624L228.04688 32.815624Q228.14062 34.51875 229.01562 35.425Q229.89062 36.33125 231.1875 36.33125Q232.15625 36.33125 232.82812 35.83125Q233.51562 35.315624 233.92188 34.20625ZM228.14062 31.3625L233.9375 31.3625Q233.82812 30.065624 233.28125 29.409374Q232.4375 28.39375 231.09375 28.39375Q229.89062 28.39375 229.0625 29.20625Q228.23438 30.003124 228.14062 31.3625ZM246.70312 37.55L242.75 27.175L244.60938 27.175L246.84375 33.39375Q247.20312 34.39375 247.5 35.471874Q247.73438 34.659374 248.15625 33.503124L250.45312 27.175L252.26562 27.175L248.34375 37.55L246.70312 37.55ZM252.10938 34.45625L253.85938 34.175Q254.0 35.221874 254.67188 35.784374Q255.34375 36.33125 256.54688 36.33125Q257.75 36.33125 258.32812 35.846874Q258.92188 35.346874 258.92188 34.690624Q258.92188 34.096874 258.40625 33.753124Q258.04688 33.51875 256.60938 33.159374Q254.67188 32.659374 253.92188 32.315624Q253.1875 31.95625 252.79688 31.33125Q252.40625 30.690624 252.40625 29.925Q252.40625 29.2375 252.71875 28.64375Q253.04688 28.05 253.59375 27.659374Q254.0 27.3625 254.70312 27.159374Q255.42188 26.940624 256.23438 26.940624Q257.45312 26.940624 258.375 27.3Q259.29688 27.64375 259.73438 28.253124Q260.17188 28.846874 260.34375 29.846874L258.625 30.08125Q258.5 29.284374 257.9375 28.846874Q257.375 28.39375 256.35938 28.39375Q255.14062 28.39375 254.625 28.8Q254.10938 29.190624 254.10938 29.721874Q254.10938 30.065624 254.32812 30.346874Q254.53125 30.628124 255.0 30.815624Q255.26562 30.909374 256.54688 31.253124Q258.42188 31.753124 259.15625 32.08125Q259.89062 32.39375 260.3125 33.003124Q260.73438 33.596874 260.73438 34.503124Q260.73438 35.378124 260.21875 36.159374Q259.70312 36.940624 258.73438 37.3625Q257.76562 37.784374 256.54688 37.784374Q254.53125 37.784374 253.46875 36.940624Q252.40625 36.096874 252.10938 34.45625ZM269.07812 37.55L269.07812 23.2375L279.4375 23.2375L279.4375 24.925L270.98438 24.925L270.98438 29.3L278.89062 29.3L278.89062 30.9875L270.98438 30.9875L270.98438 35.8625L279.76562 35.8625L279.76562 37.55L269.07812 37.55ZM280.64062 37.55L284.4375 32.159374L280.9375 27.175L283.125 27.175L284.71875 29.6125Q285.17188 30.3 285.4375 30.76875Q285.875 30.128124 286.23438 29.628124L287.98438 27.175L290.07812 27.175L286.5 32.065624L290.35938 37.55L288.20312 37.55L286.0625 34.33125L285.5 33.45625L282.78125 37.55L280.64062 37.55ZM297.92188 34.20625L299.73438 34.440624Q299.3125 36.01875 298.14062 36.909374Q296.98438 37.784374 295.17188 37.784374Q292.90625 37.784374 291.5625 36.39375Q290.23438 34.9875 290.23438 32.45625Q290.23438 29.83125 291.57812 28.39375Q292.92188 26.940624 295.07812 26.940624Q297.15625 26.940624 298.46875 28.3625Q299.79688 29.76875 299.79688 32.346874Q299.79688 32.503124 299.78125 32.815624L292.04688 32.815624Q292.14062 34.51875 293.01562 35.425Q293.89062 36.33125 295.1875 36.33125Q296.15625 36.33125 296.82812 35.83125Q297.51562 35.315624 297.92188 34.20625ZM292.14062 31.3625L297.9375 31.3625Q297.82812 30.065624 297.28125 29.409374Q296.4375 28.39375 295.09375 28.39375Q293.89062 28.39375 293.0625 29.20625Q292.23438 30.003124 292.14062 31.3625ZM308.59375 33.753124L310.3125 33.971874Q310.03125 35.76875 308.85938 36.784374Q307.70312 37.784374 306.0 37.784374Q303.875 37.784374 302.57812 36.39375Q301.28125 35.003124 301.28125 32.409374Q301.28125 30.721874 301.82812 29.471874Q302.39062 28.20625 303.53125 27.58125Q304.67188 26.940624 306.01562 26.940624Q307.70312 26.940624 308.76562 27.8Q309.84375 28.659374 310.15625 30.221874L308.4375 30.4875Q308.20312 29.440624 307.57812 28.925Q306.95312 28.39375 306.07812 28.39375Q304.75 28.39375 303.92188 29.346874Q303.09375 30.3 303.09375 32.346874Q303.09375 34.440624 303.89062 35.39375Q304.6875 36.33125 305.98438 36.33125Q307.01562 36.33125 307.70312 35.70625Q308.40625 35.065624 308.59375 33.753124ZM318.60938 37.55L318.60938 36.01875Q317.40625 37.784374 315.32812 37.784374Q314.40625 37.784374 313.60938 37.440624Q312.8125 37.08125 312.42188 36.55Q312.04688 36.01875 311.89062 35.2375Q311.78125 34.721874 311.78125 33.596874L311.78125 27.175L313.53125 27.175L313.53125 32.925Q313.53125 34.3 313.64062 34.784374Q313.8125 35.471874 314.34375 35.878124Q314.89062 36.26875 315.67188 36.26875Q316.46875 36.26875 317.15625 35.8625Q317.85938 35.45625 318.14062 34.76875Q318.4375 34.065624 318.4375 32.7375L318.4375 27.175L320.1875 27.175L320.1875 37.55L318.60938 37.55ZM325.65625 35.971874L325.90625 37.534374Q325.17188 37.690624 324.57812 37.690624Q323.625 37.690624 323.09375 37.39375Q322.57812 37.08125 322.35938 36.596874Q322.14062 36.096874 322.14062 34.51875L322.14062 28.55L320.85938 28.55L320.85938 27.175L322.14062 27.175L322.14062 24.6125L323.89062 23.55L323.89062 27.175L325.65625 27.175L325.65625 28.55L323.89062 28.55L323.89062 34.6125Q323.89062 35.3625 323.98438 35.58125Q324.07812 35.784374 324.28125 35.925Q324.5 36.05 324.89062 36.05Q325.17188 36.05 325.65625 35.971874ZM327.82812 25.253124L327.82812 23.2375L329.59375 23.2375L329.59375 25.253124L327.82812 25.253124ZM327.82812 37.55L327.82812 27.175L329.59375 27.175L329.59375 37.55L327.82812 37.55ZM331.17188 32.3625Q331.17188 29.4875 332.76562 28.096874Q334.10938 26.940624 336.03125 26.940624Q338.17188 26.940624 339.51562 28.346874Q340.875 29.753124 340.875 32.221874Q340.875 34.221874 340.28125 35.378124Q339.6875 36.51875 338.53125 37.159374Q337.39062 37.784374 336.03125 37.784374Q333.84375 37.784374 332.5 36.39375Q331.17188 34.9875 331.17188 32.3625ZM332.96875 32.3625Q332.96875 34.3625 333.82812 35.346874Q334.70312 36.33125 336.03125 36.33125Q337.34375 36.33125 338.20312 35.346874Q339.07812 34.346874 339.07812 32.3Q339.07812 30.378124 338.20312 29.39375Q337.32812 28.39375 336.03125 28.39375Q334.70312 28.39375 333.82812 29.39375Q332.96875 30.378124 332.96875 32.3625ZM342.8125 37.55L342.8125 27.175L344.40625 27.175L344.40625 28.659374Q345.54688 26.940624 347.70312 26.940624Q348.64062 26.940624 349.42188 27.284374Q350.21875 27.6125 350.60938 28.159374Q351.0 28.70625 351.15625 29.45625Q351.25 29.95625 351.25 31.175L351.25 37.55L349.48438 37.55L349.48438 31.2375Q349.48438 30.159374 349.28125 29.628124Q349.07812 29.096874 348.54688 28.784374Q348.03125 28.471874 347.32812 28.471874Q346.20312 28.471874 345.39062 29.190624Q344.57812 29.89375 344.57812 31.878124L344.57812 37.55L342.8125 37.55ZM362.6875 37.55L362.6875 24.925L357.96875 24.925L357.96875 23.2375L369.3125 23.2375L369.3125 24.925L364.57812 24.925L364.57812 37.55L362.6875 37.55ZM370.82812 25.253124L370.82812 23.2375L372.59375 23.2375L372.59375 25.253124L370.82812 25.253124ZM370.82812 37.55L370.82812 27.175L372.59375 27.175L372.59375 37.55L370.82812 37.55ZM374.8125 37.55L374.8125 27.175L376.39062 27.175L376.39062 28.628124Q376.875 27.878124 377.6875 27.409374Q378.5 26.940624 379.53125 26.940624Q380.6875 26.940624 381.42188 27.425Q382.15625 27.89375 382.46875 28.753124Q383.70312 26.940624 385.67188 26.940624Q387.21875 26.940624 388.04688 27.8Q388.875 28.659374 388.875 30.425L388.875 37.55L387.125 37.55L387.125 31.01875Q387.125 29.95625 386.95312 29.503124Q386.78125 29.034374 386.32812 28.753124Q385.89062 28.471874 385.28125 28.471874Q384.1875 28.471874 383.45312 29.20625Q382.73438 29.925 382.73438 31.51875L382.73438 37.55L380.98438 37.55L380.98438 30.815624Q380.98438 29.64375 380.54688 29.065624Q380.125 28.471874 379.14062 28.471874Q378.40625 28.471874 377.76562 28.8625Q377.14062 29.253124 376.85938 30.003124Q376.57812 30.753124 376.57812 32.175L376.57812 37.55L374.8125 37.55ZM397.92188 34.20625L399.73438 34.440624Q399.3125 36.01875 398.14062 36.909374Q396.98438 37.784374 395.17188 37.784374Q392.90625 37.784374 391.5625 36.39375Q390.23438 34.9875 390.23438 32.45625Q390.23438 29.83125 391.57812 28.39375Q392.92188 26.940624 395.07812 26.940624Q397.15625 26.940624 398.46875 28.3625Q399.79688 29.76875 399.79688 32.346874Q399.79688 32.503124 399.78125 32.815624L392.04688 32.815624Q392.14062 34.51875 393.01562 35.425Q393.89062 36.33125 395.1875 36.33125Q396.15625 36.33125 396.82812 35.83125Q397.51562 35.315624 397.92188 34.20625ZM392.14062 31.3625L397.9375 31.3625Q397.82812 30.065624 397.28125 29.409374Q396.4375 28.39375 395.09375 28.39375Q393.89062 28.39375 393.0625 29.20625Q392.23438 30.003124 392.14062 31.3625Z" fill-rule="nonzero"/></svg>