<svg version="1.1" viewBox="0.0 0.0 600.0 371.0" fill="none" stroke="none" stroke-linecap="square" stroke-miterlimit="10" width="600" height="371" xmlns:xlink="http://www.w3.org/1999/xlink" xmlns="http://www.w3.org/2000/svg"><path fill="#ffffff" d="M0 0L600.0 0L600.0 371.0L0 371.0L0 0Z" fill-rule="nonzero"/><path stroke="#cccccc" stroke-width="1.0" stroke-linecap="butt" d="M94.5 300.5L581.5 300.5" fill-rule="nonzero"/><path stroke="#cccccc" stroke-width="1.0" stroke-linecap="butt" d="M94.5 263.5L581.5 263.5" fill-rule="nonzero"/><path stroke="#cccccc" stroke-width="1.0" stroke-linecap="butt" d="M94.5 227.5L581.5 227.5" fill-rule="nonzero"/><path stroke="#cccccc" stroke-width="1.0" stroke-linecap="butt" d="M94.5 190.5L581.5 190.5" fill-rule="nonzero"/><path stroke="#cccccc" stroke-width="1.0" stroke-linecap="butt" d="M94.5 153.5L581.5 153.5" fill-rule="nonzero"/><path stroke="#cccccc" stroke-width="1.0" stroke-linecap="butt" d="M94.5 117.5L581.5 117.5" fill-rule="nonzero"/><clipPath id="id_0"><path d="M94.55 88.28333L581.45 88.28333L581.45 300.45L94.55 300.45L94.55 88.28333Z" clip-rule="nonzero"/></clipPath><path stroke="#000000" stroke-width="2.0" stroke-linecap="butt" stroke-opacity="0.0" clip-path="url(#id_0)" d="M145.0 154.0L135.0 154.0L135.0 169.0C135.0 170.10457 135.89543 171.0 137.0 171.0L143.0 171.0C144.10457 171.0 145.0 170.10457 145.0 169.0Z" fill-rule="nonzero"/><path fill="#5891ad" clip-path="url(#id_0)" d="M145.0 154.0L135.0 154.0L135.0 169.0C135.0 170.10457 135.89543 171.0 137.0 171.0L143.0 171.0C144.10457 171.0 145.0 170.10457 145.0 169.0Z" fill-rule="nonzero"/><path stroke="#000000" stroke-width="2.0" stroke-linecap="butt" stroke-opacity="0.0" clip-path="url(#id_0)" d="M257.0 154.0L247.0 154.0L247.0 138.0C247.0 136.89543 247.89543 136.0 249.0 136.0L255.0 136.0C256.10458 136.0 257.0 136.89543 257.0 138.0Z" fill-rule="nonzero"/><path fill="#5891ad" clip-path="url(#id_0)" d="M257.0 154.0L247.0 154.0L247.0 138.0C247.0 136.89543 247.89543 136.0 249.0 136.0L255.0 136.0C256.10458 136.0 257.0 136.89543 257.0 138.0Z" fill-rule="nonzero"/><path stroke="#000000" stroke-width="2.0" stroke-linecap="butt" stroke-opacity="0.0" clip-path="url(#id_0)" d="M369.0 154.0L359.0 154.0L359.0 91.0C359.0 89.89543 359.89542 89.0 361.0 89.0L367.0 89.0C368.10458 89.0 369.0 89.89543 369.0 91.0Z" fill-rule="nonzero"/><path fill="#5891ad" clip-path="url(#id_0)" d="M369.0 154.0L359.0 154.0L359.0 91.0C359.0 89.89543 359.89542 89.0 361.0 89.0L367.0 89.0C368.10458 89.0 369.0 89.89543 369.0 91.0Z" fill-rule="nonzero"/><path stroke="#000000" stroke-width="2.0" stroke-linecap="butt" stroke-opacity="0.0" clip-path="url(#id_0)" d="M481.0 154.0L471.0 154.0L471.0 90.0C471.0 88.89543 471.89542 88.0 473.0 88.0L479.0 88.0C480.10458 88.0 481.0 88.89543 481.0 90.0Z" fill-rule="nonzero"/><path fill="#5891ad" clip-path="url(#id_0)" d="M481.0 154.0L471.0 154.0L471.0 90.0C471.0 88.89543 471.89542 88.0 473.0 88.0L479.0 88.0C480.10458 88.0 481.0 88.89543 481.0 90.0Z" fill-rule="nonzero"/><path stroke="#000000" stroke-width="2.0" stroke-linecap="butt" stroke-opacity="0.0" clip-path="url(#id_0)" d="M157.0 154.0L147.0 154.0L147.0 298.0C147.0 299.10458 147.89543 300.0 149.0 300.0L155.0 300.0C156.10457 300.0 157.0 299.10458 157.0 298.0Z" fill-rule="nonzero"/><path fill="#004561" clip-path="url(#id_0)" d="M157.0 154.0L147.0 154.0L147.0 298.0C147.0 299.10458 147.89543 300.0 149.0 300.0L155.0 300.0C156.10457 300.0 157.0 299.10458 157.0 298.0Z" fill-rule="nonzero"/><path stroke="#000000" stroke-width="2.0" stroke-linecap="butt" stroke-opacity="0.0" clip-path="url(#id_0)" d="M269.0 154.0L259.0 154.0L259.0 290.0C259.0 291.10458 259.89542 292.0 261.0 292.0L267.0 292.0C268.10458 292.0 269.0 291.10458 269.0 290.0Z" fill-rule="nonzero"/><path fill="#004561" clip-path="url(#id_0)" d="M269.0 154.0L259.0 154.0L259.0 290.0C259.0 291.10458 259.89542 292.0 261.0 292.0L267.0 292.0C268.10458 292.0 269.0 291.10458 269.0 290.0Z" fill-rule="nonzero"/><path stroke="#000000" stroke-width="2.0" stroke-linecap="butt" stroke-opacity="0.0" clip-path="url(#id_0)" d="M381.0 154.0L371.0 154.0L371.0 147.0C371.0 145.89543 371.89542 145.0 373.0 145.0L379.0 145.0C380.10458 145.0 381.0 145.89543 381.0 147.0Z" fill-rule="nonzero"/><path fill="#004561" clip-path="url(#id_0)" d="M381.0 154.0L371.0 154.0L371.0 147.0C371.0 145.89543 371.89542 145.0 373.0 145.0L379.0 145.0C380.10458 145.0 381.0 145.89543 381.0 147.0Z" fill-rule="nonzero"/><path stroke="#000000" stroke-width="2.0" stroke-linecap="butt" stroke-opacity="0.0" clip-path="url(#id_0)" d="M493.0 154.0L483.0 154.0L483.0 116.0C483.0 114.89543 483.89542 114.0 485.0 114.0L491.0 114.0C492.10458 114.0 493.0 114.89543 493.0 116.0Z" fill-rule="nonzero"/><path fill="#004561" clip-path="url(#id_0)" d="M493.0 154.0L483.0 154.0L483.0 116.0C483.0 114.89543 483.89542 114.0 485.0 114.0L491.0 114.0C492.10458 114.0 493.0 114.89543 493.0 116.0Z" fill-rule="nonzero"/><path stroke="#000000" stroke-width="2.0" stroke-linecap="butt" stroke-opacity="0.0" clip-path="url(#id_0)" d="M169.0 154.0L159.0 154.0L159.0 258.0C159.0 259.10458 159.89543 260.0 161.0 260.0L167.0 260.0C168.10457 260.0 169.0 259.10458 169.0 258.0Z" fill-rule="nonzero"/><path fill="#ff6f31" clip-path="url(#id_0)" d="M169.0 154.0L159.0 154.0L159.0 258.0C159.0 259.10458 159.89543 260.0 161.0 260.0L167.0 260.0C168.10457 260.0 169.0 259.10458 169.0 258.0Z" fill-rule="nonzero"/><path stroke="#000000" stroke-width="2.0" stroke-linecap="butt" stroke-opacity="0.0" clip-path="url(#id_0)" d="M281.0 154.0L271.0 154.0L271.0 234.0C271.0 235.10457 271.89542 236.0 273.0 236.0L279.0 236.0C280.10458 236.0 281.0 235.10457 281.0 234.0Z" fill-rule="nonzero"/><path fill="#ff6f31" clip-path="url(#id_0)" d="M281.0 154.0L271.0 154.0L271.0 234.0C271.0 235.10457 271.89542 236.0 273.0 236.0L279.0 236.0C280.10458 236.0 281.0 235.10457 281.0 234.0Z" fill-rule="nonzero"/><path stroke="#000000" stroke-width="2.0" stroke-linecap="butt" stroke-opacity="0.0" clip-path="url(#id_0)" d="M393.0 154.0L383.0 154.0L383.0 193.0C383.0 194.10457 383.89542 195.0 385.0 195.0L391.0 195.0C392.10458 195.0 393.0 194.10457 393.0 193.0Z" fill-rule="nonzero"/><path fill="#ff6f31" clip-path="url(#id_0)" d="M393.0 154.0L383.0 154.0L383.0 193.0C383.0 194.10457 383.89542 195.0 385.0 195.0L391.0 195.0C392.10458 195.0 393.0 194.10457 393.0 193.0Z" fill-rule="nonzero"/><path stroke="#000000" stroke-width="2.0" stroke-linecap="butt" stroke-opacity="0.0" clip-path="url(#id_0)" d="M505.0 154.0L495.0 154.0L495.0 190.0C495.0 191.10457 495.89542 192.0 497.0 192.0L503.0 192.0C504.10458 192.0 505.0 191.10457 505.0 190.0Z" fill-rule="nonzero"/><path fill="#ff6f31" clip-path="url(#id_0)" d="M505.0 154.0L495.0 154.0L495.0 190.0C495.0 191.10457 495.89542 192.0 497.0 192.0L503.0 192.0C504.10458 192.0 505.0 191.10457 505.0 190.0Z" fill-rule="nonzero"/><path stroke="#000000" stroke-width="2.0" stroke-linecap="butt" stroke-opacity="0.0" clip-path="url(#id_0)" d="M181.0 154.0L171.0 154.0L171.0 280.0C171.0 281.10458 171.89543 282.0 173.0 282.0L179.0 282.0C180.10457 282.0 181.0 281.10458 181.0 280.0Z" fill-rule="nonzero"/><path fill="#1c7685" clip-path="url(#id_0)" d="M181.0 154.0L171.0 154.0L171.0 280.0C171.0 281.10458 171.89543 282.0 173.0 282.0L179.0 282.0C180.10457 282.0 181.0 281.10458 181.0 280.0Z" fill-rule="nonzero"/><path stroke="#000000" stroke-width="2.0" stroke-linecap="butt" stroke-opacity="0.0" clip-path="url(#id_0)" d="M293.0 154.0L283.0 154.0L283.0 280.0C283.0 281.10458 283.89542 282.0 285.0 282.0L291.0 282.0C292.10458 282.0 293.0 281.10458 293.0 280.0Z" fill-rule="nonzero"/><path fill="#1c7685" clip-path="url(#id_0)" d="M293.0 154.0L283.0 154.0L283.0 280.0C283.0 281.10458 283.89542 282.0 285.0 282.0L291.0 282.0C292.10458 282.0 293.0 281.10458 293.0 280.0Z" fill-rule="nonzero"/><path stroke="#000000" stroke-width="2.0" stroke-linecap="butt" stroke-opacity="0.0" clip-path="url(#id_0)" d="M405.0 154.0L395.0 154.0L395.0 275.0C395.0 276.10458 395.89542 277.0 397.0 277.0L403.0 277.0C404.10458 277.0 405.0 276.10458 405.0 275.0Z" fill-rule="nonzero"/><path fill="#1c7685" clip-path="url(#id_0)" d="M405.0 154.0L395.0 154.0L395.0 275.0C395.0 276.10458 395.89542 277.0 397.0 277.0L403.0 277.0C404.10458 277.0 405.0 276.10458 405.0 275.0Z" fill-rule="nonzero"/><path stroke="#000000" stroke-width="2.0" stroke-linecap="butt" stroke-opacity="0.0" clip-path="url(#id_0)" d="M517.0 154.0L507.0 154.0L507.0 273.0C507.0 274.10458 507.89542 275.0 509.0 275.0L515.0 275.0C516.10455 275.0 517.0 274.10458 517.0 273.0Z" fill-rule="nonzero"/><path fill="#1c7685" clip-path="url(#id_0)" d="M517.0 154.0L507.0 154.0L507.0 273.0C507.0 274.10458 507.89542 275.0 509.0 275.0L515.0 275.0C516.10455 275.0 517.0 274.10458 517.0 273.0Z" fill-rule="nonzero"/><path stroke="#000000" stroke-width="2.0" stroke-linecap="butt" stroke-opacity="0.0" clip-path="url(#id_0)" d="M193.0 154.0L183.0 154.0L183.0 281.0C183.0 282.10458 183.89543 283.0 185.0 283.0L191.0 283.0C192.10457 283.0 193.0 282.10458 193.0 281.0Z" fill-rule="nonzero"/><path fill="#0f45a8" clip-path="url(#id_0)" d="M193.0 154.0L183.0 154.0L183.0 281.0C183.0 282.10458 183.89543 283.0 185.0 283.0L191.0 283.0C192.10457 283.0 193.0 282.10458 193.0 281.0Z" fill-rule="nonzero"/><path stroke="#000000" stroke-width="2.0" stroke-linecap="butt" stroke-opacity="0.0" clip-path="url(#id_0)" d="M305.0 154.0L295.0 154.0L295.0 281.0C295.0 282.10458 295.89542 283.0 297.0 283.0L303.0 283.0C304.10458 283.0 305.0 282.10458 305.0 281.0Z" fill-rule="nonzero"/><path fill="#0f45a8" clip-path="url(#id_0)" d="M305.0 154.0L295.0 154.0L295.0 281.0C295.0 282.10458 295.89542 283.0 297.0 283.0L303.0 283.0C304.10458 283.0 305.0 282.10458 305.0 281.0Z" fill-rule="nonzero"/><path stroke="#000000" stroke-width="2.0" stroke-linecap="butt" stroke-opacity="0.0" clip-path="url(#id_0)" d="M417.0 154.0L407.0 154.0L407.0 281.0C407.0 282.10458 407.89542 283.0 409.0 283.0L415.0 283.0C416.10458 283.0 417.0 282.10458 417.0 281.0Z" fill-rule="nonzero"/><path fill="#0f45a8" clip-path="url(#id_0)" d="M417.0 154.0L407.0 154.0L407.0 281.0C407.0 282.10458 407.89542 283.0 409.0 283.0L415.0 283.0C416.10458 283.0 417.0 282.10458 417.0 281.0Z" fill-rule="nonzero"/><path stroke="#000000" stroke-width="2.0" stroke-linecap="butt" stroke-opacity="0.0" clip-path="url(#id_0)" d="M529.0 154.0L519.0 154.0L519.0 277.0C519.0 278.10458 519.89545 279.0 521.0 279.0L527.0 279.0C528.10455 279.0 529.0 278.10458 529.0 277.0Z" fill-rule="nonzero"/><path fill="#0f45a8" clip-path="url(#id_0)" d="M529.0 154.0L519.0 154.0L519.0 277.0C519.0 278.10458 519.89545 279.0 521.0 279.0L527.0 279.0C528.10455 279.0 529.0 278.10458 529.0 277.0Z" fill-rule="nonzero"/><path stroke="#000000" stroke-width="2.0" stroke-linecap="butt" stroke-opacity="0.0" clip-path="url(#id_0)" d="M205.0 154.0L195.0 154.0L195.0 224.0C195.0 225.10457 195.89543 226.0 197.0 226.0L203.0 226.0C204.10457 226.0 205.0 225.10457 205.0 224.0Z" fill-rule="nonzero"/><path fill="#4cdc8b" clip-path="url(#id_0)" d="M205.0 154.0L195.0 154.0L195.0 224.0C195.0 225.10457 195.89543 226.0 197.0 226.0L203.0 226.0C204.10457 226.0 205.0 225.10457 205.0 224.0Z" fill-rule="nonzero"/><path stroke="#000000" stroke-width="2.0" stroke-linecap="butt" stroke-opacity="0.0" clip-path="url(#id_0)" d="M317.0 154.0L307.0 154.0L307.0 187.0C307.0 188.10457 307.89542 189.0 309.0 189.0L315.0 189.0C316.10458 189.0 317.0 188.10457 317.0 187.0Z" fill-rule="nonzero"/><path fill="#4cdc8b" clip-path="url(#id_0)" d="M317.0 154.0L307.0 154.0L307.0 187.0C307.0 188.10457 307.89542 189.0 309.0 189.0L315.0 189.0C316.10458 189.0 317.0 188.10457 317.0 187.0Z" fill-rule="nonzero"/><path stroke="#000000" stroke-width="2.0" stroke-linecap="butt" stroke-opacity="0.0" clip-path="url(#id_0)" d="M429.0 154.0L419.0 154.0L419.0 134.0C419.0 132.89543 419.89542 132.0 421.0 132.0L427.0 132.0C428.10458 132.0 429.0 132.89543 429.0 134.0Z" fill-rule="nonzero"/><path fill="#4cdc8b" clip-path="url(#id_0)" d="M429.0 154.0L419.0 154.0L419.0 134.0C419.0 132.89543 419.89542 132.0 421.0 132.0L427.0 132.0C428.10458 132.0 429.0 132.89543 429.0 134.0Z" fill-rule="nonzero"/><path stroke="#000000" stroke-width="2.0" stroke-linecap="butt" stroke-opacity="0.0" clip-path="url(#id_0)" d="M541.0 154.0L531.0 154.0L531.0 133.0C531.0 131.89543 531.89545 131.0 533.0 131.0L539.0 131.0C540.10455 131.0 541.0 131.89543 541.0 133.0Z" fill-rule="nonzero"/><path fill="#4cdc8b" clip-path="url(#id_0)" d="M541.0 154.0L531.0 154.0L531.0 133.0C531.0 131.89543 531.89545 131.0 533.0 131.0L539.0 131.0C540.10455 131.0 541.0 131.89543 541.0 133.0Z" fill-rule="nonzero"/><path fill="#000000" d="M299.42188 349.45L299.42188 340.85626L302.39062 340.85626Q303.39062 340.85626 303.92188 340.98126Q304.65625 341.15314 305.17188 341.59064Q305.85938 342.16876 306.1875 343.075Q306.53125 343.96564 306.53125 345.10626Q306.53125 346.09064 306.29688 346.84064Q306.07812 347.59064 305.71875 348.09064Q305.35938 348.59064 304.92188 348.8719Q304.5 349.15314 303.90625 349.3094Q303.3125 349.45 302.53125 349.45L299.42188 349.45ZM300.5625 348.4344L302.39062 348.4344Q303.25 348.4344 303.73438 348.27814Q304.21875 348.1219 304.5 347.825Q304.90625 347.4344 305.125 346.7469Q305.35938 346.0594 305.35938 345.09064Q305.35938 343.7469 304.90625 343.02814Q304.46875 342.29376 303.84375 342.04376Q303.375 341.8719 302.375 341.8719L300.5625 341.8719L300.5625 348.4344ZM312.35938 348.6844Q311.76562 349.1844 311.21875 349.3875Q310.6875 349.59064 310.0625 349.59064Q309.03125 349.59064 308.48438 349.09064Q307.9375 348.59064 307.9375 347.8094Q307.9375 347.35626 308.14062 346.98126Q308.34375 346.59064 308.6875 346.3719Q309.03125 346.1375 309.45312 346.02814Q309.75 345.9344 310.39062 345.85626Q311.65625 345.71564 312.26562 345.4969Q312.26562 345.27814 312.26562 345.23126Q312.26562 344.575 311.96875 344.3094Q311.5625 343.96564 310.76562 343.96564Q310.03125 343.96564 309.67188 344.23126Q309.3125 344.48126 309.14062 345.1375L308.10938 344.9969Q308.25 344.34064 308.57812 343.9344Q308.90625 343.52814 309.51562 343.3094Q310.125 343.09064 310.92188 343.09064Q311.71875 343.09064 312.21875 343.27814Q312.71875 343.46564 312.95312 343.7469Q313.1875 344.02814 313.28125 344.46564Q313.32812 344.73126 313.32812 345.4344L313.32812 346.84064Q313.32812 348.3094 313.39062 348.7Q313.46875 349.09064 313.67188 349.45L312.5625 349.45Q312.40625 349.1219 312.35938 348.6844ZM312.26562 346.325Q311.6875 346.5594 310.54688 346.73126Q309.89062 346.825 309.625 346.95Q309.35938 347.0594 309.20312 347.27814Q309.0625 347.4969 309.0625 347.77814Q309.0625 348.2 309.375 348.48126Q309.70312 348.7625 310.3125 348.7625Q310.92188 348.7625 311.39062 348.4969Q311.875 348.23126 312.09375 347.7625Q312.26562 347.40314 312.26562 346.71564L312.26562 346.325ZM317.59375 348.5125L317.75 349.4344Q317.29688 349.52814 316.95312 349.52814Q316.375 349.52814 316.0625 349.35626Q315.75 349.16876 315.60938 348.8719Q315.48438 348.575 315.48438 347.6219L315.48438 344.04376L314.71875 344.04376L314.71875 343.23126L315.48438 343.23126L315.48438 341.6844L316.53125 341.0594L316.53125 343.23126L317.59375 343.23126L317.59375 344.04376L316.53125 344.04376L316.53125 347.6844Q316.53125 348.1375 316.57812 348.2625Q316.64062 348.3875 316.76562 348.46564Q316.89062 348.54376 317.125 348.54376Q317.3125 348.54376 317.59375 348.5125ZM322.35938 348.6844Q321.76562 349.1844 321.21875 349.3875Q320.6875 349.59064 320.0625 349.59064Q319.03125 349.59064 318.48438 349.09064Q317.9375 348.59064 317.9375 347.8094Q317.9375 347.35626 318.14062 346.98126Q318.34375 346.59064 318.6875 346.3719Q319.03125 346.1375 319.45312 346.02814Q319.75 345.9344 320.39062 345.85626Q321.65625 345.71564 322.26562 345.4969Q322.26562 345.27814 322.26562 345.23126Q322.26562 344.575 321.96875 344.3094Q321.5625 343.96564 320.76562 343.96564Q320.03125 343.96564 319.67188 344.23126Q319.3125 344.48126 319.14062 345.1375L318.10938 344.9969Q318.25 344.34064 318.57812 343.9344Q318.90625 343.52814 319.51562 343.3094Q320.125 343.09064 320.92188 343.09064Q321.71875 343.09064 322.21875 343.27814Q322.71875 343.46564 322.95312 343.7469Q323.1875 344.02814 323.28125 344.46564Q323.32812 344.73126 323.32812 345.4344L323.32812 346.84064Q323.32812 348.3094 323.39062 348.7Q323.46875 349.09064 323.67188 349.45L322.5625 349.45Q322.40625 349.1219 322.35938 348.6844ZM322.26562 346.325Q321.6875 346.5594 320.54688 346.73126Q319.89062 346.825 319.625 346.95Q319.35938 347.0594 319.20312 347.27814Q319.0625 347.4969 319.0625 347.77814Q319.0625 348.2 319.375 348.48126Q319.70312 348.7625 320.3125 348.7625Q320.92188 348.7625 321.39062 348.4969Q321.875 348.23126 322.09375 347.7625Q322.26562 347.40314 322.26562 346.71564L322.26562 346.325ZM326.26562 349.45L325.28125 349.45L325.28125 340.85626L326.34375 340.85626L326.34375 343.91876Q327.01562 343.09064 328.04688 343.09064Q328.625 343.09064 329.125 343.325Q329.64062 343.54376 329.96875 343.96564Q330.3125 344.3875 330.5 344.98126Q330.6875 345.575 330.6875 346.2469Q330.6875 347.84064 329.89062 348.71564Q329.09375 349.59064 328.0 349.59064Q326.89062 349.59064 326.26562 348.66876L326.26562 349.45ZM326.25 346.29376Q326.25 347.40314 326.5625 347.90314Q327.0625 348.71564 327.90625 348.71564Q328.59375 348.71564 329.09375 348.1219Q329.60938 347.52814 329.60938 346.325Q329.60938 345.10626 329.125 344.52814Q328.64062 343.95 327.95312 343.95Q327.26562 343.95 326.75 344.5594Q326.25 345.15314 326.25 346.29376ZM336.35938 348.6844Q335.76562 349.1844 335.21875 349.3875Q334.6875 349.59064 334.0625 349.59064Q333.03125 349.59064 332.48438 349.09064Q331.9375 348.59064 331.9375 347.8094Q331.9375 347.35626 332.14062 346.98126Q332.34375 346.59064 332.6875 346.3719Q333.03125 346.1375 333.45312 346.02814Q333.75 345.9344 334.39062 345.85626Q335.65625 345.71564 336.26562 345.4969Q336.26562 345.27814 336.26562 345.23126Q336.26562 344.575 335.96875 344.3094Q335.5625 343.96564 334.76562 343.96564Q334.03125 343.96564 333.67188 344.23126Q333.3125 344.48126 333.14062 345.1375L332.10938 344.9969Q332.25 344.34064 332.57812 343.9344Q332.90625 343.52814 333.51562 343.3094Q334.125 343.09064 334.92188 343.09064Q335.71875 343.09064 336.21875 343.27814Q336.71875 343.46564 336.95312 343.7469Q337.1875 344.02814 337.28125 344.46564Q337.32812 344.73126 337.32812 345.4344L337.32812 346.84064Q337.32812 348.3094 337.39062 348.7Q337.46875 349.09064 337.67188 349.45L336.5625 349.45Q336.40625 349.1219 336.35938 348.6844ZM336.26562 346.325Q335.6875 346.5594 334.54688 346.73126Q333.89062 346.825 333.625 346.95Q333.35938 347.0594 333.20312 347.27814Q333.0625 347.4969 333.0625 347.77814Q333.0625 348.2 333.375 348.48126Q333.70312 348.7625 334.3125 348.7625Q334.92188 348.7625 335.39062 348.4969Q335.875 348.23126 336.09375 347.7625Q336.26562 347.40314 336.26562 346.71564L336.26562 346.325ZM338.875 347.59064L339.90625 347.4344Q340.0 348.0594 340.39062 348.3875Q340.79688 348.71564 341.53125 348.71564Q342.25 348.71564 342.59375 348.4344Q342.95312 348.1375 342.95312 347.73126Q342.95312 347.3719 342.64062 347.16876Q342.42188 347.02814 341.5625 346.8094Q340.40625 346.5125 339.95312 346.3094Q339.51562 346.09064 339.28125 345.71564Q339.04688 345.34064 339.04688 344.8719Q339.04688 344.46564 339.23438 344.10626Q339.42188 343.7469 339.75 343.5125Q340.0 343.34064 340.42188 343.21564Q340.84375 343.09064 341.34375 343.09064Q342.0625 343.09064 342.60938 343.3094Q343.17188 343.5125 343.4375 343.8719Q343.70312 344.23126 343.79688 344.825L342.76562 344.96564Q342.70312 344.4969 342.35938 344.23126Q342.03125 343.95 341.40625 343.95Q340.6875 343.95 340.375 344.2Q340.0625 344.4344 340.0625 344.7625Q340.0625 344.96564 340.1875 345.1219Q340.32812 345.29376 340.59375 345.40314Q340.75 345.46564 341.53125 345.66876Q342.65625 345.98126 343.09375 346.16876Q343.53125 346.35626 343.78125 346.71564Q344.03125 347.075 344.03125 347.6219Q344.03125 348.15314 343.71875 348.6219Q343.42188 349.075 342.84375 349.34064Q342.26562 349.59064 341.53125 349.59064Q340.3125 349.59064 339.67188 349.09064Q339.04688 348.575 338.875 347.59064ZM350.54688 347.45L351.64062 347.575Q351.39062 348.52814 350.6875 349.0594Q349.98438 349.59064 348.90625 349.59064Q347.54688 349.59064 346.73438 348.7469Q345.9375 347.90314 345.9375 346.3875Q345.9375 344.825 346.75 343.96564Q347.5625 343.09064 348.84375 343.09064Q350.09375 343.09064 350.875 343.9344Q351.67188 344.77814 351.67188 346.325Q351.67188 346.41876 351.67188 346.60626L347.03125 346.60626Q347.09375 347.6375 347.60938 348.1844Q348.125 348.71564 348.90625 348.71564Q349.48438 348.71564 349.89062 348.41876Q350.3125 348.10626 350.54688 347.45ZM347.09375 345.7469L350.5625 345.7469Q350.5 344.95 350.17188 344.5594Q349.65625 343.95 348.85938 343.95Q348.125 343.95 347.625 344.4344Q347.14062 344.91876 347.09375 345.7469ZM355.875 347.59064L356.90625 347.4344Q357.0 348.0594 357.39062 348.3875Q357.79688 348.71564 358.53125 348.71564Q359.25 348.71564 359.59375 348.4344Q359.95312 348.1375 359.95312 347.73126Q359.95312 347.3719 359.64062 347.16876Q359.42188 347.02814 358.5625 346.8094Q357.40625 346.5125 356.95312 346.3094Q356.51562 346.09064 356.28125 345.71564Q356.04688 345.34064 356.04688 344.8719Q356.04688 344.46564 356.23438 344.10626Q356.42188 343.7469 356.75 343.5125Q357.0 343.34064 357.42188 343.21564Q357.84375 343.09064 358.34375 343.09064Q359.0625 343.09064 359.60938 343.3094Q360.17188 343.5125 360.4375 343.8719Q360.70312 344.23126 360.79688 344.825L359.76562 344.96564Q359.70312 344.4969 359.35938 344.23126Q359.03125 343.95 358.40625 343.95Q357.6875 343.95 357.375 344.2Q357.0625 344.4344 357.0625 344.7625Q357.0625 344.96564 357.1875 345.1219Q357.32812 345.29376 357.59375 345.40314Q357.75 345.46564 358.53125 345.66876Q359.65625 345.98126 360.09375 346.16876Q360.53125 346.35626 360.78125 346.71564Q361.03125 347.075 361.03125 347.6219Q361.03125 348.15314 360.71875 348.6219Q360.42188 349.075 359.84375 349.34064Q359.26562 349.59064 358.53125 349.59064Q357.3125 349.59064 356.67188 349.09064Q356.04688 348.575 355.875 347.59064ZM363.29688 342.075L363.29688 340.85626L364.35938 340.85626L364.35938 342.075L363.29688 342.075ZM363.29688 349.45L363.29688 343.23126L364.35938 343.23126L364.35938 349.45L363.29688 349.45ZM365.73438 349.45L365.73438 348.59064L369.70312 344.04376Q369.01562 344.075 368.5 344.075L365.96875 344.075L365.96875 343.23126L371.0625 343.23126L371.0625 343.91876L367.6875 347.8719L367.03125 348.59064Q367.75 348.54376 368.35938 348.54376L371.25 348.54376L371.25 349.45L365.73438 349.45ZM375.54688 347.45L376.64062 347.575Q376.39062 348.52814 375.6875 349.0594Q374.98438 349.59064 373.90625 349.59064Q372.54688 349.59064 371.73438 348.7469Q370.9375 347.90314 370.9375 346.3875Q370.9375 344.825 371.75 343.96564Q372.5625 343.09064 373.84375 343.09064Q375.09375 343.09064 375.875 343.9344Q376.67188 344.77814 376.67188 346.325Q376.67188 346.41876 376.67188 346.60626L372.03125 346.60626Q372.09375 347.6375 372.60938 348.1844Q373.125 348.71564 373.90625 348.71564Q374.48438 348.71564 374.89062 348.41876Q375.3125 348.10626 375.54688 347.45ZM372.09375 345.7469L375.5625 345.7469Q375.5 344.95 375.17188 344.5594Q374.65625 343.95 373.85938 343.95Q373.125 343.95 372.625 344.4344Q372.14062 344.91876 372.09375 345.7469Z" fill-rule="nonzero"/><path fill="#000000" d="M29.550013 280.91354L20.956263 280.91354L20.956263 274.71042L21.971888 274.71042L21.971888 279.77292L24.596888 279.77292L24.596888 275.02292L25.612513 275.02292L25.612513 279.77292L28.534388 279.77292L28.534388 274.5073L29.550013 274.5073L29.550013 280.91354ZM29.550013 273.77292L26.315638 271.5073L23.331263 273.60104L23.331263 272.28854L24.784388 271.33542Q25.206263 271.0698 25.487513 270.89792Q25.096888 270.64792 24.800013 270.42917L23.331263 269.3823L23.331263 268.11667L26.253138 270.27292L29.550013 267.96042L29.550013 269.24167L27.612513 270.52292L27.096888 270.86667L29.550013 272.5073L29.550013 273.77292ZM27.550013 263.8198L27.675013 262.72604Q28.628138 262.97604 29.159388 263.67917Q29.690638 264.3823 29.690638 265.46042Q29.690638 266.8198 28.846888 267.6323Q28.003138 268.42917 26.487513 268.42917Q24.925013 268.42917 24.065638 267.61667Q23.190638 266.80417 23.190638 265.52292Q23.190638 264.27292 24.034388 263.49167Q24.878138 262.6948 26.425013 262.6948Q26.518763 262.6948 26.706263 262.6948L26.706263 267.33542Q27.737513 267.27292 28.284388 266.7573Q28.815638 266.24167 28.815638 265.46042Q28.815638 264.8823 28.518763 264.47604Q28.206263 264.05417 27.550013 263.8198ZM25.846888 267.27292L25.846888 263.80417Q25.050013 263.86667 24.659388 264.1948Q24.050013 264.71042 24.050013 265.5073Q24.050013 266.24167 24.534388 266.74167Q25.018763 267.22604 25.846888 267.27292ZM27.268763 257.0073L27.409388 255.97604Q28.471888 256.14792 29.081263 256.85104Q29.690638 257.55417 29.690638 258.5698Q29.690638 259.85104 28.862513 260.6323Q28.018763 261.39792 26.456263 261.39792Q25.456263 261.39792 24.706263 261.0698Q23.940638 260.72604 23.565638 260.05417Q23.190638 259.36667 23.190638 258.55417Q23.190638 257.55417 23.706263 256.91354Q24.206263 256.2573 25.159388 256.0698L25.315638 257.10104Q24.690638 257.24167 24.378138 257.61667Q24.050013 257.99167 24.050013 258.52292Q24.050013 259.3198 24.628138 259.8198Q25.190638 260.3198 26.425013 260.3198Q27.690638 260.3198 28.253138 259.83542Q28.815638 259.35104 28.815638 258.58542Q28.815638 257.96042 28.440638 257.55417Q28.065638 257.1323 27.268763 257.0073ZM29.550013 250.99167L28.628138 250.99167Q29.690638 251.72604 29.690638 252.97604Q29.690638 253.52292 29.487513 254.0073Q29.268763 254.47604 28.956263 254.71042Q28.628138 254.9448 28.159388 255.03854Q27.862513 255.10104 27.175013 255.10104L23.331263 255.10104L23.331263 254.03854L26.784388 254.03854Q27.596888 254.03854 27.893763 253.97604Q28.300013 253.8823 28.550013 253.5698Q28.784388 253.24167 28.784388 252.7573Q28.784388 252.28854 28.550013 251.8823Q28.300013 251.46042 27.878138 251.28854Q27.456263 251.10104 26.659388 251.10104L23.331263 251.10104L23.331263 250.05417L29.550013 250.05417L29.550013 250.99167ZM28.612513 245.77292L29.534388 245.61667Q29.628138 246.0698 29.628138 246.41354Q29.628138 246.99167 29.456263 247.30417Q29.268763 247.61667 28.971888 247.7573Q28.675013 247.8823 27.721888 247.8823L24.143763 247.8823L24.143763 248.64792L23.331263 248.64792L23.331263 247.8823L21.784388 247.8823L21.159388 246.83542L23.331263 246.83542L23.331263 245.77292L24.143763 245.77292L24.143763 246.83542L27.784388 246.83542Q28.237513 246.83542 28.362513 246.78854Q28.487513 246.72604 28.565638 246.60104Q28.643763 246.47604 28.643763 246.24167Q28.643763 246.05417 28.612513 245.77292ZM22.175013 245.0698L20.956263 245.0698L20.956263 244.0073L22.175013 244.0073L22.175013 245.0698ZM29.550013 245.0698L23.331263 245.0698L23.331263 244.0073L29.550013 244.0073L29.550013 245.0698ZM26.440638 242.46042Q24.706263 242.46042 23.878138 241.5073Q23.190638 240.71042 23.190638 239.55417Q23.190638 238.27292 24.034388 237.46042Q24.862513 236.6323 26.346888 236.6323Q27.550013 236.6323 28.237513 236.99167Q28.925013 237.35104 29.315638 238.05417Q29.690638 238.74167 29.690638 239.55417Q29.690638 240.85104 28.862513 241.66354Q28.018763 242.46042 26.440638 242.46042ZM26.440638 241.3823Q27.628138 241.3823 28.221888 240.86667Q28.815638 240.33542 28.815638 239.55417Q28.815638 238.7573 28.221888 238.24167Q27.628138 237.72604 26.409388 237.72604Q25.253138 237.72604 24.659388 238.2573Q24.065638 238.77292 24.065638 239.55417Q24.065638 240.33542 24.659388 240.86667Q25.237513 241.3823 26.440638 241.3823ZM29.550013 235.0698L23.331263 235.0698L23.331263 234.1323L24.206263 234.1323Q23.190638 233.4448 23.190638 232.14792Q23.190638 231.58542 23.393763 231.11667Q23.596888 230.6323 23.925013 230.39792Q24.253138 230.16354 24.690638 230.0698Q24.987513 230.02292 25.721888 230.02292L29.550013 230.02292L29.550013 231.0698L25.768763 231.0698Q25.112513 231.0698 24.800013 231.1948Q24.487513 231.3198 24.300013 231.6323Q24.096888 231.9448 24.096888 232.36667Q24.096888 233.03854 24.534388 233.53854Q24.956263 234.02292 26.143763 234.02292L29.550013 234.02292L29.550013 235.0698ZM28.612513 222.77292L29.534388 222.61667Q29.628138 223.0698 29.628138 223.41354Q29.628138 223.99167 29.456263 224.30417Q29.268763 224.61667 28.971888 224.7573Q28.675013 224.8823 27.721888 224.8823L24.143763 224.8823L24.143763 225.64792L23.331263 225.64792L23.331263 224.8823L21.784388 224.8823L21.159388 223.83542L23.331263 223.83542L23.331263 222.77292L24.143763 222.77292L24.143763 223.83542L27.784388 223.83542Q28.237513 223.83542 28.362513 223.78854Q28.487513 223.72604 28.565638 223.60104Q28.643763 223.47604 28.643763 223.24167Q28.643763 223.05417 28.612513 222.77292ZM22.175013 222.0698L20.956263 222.0698L20.956263 221.0073L22.175013 221.0073L22.175013 222.0698ZM29.550013 222.0698L23.331263 222.0698L23.331263 221.0073L29.550013 221.0073L29.550013 222.0698ZM29.550013 219.0698L23.331263 219.0698L23.331263 218.1323L24.206263 218.1323Q23.737513 217.83542 23.471888 217.35104Q23.190638 216.86667 23.190638 216.24167Q23.190638 215.55417 23.471888 215.11667Q23.753138 214.66354 24.268763 214.49167Q23.190638 213.74167 23.190638 212.5698Q23.190638 211.6323 23.706263 211.14792Q24.206263 210.64792 25.284388 210.64792L29.550013 210.64792L29.550013 211.6948L25.628138 211.6948Q25.003138 211.6948 24.721888 211.80417Q24.440638 211.89792 24.268763 212.16354Q24.096888 212.42917 24.096888 212.80417Q24.096888 213.46042 24.534388 213.89792Q24.971888 214.3198 25.940638 214.3198L29.550013 214.3198L29.550013 215.3823L25.503138 215.3823Q24.800013 215.3823 24.456263 215.64792Q24.096888 215.89792 24.096888 216.47604Q24.096888 216.92917 24.331263 217.30417Q24.565638 217.67917 25.018763 217.85104Q25.471888 218.02292 26.315638 218.02292L29.550013 218.02292L29.550013 219.0698ZM27.550013 203.8198L27.675013 202.72604Q28.628138 202.97604 29.159388 203.67917Q29.690638 204.3823 29.690638 205.46042Q29.690638 206.8198 28.846888 207.6323Q28.003138 208.42917 26.487513 208.42917Q24.925013 208.42917 24.065638 207.61667Q23.190638 206.80417 23.190638 205.52292Q23.190638 204.27292 24.034388 203.49167Q24.878138 202.6948 26.425013 202.6948Q26.518763 202.6948 26.706263 202.6948L26.706263 207.33542Q27.737513 207.27292 28.284388 206.7573Q28.815638 206.24167 28.815638 205.46042Q28.815638 204.8823 28.518763 204.47604Q28.206263 204.05417 27.550013 203.8198ZM25.846888 207.27292L25.846888 203.80417Q25.050013 203.86667 24.659388 204.1948Q24.050013 204.71042 24.050013 205.5073Q24.050013 206.24167 24.534388 206.74167Q25.018763 207.22604 25.846888 207.27292ZM22.175013 198.0698L20.956263 198.0698L20.956263 197.0073L22.175013 197.0073L22.175013 198.0698ZM29.550013 198.0698L23.331263 198.0698L23.331263 197.0073L29.550013 197.0073L29.550013 198.0698ZM29.550013 195.0698L23.331263 195.0698L23.331263 194.1323L24.206263 194.1323Q23.190638 193.4448 23.190638 192.14792Q23.190638 191.58542 23.393763 191.11667Q23.596888 190.6323 23.925013 190.39792Q24.253138 190.16354 24.690638 190.0698Q24.987513 190.02292 25.721888 190.02292L29.550013 190.02292L29.550013 191.0698L25.768763 191.0698Q25.112513 191.0698 24.800013 191.1948Q24.487513 191.3198 24.300013 191.6323Q24.096888 191.9448 24.096888 192.36667Q24.096888 193.03854 24.534388 193.53854Q24.956263 194.02292 26.143763 194.02292L29.550013 194.02292L29.550013 195.0698ZM29.550013 185.10104L20.956263 185.10104L20.956263 184.03854L29.550013 184.03854L29.550013 185.10104ZM26.440638 182.46042Q24.706263 182.46042 23.878138 181.5073Q23.190638 180.71042 23.190638 179.55417Q23.190638 178.27292 24.034388 177.46042Q24.862513 176.6323 26.346888 176.6323Q27.550013 176.6323 28.237513 176.99167Q28.925013 177.35104 29.315638 178.05417Q29.690638 178.74167 29.690638 179.55417Q29.690638 180.85104 28.862513 181.66354Q28.018763 182.46042 26.440638 182.46042ZM26.440638 181.3823Q27.628138 181.3823 28.221888 180.86667Q28.815638 180.33542 28.815638 179.55417Q28.815638 178.7573 28.221888 178.24167Q27.628138 177.72604 26.409388 177.72604Q25.253138 177.72604 24.659388 178.2573Q24.065638 178.77292 24.065638 179.55417Q24.065638 180.33542 24.659388 180.86667Q25.237513 181.3823 26.440638 181.3823ZM30.065638 175.27292L30.221888 174.24167Q30.690638 174.17917 30.909388 173.8823Q31.206263 173.49167 31.206263 172.8198Q31.206263 172.08542 30.909388 171.6948Q30.612513 171.28854 30.096888 171.14792Q29.768763 171.05417 28.737513 171.0698Q29.550013 171.7573 29.550013 172.78854Q29.550013 174.0698 28.628138 174.77292Q27.690638 175.47604 26.409388 175.47604Q25.518763 175.47604 24.768763 175.16354Q24.003138 174.83542 23.596888 174.22604Q23.190638 173.61667 23.190638 172.78854Q23.190638 171.67917 24.081263 170.96042L23.331263 170.96042L23.331263 169.99167L28.706263 169.99167Q30.159388 169.99167 30.768763 170.28854Q31.378138 170.58542 31.721888 171.22604Q32.08126 171.86667 32.08126 172.80417Q32.08126 173.91354 31.581263 174.60104Q31.081263 175.28854 30.065638 175.27292ZM26.331263 174.39792Q27.550013 174.39792 28.112513 173.91354Q28.675013 173.42917 28.675013 172.6948Q28.675013 171.96042 28.112513 171.47604Q27.550013 170.97604 26.362513 170.97604Q25.221888 170.97604 24.643763 171.49167Q24.065638 171.99167 24.065638 172.71042Q24.065638 173.41354 24.643763 173.91354Q25.206263 174.39792 26.331263 174.39792ZM32.08126 166.05417Q30.971888 166.92917 29.503138 167.53854Q28.018763 168.1323 26.440638 168.1323Q25.050013 168.1323 23.768763 167.6948Q22.284388 167.16354 20.815638 166.05417L20.815638 165.30417Q22.034388 166.0073 22.550013 166.24167Q23.362513 166.60104 24.237513 166.80417Q25.331263 167.05417 26.440638 167.05417Q29.268763 167.05417 32.08126 165.30417L32.08126 166.05417ZM27.690638 164.49167L27.534388 163.46042Q28.159388 163.36667 28.487513 162.97604Q28.815638 162.5698 28.815638 161.83542Q28.815638 161.11667 28.534388 160.77292Q28.237513 160.41354 27.831263 160.41354Q27.471888 160.41354 27.268763 160.72604Q27.128138 160.9448 26.909388 161.80417Q26.612513 162.96042 26.409388 163.41354Q26.190638 163.85104 25.815638 164.08542Q25.440638 164.3198 24.971888 164.3198Q24.565638 164.3198 24.206263 164.1323Q23.846888 163.9448 23.612513 163.61667Q23.440638 163.36667 23.315638 162.9448Q23.190638 162.52292 23.190638 162.02292Q23.190638 161.30417 23.409388 160.7573Q23.612513 160.1948 23.971888 159.92917Q24.331263 159.66354 24.925013 159.5698L25.065638 160.60104Q24.596888 160.66354 24.331263 161.0073Q24.050013 161.33542 24.050013 161.96042Q24.050013 162.67917 24.300013 162.99167Q24.534388 163.30417 24.862513 163.30417Q25.065638 163.30417 25.221888 163.17917Q25.393763 163.03854 25.503138 162.77292Q25.565638 162.61667 25.768763 161.83542Q26.081263 160.71042 26.268763 160.27292Q26.456263 159.83542 26.815638 159.58542Q27.175013 159.33542 27.721888 159.33542Q28.253138 159.33542 28.721888 159.64792Q29.175013 159.9448 29.440638 160.52292Q29.690638 161.10104 29.690638 161.83542Q29.690638 163.05417 29.190638 163.6948Q28.675013 164.3198 27.690638 164.49167ZM27.550013 152.8198L27.675013 151.72604Q28.628138 151.97604 29.159388 152.67917Q29.690638 153.3823 29.690638 154.46042Q29.690638 155.8198 28.846888 156.6323Q28.003138 157.42917 26.487513 157.42917Q24.925013 157.42917 24.065638 156.61667Q23.190638 155.80417 23.190638 154.52292Q23.190638 153.27292 24.034388 152.49167Q24.878138 151.6948 26.425013 151.6948Q26.518763 151.6948 26.706263 151.6948L26.706263 156.33542Q27.737513 156.27292 28.284388 155.7573Q28.815638 155.24167 28.815638 154.46042Q28.815638 153.8823 28.518763 153.47604Q28.206263 153.05417 27.550013 152.8198ZM25.846888 156.27292L25.846888 152.80417Q25.050013 152.86667 24.659388 153.1948Q24.050013 153.71042 24.050013 154.5073Q24.050013 155.24167 24.534388 155.74167Q25.018763 156.22604 25.846888 156.27292ZM27.268763 146.0073L27.409388 144.97604Q28.471888 145.14792 29.081263 145.85104Q29.690638 146.55417 29.690638 147.5698Q29.690638 148.85104 28.862513 149.6323Q28.018763 150.39792 26.456263 150.39792Q25.456263 150.39792 24.706263 150.0698Q23.940638 149.72604 23.565638 149.05417Q23.190638 148.36667 23.190638 147.55417Q23.190638 146.55417 23.706263 145.91354Q24.206263 145.2573 25.159388 145.0698L25.315638 146.10104Q24.690638 146.24167 24.378138 146.61667Q24.050013 146.99167 24.050013 147.52292Q24.050013 148.3198 24.628138 148.8198Q25.190638 149.3198 26.425013 149.3198Q27.690638 149.3198 28.253138 148.83542Q28.815638 148.35104 28.815638 147.58542Q28.815638 146.96042 28.440638 146.55417Q28.065638 146.1323 27.268763 146.0073ZM26.440638 144.46042Q24.706263 144.46042 23.878138 143.5073Q23.190638 142.71042 23.190638 141.55417Q23.190638 140.27292 24.034388 139.46042Q24.862513 138.6323 26.346888 138.6323Q27.550013 138.6323 28.237513 138.99167Q28.925013 139.35104 29.315638 140.05417Q29.690638 140.74167 29.690638 141.55417Q29.690638 142.85104 28.862513 143.66354Q28.018763 144.46042 26.440638 144.46042ZM26.440638 143.3823Q27.628138 143.3823 28.221888 142.86667Q28.815638 142.33542 28.815638 141.55417Q28.815638 140.7573 28.221888 140.24167Q27.628138 139.72604 26.409388 139.72604Q25.253138 139.72604 24.659388 140.2573Q24.065638 140.77292 24.065638 141.55417Q24.065638 142.33542 24.659388 142.86667Q25.237513 143.3823 26.440638 143.3823ZM29.550013 137.0698L23.331263 137.0698L23.331263 136.1323L24.206263 136.1323Q23.190638 135.4448 23.190638 134.14792Q23.190638 133.58542 23.393763 133.11667Q23.596888 132.6323 23.925013 132.39792Q24.253138 132.16354 24.690638 132.0698Q24.987513 132.02292 25.721888 132.02292L29.550013 132.02292L29.550013 133.0698L25.768763 133.0698Q25.112513 133.0698 24.800013 133.1948Q24.487513 133.3198 24.300013 133.6323Q24.096888 133.9448 24.096888 134.36667Q24.096888 135.03854 24.534388 135.53854Q24.956263 136.02292 26.143763 136.02292L29.550013 136.02292L29.550013 137.0698ZM29.550013 126.03854L28.768763 126.03854Q29.690638 126.63229 29.690638 127.77292Q29.690638 128.52292 29.284388 129.14792Q28.862513 129.77292 28.128138 130.11667Q27.393763 130.46042 26.440638 130.46042Q25.518763 130.46042 24.753138 130.14792Q23.987513 129.83542 23.596888 129.21042Q23.190638 128.58542 23.190638 127.81979Q23.190638 127.25729 23.425013 126.81979Q23.659388 126.38229 24.034388 126.10104L20.956263 126.10104L20.956263 125.05417L29.550013 125.05417L29.550013 126.03854ZM26.440638 129.36667Q27.643763 129.36667 28.237513 128.86667Q28.815638 128.36667 28.815638 127.67917Q28.815638 126.99167 28.253138 126.50729Q27.690638 126.02292 26.534388 126.02292Q25.253138 126.02292 24.659388 126.52292Q24.065638 127.00729 24.065638 127.72604Q24.065638 128.42917 24.643763 128.89792Q25.206263 129.36667 26.440638 129.36667ZM32.08126 122.38229L32.08126 123.13229Q29.268763 121.38229 26.440638 121.38229Q25.346888 121.38229 24.253138 121.63229Q23.378138 121.83542 22.565638 122.19479Q22.050013 122.42917 20.815638 123.13229L20.815638 122.38229Q22.284388 121.28854 23.768763 120.75729Q25.050013 120.30417 26.440638 120.30417Q28.018763 120.30417 29.503138 120.91354Q30.971888 121.52292 32.08126 122.38229Z" fill-rule="nonzero"/><path fill="#000000" d="M51.05 300.1359Q51.05 298.60464 51.3625 297.68277Q51.675 296.74527 52.284374 296.24527Q52.909374 295.74527 53.846874 295.74527Q54.534374 295.74527 55.05 296.02652Q55.58125 296.30777 55.925 296.83902Q56.26875 297.35464 56.45625 298.10464Q56.64375 298.85464 56.64375 300.1359Q56.64375 301.65152 56.33125 302.5734Q56.034374 303.49527 55.409374 304.0109Q54.8 304.5109 53.846874 304.5109Q52.6125 304.5109 51.89375 303.62027Q51.05 302.55777 51.05 300.1359ZM52.128124 300.1359Q52.128124 302.24527 52.628124 302.9484Q53.128124 303.65152 53.846874 303.65152Q54.58125 303.65152 55.065624 302.9484Q55.565624 302.24527 55.565624 300.1359Q55.565624 298.0109 55.065624 297.3234Q54.58125 296.62027 53.83125 296.62027Q53.1125 296.62027 52.675 297.22964Q52.128124 298.0109 52.128124 300.1359ZM58.64375 304.37027L58.64375 303.16714L59.846874 303.16714L59.846874 304.37027L58.64375 304.37027ZM61.05 300.1359Q61.05 298.60464 61.3625 297.68277Q61.675 296.74527 62.284374 296.24527Q62.909374 295.74527 63.846874 295.74527Q64.53438 295.74527 65.05 296.02652Q65.58125 296.30777 65.925 296.83902Q66.26875 297.35464 66.45625 298.10464Q66.64375 298.85464 66.64375 300.1359Q66.64375 301.65152 66.33125 302.5734Q66.03438 303.49527 65.40938 304.0109Q64.8 304.5109 63.846874 304.5109Q62.6125 304.5109 61.89375 303.62027Q61.05 302.55777 61.05 300.1359ZM62.128124 300.1359Q62.128124 302.24527 62.628124 302.9484Q63.128124 303.65152 63.846874 303.65152Q64.58125 303.65152 65.06563 302.9484Q65.56563 302.24527 65.56563 300.1359Q65.56563 298.0109 65.06563 297.3234Q64.58125 296.62027 63.83125 296.62027Q63.1125 296.62027 62.675 297.22964Q62.128124 298.0109 62.128124 300.1359ZM68.05 300.1359Q68.05 298.60464 68.3625 297.68277Q68.675 296.74527 69.28438 296.24527Q69.90938 295.74527 70.84688 295.74527Q71.53438 295.74527 72.05 296.02652Q72.58125 296.30777 72.925 296.83902Q73.26875 297.35464 73.45625 298.10464Q73.64375 298.85464 73.64375 300.1359Q73.64375 301.65152 73.33125 302.5734Q73.03438 303.49527 72.40938 304.0109Q71.8 304.5109 70.84688 304.5109Q69.6125 304.5109 68.89375 303.62027Q68.05 302.55777 68.05 300.1359ZM69.12813 300.1359Q69.12813 302.24527 69.62813 302.9484Q70.12813 303.65152 70.84688 303.65152Q71.58125 303.65152 72.06563 302.9484Q72.56563 302.24527 72.56563 300.1359Q72.56563 298.0109 72.06563 297.3234Q71.58125 296.62027 70.83125 296.62027Q70.1125 296.62027 69.675 297.22964Q69.12813 298.0109 69.12813 300.1359ZM75.05 300.1359Q75.05 298.60464 75.3625 297.68277Q75.675 296.74527 76.28438 296.24527Q76.90938 295.74527 77.84688 295.74527Q78.53438 295.74527 79.05 296.02652Q79.58125 296.30777 79.925 296.83902Q80.26875 297.35464 80.45625 298.10464Q80.64375 298.85464 80.64375 300.1359Q80.64375 301.65152 80.33125 302.5734Q80.03438 303.49527 79.40938 304.0109Q78.8 304.5109 77.84688 304.5109Q76.6125 304.5109 75.89375 303.62027Q75.05 302.55777 75.05 300.1359ZM76.12813 300.1359Q76.12813 302.24527 76.62813 302.9484Q77.12813 303.65152 77.84688 303.65152Q78.58125 303.65152 79.06563 302.9484Q79.56563 302.24527 79.56563 300.1359Q79.56563 298.0109 79.06563 297.3234Q78.58125 296.62027 77.83125 296.62027Q77.1125 296.62027 76.675 297.22964Q76.12813 298.0109 76.12813 300.1359ZM86.01875 304.37027L84.97188 304.37027L84.97188 297.65152Q84.58125 298.0109 83.95625 298.3859Q83.34688 298.74527 82.8625 298.91714L82.8625 297.90152Q83.7375 297.47964 84.39375 296.90152Q85.06563 296.30777 85.34688 295.74527L86.01875 295.74527L86.01875 304.37027Z" fill-rule="nonzero"/><path fill="#000000" d="M58.05 263.51578Q58.05 261.98453 58.3625 261.06265Q58.675 260.12515 59.284374 259.62515Q59.909374 259.12515 60.846874 259.12515Q61.534374 259.12515 62.05 259.4064Q62.58125 259.68765 62.925 260.2189Q63.26875 260.73453 63.45625 261.48453Q63.64375 262.23453 63.64375 263.51578Q63.64375 265.0314 63.33125 265.95328Q63.034374 266.87515 62.409374 267.39078Q61.8 267.89078 60.846874 267.89078Q59.6125 267.89078 58.89375 267.00015Q58.05 265.93765 58.05 263.51578ZM59.128124 263.51578Q59.128124 265.62515 59.628124 266.32828Q60.128124 267.0314 60.846874 267.0314Q61.58125 267.0314 62.065624 266.32828Q62.565624 265.62515 62.565624 263.51578Q62.565624 261.39078 62.065624 260.70328Q61.58125 260.00015 60.83125 260.00015Q60.1125 260.00015 59.675 260.60953Q59.128124 261.39078 59.128124 263.51578ZM65.64375 267.75015L65.64375 266.54703L66.84688 266.54703L66.84688 267.75015L65.64375 267.75015ZM68.05 263.51578Q68.05 261.98453 68.3625 261.06265Q68.675 260.12515 69.28438 259.62515Q69.90938 259.12515 70.84688 259.12515Q71.53438 259.12515 72.05 259.4064Q72.58125 259.68765 72.925 260.2189Q73.26875 260.73453 73.45625 261.48453Q73.64375 262.23453 73.64375 263.51578Q73.64375 265.0314 73.33125 265.95328Q73.03438 266.87515 72.40938 267.39078Q71.8 267.89078 70.84688 267.89078Q69.6125 267.89078 68.89375 267.00015Q68.05 265.93765 68.05 263.51578ZM69.12813 263.51578Q69.12813 265.62515 69.62813 266.32828Q70.12813 267.0314 70.84688 267.0314Q71.58125 267.0314 72.06563 266.32828Q72.56563 265.62515 72.56563 263.51578Q72.56563 261.39078 72.06563 260.70328Q71.58125 260.00015 70.83125 260.00015Q70.1125 260.00015 69.675 260.60953Q69.12813 261.39078 69.12813 263.51578ZM75.05 263.51578Q75.05 261.98453 75.3625 261.06265Q75.675 260.12515 76.28438 259.62515Q76.90938 259.12515 77.84688 259.12515Q78.53438 259.12515 79.05 259.4064Q79.58125 259.68765 79.925 260.2189Q80.26875 260.73453 80.45625 261.48453Q80.64375 262.23453 80.64375 263.51578Q80.64375 265.0314 80.33125 265.95328Q80.03438 266.87515 79.40938 267.39078Q78.8 267.89078 77.84688 267.89078Q76.6125 267.89078 75.89375 267.00015Q75.05 265.93765 75.05 263.51578ZM76.12813 263.51578Q76.12813 265.62515 76.62813 266.32828Q77.12813 267.0314 77.84688 267.0314Q78.58125 267.0314 79.06563 266.32828Q79.56563 265.62515 79.56563 263.51578Q79.56563 261.39078 79.06563 260.70328Q78.58125 260.00015 77.83125 260.00015Q77.1125 260.00015 76.675 260.60953Q76.12813 261.39078 76.12813 263.51578ZM86.01875 267.75015L84.97188 267.75015L84.97188 261.0314Q84.58125 261.39078 83.95625 261.76578Q83.34688 262.12515 82.8625 262.29703L82.8625 261.2814Q83.7375 260.85953 84.39375 260.2814Q85.06563 259.68765 85.34688 259.12515L86.01875 259.12515L86.01875 267.75015Z" fill-rule="nonzero"/><path fill="#000000" d="M65.05 226.89563Q65.05 225.36438 65.3625 224.4425Q65.675 223.505 66.28438 223.005Q66.90938 222.505 67.84688 222.505Q68.53438 222.505 69.05 222.78625Q69.58125 223.0675 69.925 223.59875Q70.26875 224.11438 70.45625 224.86438Q70.64375 225.61438 70.64375 226.89563Q70.64375 228.41125 70.33125 229.33313Q70.03438 230.255 69.40938 230.77063Q68.8 231.27063 67.84688 231.27063Q66.6125 231.27063 65.89375 230.38Q65.05 229.3175 65.05 226.89563ZM66.12813 226.89563Q66.12813 229.005 66.62813 229.70813Q67.12813 230.41125 67.84688 230.41125Q68.58125 230.41125 69.06563 229.70813Q69.56563 229.005 69.56563 226.89563Q69.56563 224.77063 69.06563 224.08313Q68.58125 223.38 67.83125 223.38Q67.1125 223.38 66.675 223.98938Q66.12813 224.77063 66.12813 226.89563ZM72.64375 231.13L72.64375 229.92688L73.84688 229.92688L73.84688 231.13L72.64375 231.13ZM75.05 226.89563Q75.05 225.36438 75.3625 224.4425Q75.675 223.505 76.28438 223.005Q76.90938 222.505 77.84688 222.505Q78.53438 222.505 79.05 222.78625Q79.58125 223.0675 79.925 223.59875Q80.26875 224.11438 80.45625 224.86438Q80.64375 225.61438 80.64375 226.89563Q80.64375 228.41125 80.33125 229.33313Q80.03438 230.255 79.40938 230.77063Q78.8 231.27063 77.84688 231.27063Q76.6125 231.27063 75.89375 230.38Q75.05 229.3175 75.05 226.89563ZM76.12813 226.89563Q76.12813 229.005 76.62813 229.70813Q77.12813 230.41125 77.84688 230.41125Q78.58125 230.41125 79.06563 229.70813Q79.56563 229.005 79.56563 226.89563Q79.56563 224.77063 79.06563 224.08313Q78.58125 223.38 77.83125 223.38Q77.1125 223.38 76.675 223.98938Q76.12813 224.77063 76.12813 226.89563ZM86.01875 231.13L84.97188 231.13L84.97188 224.41125Q84.58125 224.77063 83.95625 225.14563Q83.34688 225.505 82.8625 225.67688L82.8625 224.66125Q83.7375 224.23938 84.39375 223.66125Q85.06563 223.0675 85.34688 222.505L86.01875 222.505L86.01875 231.13Z" fill-rule="nonzero"/><path fill="#000000" d="M72.05 190.2755Q72.05 188.74425 72.3625 187.82237Q72.675 186.88487 73.28438 186.38487Q73.90938 185.88487 74.84688 185.88487Q75.53438 185.88487 76.05 186.16612Q76.58125 186.44737 76.925 186.97862Q77.26875 187.49425 77.45625 188.24425Q77.64375 188.99425 77.64375 190.2755Q77.64375 191.79112 77.33125 192.713Q77.03438 193.63487 76.40938 194.1505Q75.8 194.6505 74.84688 194.6505Q73.6125 194.6505 72.89375 193.75987Q72.05 192.69737 72.05 190.2755ZM73.12813 190.2755Q73.12813 192.38487 73.62813 193.088Q74.12813 193.79112 74.84688 193.79112Q75.58125 193.79112 76.06563 193.088Q76.56563 192.38487 76.56563 190.2755Q76.56563 188.1505 76.06563 187.463Q75.58125 186.75987 74.83125 186.75987Q74.1125 186.75987 73.675 187.36925Q73.12813 188.1505 73.12813 190.2755ZM79.64375 194.50987L79.64375 193.30675L80.84688 193.30675L80.84688 194.50987L79.64375 194.50987ZM86.01875 194.50987L84.97188 194.50987L84.97188 187.79112Q84.58125 188.1505 83.95625 188.5255Q83.34688 188.88487 82.8625 189.05675L82.8625 188.04112Q83.7375 187.61925 84.39375 187.04112Q85.06563 186.44737 85.34688 185.88487L86.01875 185.88487L86.01875 194.50987Z" fill-rule="nonzero"/><path fill="#000000" d="M86.01875 157.88974L84.97188 157.88974L84.97188 151.17099Q84.58125 151.53036 83.95625 151.90536Q83.34688 152.26474 82.8625 152.43661L82.8625 151.42099Q83.7375 150.99911 84.39375 150.42099Q85.06563 149.82724 85.34688 149.26474L86.01875 149.26474L86.01875 157.88974Z" fill-rule="nonzero"/><path fill="#000000" d="M79.01875 121.26961L77.97188 121.26961L77.97188 114.55086Q77.58125 114.91023 76.95625 115.28523Q76.34688 115.64461 75.8625 115.81648L75.8625 114.80086Q76.7375 114.37898 77.39375 113.80086Q78.06563 113.20711 78.34688 112.64461L79.01875 112.64461L79.01875 121.26961ZM82.05 117.03523Q82.05 115.50398 82.3625 114.58211Q82.675 113.64461 83.28438 113.14461Q83.90938 112.64461 84.84688 112.64461Q85.53438 112.64461 86.05 112.92586Q86.58125 113.20711 86.925 113.73836Q87.26875 114.25398 87.45625 115.00398Q87.64375 115.75398 87.64375 117.03523Q87.64375 118.55086 87.33125 119.47273Q87.03438 120.39461 86.40938 120.91023Q85.8 121.41023 84.84688 121.41023Q83.6125 121.41023 82.89375 120.51961Q82.05 119.45711 82.05 117.03523ZM83.12813 117.03523Q83.12813 119.14461 83.62813 119.84773Q84.12813 120.55086 84.84688 120.55086Q85.58125 120.55086 86.06563 119.84773Q86.56563 119.14461 86.56563 117.03523Q86.56563 114.91023 86.06563 114.22273Q85.58125 113.51961 84.83125 113.51961Q84.1125 113.51961 83.675 114.12898Q83.12813 114.91023 83.12813 117.03523Z" fill-rule="nonzero"/><path fill="#000000" d="M153.2597 315.46564L154.27533 315.3719Q154.40033 316.09064 154.7597 316.41876Q155.1347 316.73126 155.6972 316.73126Q156.18158 316.73126 156.54095 316.5125Q156.91595 316.27814 157.15033 315.91876Q157.3847 315.54376 157.54095 314.91876Q157.6972 314.27814 157.6972 313.6219Q157.6972 313.54376 157.6972 313.40314Q157.3847 313.90314 156.83783 314.23126Q156.29095 314.54376 155.65033 314.54376Q154.5722 314.54376 153.83783 313.77814Q153.10345 312.9969 153.10345 311.73126Q153.10345 310.41876 153.86908 309.6219Q154.65033 308.825 155.80658 308.825Q156.6347 308.825 157.3222 309.27814Q158.02533 309.73126 158.3847 310.575Q158.74408 311.40314 158.74408 312.98126Q158.74408 314.6219 158.3847 315.60626Q158.04095 316.575 157.3222 317.09064Q156.61908 317.59064 155.68158 317.59064Q154.66595 317.59064 154.02533 317.04376Q153.3847 316.48126 153.2597 315.46564ZM157.5722 311.66876Q157.5722 310.7625 157.08783 310.23126Q156.61908 309.7 155.93158 309.7Q155.22845 309.7 154.6972 310.27814Q154.18158 310.84064 154.18158 311.7625Q154.18158 312.575 154.68158 313.09064Q155.18158 313.60626 155.90033 313.60626Q156.6347 313.60626 157.10345 313.09064Q157.5722 312.575 157.5722 311.66876ZM160.10345 313.21564Q160.10345 311.6844 160.41595 310.7625Q160.72845 309.825 161.33783 309.325Q161.96283 308.825 162.90033 308.825Q163.58783 308.825 164.10345 309.10626Q164.6347 309.3875 164.97845 309.91876Q165.3222 310.4344 165.5097 311.1844Q165.6972 311.9344 165.6972 313.21564Q165.6972 314.73126 165.3847 315.65314Q165.08783 316.575 164.46283 317.09064Q163.85345 317.59064 162.90033 317.59064Q161.66595 317.59064 160.9472 316.7Q160.10345 315.6375 160.10345 313.21564ZM161.18158 313.21564Q161.18158 315.325 161.68158 316.02814Q162.18158 316.73126 162.90033 316.73126Q163.6347 316.73126 164.11908 316.02814Q164.61908 315.325 164.61908 313.21564Q164.61908 311.09064 164.11908 310.40314Q163.6347 309.7 162.8847 309.7Q162.16595 309.7 161.72845 310.3094Q161.18158 311.09064 161.18158 313.21564ZM167.10345 313.21564Q167.10345 311.6844 167.41595 310.7625Q167.72845 309.825 168.33783 309.325Q168.96283 308.825 169.90033 308.825Q170.58783 308.825 171.10345 309.10626Q171.6347 309.3875 171.97845 309.91876Q172.3222 310.4344 172.5097 311.1844Q172.6972 311.9344 172.6972 313.21564Q172.6972 314.73126 172.3847 315.65314Q172.08783 316.575 171.46283 317.09064Q170.85345 317.59064 169.90033 317.59064Q168.66595 317.59064 167.9472 316.7Q167.10345 315.6375 167.10345 313.21564ZM168.18158 313.21564Q168.18158 315.325 168.68158 316.02814Q169.18158 316.73126 169.90033 316.73126Q170.6347 316.73126 171.11908 316.02814Q171.61908 315.325 171.61908 313.21564Q171.61908 311.09064 171.11908 310.40314Q170.6347 309.7 169.8847 309.7Q169.16595 309.7 168.72845 310.3094Q168.18158 311.09064 168.18158 313.21564ZM174.10345 313.21564Q174.10345 311.6844 174.41595 310.7625Q174.72845 309.825 175.33783 309.325Q175.96283 308.825 176.90033 308.825Q177.58783 308.825 178.10345 309.10626Q178.6347 309.3875 178.97845 309.91876Q179.3222 310.4344 179.5097 311.1844Q179.6972 311.9344 179.6972 313.21564Q179.6972 314.73126 179.3847 315.65314Q179.08783 316.575 178.46283 317.09064Q177.85345 317.59064 176.90033 317.59064Q175.66595 317.59064 174.9472 316.7Q174.10345 315.6375 174.10345 313.21564ZM175.18158 313.21564Q175.18158 315.325 175.68158 316.02814Q176.18158 316.73126 176.90033 316.73126Q177.6347 316.73126 178.11908 316.02814Q178.61908 315.325 178.61908 313.21564Q178.61908 311.09064 178.11908 310.40314Q177.6347 309.7 176.8847 309.7Q176.16595 309.7 175.72845 310.3094Q175.18158 311.09064 175.18158 313.21564ZM181.10345 313.21564Q181.10345 311.6844 181.41595 310.7625Q181.72845 309.825 182.33783 309.325Q182.96283 308.825 183.90033 308.825Q184.58783 308.825 185.10345 309.10626Q185.6347 309.3875 185.97845 309.91876Q186.3222 310.4344 186.5097 311.1844Q186.6972 311.9344 186.6972 313.21564Q186.6972 314.73126 186.3847 315.65314Q186.08783 316.575 185.46283 317.09064Q184.85345 317.59064 183.90033 317.59064Q182.66595 317.59064 181.9472 316.7Q181.10345 315.6375 181.10345 313.21564ZM182.18158 313.21564Q182.18158 315.325 182.68158 316.02814Q183.18158 316.73126 183.90033 316.73126Q184.6347 316.73126 185.11908 316.02814Q185.61908 315.325 185.61908 313.21564Q185.61908 311.09064 185.11908 310.40314Q184.6347 309.7 183.8847 309.7Q183.16595 309.7 182.72845 310.3094Q182.18158 311.09064 182.18158 313.21564Z" fill-rule="nonzero"/><path fill="#000000" d="M261.69073 315.46564L262.70636 315.3719Q262.83136 316.09064 263.19073 316.41876Q263.56573 316.73126 264.12823 316.73126Q264.6126 316.73126 264.972 316.5125Q265.347 316.27814 265.58136 315.91876Q265.81573 315.54376 265.972 314.91876Q266.12823 314.27814 266.12823 313.6219Q266.12823 313.54376 266.12823 313.40314Q265.81573 313.90314 265.26886 314.23126Q264.722 314.54376 264.08136 314.54376Q263.00323 314.54376 262.26886 313.77814Q261.5345 312.9969 261.5345 311.73126Q261.5345 310.41876 262.3001 309.6219Q263.08136 308.825 264.2376 308.825Q265.06573 308.825 265.75323 309.27814Q266.45636 309.73126 266.81573 310.575Q267.1751 311.40314 267.1751 312.98126Q267.1751 314.6219 266.81573 315.60626Q266.472 316.575 265.75323 317.09064Q265.0501 317.59064 264.1126 317.59064Q263.097 317.59064 262.45636 317.04376Q261.81573 316.48126 261.69073 315.46564ZM266.00323 311.66876Q266.00323 310.7625 265.51886 310.23126Q265.0501 309.7 264.3626 309.7Q263.6595 309.7 263.12823 310.27814Q262.6126 310.84064 262.6126 311.7625Q262.6126 312.575 263.1126 313.09064Q263.6126 313.60626 264.33136 313.60626Q265.06573 313.60626 265.5345 313.09064Q266.00323 312.575 266.00323 311.66876ZM268.5345 313.21564Q268.5345 311.6844 268.847 310.7625Q269.1595 309.825 269.76886 309.325Q270.39386 308.825 271.33136 308.825Q272.01886 308.825 272.5345 309.10626Q273.06573 309.3875 273.4095 309.91876Q273.75323 310.4344 273.94073 311.1844Q274.12823 311.9344 274.12823 313.21564Q274.12823 314.73126 273.81573 315.65314Q273.51886 316.575 272.89386 317.09064Q272.2845 317.59064 271.33136 317.59064Q270.097 317.59064 269.37823 316.7Q268.5345 315.6375 268.5345 313.21564ZM269.6126 313.21564Q269.6126 315.325 270.1126 316.02814Q270.6126 316.73126 271.33136 316.73126Q272.06573 316.73126 272.5501 316.02814Q273.0501 315.325 273.0501 313.21564Q273.0501 311.09064 272.5501 310.40314Q272.06573 309.7 271.31573 309.7Q270.597 309.7 270.1595 310.3094Q269.6126 311.09064 269.6126 313.21564ZM275.5345 313.21564Q275.5345 311.6844 275.847 310.7625Q276.1595 309.825 276.76886 309.325Q277.39386 308.825 278.33136 308.825Q279.01886 308.825 279.5345 309.10626Q280.06573 309.3875 280.4095 309.91876Q280.75323 310.4344 280.94073 311.1844Q281.12823 311.9344 281.12823 313.21564Q281.12823 314.73126 280.81573 315.65314Q280.51886 316.575 279.89386 317.09064Q279.2845 317.59064 278.33136 317.59064Q277.097 317.59064 276.37823 316.7Q275.5345 315.6375 275.5345 313.21564ZM276.6126 313.21564Q276.6126 315.325 277.1126 316.02814Q277.6126 316.73126 278.33136 316.73126Q279.06573 316.73126 279.5501 316.02814Q280.0501 315.325 280.0501 313.21564Q280.0501 311.09064 279.5501 310.40314Q279.06573 309.7 278.31573 309.7Q277.597 309.7 277.1595 310.3094Q276.6126 311.09064 276.6126 313.21564ZM282.5345 313.21564Q282.5345 311.6844 282.847 310.7625Q283.1595 309.825 283.76886 309.325Q284.39386 308.825 285.33136 308.825Q286.01886 308.825 286.5345 309.10626Q287.06573 309.3875 287.4095 309.91876Q287.75323 310.4344 287.94073 311.1844Q288.12823 311.9344 288.12823 313.21564Q288.12823 314.73126 287.81573 315.65314Q287.51886 316.575 286.89386 317.09064Q286.2845 317.59064 285.33136 317.59064Q284.097 317.59064 283.37823 316.7Q282.5345 315.6375 282.5345 313.21564ZM283.6126 313.21564Q283.6126 315.325 284.1126 316.02814Q284.6126 316.73126 285.33136 316.73126Q286.06573 316.73126 286.5501 316.02814Q287.0501 315.325 287.0501 313.21564Q287.0501 311.09064 286.5501 310.40314Q286.06573 309.7 285.31573 309.7Q284.597 309.7 284.1595 310.3094Q283.6126 311.09064 283.6126 313.21564ZM289.5345 313.21564Q289.5345 311.6844 289.847 310.7625Q290.1595 309.825 290.76886 309.325Q291.39386 308.825 292.33136 308.825Q293.01886 308.825 293.5345 309.10626Q294.06573 309.3875 294.4095 309.91876Q294.75323 310.4344 294.94073 311.1844Q295.12823 311.9344 295.12823 313.21564Q295.12823 314.73126 294.81573 315.65314Q294.51886 316.575 293.89386 317.09064Q293.2845 317.59064 292.33136 317.59064Q291.097 317.59064 290.37823 316.7Q289.5345 315.6375 289.5345 313.21564ZM290.6126 313.21564Q290.6126 315.325 291.1126 316.02814Q291.6126 316.73126 292.33136 316.73126Q293.06573 316.73126 293.5501 316.02814Q294.0501 315.325 294.0501 313.21564Q294.0501 311.09064 293.5501 310.40314Q293.06573 309.7 292.31573 309.7Q291.597 309.7 291.1595 310.3094Q290.6126 311.09064 290.6126 313.21564ZM296.5345 313.21564Q296.5345 311.6844 296.847 310.7625Q297.1595 309.825 297.76886 309.325Q298.39386 308.825 299.33136 308.825Q300.01886 308.825 300.5345 309.10626Q301.06573 309.3875 301.4095 309.91876Q301.75323 310.4344 301.94073 311.1844Q302.12823 311.9344 302.12823 313.21564Q302.12823 314.73126 301.81573 315.65314Q301.51886 316.575 300.89386 317.09064Q300.2845 317.59064 299.33136 317.59064Q298.097 317.59064 297.37823 316.7Q296.5345 315.6375 296.5345 313.21564ZM297.6126 313.21564Q297.6126 315.325 298.1126 316.02814Q298.6126 316.73126 299.33136 316.73126Q300.06573 316.73126 300.5501 316.02814Q301.0501 315.325 301.0501 313.21564Q301.0501 311.09064 300.5501 310.40314Q300.06573 309.7 299.31573 309.7Q298.597 309.7 298.1595 310.3094Q297.6126 311.09064 297.6126 313.21564Z" fill-rule="nonzero"/><path fill="#000000" d="M370.12177 315.46564L371.1374 315.3719Q371.2624 316.09064 371.62177 316.41876Q371.99677 316.73126 372.55927 316.73126Q373.04364 316.73126 373.403 316.5125Q373.778 316.27814 374.0124 315.91876Q374.24677 315.54376 374.403 314.91876Q374.55927 314.27814 374.55927 313.6219Q374.55927 313.54376 374.55927 313.40314Q374.24677 313.90314 373.6999 314.23126Q373.153 314.54376 372.5124 314.54376Q371.43427 314.54376 370.6999 313.77814Q369.9655 312.9969 369.9655 311.73126Q369.9655 310.41876 370.73114 309.6219Q371.5124 308.825 372.66864 308.825Q373.49677 308.825 374.18427 309.27814Q374.8874 309.73126 375.24677 310.575Q375.60614 311.40314 375.60614 312.98126Q375.60614 314.6219 375.24677 315.60626Q374.903 316.575 374.18427 317.09064Q373.48114 317.59064 372.54364 317.59064Q371.528 317.59064 370.8874 317.04376Q370.24677 316.48126 370.12177 315.46564ZM374.43427 311.66876Q374.43427 310.7625 373.9499 310.23126Q373.48114 309.7 372.79364 309.7Q372.0905 309.7 371.55927 310.27814Q371.04364 310.84064 371.04364 311.7625Q371.04364 312.575 371.54364 313.09064Q372.04364 313.60626 372.7624 313.60626Q373.49677 313.60626 373.9655 313.09064Q374.43427 312.575 374.43427 311.66876ZM376.9655 313.21564Q376.9655 311.6844 377.278 310.7625Q377.5905 309.825 378.1999 309.325Q378.8249 308.825 379.7624 308.825Q380.4499 308.825 380.9655 309.10626Q381.49677 309.3875 381.8405 309.91876Q382.18427 310.4344 382.37177 311.1844Q382.55927 311.9344 382.55927 313.21564Q382.55927 314.73126 382.24677 315.65314Q381.9499 316.575 381.3249 317.09064Q380.7155 317.59064 379.7624 317.59064Q378.528 317.59064 377.80927 316.7Q376.9655 315.6375 376.9655 313.21564ZM378.04364 313.21564Q378.04364 315.325 378.54364 316.02814Q379.04364 316.73126 379.7624 316.73126Q380.49677 316.73126 380.98114 316.02814Q381.48114 315.325 381.48114 313.21564Q381.48114 311.09064 380.98114 310.40314Q380.49677 309.7 379.74677 309.7Q379.028 309.7 378.5905 310.3094Q378.04364 311.09064 378.04364 313.21564ZM383.9655 313.21564Q383.9655 311.6844 384.278 310.7625Q384.5905 309.825 385.1999 309.325Q385.8249 308.825 386.7624 308.825Q387.4499 308.825 387.9655 309.10626Q388.49677 309.3875 388.8405 309.91876Q389.18427 310.4344 389.37177 311.1844Q389.55927 311.9344 389.55927 313.21564Q389.55927 314.73126 389.24677 315.65314Q388.9499 316.575 388.3249 317.09064Q387.7155 317.59064 386.7624 317.59064Q385.528 317.59064 384.80927 316.7Q383.9655 315.6375 383.9655 313.21564ZM385.04364 313.21564Q385.04364 315.325 385.54364 316.02814Q386.04364 316.73126 386.7624 316.73126Q387.49677 316.73126 387.98114 316.02814Q388.48114 315.325 388.48114 313.21564Q388.48114 311.09064 387.98114 310.40314Q387.49677 309.7 386.74677 309.7Q386.028 309.7 385.5905 310.3094Q385.04364 311.09064 385.04364 313.21564ZM390.9655 313.21564Q390.9655 311.6844 391.278 310.7625Q391.5905 309.825 392.1999 309.325Q392.8249 308.825 393.7624 308.825Q394.4499 308.825 394.9655 309.10626Q395.49677 309.3875 395.8405 309.91876Q396.18427 310.4344 396.37177 311.1844Q396.55927 311.9344 396.55927 313.21564Q396.55927 314.73126 396.24677 315.65314Q395.9499 316.575 395.3249 317.09064Q394.7155 317.59064 393.7624 317.59064Q392.528 317.59064 391.80927 316.7Q390.9655 315.6375 390.9655 313.21564ZM392.04364 313.21564Q392.04364 315.325 392.54364 316.02814Q393.04364 316.73126 393.7624 316.73126Q394.49677 316.73126 394.98114 316.02814Q395.48114 315.325 395.48114 313.21564Q395.48114 311.09064 394.98114 310.40314Q394.49677 309.7 393.74677 309.7Q393.028 309.7 392.5905 310.3094Q392.04364 311.09064 392.04364 313.21564ZM397.9655 313.21564Q397.9655 311.6844 398.278 310.7625Q398.5905 309.825 399.1999 309.325Q399.8249 308.825 400.7624 308.825Q401.4499 308.825 401.9655 309.10626Q402.49677 309.3875 402.8405 309.91876Q403.18427 310.4344 403.37177 311.1844Q403.55927 311.9344 403.55927 313.21564Q403.55927 314.73126 403.24677 315.65314Q402.9499 316.575 402.3249 317.09064Q401.7155 317.59064 400.7624 317.59064Q399.528 317.59064 398.80927 316.7Q397.9655 315.6375 397.9655 313.21564ZM399.04364 313.21564Q399.04364 315.325 399.54364 316.02814Q400.04364 316.73126 400.7624 316.73126Q401.49677 316.73126 401.98114 316.02814Q402.48114 315.325 402.48114 313.21564Q402.48114 311.09064 401.98114 310.40314Q401.49677 309.7 400.74677 309.7Q400.028 309.7 399.5905 310.3094Q399.04364 311.09064 399.04364 313.21564ZM404.9655 313.21564Q404.9655 311.6844 405.278 310.7625Q405.5905 309.825 406.1999 309.325Q406.8249 308.825 407.7624 308.825Q408.4499 308.825 408.9655 309.10626Q409.49677 309.3875 409.8405 309.91876Q410.18427 310.4344 410.37177 311.1844Q410.55927 311.9344 410.55927 313.21564Q410.55927 314.73126 410.24677 315.65314Q409.9499 316.575 409.3249 317.09064Q408.7155 317.59064 407.7624 317.59064Q406.528 317.59064 405.80927 316.7Q404.9655 315.6375 404.9655 313.21564ZM406.04364 313.21564Q406.04364 315.325 406.54364 316.02814Q407.04364 316.73126 407.7624 316.73126Q408.49677 316.73126 408.98114 316.02814Q409.48114 315.325 409.48114 313.21564Q409.48114 311.09064 408.98114 310.40314Q408.49677 309.7 407.74677 309.7Q407.028 309.7 406.5905 310.3094Q406.04364 311.09064 406.04364 313.21564ZM411.9655 313.21564Q411.9655 311.6844 412.278 310.7625Q412.5905 309.825 413.1999 309.325Q413.8249 308.825 414.7624 308.825Q415.4499 308.825 415.9655 309.10626Q416.49677 309.3875 416.8405 309.91876Q417.18427 310.4344 417.37177 311.1844Q417.55927 311.9344 417.55927 313.21564Q417.55927 314.73126 417.24677 315.65314Q416.9499 316.575 416.3249 317.09064Q415.7155 317.59064 414.7624 317.59064Q413.528 317.59064 412.80927 316.7Q411.9655 315.6375 411.9655 313.21564ZM413.04364 313.21564Q413.04364 315.325 413.54364 316.02814Q414.04364 316.73126 414.7624 316.73126Q415.49677 316.73126 415.98114 316.02814Q416.48114 315.325 416.48114 313.21564Q416.48114 311.09064 415.98114 310.40314Q415.49677 309.7 414.74677 309.7Q414.028 309.7 413.5905 310.3094Q413.04364 311.09064 413.04364 313.21564Z" fill-rule="nonzero"/><path fill="#000000" d="M483.94342 316.4344L483.94342 317.45L478.25592 317.45Q478.25592 317.075 478.38092 316.71564Q478.59967 316.1375 479.06842 315.575Q479.5528 315.0125 480.45905 314.27814Q481.8653 313.1219 482.34967 312.45Q482.84967 311.77814 482.84967 311.1844Q482.84967 310.5594 482.39655 310.1375Q481.94342 309.7 481.22467 309.7Q480.45905 309.7 480.00592 310.15314Q479.5528 310.60626 479.53717 311.41876L478.45905 311.3094Q478.56842 310.09064 479.28717 309.46564Q480.02155 308.825 481.25592 308.825Q482.4903 308.825 483.20905 309.5125Q483.9278 310.2 483.9278 311.21564Q483.9278 311.73126 483.70905 312.23126Q483.50592 312.71564 483.00592 313.27814Q482.52155 313.825 481.39655 314.77814Q480.44342 315.575 480.16217 315.8719Q479.89655 316.15314 479.72467 316.4344L483.94342 316.4344ZM485.39655 313.21564Q485.39655 311.6844 485.70905 310.7625Q486.02155 309.825 486.63092 309.325Q487.25592 308.825 488.19342 308.825Q488.88092 308.825 489.39655 309.10626Q489.9278 309.3875 490.27155 309.91876Q490.6153 310.4344 490.8028 311.1844Q490.9903 311.9344 490.9903 313.21564Q490.9903 314.73126 490.6778 315.65314Q490.38092 316.575 489.75592 317.09064Q489.14655 317.59064 488.19342 317.59064Q486.95905 317.59064 486.2403 316.7Q485.39655 315.6375 485.39655 313.21564ZM486.47467 313.21564Q486.47467 315.325 486.97467 316.02814Q487.47467 316.73126 488.19342 316.73126Q488.9278 316.73126 489.41217 316.02814Q489.91217 315.325 489.91217 313.21564Q489.91217 311.09064 489.41217 310.40314Q488.9278 309.7 488.1778 309.7Q487.45905 309.7 487.02155 310.3094Q486.47467 311.09064 486.47467 313.21564ZM492.39655 313.21564Q492.39655 311.6844 492.70905 310.7625Q493.02155 309.825 493.63092 309.325Q494.25592 308.825 495.19342 308.825Q495.88092 308.825 496.39655 309.10626Q496.9278 309.3875 497.27155 309.91876Q497.6153 310.4344 497.8028 311.1844Q497.9903 311.9344 497.9903 313.21564Q497.9903 314.73126 497.6778 315.65314Q497.38092 316.575 496.75592 317.09064Q496.14655 317.59064 495.19342 317.59064Q493.95905 317.59064 493.2403 316.7Q492.39655 315.6375 492.39655 313.21564ZM493.47467 313.21564Q493.47467 315.325 493.97467 316.02814Q494.47467 316.73126 495.19342 316.73126Q495.9278 316.73126 496.41217 316.02814Q496.91217 315.325 496.91217 313.21564Q496.91217 311.09064 496.41217 310.40314Q495.9278 309.7 495.1778 309.7Q494.45905 309.7 494.02155 310.3094Q493.47467 311.09064 493.47467 313.21564ZM499.39655 313.21564Q499.39655 311.6844 499.70905 310.7625Q500.02155 309.825 500.63092 309.325Q501.25592 308.825 502.19342 308.825Q502.88092 308.825 503.39655 309.10626Q503.9278 309.3875 504.27155 309.91876Q504.6153 310.4344 504.8028 311.1844Q504.9903 311.9344 504.9903 313.21564Q504.9903 314.73126 504.6778 315.65314Q504.38092 316.575 503.75592 317.09064Q503.14655 317.59064 502.19342 317.59064Q500.95905 317.59064 500.2403 316.7Q499.39655 315.6375 499.39655 313.21564ZM500.47467 313.21564Q500.47467 315.325 500.97467 316.02814Q501.47467 316.73126 502.19342 316.73126Q502.9278 316.73126 503.41217 316.02814Q503.91217 315.325 503.91217 313.21564Q503.91217 311.09064 503.41217 310.40314Q502.9278 309.7 502.1778 309.7Q501.45905 309.7 501.02155 310.3094Q500.47467 311.09064 500.47467 313.21564ZM506.39655 313.21564Q506.39655 311.6844 506.70905 310.7625Q507.02155 309.825 507.63092 309.325Q508.25592 308.825 509.19342 308.825Q509.88092 308.825 510.39655 309.10626Q510.9278 309.3875 511.27155 309.91876Q511.6153 310.4344 511.8028 311.1844Q511.9903 311.9344 511.9903 313.21564Q511.9903 314.73126 511.6778 315.65314Q511.38092 316.575 510.75592 317.09064Q510.14655 317.59064 509.19342 317.59064Q507.95905 317.59064 507.2403 316.7Q506.39655 315.6375 506.39655 313.21564ZM507.47467 313.21564Q507.47467 315.325 507.97467 316.02814Q508.47467 316.73126 509.19342 316.73126Q509.9278 316.73126 510.41217 316.02814Q510.91217 315.325 510.91217 313.21564Q510.91217 311.09064 510.41217 310.40314Q509.9278 309.7 509.1778 309.7Q508.45905 309.7 508.02155 310.3094Q507.47467 311.09064 507.47467 313.21564ZM513.39655 313.21564Q513.39655 311.6844 513.70905 310.7625Q514.02155 309.825 514.6309 309.325Q515.2559 308.825 516.1934 308.825Q516.8809 308.825 517.39655 309.10626Q517.9278 309.3875 518.27155 309.91876Q518.6153 310.4344 518.8028 311.1844Q518.9903 311.9344 518.9903 313.21564Q518.9903 314.73126 518.6778 315.65314Q518.3809 316.575 517.7559 317.09064Q517.14655 317.59064 516.1934 317.59064Q514.95905 317.59064 514.2403 316.7Q513.39655 315.6375 513.39655 313.21564ZM514.4747 313.21564Q514.4747 315.325 514.9747 316.02814Q515.4747 316.73126 516.1934 316.73126Q516.9278 316.73126 517.4122 316.02814Q517.9122 315.325 517.9122 313.21564Q517.9122 311.09064 517.4122 310.40314Q516.9278 309.7 516.1778 309.7Q515.45905 309.7 515.02155 310.3094Q514.4747 311.09064 514.4747 313.21564ZM520.39655 313.21564Q520.39655 311.6844 520.70905 310.7625Q521.02155 309.825 521.6309 309.325Q522.2559 308.825 523.1934 308.825Q523.8809 308.825 524.39655 309.10626Q524.9278 309.3875 525.27155 309.91876Q525.6153 310.4344 525.8028 311.1844Q525.9903 311.9344 525.9903 313.21564Q525.9903 314.73126 525.6778 315.65314Q525.3809 316.575 524.7559 317.09064Q524.14655 317.59064 523.1934 317.59064Q521.95905 317.59064 521.2403 316.7Q520.39655 315.6375 520.39655 313.21564ZM521.4747 313.21564Q521.4747 315.325 521.9747 316.02814Q522.4747 316.73126 523.1934 316.73126Q523.9278 316.73126 524.4122 316.02814Q524.9122 315.325 524.9122 313.21564Q524.9122 311.09064 524.4122 310.40314Q523.9278 309.7 523.1778 309.7Q522.45905 309.7 522.02155 310.3094Q521.4747 311.09064 521.4747 313.21564ZM527.39655 313.21564Q527.39655 311.6844 527.70905 310.7625Q528.02155 309.825 528.6309 309.325Q529.2559 308.825 530.1934 308.825Q530.8809 308.825 531.39655 309.10626Q531.9278 309.3875 532.27155 309.91876Q532.6153 310.4344 532.8028 311.1844Q532.9903 311.9344 532.9903 313.21564Q532.9903 314.73126 532.6778 315.65314Q532.3809 316.575 531.7559 317.09064Q531.14655 317.59064 530.1934 317.59064Q528.95905 317.59064 528.2403 316.7Q527.39655 315.6375 527.39655 313.21564ZM528.4747 313.21564Q528.4747 315.325 528.9747 316.02814Q529.4747 316.73126 530.1934 316.73126Q530.9278 316.73126 531.4122 316.02814Q531.9122 315.325 531.9122 313.21564Q531.9122 311.09064 531.4122 310.40314Q530.9278 309.7 530.1778 309.7Q529.45905 309.7 529.02155 310.3094Q528.4747 311.09064 528.4747 313.21564Z" fill-rule="nonzero"/><path fill="#5891ad" d="M152.0 56.916668C152.0 56.364384 152.44771 55.916668 153.0 55.916668L163.0 55.916668C163.55229 55.916668 164.0 56.364384 164.0 56.916668L164.0 66.916664C164.0 67.46895 163.55229 67.916664 163.0 67.916664L153.0 67.916664C152.44771 67.916664 152.0 67.46895 152.0 66.916664Z" fill-rule="nonzero"/><path fill="#1a1a1a" d="M179.4375 64.99479Q180.23438 65.541664 180.89062 65.791664L180.5625 66.58854Q179.64062 66.24479 178.71875 65.52604Q177.76562 66.05729 176.60938 66.05729Q175.4375 66.05729 174.48438 65.49479Q173.54688 64.93229 173.03125 63.916664Q172.51562 62.90104 172.51562 61.61979Q172.51562 60.354164 173.03125 59.30729Q173.54688 58.260414 174.5 57.71354Q175.45312 57.166664 176.625 57.166664Q177.8125 57.166664 178.76562 57.74479Q179.73438 58.30729 180.23438 59.322914Q180.73438 60.33854 180.73438 61.61979Q180.73438 62.68229 180.40625 63.52604Q180.09375 64.36979 179.4375 64.99479ZM176.9375 63.541664Q177.92188 63.822914 178.5625 64.36979Q179.5625 63.447914 179.5625 61.61979Q179.5625 60.572914 179.20312 59.791664Q178.84375 59.010414 178.15625 58.58854Q177.48438 58.15104 176.64062 58.15104Q175.35938 58.15104 174.51562 59.02604Q173.6875 59.885414 173.6875 61.61979Q173.6875 63.291664 174.51562 64.197914Q175.34375 65.08854 176.64062 65.08854Q177.25 65.08854 177.78125 64.854164Q177.25 64.510414 176.65625 64.36979L176.9375 63.541664ZM185.46875 65.916664L184.42188 65.916664L184.42188 59.197914Q184.03125 59.55729 183.40625 59.93229Q182.79688 60.291664 182.3125 60.46354L182.3125 59.447914Q183.1875 59.02604 183.84375 58.447914Q184.51562 57.854164 184.79688 57.291664L185.46875 57.291664L185.46875 65.916664Z" fill-rule="nonzero"/><path fill="#004561" d="M204.0 56.916668C204.0 56.364384 204.44771 55.916668 205.0 55.916668L215.0 55.916668C215.55229 55.916668 216.0 56.364384 216.0 56.916668L216.0 66.916664C216.0 67.46895 215.55229 67.916664 215.0 67.916664L205.0 67.916664C204.44771 67.916664 204.0 67.46895 204.0 66.916664Z" fill-rule="nonzero"/><path fill="#1a1a1a" d="M231.4375 64.99479Q232.23438 65.541664 232.89062 65.791664L232.5625 66.58854Q231.64062 66.24479 230.71875 65.52604Q229.76562 66.05729 228.60938 66.05729Q227.4375 66.05729 226.48438 65.49479Q225.54688 64.93229 225.03125 63.916664Q224.51562 62.90104 224.51562 61.61979Q224.51562 60.354164 225.03125 59.30729Q225.54688 58.260414 226.5 57.71354Q227.45312 57.166664 228.625 57.166664Q229.8125 57.166664 230.76562 57.74479Q231.73438 58.30729 232.23438 59.322914Q232.73438 60.33854 232.73438 61.61979Q232.73438 62.68229 232.40625 63.52604Q232.09375 64.36979 231.4375 64.99479ZM228.9375 63.541664Q229.92188 63.822914 230.5625 64.36979Q231.5625 63.447914 231.5625 61.61979Q231.5625 60.572914 231.20312 59.791664Q230.84375 59.010414 230.15625 58.58854Q229.48438 58.15104 228.64062 58.15104Q227.35938 58.15104 226.51562 59.02604Q225.6875 59.885414 225.6875 61.61979Q225.6875 63.291664 226.51562 64.197914Q227.34375 65.08854 228.64062 65.08854Q229.25 65.08854 229.78125 64.854164Q229.25 64.510414 228.65625 64.36979L228.9375 63.541664ZM239.04688 64.90104L239.04688 65.916664L233.35938 65.916664Q233.35938 65.541664 233.48438 65.18229Q233.70312 64.604164 234.17188 64.041664Q234.65625 63.479164 235.5625 62.74479Q236.96875 61.58854 237.45312 60.916664Q237.95312 60.24479 237.95312 59.65104Q237.95312 59.02604 237.5 58.604164Q237.04688 58.166664 236.32812 58.166664Q235.5625 58.166664 235.10938 58.61979Q234.65625 59.072914 234.64062 59.885414L233.5625 59.77604Q233.67188 58.55729 234.39062 57.93229Q235.125 57.291664 236.35938 57.291664Q237.59375 57.291664 238.3125 57.979164Q239.03125 58.666664 239.03125 59.68229Q239.03125 60.197914 238.8125 60.697914Q238.60938 61.18229 238.10938 61.74479Q237.625 62.291664 236.5 63.24479Q235.54688 64.041664 235.26562 64.33854Q235.0 64.61979 234.82812 64.90104L239.04688 64.90104Z" fill-rule="nonzero"/><path fill="#ff6f31" d="M256.0 56.916668C256.0 56.364384 256.44772 55.916668 257.0 55.916668L267.0 55.916668C267.55228 55.916668 268.0 56.364384 268.0 56.916668L268.0 66.916664C268.0 67.46895 267.55228 67.916664 267.0 67.916664L257.0 67.916664C256.44772 67.916664 256.0 67.46895 256.0 66.916664Z" fill-rule="nonzero"/><path fill="#1a1a1a" d="M283.4375 64.99479Q284.23438 65.541664 284.89062 65.791664L284.5625 66.58854Q283.64062 66.24479 282.71875 65.52604Q281.76562 66.05729 280.60938 66.05729Q279.4375 66.05729 278.48438 65.49479Q277.54688 64.93229 277.03125 63.916664Q276.51562 62.90104 276.51562 61.61979Q276.51562 60.354164 277.03125 59.30729Q277.54688 58.260414 278.5 57.71354Q279.45312 57.166664 280.625 57.166664Q281.8125 57.166664 282.76562 57.74479Q283.73438 58.30729 284.23438 59.322914Q284.73438 60.33854 284.73438 61.61979Q284.73438 62.68229 284.40625 63.52604Q284.09375 64.36979 283.4375 64.99479ZM280.9375 63.541664Q281.92188 63.822914 282.5625 64.36979Q283.5625 63.447914 283.5625 61.61979Q283.5625 60.572914 283.20312 59.791664Q282.84375 59.010414 282.15625 58.58854Q281.48438 58.15104 280.64062 58.15104Q279.35938 58.15104 278.51562 59.02604Q277.6875 59.885414 277.6875 61.61979Q277.6875 63.291664 278.51562 64.197914Q279.34375 65.08854 280.64062 65.08854Q281.25 65.08854 281.78125 64.854164Q281.25 64.510414 280.65625 64.36979L280.9375 63.541664ZM285.5 63.65104L286.5625 63.510414Q286.73438 64.40104 287.17188 64.80729Q287.60938 65.197914 288.23438 65.197914Q288.98438 65.197914 289.5 64.68229Q290.01562 64.166664 290.01562 63.40104Q290.01562 62.68229 289.53125 62.21354Q289.0625 61.729164 288.32812 61.729164Q288.03125 61.729164 287.57812 61.854164L287.70312 60.916664Q287.8125 60.93229 287.875 60.93229Q288.54688 60.93229 289.07812 60.58854Q289.625 60.229164 289.625 59.49479Q289.625 58.916664 289.23438 58.541664Q288.84375 58.15104 288.21875 58.15104Q287.60938 58.15104 287.1875 58.541664Q286.78125 58.93229 286.67188 59.697914L285.60938 59.510414Q285.79688 58.46354 286.48438 57.885414Q287.17188 57.291664 288.1875 57.291664Q288.89062 57.291664 289.48438 57.604164Q290.07812 57.90104 290.39062 58.416664Q290.70312 58.93229 290.70312 59.52604Q290.70312 60.072914 290.40625 60.541664Q290.10938 60.99479 289.53125 61.260414Q290.28125 61.43229 290.70312 61.99479Q291.125 62.541664 291.125 63.385414Q291.125 64.510414 290.29688 65.291664Q289.48438 66.072914 288.23438 66.072914Q287.10938 66.072914 286.35938 65.40104Q285.60938 64.71354 285.5 63.65104Z" fill-rule="nonzero"/><path fill="#1c7685" d="M308.0 56.916668C308.0 56.364384 308.44772 55.916668 309.0 55.916668L319.0 55.916668C319.55228 55.916668 320.0 56.364384 320.0 56.916668L320.0 66.916664C320.0 67.46895 319.55228 67.916664 319.0 67.916664L309.0 67.916664C308.44772 67.916664 308.0 67.46895 308.0 66.916664Z" fill-rule="nonzero"/><path fill="#1a1a1a" d="M335.4375 64.99479Q336.23438 65.541664 336.89062 65.791664L336.5625 66.58854Q335.64062 66.24479 334.71875 65.52604Q333.76562 66.05729 332.60938 66.05729Q331.4375 66.05729 330.48438 65.49479Q329.54688 64.93229 329.03125 63.916664Q328.51562 62.90104 328.51562 61.61979Q328.51562 60.354164 329.03125 59.30729Q329.54688 58.260414 330.5 57.71354Q331.45312 57.166664 332.625 57.166664Q333.8125 57.166664 334.76562 57.74479Q335.73438 58.30729 336.23438 59.322914Q336.73438 60.33854 336.73438 61.61979Q336.73438 62.68229 336.40625 63.52604Q336.09375 64.36979 335.4375 64.99479ZM332.9375 63.541664Q333.92188 63.822914 334.5625 64.36979Q335.5625 63.447914 335.5625 61.61979Q335.5625 60.572914 335.20312 59.791664Q334.84375 59.010414 334.15625 58.58854Q333.48438 58.15104 332.64062 58.15104Q331.35938 58.15104 330.51562 59.02604Q329.6875 59.885414 329.6875 61.61979Q329.6875 63.291664 330.51562 64.197914Q331.34375 65.08854 332.64062 65.08854Q333.25 65.08854 333.78125 64.854164Q333.25 64.510414 332.65625 64.36979L332.9375 63.541664ZM340.875 65.916664L340.875 63.854164L337.15625 63.854164L337.15625 62.885414L341.07812 57.322914L341.9375 57.322914L341.9375 62.885414L343.09375 62.885414L343.09375 63.854164L341.9375 63.854164L341.9375 65.916664L340.875 65.916664ZM340.875 62.885414L340.875 59.02604L338.1875 62.885414L340.875 62.885414Z" fill-rule="nonzero"/><path fill="#0f45a8" d="M360.0 56.916668C360.0 56.364384 360.44772 55.916668 361.0 55.916668L371.0 55.916668C371.55228 55.916668 372.0 56.364384 372.0 56.916668L372.0 66.916664C372.0 67.46895 371.55228 67.916664 371.0 67.916664L361.0 67.916664C360.44772 67.916664 360.0 67.46895 360.0 66.916664Z" fill-rule="nonzero"/><path fill="#1a1a1a" d="M387.4375 64.99479Q388.23438 65.541664 388.89062 65.791664L388.5625 66.58854Q387.64062 66.24479 386.71875 65.52604Q385.76562 66.05729 384.60938 66.05729Q383.4375 66.05729 382.48438 65.49479Q381.54688 64.93229 381.03125 63.916664Q380.51562 62.90104 380.51562 61.61979Q380.51562 60.354164 381.03125 59.30729Q381.54688 58.260414 382.5 57.71354Q383.45312 57.166664 384.625 57.166664Q385.8125 57.166664 386.76562 57.74479Q387.73438 58.30729 388.23438 59.322914Q388.73438 60.33854 388.73438 61.61979Q388.73438 62.68229 388.40625 63.52604Q388.09375 64.36979 387.4375 64.99479ZM384.9375 63.541664Q385.92188 63.822914 386.5625 64.36979Q387.5625 63.447914 387.5625 61.61979Q387.5625 60.572914 387.20312 59.791664Q386.84375 59.010414 386.15625 58.58854Q385.48438 58.15104 384.64062 58.15104Q383.35938 58.15104 382.51562 59.02604Q381.6875 59.885414 381.6875 61.61979Q381.6875 63.291664 382.51562 64.197914Q383.34375 65.08854 384.64062 65.08854Q385.25 65.08854 385.78125 64.854164Q385.25 64.510414 384.65625 64.36979L384.9375 63.541664ZM389.5 63.666664L390.60938 63.572914Q390.73438 64.385414 391.17188 64.791664Q391.625 65.197914 392.26562 65.197914Q393.01562 65.197914 393.54688 64.61979Q394.07812 64.041664 394.07812 63.104164Q394.07812 62.197914 393.5625 61.68229Q393.0625 61.15104 392.23438 61.15104Q391.73438 61.15104 391.3125 61.385414Q390.90625 61.61979 390.67188 61.979164L389.6875 61.854164L390.51562 57.447914L394.79688 57.447914L394.79688 58.447914L391.35938 58.447914L390.90625 60.760414Q391.67188 60.21354 392.51562 60.21354Q393.64062 60.21354 394.40625 60.99479Q395.1875 61.77604 395.1875 63.010414Q395.1875 64.166664 394.51562 65.02604Q393.6875 66.05729 392.26562 66.05729Q391.09375 66.05729 390.34375 65.40104Q389.60938 64.74479 389.5 63.666664Z" fill-rule="nonzero"/><path fill="#4cdc8b" d="M412.0 56.916668C412.0 56.364384 412.44772 55.916668 413.0 55.916668L423.0 55.916668C423.55228 55.916668 424.0 56.364384 424.0 56.916668L424.0 66.916664C424.0 67.46895 423.55228 67.916664 423.0 67.916664L413.0 67.916664C412.44772 67.916664 412.0 67.46895 412.0 66.916664Z" fill-rule="nonzero"/><path fill="#1a1a1a" d="M439.4375 64.99479Q440.23438 65.541664 440.89062 65.791664L440.5625 66.58854Q439.64062 66.24479 438.71875 65.52604Q437.76562 66.05729 436.60938 66.05729Q435.4375 66.05729 434.48438 65.49479Q433.54688 64.93229 433.03125 63.916664Q432.51562 62.90104 432.51562 61.61979Q432.51562 60.354164 433.03125 59.30729Q433.54688 58.260414 434.5 57.71354Q435.45312 57.166664 436.625 57.166664Q437.8125 57.166664 438.76562 57.74479Q439.73438 58.30729 440.23438 59.322914Q440.73438 60.33854 440.73438 61.61979Q440.73438 62.68229 440.40625 63.52604Q440.09375 64.36979 439.4375 64.99479ZM436.9375 63.541664Q437.92188 63.822914 438.5625 64.36979Q439.5625 63.447914 439.5625 61.61979Q439.5625 60.572914 439.20312 59.791664Q438.84375 59.010414 438.15625 58.58854Q437.48438 58.15104 436.64062 58.15104Q435.35938 58.15104 434.51562 59.02604Q433.6875 59.885414 433.6875 61.61979Q433.6875 63.291664 434.51562 64.197914Q435.34375 65.08854 436.64062 65.08854Q437.25 65.08854 437.78125 64.854164Q437.25 64.510414 436.65625 64.36979L436.9375 63.541664ZM446.96875 59.43229L445.92188 59.510414Q445.78125 58.885414 445.53125 58.604164Q445.09375 58.15104 444.46875 58.15104Q443.96875 58.15104 443.57812 58.43229Q443.09375 58.80729 442.79688 59.510414Q442.51562 60.197914 442.5 61.479164Q442.875 60.90104 443.42188 60.61979Q443.98438 60.33854 444.59375 60.33854Q445.64062 60.33854 446.375 61.11979Q447.125 61.90104 447.125 63.11979Q447.125 63.93229 446.76562 64.635414Q446.42188 65.322914 445.8125 65.697914Q445.20312 66.05729 444.4375 66.05729Q443.10938 66.05729 442.28125 65.08854Q441.45312 64.11979 441.45312 61.90104Q441.45312 59.40104 442.375 58.27604Q443.17188 57.291664 444.53125 57.291664Q445.54688 57.291664 446.1875 57.86979Q446.84375 58.43229 446.96875 59.43229ZM442.67188 63.135414Q442.67188 63.68229 442.89062 64.18229Q443.125 64.666664 443.53125 64.93229Q443.95312 65.197914 444.42188 65.197914Q445.07812 65.197914 445.5625 64.666664Q446.04688 64.11979 446.04688 63.197914Q446.04688 62.30729 445.5625 61.791664Q445.09375 61.27604 444.375 61.27604Q443.65625 61.27604 443.15625 61.791664Q442.67188 62.30729 442.67188 63.135414Z" fill-rule="nonzero"/><path fill="#757575" d="M200.40625 32.95625L202.1875 32.8Q202.3125 33.8625 202.76562 34.55Q203.23438 35.2375 204.20312 35.675Q205.1875 36.096874 206.42188 36.096874Q207.5 36.096874 208.32812 35.784374Q209.15625 35.45625 209.5625 34.89375Q209.96875 34.33125 209.96875 33.659374Q209.96875 32.9875 209.57812 32.4875Q209.1875 31.9875 208.29688 31.64375Q207.71875 31.409374 205.73438 30.940624Q203.76562 30.471874 202.98438 30.05Q201.95312 29.51875 201.45312 28.721874Q200.95312 27.925 200.95312 26.940624Q200.95312 25.846874 201.5625 24.909374Q202.17188 23.971874 203.35938 23.4875Q204.54688 22.9875 205.98438 22.9875Q207.57812 22.9875 208.79688 23.503124Q210.01562 24.01875 210.65625 25.01875Q211.3125 26.003124 211.35938 27.26875L209.54688 27.409374Q209.40625 26.05 208.5625 25.3625Q207.71875 24.659374 206.0625 24.659374Q204.34375 24.659374 203.54688 25.3Q202.76562 25.925 202.76562 26.8Q202.76562 27.58125 203.32812 28.08125Q203.875 28.58125 206.1875 29.096874Q208.5 29.6125 209.35938 30.003124Q210.60938 30.58125 211.20312 31.471874Q211.79688 32.346874 211.79688 33.503124Q211.79688 34.64375 211.14062 35.659374Q210.48438 36.675 209.25 37.2375Q208.03125 37.8 206.5 37.8Q204.5625 37.8 203.25 37.2375Q201.9375 36.659374 201.1875 35.51875Q200.4375 34.378124 200.40625 32.95625ZM213.82812 25.253124L213.82812 23.2375L215.59375 23.2375L215.59375 25.253124L213.82812 25.253124ZM213.82812 37.55L213.82812 27.175L215.59375 27.175L215.59375 37.55L213.82812 37.55ZM216.89062 37.55L216.89062 36.128124L223.5 28.55Q222.375 28.596874 221.51562 28.596874L217.28125 28.596874L217.28125 27.175L225.76562 27.175L225.76562 28.346874L220.14062 34.925L219.0625 36.128124Q220.23438 36.034374 221.28125 36.034374L226.07812 36.034374L226.07812 37.55L216.89062 37.55ZM233.92188 34.20625L235.73438 34.440624Q235.3125 36.01875 234.14062 36.909374Q232.98438 37.784374 231.17188 37.784374Q228.90625 37.784374 227.5625 36.39375Q226.23438 34.9875 226.23438 32.45625Q226.23438 29.83125 227.57812 28.39375Q228.92188 26.940624 231.07812 26.940624Q233.15625 26.940624 234.46875 28.3625Q235.79688 29.76875 235.79688 32.346874Q235.79688 32.503124 235.78125 32.815624L228.04688 32.815624Q228.14062 34.51875 229.01562 35.425Q229.89062 36.33125 231.1875 36.33125Q232.15625 36.33125 232.82812 35.83125Q233.51562 35.315624 233.92188 34.20625ZM228.14062 31.3625L233.9375 31.3625Q233.82812 30.065624 233.28125 29.409374Q232.4375 28.39375 231.09375 28.39375Q229.89062 28.39375 229.0625 29.20625Q228.23438 30.003124 228.14062 31.3625ZM246.70312 37.55L242.75 27.175L244.60938 27.175L246.84375 33.39375Q247.20312 34.39375 247.5 35.471874Q247.73438 34.659374 248.15625 33.503124L250.45312 27.175L252.26562 27.175L248.34375 37.55L246.70312 37.55ZM252.10938 34.45625L253.85938 34.175Q254.0 35.221874 254.67188 35.784374Q255.34375 36.33125 256.54688 36.33125Q257.75 36.33125 258.32812 35.846874Q258.92188 35.346874 258.92188 34.690624Q258.92188 34.096874 258.40625 33.753124Q258.04688 33.51875 256.60938 33.159374Q254.67188 32.659374 253.92188 32.315624Q253.1875 31.95625 252.79688 31.33125Q252.40625 30.690624 252.40625 29.925Q252.40625 29.2375 252.71875 28.64375Q253.04688 28.05 253.59375 27.659374Q254.0 27.3625 254.70312 27.159374Q255.42188 26.940624 256.23438 26.940624Q257.45312 26.940624 258.375 27.3Q259.29688 27.64375 259.73438 28.253124Q260.17188 28.846874 260.34375 29.846874L258.625 30.08125Q258.5 29.284374 257.9375 28.846874Q257.375 28.39375 256.35938 28.39375Q255.14062 28.39375 254.625 28.8Q254.10938 29.190624 254.10938 29.721874Q254.10938 30.065624 254.32812 30.346874Q254.53125 30.628124 255.0 30.815624Q255.26562 30.909374 256.54688 31.253124Q258.42188 31.753124 259.15625 32.08125Q259.89062 32.39375 260.3125 33.003124Q260.73438 33.596874 260.73438 34.503124Q260.73438 35.378124 260.21875 36.159374Q259.70312 36.940624 258.73438 37.3625Q257.76562 37.784374 256.54688 37.784374Q254.53125 37.784374 253.46875 36.940624Q252.40625 36.096874 252.10938 34.45625ZM269.07812 37.55L269.07812 23.2375L279.4375 23.2375L279.4375 24.925L270.98438 24.925L270.98438 29.3L278.89062 29.3L278.89062 30.9875L270.98438 30.9875L270.98438 35.8625L279.76562 35.8625L279.76562 37.55L269.07812 37.55ZM280.64062 37.55L284.4375 32.159374L280.9375 27.175L283.125 27.175L284.71875 29.6125Q285.17188 30.3 285.4375 30.76875Q285.875 30.128124 286.23438 29.628124L287.98438 27.175L290.07812 27.175L286.5 32.065624L290.35938 37.55L288.20312 37.55L286.0625 34.33125L285.5 33.45625L282.78125 37.55L280.64062 37.55ZM297.92188 34.20625L299.73438 34.440624Q299.3125 36.01875 298.14062 36.909374Q296.98438 37.784374 295.17188 37.784374Q292.90625 37.784374 291.5625 36.39375Q290.23438 34.9875 290.23438 32.45625Q290.23438 29.83125 291.57812 28.39375Q292.92188 26.940624 295.07812 26.940624Q297.15625 26.940624 298.46875 28.3625Q299.79688 29.76875 299.79688 32.346874Q299.79688 32.503124 299.78125 32.815624L292.04688 32.815624Q292.14062 34.51875 293.01562 35.425Q293.89062 36.33125 295.1875 36.33125Q296.15625 36.33125 296.82812 35.83125Q297.51562 35.315624 297.92188 34.20625ZM292.14062 31.3625L297.9375 31.3625Q297.82812 30.065624 297.28125 29.409374Q296.4375 28.39375 295.09375 28.39375Q293.89062 28.39375 293.0625 29.20625Q292.23438 30.003124 292.14062 31.3625ZM308.59375 33.753124L310.3125 33.971874Q310.03125 35.76875 308.85938 36.784374Q307.70312 37.784374 306.0 37.784374Q303.875 37.784374 302.57812 36.39375Q301.28125 35.003124 301.28125 32.409374Q301.28125 30.721874 301.82812 29.471874Q302.39062 28.20625 303.53125 27.58125Q304.67188 26.940624 306.01562 26.940624Q307.70312 26.940624 308.76562 27.8Q309.84375 28.659374 310.15625 30.221874L308.4375 30.4875Q308.20312 29.440624 307.57812 28.925Q306.95312 28.39375 306.07812 28.39375Q304.75 28.39375 303.92188 29.346874Q303.09375 30.3 303.09375 32.346874Q303.09375 34.440624 303.89062 35.39375Q304.6875 36.33125 305.98438 36.33125Q307.01562 36.33125 307.70312 35.70625Q308.40625 35.065624 308.59375 33.753124ZM318.60938 37.55L318.60938 36.01875Q317.40625 37.784374 315.32812 37.784374Q314.40625 37.784374 313.60938 37.440624Q312.8125 37.08125 312.42188 36.55Q312.04688 36.01875 311.89062 35.2375Q311.78125 34.721874 311.78125 33.596874L311.78125 27.175L313.53125 27.175L313.53125 32.925Q313.53125 34.3 313.64062 34.784374Q313.8125 35.471874 314.34375 35.878124Q314.89062 36.26875 315.67188 36.26875Q316.46875 36.26875 317.15625 35.8625Q317.85938 35.45625 318.14062 34.76875Q318.4375 34.065624 318.4375 32.7375L318.4375 27.175L320.1875 27.175L320.1875 37.55L318.60938 37.55ZM325.65625 35.971874L325.90625 37.534374Q325.17188 37.690624 324.57812 37.690624Q323.625 37.690624 323.09375 37.39375Q322.57812 37.08125 322.35938 36.596874Q322.14062 36.096874 322.14062 34.51875L322.14062 28.55L320.85938 28.55L320.85938 27.175L322.14062 27.175L322.14062 24.6125L323.89062 23.55L323.89062 27.175L325.65625 27.175L325.65625 28.55L323.89062 28.55L323.89062 34.6125Q323.89062 35.3625 323.98438 35.58125Q324.07812 35.784374 324.28125 35.925Q324.5 36.05 324.89062 36.05Q325.17188 36.05 325.65625 35.971874ZM327.82812 25.253124L327.82812 23.2375L329.59375 23.2375L329.59375 25.253124L327.82812 25.253124ZM327.82812 37.55L327.82812 27.175L329.59375 27.175L329.59375 37.55L327.82812 37.55ZM331.17188 32.3625Q331.17188 29.4875 332.76562 28.096874Q334.10938 26.940624 336.03125 26.940624Q338.17188 26.940624 339.51562 28.346874Q340.875 29.753124 340.875 32.221874Q340.875 34.221874 340.28125 35.378124Q339.6875 36.51875 338.53125 37.159374Q337.39062 37.784374 336.03125 37.784374Q333.84375 37.784374 332.5 36.39375Q331.17188 34.9875 331.17188 32.3625ZM332.96875 32.3625Q332.96875 34.3625 333.82812 35.346874Q334.70312 36.33125 336.03125 36.33125Q337.34375 36.33125 338.20312 35.346874Q339.07812 34.346874 339.07812 32.3Q339.07812 30.378124 338.20312 29.39375Q337.32812 28.39375 336.03125 28.39375Q334.70312 28.39375 333.82812 29.39375Q332.96875 30.378124 332.96875 32.3625ZM342.8125 37.55L342.8125 27.175L344.40625 27.175L344.40625 28.659374Q345.54688 26.940624 347.70312 26.940624Q348.64062 26.940624 349.42188 27.284374Q350.21875 27.6125 350.60938 28.159374Q351.0 28.70625 351.15625 29.45625Q351.25 29.95625 351.25 31.175L351.25 37.55L349.48438 37.55L349.48438 31.2375Q349.48438 30.159374 349.28125 29.628124Q349.07812 29.096874 348.54688 28.784374Q348.03125 28.471874 347.32812 28.471874Q346.20312 28.471874 345.39062 29.190624Q344.57812 29.89375 344.57812 31.878124L344.57812 37.55L342.8125 37.55ZM362.6875 37.55L362.6875 24.925L357.96875 24.925L357.96875 23.2375L369.3125 23.2375L369.3125 24.925L364.57812 24.925L364.57812 37.55L362.6875 37.55ZM370.82812 25.253124L370.82812 23.2375L372.59375 23.2375L372.59375 25.253124L370.82812 25.253124ZM370.82812 37.55L370.82812 27.175L372.59375 27.175L372.59375 37.55L370.82812 37.55ZM374.8125 37.55L374.8125 27.175L376.39062 27.175L376.39062 28.628124Q376.875 27.878124 377.6875 27.409374Q378.5 26.940624 379.53125 26.940624Q380.6875 26.940624 381.42188 27.425Q382.15625 27.89375 382.46875 28.753124Q383.70312 26.940624 385.67188 26.940624Q387.21875 26.940624 388.04688 27.8Q388.875 28.659374 388.875 30.425L388.875 37.55L387.125 37.55L387.125 31.01875Q387.125 29.95625 386.95312 29.503124Q386.78125 29.034374 386.32812 28.753124Q385.89062 28.471874 385.28125 28.471874Q384.1875 28.471874 383.45312 29.20625Q382.73438 29.925 382.73438 31.51875L382.73438 37.55L380.98438 37.55L380.98438 30.815624Q380.98438 29.64375 380.54688 29.065624Q380.125 28.471874 379.14062 28.471874Q378.40625 28.471874 377.76562 28.8625Q377.14062 29.253124 376.85938 30.003124Q376.57812 30.753124 376.57812 32.175L376.57812 37.55L374.8125 37.55ZM397.92188 34.20625L399.73438 34.440624Q399.3125 36.01875 398.14062 36.909374Q396.98438 37.784374 395.17188 37.784374Q392.90625 37.784374 391.5625 36.39375Q390.23438 34.9875 390.23438 32.45625Q390.23438 29.83125 391.57812 28.39375Q392.92188 26.940624 395.07812 26.940624Q397.15625 26.940624 398.46875 28.3625Q399.79688 29.76875 399.79688 32.346874Q399.79688 32.503124 399.78125 32.815624L392.04688 32.815624Q392.14062 34.51875 393.01562 35.425Q393.89062 36.33125 395.1875 36.33125Q396.15625 36.33125 396.82812 35.83125Q397.51562 35.315624 397.92188 34.20625ZM392.14062 31.3625L397.9375 31.3625Q397.82812 30.065624 397.28125 29.409374Q396.4375 28.39375 395.09375 28.39375Q393.89062 28.39375 393.0625 29.20625Q392.23438 30.003124 392.14062 31.3625Z" fill-rule="nonzero"/></svg>